<svg xmlns="http://www.w3.org/2000/svg" width="328" height="271" viewBox="0 0 328 271">
  <g id="Grupo_5678" data-name="Grupo 5678" transform="translate(0 -0.087)">
    <g id="Retângulo_1673" data-name="Retângulo 1673" transform="translate(0 0.087)" fill="#fff" stroke="#d9e1e7" stroke-width="1">
      <rect width="328" height="271" rx="11" stroke="none"/>
      <rect x="0.5" y="0.5" width="327" height="270" rx="10.5" fill="none"/>
    </g>
    <text id="Contas_e_cartões_automáticos" data-name="Contas e cartões automáticos" transform="translate(159 238.087)" fill="#10182b" font-size="17" font-family="Inter-Bold, Inter" font-weight="700"><tspan x="-124" y="0">Contas e cartões automáticos</tspan></text>
    <g id="Social_media_Delivery_Business___fast_speed_account_graph_success_happy" data-name="Social media, Delivery, Business _ fast, speed, account, graph, success, happy" transform="translate(63.175 12.493)">
      <path id="Caminho_2334" data-name="Caminho 2334" d="M255.016,235.345H239.177a3.851,3.851,0,0,1-3.852-3.857v-38.08a3.849,3.849,0,0,1,3.849-3.849h26.149a3.851,3.851,0,0,1,3.864,3.849V203.68h-.994V193.409a2.857,2.857,0,0,0-2.866-2.855H239.175a2.855,2.855,0,0,0-2.855,2.855v38.08a2.857,2.857,0,0,0,2.857,2.862h15.838Z" transform="translate(-203.21 -160.712)" fill="rgba(87,21,232,0.5)"/>
      <path id="Retângulo_1701" data-name="Retângulo 1701" d="M-.04-2.25H24.108a2.212,2.212,0,0,1,2.21,2.21V4.413a2.212,2.212,0,0,1-2.21,2.21H-.04a2.212,2.212,0,0,1-2.21-2.21V-.04A2.212,2.212,0,0,1-.04-2.25ZM24.108,5.628a1.217,1.217,0,0,0,1.215-1.215V-.04a1.217,1.217,0,0,0-1.215-1.215H-.04A1.217,1.217,0,0,0-1.256-.04V4.413A1.217,1.217,0,0,0-.04,5.628Z" transform="translate(37.179 35.712)" fill="rgba(87,21,232,0.5)"/>
      <circle id="Elipse_262" data-name="Elipse 262" cx="0.814" cy="0.814" r="0.814" transform="translate(48.229 35.648)" fill="rgba(237,61,142,0.1)"/>
      <path id="Caminho_2335" data-name="Caminho 2335" d="M301.613,232.185a2.278,2.278,0,1,1,4.548,0Z" transform="translate(-254.846 -192.034)" fill="rgba(237,61,142,0.1)"/>
      <path id="Caminho_2336" data-name="Caminho 2336" d="M297.207,286.556a4.387,4.387,0,1,0,3.1,1.285A4.39,4.39,0,0,0,297.207,286.556Zm0,7.718a.65.65,0,1,1,.65-.286A.65.65,0,0,1,297.207,294.274Zm.277-2.059a19.08,19.08,0,0,0,.535-2.876c.009-.071.021-.146.034-.222.071-.431.151-.915-.285-1.164a1.087,1.087,0,0,0-1.4.271,2.267,2.267,0,0,0,.023,1.5c.031.134.059.26.078.371a16.118,16.118,0,0,0,.459,2.12.312.312,0,0,0,.552,0Z" transform="translate(-247.998 -236.275)" fill="rgba(237,61,142,0.1)"/>
      <path id="Caminho_2337" data-name="Caminho 2337" d="M284.222,263.005H262.781v-.994h21.441Z" transform="translate(-224.598 -217.154)" fill="rgba(87,21,232,0.5)"/>
      <path id="Caminho_2338" data-name="Caminho 2338" d="M284.222,272.56H262.781v-.994h21.441Z" transform="translate(-224.598 -224.598)" fill="rgba(87,21,232,0.5)"/>
      <path id="Caminho_2339" data-name="Caminho 2339" d="M284.222,334.055H262.781v-.994h21.441Z" transform="translate(-224.598 -272.504)" fill="rgba(87,21,232,0.5)"/>
      <path id="Caminho_2340" data-name="Caminho 2340" d="M296.8,343.091H285.321V342.1H296.8Z" transform="translate(-242.158 -279.543)" fill="rgba(87,21,232,0.5)"/>
      <rect id="Retângulo_1702" data-name="Retângulo 1702" width="42.775" height="66.041" rx="21.388" transform="translate(132.82 65.998)" fill="#ed3d8e"/>
      <rect id="Retângulo_1703" data-name="Retângulo 1703" width="32.794" height="66.041" rx="16.397" transform="translate(97.875 65.998)" fill="#ed3d8e"/>
      <path id="Caminho_2341" data-name="Caminho 2341" d="M515.734,443.009h75.589a4.929,4.929,0,0,0,4.927-4.925V344.256a4.924,4.924,0,0,0-4.927-4.927h-51.37l-13.426.08h-.039l-6.789.264h-.022l-1.787.069h-.158l-.132,1.063-.26,1.977a.022.022,0,0,1,0,.026l-2.114,3.131-.433.634L513.6,354.21v.037c-.026-.011-.052-.026-.084-.043a.5.5,0,0,1-.074-.052,2.515,2.515,0,0,1-.866-1.193,9.988,9.988,0,0,1-.5-3.393l-.26,5.8v.022l-.362,7.75-.089,2.081c.169-.3.411-.734.693-1.252l-.9,5.743-.186,4.138-.464,10.457-.017.39v.149l-.121,2.547v.059s-.347,7.473-.347,7.484l-.032.693-.4,3.025-1.169,8.465v30.967a4.914,4.914,0,0,0,2.56,4.312,8.871,8.871,0,0,0,4.7.635c.433-.013.866-.033,1.3-.056" transform="translate(-415.965 -277.387)" fill="#ed3d8e"/>
      <path id="Caminho_2342" data-name="Caminho 2342" d="M501.558,446.257c-.03,0-.063-.028-.1-.039a4.71,4.71,0,0,1-1.157-.606,4.781,4.781,0,0,1-2.012-3.911V400.374l-1.169.561-.074.037-.158-.392-.782-1.949-.217-.539-1.977-4.935s3.755-15.193,6.239-25.155c.91-3.658,1.65-6.611,1.962-7.852.1-.37.152-.587.162-.624a.155.155,0,0,0,0-.026.468.468,0,0,0-.032-.217,1.691,1.691,0,0,0-.111-.232.164.164,0,0,0-.022-.043,10.329,10.329,0,0,0-.866-1.252l-.411-5.1.067-.052.312-.249,2.131-1.689.5-1.312.972-2.551.433-1.137h3.159l6.891-.022h.591l13.073-.078h50.021a4.792,4.792,0,0,1,4.792,4.8V441.7a4.792,4.792,0,0,1-4.792,4.8H504.518" transform="translate(-404.658 -282.25)" fill="#ed3d8e"/>
      <path id="Caminho_2343" data-name="Caminho 2343" d="M589.548,441.753h-78.1a5.292,5.292,0,0,1-5.3-5.3V426.212h.994v10.245a4.3,4.3,0,0,0,4.3,4.3h78.1a4.432,4.432,0,0,0,4.429-4.428V342.5a4.431,4.431,0,0,0-4.43-4.429H538.179l-13.476.08-6.834.037-1.771.011-.006-.994,1.811-.011,6.847-.037,13.427-.08h51.372a5.422,5.422,0,0,1,5.424,5.424v93.829a5.422,5.422,0,0,1-5.424,5.422Z" transform="translate(-414.189 -275.634)"/>
      <rect id="Retângulo_1704" data-name="Retângulo 1704" width="77.72" height="23.684" rx="11.842" transform="translate(97.875 136.89)" fill="#fff"/>
      <rect id="Retângulo_1705" data-name="Retângulo 1705" width="47.16" height="13.474" rx="6.737" transform="translate(102.739 142.165)" fill="#ed3d8e"/>
      <circle id="Elipse_263" data-name="Elipse 263" cx="1.395" cy="1.395" r="1.395" transform="translate(138.967 145.052)" fill="#fff"/>
      <path id="Caminho_2344" data-name="Caminho 2344" d="M707.574,736.55a3.9,3.9,0,1,1,7.8,0Z" transform="translate(-571.105 -583.797)" fill="#fff"/>
      <path id="Caminho_2345" data-name="Caminho 2345" d="M797.969,702.39a6.86,6.86,0,1,0,4.85,2.011A6.864,6.864,0,0,0,797.969,702.39Zm0,12.068a1,1,0,1,1,.958-1A1,1,0,0,1,797.969,714.458Zm1.165-7.033c.032-.23.064-.459.1-.687.014-.119.034-.244.054-.371.107-.668.227-1.415-.453-1.8a1.709,1.709,0,0,0-2.181.433,3.528,3.528,0,0,0,.036,2.341c.048.21.093.407.122.58a24.9,24.9,0,0,0,.719,3.313.489.489,0,0,0,.866,0A24.615,24.615,0,0,0,799.134,707.425Z" transform="translate(-636.173 -560.222)" fill="#ed3d8e"/>
      <path id="Caminho_2346" data-name="Caminho 2346" d="M753.965,517.108a14.4,14.4,0,1,1-11.722-15.828.931.931,0,0,1,.725,1.148l-.284,1.107-2.542,9.927a.931.931,0,0,0,1.152,1.128l9.868-2.759,1.349-.377a.931.931,0,0,1,1.156.674A14.364,14.364,0,0,1,753.965,517.108Z" transform="translate(-584.88 -403.369)" fill="#fff"/>
      <path id="Caminho_2347" data-name="Caminho 2347" d="M818.758,502.941a.927.927,0,0,1-.622,1.228l-.929.26-8.036,2.246a.931.931,0,0,1-1.152-1.128l2.077-8.082.2-.775a.925.925,0,0,1,1.189-.65A12.112,12.112,0,0,1,818.758,502.941Z" transform="translate(-649.332 -399.432)" fill="#fff"/>
      <circle id="Elipse_264" data-name="Elipse 264" cx="3.959" cy="3.959" r="3.959" transform="translate(150.62 70.996)" fill="rgba(237,61,142,0.1)"/>
      <path id="Caminho_2348" data-name="Caminho 2348" d="M725.2,437.809H754.02v.793H725.2Z" transform="translate(-584.84 -354.106)" fill="rgba(237,61,142,0.1)"/>
      <path id="Caminho_2349" data-name="Caminho 2349" d="M725.2,451.078H754.02v.793H725.2Z" transform="translate(-584.84 -364.443)" fill="rgba(237,61,142,0.1)"/>
      <path id="Caminho_2350" data-name="Caminho 2350" d="M725.2,463.172H754.02v.792H725.2Z" transform="translate(-584.84 -373.864)" fill="rgba(237,61,142,0.1)"/>
      <path id="Caminho_2351" data-name="Caminho 2351" d="M556.34,512.74h22.573v.793H556.34Z" transform="translate(-453.29 -412.479)" fill="rgba(237,61,142,0.1)"/>
      <path id="Caminho_2352" data-name="Caminho 2352" d="M556.34,527.215h22.573v.792H556.34Z" transform="translate(-453.29 -423.756)" fill="rgba(237,61,142,0.1)"/>
      <path id="Caminho_2353" data-name="Caminho 2353" d="M556.34,541.679h22.573v.793H556.34Z" transform="translate(-453.29 -435.024)" fill="rgba(237,61,142,0.1)"/>
      <path id="Caminho_2354" data-name="Caminho 2354" d="M556.34,556.154h22.573v.793H556.34Z" transform="translate(-453.29 -446.3)" fill="rgba(237,61,142,0.1)"/>
      <path id="Caminho_2355" data-name="Caminho 2355" d="M556.34,570.628h22.573v.793H556.34Z" transform="translate(-453.29 -457.576)" fill="rgba(237,61,142,0.1)"/>
      <path id="Caminho_2356" data-name="Caminho 2356" d="M542.326,341.109s6.86,10.8,14.678,14.2,10.26,4.9,13.251,3.681,8.731-2.917,12.776-14.942,5.972-18.355,6.115-21.267-7.9-.52-7.9-.52-4.331,12.766-13.82,18.463l-13.515-14.275Z" transform="translate(-442.372 -263.37)" fill="#fff"/>
      <path id="Caminho_2357" data-name="Caminho 2357" d="M470.661,485.957l5.522,1.5s-6.412,8.842-.71,18.1,17.443,27.935,17.443,27.935l22.474,35.731-21.018-2.93L478.678,549.1l-8.012-7.989-10.041-31.346Z" transform="translate(-378.724 -391.615)" fill="#fff"/>
      <path id="Caminho_2358" data-name="Caminho 2358" d="M93.5,614.308a2.421,2.421,0,0,0,3.032-.6l8.173-10.02,6.594-8.277-5.4-3.032a2.423,2.423,0,0,0-3.3.916L92.541,610.963a2.434,2.434,0,0,0,.961,3.346Z" transform="translate(-91.729 -474.274)" fill="#5715e8"/>
      <path id="Caminho_2359" data-name="Caminho 2359" d="M660.985,906.622l6.8,6.691a3.144,3.144,0,0,0,2.2.905H687a2.723,2.723,0,0,0,.288-5.431l-9.435-.968Z" transform="translate(-534.811 -719.326)" fill="#5715e8"/>
      <path id="Caminho_2360" data-name="Caminho 2360" d="M376.629,347.735s13.155,3.66,21.926,4.751,8.155-2.546,8.155-2.546l1.072-4.6c2.815-4.586,4.45-14.344,4.45-14.344l1.13-7.633,1.65,2.9,5.334,5.372.065.052a62.49,62.49,0,0,1,.559-11.083c1.377-11.369,5.938-10.05,5.938-10.05l-.669-.734c-3.151-5.243-13.21-10.784-16.423-12.109s-1.839.552-1.429,1.949-.76,5.327-5.444,3.326a7.832,7.832,0,0,1-4.92-6.354h-2.176c-13.35,1.6-20.139,8.725-20.139,8.725,14.182,3.346,10.927,15.375,10.927,15.375l-1.286,1.176c-5.035,4.366-5.385,8.575-4.95,10.329s3.541,4.115,9.147,5.483,6.626,1.371,7.893-1.052,2.744-2.722,4.764-3.086,4.5,1.072,3.93,2.2-.974.143.433,3.2.754,4.606-3.032,7.419-20.616,1.234-20.616,1.234C374.869,345.416,376.629,347.735,376.629,347.735Z" transform="translate(-312.571 -244.131)" fill="#5715e8"/>
      <path id="Caminho_2361" data-name="Caminho 2361" d="M519.122,267.662v.578a29.886,29.886,0,0,1,10.433,4.9c.507.37,1,.747,1.488,1.143a14.165,14.165,0,0,0-.637-4.7,7,7,0,0,0-2.254-3.294,11.732,11.732,0,0,0-3.131-1.644,23.442,23.442,0,0,1-3.2-1.384,6.933,6.933,0,0,1-2.189-1.884,1.975,1.975,0,0,1-.217-1.971,1.157,1.157,0,0,1-.292-.059Z" transform="translate(-424.294 -215.082)" fill="#ed3d8e"/>
      <path id="Caminho_2362" data-name="Caminho 2362" d="M519.122,267.662v.578a29.886,29.886,0,0,1,10.433,4.9c.507.37,1,.747,1.488,1.143a14.165,14.165,0,0,0-.637-4.7,7,7,0,0,0-2.254-3.294,11.732,11.732,0,0,0-3.131-1.644,23.442,23.442,0,0,1-3.2-1.384,6.933,6.933,0,0,1-2.189-1.884,1.975,1.975,0,0,1-.217-1.971,1.157,1.157,0,0,1-.292-.059Z" transform="translate(-424.294 -215.082)" fill="#ed3d8e"/>
      <path id="Caminho_2363" data-name="Caminho 2363" d="M263.108,230.188a15.744,15.744,0,0,0,4.651,2.28,20.915,20.915,0,0,0,2.181.546c-2.908-6.854-.732-15.871,8.445-25.486a54.725,54.725,0,0,1,5.009-4.639,39.067,39.067,0,0,1,8.374-5.437,36.553,36.553,0,0,1,4.115-1.6,37.367,37.367,0,0,1,7.659-1.683c.591-.071,1.176-.123,1.767-.156a9.1,9.1,0,0,1,.085-3.053,13.631,13.631,0,0,1,3.224-6.525c1.083-1.371,2.774-4.645.52-5.775a1.994,1.994,0,0,1-.884-3.032c.565-.754,1.709-1.1,3.118-.217a3.967,3.967,0,0,0,3.248.357,7.194,7.194,0,0,0,2.209-2c1.637-2.345,1.7-5.9-.866-7.62a7.272,7.272,0,0,0-4.846-.988,10.641,10.641,0,0,0-2.2.481.025.025,0,0,0-.019,0,13.473,13.473,0,0,0-6.226,8.043c-.611,2.008-1.3,4-2.1,5.944-.663,1.6-1.124,3.541-2.6,4.632a5.877,5.877,0,0,1-2.06.975c-2.787,1.767-6.652.747-9.7.37a15.547,15.547,0,0,0-7.237.728,17.643,17.643,0,0,0-6.646,6.141c-2.995,4.515.175,11.025-4.833,14.585a36.672,36.672,0,0,1-4.9,2.553,8.864,8.864,0,0,0-4.981,5.542A15,15,0,0,0,263.108,230.188Z" transform="translate(-220.267 -141.656)" fill="#ed3d8e"/>
      <path id="Caminho_2364" data-name="Caminho 2364" d="M420.31,939.744h-118.5v-.995h118.5Z" transform="translate(-254.999 -744.354)"/>
      <path id="Caminho_2365" data-name="Caminho 2365" d="M538.8,191.619a15.21,15.21,0,0,1,.78,1.949c.312,1.083-.026,1.754.448,2.787.162.357.4.962.65,1.572.071-.143.136-.26.175-.351,1.858-4.138-.585-6.133-1.761-6.815A5.756,5.756,0,0,1,538.8,191.619Z" transform="translate(-439.624 -161.648)" fill="#ed3d8e"/>
      <path id="Caminho_2366" data-name="Caminho 2366" d="M538.8,191.619a15.21,15.21,0,0,1,.78,1.949c.312,1.083-.026,1.754.448,2.787.162.357.4.962.65,1.572.071-.143.136-.26.175-.351,1.858-4.138-.585-6.133-1.761-6.815A5.756,5.756,0,0,1,538.8,191.619Z" transform="translate(-439.624 -161.648)" fill="#ed3d8e"/>
      <path id="Caminho_2367" data-name="Caminho 2367" d="M443.609,507.633H426.749a5.393,5.393,0,0,1-3.465-1.654,27.642,27.642,0,0,1-2.812-3.07c-.451-.546-.877-1.061-1.241-1.445h0c-2.31-2.45-4.626-4.956-6.884-7.448-2.269-2.512-4.578-5.109-6.811-7.621-2.117-2.381-4.305-4.843-6.432-7.2h0c-3.542-3.959-7.237-7.876-10.983-11.641s-7.644-7.481-11.585-11.042c-.67-.6-1.357-1.236-2.02-1.85a54.839,54.839,0,0,0-7.092-5.867,51.167,51.167,0,0,1-6.146-4.65,41.616,41.616,0,0,1-4.69-4.885,36.29,36.29,0,0,1-3.409-5,34.059,34.059,0,0,1-2.3-4.984,34.743,34.743,0,0,1-2.012-9.426,39.712,39.712,0,0,1,.229-7.883l.987.125a35.486,35.486,0,0,0,1.73,16.841,33.058,33.058,0,0,0,2.236,4.838,35.282,35.282,0,0,0,3.315,4.86,40.622,40.622,0,0,0,4.578,4.768,50.183,50.183,0,0,0,6.026,4.559,55.563,55.563,0,0,1,7.227,5.971c.661.612,1.345,1.245,2.01,1.841h0c3.954,3.573,7.865,7.3,11.624,11.078s7.466,7.707,11.019,11.68c2.128,2.36,4.318,4.823,6.435,7.2,2.232,2.51,4.54,5.107,6.805,7.615,2.253,2.487,4.565,4.988,6.87,7.433.388.409.824.936,1.285,1.5a26.9,26.9,0,0,0,2.705,2.959,7.152,7.152,0,0,0,1.44,1.027,3,3,0,0,0,1.365.376h16.861a2.459,2.459,0,0,0,1.735-.738,2.124,2.124,0,0,0,.639-1.519,2.234,2.234,0,0,0-.574-1.454v0a2.188,2.188,0,0,0-1.412-.72l-9.676-.993-.129-.205-45.586-72.5a23.721,23.721,0,0,1-1.693-3.258,22.915,22.915,0,0,1-1.243-3.751,15.658,15.658,0,0,1-.447-3.847,9.031,9.031,0,0,1,.733-3.548,69.131,69.131,0,0,0,3.885-11.115,77.672,77.672,0,0,0,1.841-9.606,62.358,62.358,0,0,0,.565-9.272l.994-.04c0,.039.037.966-.015,2.6-.048,1.5-.184,3.907-.557,6.838a78.659,78.659,0,0,1-1.864,9.73,70.137,70.137,0,0,1-3.941,11.275,8.048,8.048,0,0,0-.645,3.158,14.669,14.669,0,0,0,.421,3.6,22.969,22.969,0,0,0,2.81,6.707L434.9,500.273l9.194.943a3.18,3.18,0,0,1,2.052,1.046,3.228,3.228,0,0,1,.829,2.1v0a3.11,3.11,0,0,1-.925,2.233A3.459,3.459,0,0,1,443.609,507.633Z" transform="translate(-291.579 -312.245)"/>
      <path id="Caminho_2368" data-name="Caminho 2368" d="M151.433,637.041q-.341,0-.684-.015a15.562,15.562,0,0,1-9.374-3.7l-25.909-22.053-12.443-11.028-7.846,9.62a2.929,2.929,0,0,1-4.812-3.3h0L100.428,588.9a2.92,2.92,0,0,1,3.976-1.1l5.4,3.032,30.932,17.324a3.228,3.228,0,0,0,4.745-2.207l3.664-19.212.977.186-3.664,19.212a4.222,4.222,0,0,1-6.208,2.887l-30.932-17.324-5.4-3.033a1.929,1.929,0,0,0-2.623.728h0L91.23,607.053a1.935,1.935,0,0,0,3.179,2.181l8.5-10.419,13.215,11.711,25.9,22.043a14.569,14.569,0,0,0,8.774,3.463,13.876,13.876,0,0,0,4.654-.577,13.351,13.351,0,0,0,4.262-2.185,14.194,14.194,0,0,0,3.6-4.067h0a75.071,75.071,0,0,0,4.143-8.269,84.775,84.775,0,0,0,3.654-10.154l.956.272a85.789,85.789,0,0,1-3.7,10.276,75.023,75.023,0,0,1-4.2,8.382h0a15.184,15.184,0,0,1-3.855,4.352,14.344,14.344,0,0,1-4.579,2.347A14.813,14.813,0,0,1,151.433,637.041Z" transform="translate(-89.985 -470.119)"/>
      <path id="Caminho_2369" data-name="Caminho 2369" d="M269.17,228.611a20.343,20.343,0,0,1-3.674-1.069,15.657,15.657,0,0,1-3.364-1.842,15.076,15.076,0,0,1-5.1-6.959,14.455,14.455,0,0,1-.58-8.6,8,8,0,0,1,.786-1.926,8.331,8.331,0,0,1,1.193-1.6,11.67,11.67,0,0,1,3.247-2.336h0c.493-.248,1-.481,1.485-.708a20.886,20.886,0,0,0,3.356-1.807,6.275,6.275,0,0,0,1.564-1.566,6.656,6.656,0,0,0,.872-1.83,18.517,18.517,0,0,0,.605-4.29c.151-2.32.306-4.72,1.665-6.768a18.1,18.1,0,0,1,6.873-6.332,15.806,15.806,0,0,1,9.193-1.489c.516.063,1.043.143,1.6.228a24.589,24.589,0,0,0,4.328.4,8.1,8.1,0,0,0,2.006-.288,5.346,5.346,0,0,0,1.757-.856h0a7.13,7.13,0,0,0,2.048-3.422c.124-.332.252-.675.387-1,.749-1.812,1.432-3.741,2.089-5.9a15.907,15.907,0,0,1,1.531-3.474,13.968,13.968,0,0,1,2.314-2.936,11.949,11.949,0,0,1,3.04-2.138,11.191,11.191,0,0,1,3.693-1.066,9.258,9.258,0,0,1,2.669.077,6.57,6.57,0,0,1,2.509.992,4.937,4.937,0,0,1,1.437,1.474,5.2,5.2,0,0,1,.7,1.824,6.793,6.793,0,0,1-1.145,5.02,7.375,7.375,0,0,1-1.479,1.538,8.157,8.157,0,0,1-1.965,1.147,5.853,5.853,0,0,1-2.182.454h-.03a4.055,4.055,0,0,1-2.183-.621,1.984,1.984,0,0,0-2.049-.274,1.417,1.417,0,0,0-.695,1.264,1.438,1.438,0,0,0,.236.749,1.9,1.9,0,0,0,.761.645,2.536,2.536,0,0,1,.887.714,2.375,2.375,0,0,1,.435.946,3.523,3.523,0,0,1,.005,1.362,6.353,6.353,0,0,1-.4,1.335,9.5,9.5,0,0,1-1.272,2.17,17.88,17.88,0,0,0-2,2.966,12.432,12.432,0,0,0-1.126,3.349,8.577,8.577,0,0,0-.08,2.886v.005a7.961,7.961,0,0,0,2.674,4.977,12.974,12.974,0,0,0,1.419,1.063,5.326,5.326,0,0,0,1.69.713,4.024,4.024,0,0,0,1.761.037A2.488,2.488,0,0,0,314.3,194.7a3.224,3.224,0,0,0,.38-2.189,5.485,5.485,0,0,0-.906-2.249l-.087-.127V179.869h.994v9.956a6.473,6.473,0,0,1,.983,2.536,4.2,4.2,0,0,1-.518,2.856,3.5,3.5,0,0,1-2.258,1.6,5.019,5.019,0,0,1-2.2-.038,6.331,6.331,0,0,1-2.009-.848,13.982,13.982,0,0,1-1.529-1.145h0a8.955,8.955,0,0,1-3.008-5.6,9.567,9.567,0,0,1,.089-3.217,14.179,14.179,0,0,1,3.327-6.739,8.6,8.6,0,0,0,1.133-1.934,3.683,3.683,0,0,0,.345-2.1,1.4,1.4,0,0,0-.8-.985,2.874,2.874,0,0,1-1.148-.99,2.429,2.429,0,0,1-.1-2.5,2.35,2.35,0,0,1,.9-.919,2.452,2.452,0,0,1,1.411-.3,3.661,3.661,0,0,1,1.661.6,3.077,3.077,0,0,0,1.657.467,4.85,4.85,0,0,0,1.835-.382,7.033,7.033,0,0,0,3-2.332,6.029,6.029,0,0,0,.917-2.067,5.415,5.415,0,0,0,.067-2.2,4.007,4.007,0,0,0-1.719-2.655,5.585,5.585,0,0,0-2.133-.839,8.265,8.265,0,0,0-2.382-.067,10.2,10.2,0,0,0-3.365.971,10.956,10.956,0,0,0-2.787,1.961,12.978,12.978,0,0,0-2.148,2.728,14.912,14.912,0,0,0-1.435,3.256c-.666,2.187-1.359,4.146-2.121,5.989-.128.31-.248.63-.374.968a16.161,16.161,0,0,1-.884,2.066,5.351,5.351,0,0,1-1.5,1.807,7.367,7.367,0,0,1-4.327,1.339,25.326,25.326,0,0,1-4.506-.41c-.551-.084-1.071-.162-1.573-.224a14.829,14.829,0,0,0-8.625,1.391,17.121,17.121,0,0,0-6.492,5.994,8.049,8.049,0,0,0-1.144,2.954,26.421,26.421,0,0,0-.357,3.328c-.2,3.079-.406,6.263-3.458,8.432h0a21.951,21.951,0,0,1-3.512,1.9c-.48.223-.977.453-1.456.693a10.7,10.7,0,0,0-2.975,2.133,7.336,7.336,0,0,0-1.051,1.4,7,7,0,0,0-.688,1.687,13.455,13.455,0,0,0,.552,8,15.2,15.2,0,0,0,1.945,3.656,12.743,12.743,0,0,0,2.8,2.844,14.665,14.665,0,0,0,3.15,1.724,19.348,19.348,0,0,0,3.494,1.016Z" transform="translate(-219.352 -136.886)"/>
      <path id="Caminho_2370" data-name="Caminho 2370" d="M535.631,272.619l-.989-.106c.009-.08.013-.161.017-.247,0-.027,0-.054,0-.08a24.869,24.869,0,0,0,.005-3.107,11.837,11.837,0,0,0-.564-2.986l0-.006a6.522,6.522,0,0,0-2.095-3.057,11.275,11.275,0,0,0-3-1.57c-.2-.078-.4-.155-.6-.23a18.607,18.607,0,0,1-2.667-1.181,7.318,7.318,0,0,1-2.344-2.021l0,0a2.476,2.476,0,0,1-.271-2.459l.91.4a1.479,1.479,0,0,0,.16,1.467,6.283,6.283,0,0,0,2.028,1.746l.01.006a17.55,17.55,0,0,0,2.531,1.117c.2.075.4.153.605.232a12.133,12.133,0,0,1,3.257,1.719l0,0a7.515,7.515,0,0,1,2.415,3.521,12.817,12.817,0,0,1,.613,3.232,25.82,25.82,0,0,1,0,3.23v0q0,.038,0,.077C535.648,272.413,535.642,272.512,535.631,272.619Z" transform="translate(-427.253 -212.131)"/>
      <path id="Caminho_2371" data-name="Caminho 2371" d="M512.253,208.38a2.828,2.828,0,0,1-.878-.145,7.013,7.013,0,0,1-3.37-2.892l.815-.57a6.1,6.1,0,0,0,2.863,2.517,1.658,1.658,0,0,0,1.663-.325,4.358,4.358,0,0,0,1.173-1.689c.251-.575.453-1.2.648-1.8.08-.245.162-.5.247-.747a.942.942,0,0,1,.93-.77,3.514,3.514,0,0,1,.383.009c-.251-.52-.518-1.184-.763-1.792-.151-.375-.294-.728-.4-.956a3.964,3.964,0,0,1-.329-1.706,4.207,4.207,0,0,0-.14-1.141,15.455,15.455,0,0,0-.749-1.881l.9-.428a16.481,16.481,0,0,1,.8,2.01l0,.014a5.143,5.143,0,0,1,.181,1.4,3.062,3.062,0,0,0,.24,1.32c.112.247.252.594.414,1a17.451,17.451,0,0,0,1,2.225l0,.007a.631.631,0,0,1-.517.968h-.014c-.174,0-.342-.015-.5-.029a3.971,3.971,0,0,0-.471-.024c-.013.035-.026.075-.033.095v0c-.083.242-.164.492-.242.733-.2.624-.412,1.27-.682,1.888a5.549,5.549,0,0,1-1.457,2.064A2.692,2.692,0,0,1,512.253,208.38Z" transform="translate(-415.635 -164.223)"/>
      <path id="Caminho_2372" data-name="Caminho 2372" d="M542.358,192.979l-.866-.489c.18-.32.527-.969.66-1.26a5.21,5.21,0,0,0,.355-4.149,4.132,4.132,0,0,0-1.394-1.746,4.448,4.448,0,0,0-.923-.539h0l.356-.928a5.494,5.494,0,0,1,2.874,2.824,5,5,0,0,1,.359,2.157,7.759,7.759,0,0,1-.722,2.79l0,0C542.893,192,542.515,192.7,542.358,192.979Z" transform="translate(-440.709 -156.278)"/>
      <path id="Caminho_2373" data-name="Caminho 2373" d="M766.687,117.2s.026.013.078.032Z" transform="translate(-617.156 -104.343)" fill="#ed3d8e"/>
      <path id="Caminho_2374" data-name="Caminho 2374" d="M531.983,241.1a2.033,2.033,0,0,1-1.962-1.5l.96-.259a1.04,1.04,0,0,0,1.144.758l.135.985A2.037,2.037,0,0,1,531.983,241.1Z" transform="translate(-432.786 -199.487)"/>
      <path id="Caminho_2375" data-name="Caminho 2375" d="M530.459,211.209l-.744-.659a5.1,5.1,0,0,1,1.347-1.144,1.976,1.976,0,0,1,.956-.247,1.661,1.661,0,0,1,1.031.4l-.628.771a.74.74,0,0,0-.9-.039A4.2,4.2,0,0,0,530.459,211.209Z" transform="translate(-432.548 -175.98)"/>
      <path id="Caminho_2376" data-name="Caminho 2376" d="M337.189,345.779c-.849,0-1.724-.013-2.633-.039a48.819,48.819,0,0,1-5.768-.494,37.175,37.175,0,0,1-5.66-1.287,29.565,29.565,0,0,1-4.193-1.677,24.252,24.252,0,0,1-3.874-2.374,17.314,17.314,0,0,1-5.656-7.039,15.79,15.79,0,0,1-1.24-5.7,19.5,19.5,0,0,1,.908-6.349,28.875,28.875,0,0,1,3.21-6.823,45.767,45.767,0,0,1,5.666-7.154A55.693,55.693,0,0,1,323,302.157h0a44.537,44.537,0,0,1,5.963-4.192,34.77,34.77,0,0,1,6.673-2.936h0a37.913,37.913,0,0,1,9.558-1.859l.063.992a36.918,36.918,0,0,0-9.308,1.81h0a33.809,33.809,0,0,0-6.489,2.854,43.584,43.584,0,0,0-5.832,4.1,54.7,54.7,0,0,0-4.963,4.6,44.774,44.774,0,0,0-5.544,7,27.886,27.886,0,0,0-3.1,6.586,18.513,18.513,0,0,0-.865,6.025,14.8,14.8,0,0,0,1.162,5.342,16.335,16.335,0,0,0,5.341,6.635,23.26,23.26,0,0,0,3.715,2.276,28.579,28.579,0,0,0,4.051,1.62,36.177,36.177,0,0,0,5.508,1.252,47.833,47.833,0,0,0,5.65.483c2.476.071,4.7.044,6.8-.081a51.212,51.212,0,0,0,6.73-.82l.387-.073c1.745-.328,3.55-.668,4.486-2.126a5.622,5.622,0,0,0,.852-2.716,6.1,6.1,0,0,0-.5-2.82,5.07,5.07,0,0,0-1.026-1.476,3.335,3.335,0,0,0-1.434-.894,1.866,1.866,0,0,0-.8-.046,1.977,1.977,0,0,0-.821.356,1.229,1.229,0,0,0-.51.95l-.994-.04a2.23,2.23,0,0,1,.922-1.717h0a2.837,2.837,0,0,1,2.461-.462,4.32,4.32,0,0,1,1.876,1.149,6.088,6.088,0,0,1,1.232,1.775h0a7.1,7.1,0,0,1,.587,3.281,6.617,6.617,0,0,1-1.008,3.2,4.8,4.8,0,0,1-2.362,1.853,14.766,14.766,0,0,1-2.777.712l-.382.073a52.2,52.2,0,0,1-6.859.836C340.089,345.739,338.681,345.779,337.189,345.779Z" transform="translate(-259.946 -241.427)"/>
      <path id="Caminho_2377" data-name="Caminho 2377" d="M409.015,379.1a4.385,4.385,0,0,1-.62-.048,50.121,50.121,0,0,1-6.714-1.43h0a27.818,27.818,0,0,1-2.988-1.016,12,12,0,0,1-2.791-1.591,6.459,6.459,0,0,1-2.134-2.746l-.006-.014,0-.014a5.8,5.8,0,0,1-.021-3.686,13.17,13.17,0,0,1,2.608-4.5,30.881,30.881,0,0,1,2.72-2.889c.859-.81,1.834-1.656,2.981-2.585l.019-.016.021-.014A14.037,14.037,0,0,0,405,355.738a13.21,13.21,0,0,0,1.935-3.373,11.546,11.546,0,0,0,.772-4.562l.994-.033a12.535,12.535,0,0,1-.846,4.973,14.221,14.221,0,0,1-2.094,3.636,14.89,14.89,0,0,1-3.108,2.993c-1.12.908-2.071,1.733-2.907,2.521a29.89,29.89,0,0,0-2.634,2.8,12.224,12.224,0,0,0-2.427,4.159l0,.013a4.8,4.8,0,0,0,.011,3.045,5.465,5.465,0,0,0,1.8,2.313l.011.008a11.021,11.021,0,0,0,2.568,1.461,26.924,26.924,0,0,0,2.881.978,49.133,49.133,0,0,0,6.58,1.4,1.769,1.769,0,0,0,1.165-.116,2.277,2.277,0,0,0,.766-.964c.093-.177.183-.357.278-.548a11.869,11.869,0,0,1,.73-1.325,4.105,4.105,0,0,1,1.126-1.169,6.157,6.157,0,0,1,2.534-.947,7.176,7.176,0,0,1,2.679.119,4.424,4.424,0,0,1,1.909.926,1.952,1.952,0,0,1,.748,1.46,1.358,1.358,0,0,1-.459.991,2.3,2.3,0,0,1-1.134.522l-.192-.976a1.326,1.326,0,0,0,.654-.279.373.373,0,0,0,.138-.278c.008-.392-.574-1.086-1.893-1.4a6.173,6.173,0,0,0-2.3-.1,5.158,5.158,0,0,0-2.124.789,5.085,5.085,0,0,0-1.519,2.11c-.093.188-.19.382-.289.57a3.14,3.14,0,0,1-1.145,1.359A2.288,2.288,0,0,1,409.015,379.1Z" transform="translate(-326.388 -283.963)"/>
      <path id="Caminho_2378" data-name="Caminho 2378" d="M290.461,536.5l-37.344-9.024-8.887,36.779,36.309,9.026,1.165-.535Z" transform="translate(-210.146 -423.962)" fill="#fff"/>
      <path id="Caminho_2379" data-name="Caminho 2379" d="M354.522,486.534c1.772-12.4,5.611-15.466,8.11-16.079l-.165-.091c-7.545-2.936-12.776,11.592-13.887,14.989Z" transform="translate(-291.438 -379.164)" fill="rgba(237,61,142,0.1)"/>
      <path id="Caminho_2380" data-name="Caminho 2380" d="M353.64,487.572c1.771-12.4,5.715-16.458,8.214-17.062l-.164-.091c-7.545-2.936-12.993,12.291-14.108,15.687Z" transform="translate(-290.66 -379.219)" fill="rgba(237,61,142,0.1)"/>
      <path id="Caminho_2381" data-name="Caminho 2381" d="M357.493,467.727h0a6,6,0,0,1,2.176.423l.028.011.026.014c.819.438,2.468,1.309,2.9,1.5.06.023.1.039.107.044l-.351.928a1.161,1.161,0,0,1-.129-.049,3.392,3.392,0,0,0-1.12-.176h0a5.957,5.957,0,0,0-4.373,2.5,17.665,17.665,0,0,0-2.581,4.658,45.246,45.246,0,0,0-2.247,8.277l-.1.516-7.081-1.712.147-.5c.012-.042.306-1.039.863-2.545a49.207,49.207,0,0,1,2.456-5.584,23.837,23.837,0,0,1,3.9-5.644A7.628,7.628,0,0,1,357.493,467.727Zm1.789,1.339a5,5,0,0,0-1.789-.344h0a5.17,5.17,0,0,0-2.412.634,9.252,9.252,0,0,0-2.245,1.729,22.868,22.868,0,0,0-3.731,5.408,50.065,50.065,0,0,0-3.091,7.449l5.039,1.219c1.142-5.922,2.8-10.25,4.938-12.867a7.208,7.208,0,0,1,4.16-2.766C359.728,469.3,359.383,469.12,359.282,469.066Z" transform="translate(-288.46 -377.413)"/>
      <path id="Caminho_2382" data-name="Caminho 2382" d="M244.235,570.45l8.47-35.038,29.462,7.122-8.47,35.038Z" transform="translate(-210.15 -430.142)" fill="#ed3d8e"/>
      <path id="Caminho_2383" data-name="Caminho 2383" d="M244.238,563.91l8.919-36.894,31.021,7.5-8.919,36.894Z" transform="translate(-210.153 -423.601)" fill="#fff"/>
      <path id="Caminho_2384" data-name="Caminho 2384" d="M251.629,569.023a1.712,1.712,0,0,1-1.262-2.067l7.665-31.709a1.712,1.712,0,0,1,2.067-1.262l26.133,6.317a1.712,1.712,0,0,1,1.262,2.067l-7.665,31.709a1.712,1.712,0,0,1-2.067,1.262Z" transform="translate(-214.889 -428.993)" fill="#ed3d8e"/>
      <path id="Caminho_2385" data-name="Caminho 2385" d="M273.512,570.3l-31.988-7.733,9.125-37.745,31.988,7.733Zm-30.788-8.466L272.78,569.1l8.657-35.812-30.055-7.265Z" transform="translate(-208.039 -421.891)"/>
      <path id="Caminho_2386" data-name="Caminho 2386" d="M385.219,598.384l8.891-36.778,6.193,1.5-8.891,36.778Z" transform="translate(-319.981 -450.547)" fill="#fff"/>
      <path id="Caminho_2387" data-name="Caminho 2387" d="M389.662,598.366l-7.159-1.731,9.124-37.745,7.159,1.731ZM383.7,595.9l5.226,1.263,8.657-35.812-5.226-1.263Z" transform="translate(-317.865 -448.432)"/>
      <path id="Caminho_2388" data-name="Caminho 2388" d="M389.786,713.911l-1.739-4.473-3.666,3.172-.651-.752,4.732-4.1,2.25,5.787Z" transform="translate(-318.822 -564.409)"/>
      <path id="Caminho_2389" data-name="Caminho 2389" d="M402.984,597.04l-.967-.232,7.787-32.4.967.232Z" transform="translate(-333.068 -452.731)"/>
      <path id="Caminho_2390" data-name="Caminho 2390" d="M548.622,319.249a.764.764,0,0,1-.391-.126,2.831,2.831,0,0,1-.341-.253c-.226-.19-.518-.464-.892-.838-.617-.618-1.446-1.5-2.462-2.617-1.756-1.931-3.552-4-3.937-4.447-1.262-1.468-2.77-3.2-4.391-4.9a61.068,61.068,0,0,0-4.74-4.526h0c-.877-.75-1.754-1.443-2.606-2.061l0,0a29.435,29.435,0,0,0-10.266-4.823l.241-.965a30.433,30.433,0,0,1,10.613,4.986c.873.632,1.77,1.341,2.666,2.108h0a62.075,62.075,0,0,1,4.817,4.6c1.636,1.722,3.155,3.464,4.424,4.941.349.406,1.995,2.3,3.667,4.149.958,1.058,1.759,1.918,2.382,2.556a13.326,13.326,0,0,0,1.25,1.183,6.133,6.133,0,0,0,.815-.413l.008,0a16.335,16.335,0,0,0,3.6-2.91,32.528,32.528,0,0,0,2.97-3.66,51.492,51.492,0,0,0,4.5-7.847l0,0c.838-1.777,1.617-3.61,2.317-5.448a9.282,9.282,0,0,1,1.081-1.994,7.917,7.917,0,0,1,1.568-1.687l.014-.011a8.4,8.4,0,0,1,3.446-1.449c.132-.027.234-.047.356-.067l.163.981c-.109.018-.2.036-.327.062l-.014,0a7.4,7.4,0,0,0-3.037,1.273,8.089,8.089,0,0,0-2.321,3.244c-.708,1.861-1.5,3.717-2.346,5.516a52.489,52.489,0,0,1-4.59,8l0,0a33.506,33.506,0,0,1-3.063,3.773,17.314,17.314,0,0,1-3.819,3.08,7.129,7.129,0,0,1-1.155.561A.545.545,0,0,1,548.622,319.249Z" transform="translate(-423.883 -241.074)"/>
      <path id="Caminho_2391" data-name="Caminho 2391" d="M569.439,336.69q-.337,0-.674-.025a18.74,18.74,0,0,1-3.519-.619,24.771,24.771,0,0,1-3.4-1.212,40.169,40.169,0,0,1-6.305-3.554h0a.768.768,0,0,1-.078-.061,44.47,44.47,0,0,1-4.21-3.222l-.005,0c-.014-.012-1.383-1.235-2.936-2.873-.914-.965-1.714-1.885-2.377-2.734a15.765,15.765,0,0,1-1.856-2.882l.9-.422a23.029,23.029,0,0,0,4.054,5.353c1.494,1.577,2.81,2.756,2.873,2.813a43.491,43.491,0,0,0,4.146,3.17l.046.031.021.022a39.159,39.159,0,0,0,6.127,3.453,23.8,23.8,0,0,0,3.259,1.164,17.752,17.752,0,0,0,3.332.586,8.515,8.515,0,0,0,4.352-.867,12.988,12.988,0,0,0,3.667-2.713,28.539,28.539,0,0,0,4.866-7,65.48,65.48,0,0,0,3.332-7.978h0c.7-1.966,1.3-3.757,1.818-5.475.906-2.983,1.631-5.791,2.218-8.585v0c.293-1.369.558-2.81.809-4.4q.017-.111.034-.222a7.089,7.089,0,0,1,.394-1.676,2.578,2.578,0,0,1,1.3-1.409l.011-.005.011,0a4.921,4.921,0,0,1,2.067-.383c.576-.01,1.162-.024,1.73-.039,1.724-.043,3.508-.088,5.275,0a1.53,1.53,0,0,0,1.573-1.332.869.869,0,0,0-.232-.7,1.8,1.8,0,0,0-1.092-.459.583.583,0,0,1-.143-.016l.233-.967a.416.416,0,0,0-.194,0l.086-.021.088.01a2.753,2.753,0,0,1,1.747.772,1.875,1.875,0,0,1,.5,1.458,2.523,2.523,0,0,1-2.613,2.243c-1.73-.087-3.495-.043-5.2,0-.573.014-1.166.029-1.75.039H593.7a3.935,3.935,0,0,0-1.651.3,1.6,1.6,0,0,0-.8.888,6.374,6.374,0,0,0-.329,1.443q-.017.115-.035.228h0c-.254,1.612-.522,3.07-.819,4.456-.592,2.823-1.325,5.659-2.239,8.669-.525,1.733-1.124,3.539-1.833,5.521a66.373,66.373,0,0,1-3.384,8.1,29.508,29.508,0,0,1-5.037,7.24,13.972,13.972,0,0,1-3.951,2.916A9.632,9.632,0,0,1,569.439,336.69Z" transform="translate(-443.74 -240.063)"/>
      <path id="Caminho_2392" data-name="Caminho 2392" d="M716.741,268.061l.113.358a2.852,2.852,0,0,0,1.289,1.482,2.968,2.968,0,0,0,1.525.422c.048,0,.1,0,.144,0l.521-.025v.825a3.094,3.094,0,0,1-.347,1.506,2.456,2.456,0,0,1-.921.937,4.769,4.769,0,0,1-2.357.54l-28.165.65h-.067a2.546,2.546,0,0,1-1.064-.233,2.743,2.743,0,0,1-.865-.625,3.038,3.038,0,0,1-.812-2.028V271.8a3.064,3.064,0,0,1,.763-2.042,2.632,2.632,0,0,1,1.911-.909c.233-.007,15.924-.449,27.958-.78Zm2.592,3.242a3.964,3.964,0,0,1-1.707-.553l-.01-.006a4.044,4.044,0,0,1-1.572-1.669c-12.015.331-27.453.766-27.609.77h0a1.647,1.647,0,0,0-1.192.575,2.071,2.071,0,0,0-.512,1.381v.051a1.856,1.856,0,0,0,1.787,1.905h0l28.167-.65a3.912,3.912,0,0,0,1.875-.4,1.456,1.456,0,0,0,.555-.56A1.98,1.98,0,0,0,719.333,271.3Z" transform="translate(-554.091 -221.867)"/>
      <path id="Caminho_2393" data-name="Caminho 2393" d="M843.22,133.072a2.781,2.781,0,0,1,2.754,2.384l.038.01v.386a2.7,2.7,0,0,1-.29,1.213l-12.588,25.823a2.8,2.8,0,0,1-1.824,1.474,2.768,2.768,0,0,1-1.893-.2h0a2.8,2.8,0,0,1-1.562-2.51v0a2.829,2.829,0,0,1,.279-1.2v0l12.6-25.829a2.782,2.782,0,0,1,2.491-1.545Zm1.788,2.945v-.166a1.788,1.788,0,0,0-3.388-.793l-12.594,25.824a1.828,1.828,0,0,0-.179.775,1.785,1.785,0,0,0,1.782,1.795,1.774,1.774,0,0,0,.435-.054,1.809,1.809,0,0,0,1.177-.95l12.591-25.83A1.7,1.7,0,0,0,845.009,136.017Z" transform="translate(-664.806 -116.707)"/>
      <circle id="Elipse_265" data-name="Elipse 265" cx="6.917" cy="6.917" r="6.917" transform="translate(139.537 0)" fill="#ed3d8e"/>
      <path id="Caminho_2394" data-name="Caminho 2394" d="M738.14,80.021a2.392,2.392,0,0,1-.637-.357,1.733,1.733,0,0,1-.45-2.261,1.784,1.784,0,0,1,1.336-.866,1.789,1.789,0,0,1,2.672-2.166,4.376,4.376,0,0,1,1.416,2.036,6.388,6.388,0,0,1,.32,1.215c.032.217.254,1.408.08,1.529A5.836,5.836,0,0,1,738.14,80.021Z" transform="translate(-593.884 -70.725)" fill="#fff"/>
      <g id="Grupo_5670" data-name="Grupo 5670" transform="translate(136.81 20.648)" opacity="0.72">
        <circle id="Elipse_266" data-name="Elipse 266" cx="3.807" cy="3.807" r="3.807" transform="translate(0 0)" fill="#ed3d8e"/>
        <path id="Caminho_2395" data-name="Caminho 2395" d="M720.173,166.512a1.315,1.315,0,0,1-.316.251.959.959,0,0,1-1.245-.245,1.423,1.423,0,0,0-1.117-1.57.985.985,0,0,1,.409-1.109,2.4,2.4,0,0,1,1.332-.295,3.329,3.329,0,0,1,.687.091c.115.026.769.165.795.277A3.207,3.207,0,0,1,720.173,166.512Z" transform="translate(-715.612 -161.089)" fill="#fff"/>
      </g>
      <path id="Caminho_2396" data-name="Caminho 2396" d="M800.191,136.8a2.837,2.837,0,0,1,1.169-3.838L805,131.024a2.837,2.837,0,0,1,3.838,1.169l1.938,3.636a2.837,2.837,0,0,1-1.169,3.838l-3.636,1.938a2.837,2.837,0,0,1-3.838-1.169Z" transform="translate(-642.997 -114.851)" fill="#ed3d8e"/>
      <path id="Caminho_2397" data-name="Caminho 2397" d="M821.637,142.84l2.7-1.442a2.423,2.423,0,0,0,1-3.268l-1.732-3.248a2.421,2.421,0,0,0-3.268-1l-.182.1c-.676.938-1.574,2.542-.217,3.047,1.949.73,1.379,1.823.65,3.224C819.969,141.431,819.811,142.806,821.637,142.84Z" transform="translate(-658.091 -117.121)" fill="#fff"/>
      <circle id="Elipse_267" data-name="Elipse 267" cx="1.022" cy="1.022" r="1.022" transform="translate(158.312 19.743)" fill="#fff"/>
      <path id="Caminho_2398" data-name="Caminho 2398" d="M745.1,194.124a4.372,4.372,0,0,0,1.2.381,4.461,4.461,0,0,0,4.114-1.568c.379-.472.663-1.063,1.061-1.54a2.358,2.358,0,0,1,1.052-.762.9.9,0,0,0,.387-.188c.273-.282-.19-.52-.284-.747a1.6,1.6,0,0,1,0-1.139,4.441,4.441,0,0,0-7.432-4.548,9.919,9.919,0,0,0-1.531,2.6,13.164,13.164,0,0,0-1,2.479A4.513,4.513,0,0,0,745.1,194.124Z" transform="translate(-598.358 -155.277)" fill="#ed3d8e"/>
      <circle id="Elipse_268" data-name="Elipse 268" cx="0.964" cy="0.964" r="0.964" transform="translate(149.648 29.611)" fill="#fff"/>
      <circle id="Elipse_269" data-name="Elipse 269" cx="0.964" cy="0.964" r="0.964" transform="translate(148.385 32.27)" fill="#fff"/>
      <circle id="Elipse_270" data-name="Elipse 270" cx="0.964" cy="0.964" r="0.964" transform="translate(147.201 34.765)" fill="#fff"/>
      <g id="Grupo_5671" data-name="Grupo 5671" transform="translate(118.183 25.311)" opacity="0.54">
        <path id="Caminho_2399" data-name="Caminho 2399" d="M631.672,191.016a6.058,6.058,0,0,0,.866-.18l3.261-.918a5.744,5.744,0,0,0,2.757-1.353c1.312-1.41.888-3.649.379-5.507q-.622-2.28-1.245-4.561a11.31,11.31,0,0,0-1.15-3.032A3.858,3.858,0,0,0,634,173.59a5.745,5.745,0,0,0-2.365.3l-3.129.866a5.7,5.7,0,0,0-2.828,1.38c-1.278,1.4-.866,3.588-.377,5.414l1.249,4.667C627.313,189.019,628.748,191.384,631.672,191.016Z" transform="translate(-624.822 -173.554)" fill="#ed3d8e"/>
        <path id="Caminho_2400" data-name="Caminho 2400" d="M645.8,204.426a1.537,1.537,0,0,0,2.564-.721l.364-1.425.362-1.427A1.537,1.537,0,0,0,647.18,199l-1.414.4-1.416.4a1.538,1.538,0,0,0-.65,2.581l1.055,1.026Z" transform="translate(-639.166 -193.328)" fill="#fff"/>
      </g>
    </g>
  </g>
</svg>
