<svg xmlns="http://www.w3.org/2000/svg" width="328" height="271" viewBox="0 0 328 271">
  <g id="Grupo_5675" data-name="Grupo 5675" transform="translate(-0.195)">
    <g id="Retângulo_1672" data-name="Retângulo 1672" transform="translate(0.195)" fill="#fff" stroke="#d9e1e7" stroke-width="1">
      <rect width="328" height="271" rx="11" stroke="none"/>
      <rect x="0.5" y="0.5" width="327" height="270" rx="10.5" fill="none"/>
    </g>
    <text id="Sincronização_de_dados" data-name="Sincronização de dados" transform="translate(160.195 238)" fill="#10182b" font-size="17" font-family="Inter-Bold, Inter" font-weight="700"><tspan x="-99" y="0">Sincronização de dados</tspan></text>
    <g id="Startup_Success_technology_growth___innovation_idea_thought_woman_statistics" data-name="Startup, Success, technology, growth _  innovation, idea, thought, woman, statistics" transform="translate(61.421 15.206)">
      <ellipse id="Elipse_257" data-name="Elipse 257" cx="4.677" cy="4.79" rx="4.677" ry="4.79" transform="translate(96.405 87.516) rotate(-44.95)" fill="rgba(87,21,232,0.5)"/>
      <ellipse id="Elipse_258" data-name="Elipse 258" cx="4.679" cy="4.792" rx="4.679" ry="4.792" transform="translate(82.947 85.881) rotate(-44.95)" fill="rgba(87,21,232,0.5)"/>
      <path id="Caminho_2238" data-name="Caminho 2238" d="M408.562,355.068l-.406-1.174c19.478-6.743,39.573-22.876,37.554-47.933-.909-11.3-6.7-22.474-15.1-29.16a29.005,29.005,0,0,0-22.755-6.327l-.309.043c-6.373.867-7.268,1.464-7.383,1.574l-.528-.276-.618-.12v-.006c.145-.765,9.295-51.206-31.268-64.452-40.648-13.25-61.464,20.472-61.67,20.814l-1.065-.64c.211-.351,21.541-34.909,63.12-21.355,38.11,12.445,33.532,56.341,32.318,64.552a42.69,42.69,0,0,1,6.924-1.321l.3-.041a30.218,30.218,0,0,1,23.708,6.584c8.667,6.893,14.632,18.4,15.568,30.032C449.024,331.626,428.48,348.173,408.562,355.068Z" transform="translate(-251.023 -170.391)" fill="rgba(87,21,232,0.5)"/>
      <path id="Caminho_2239" data-name="Caminho 2239" d="M433.725,606.438a73.1,73.1,0,0,1,5.066,24.878,61.252,61.252,0,0,0-4.628-24.79,47.364,47.364,0,0,0-4.086-7.484.1.1,0,0,0-.033-.044c-4.887-7.3-12.278-13.789-23.194-18.418l-9.117-2.656a9.334,9.334,0,0,1-.569,7.424c-2.012,4.188-6.968,9.369-12.233,8.147s-11.054-4.026-10.182-9.712S376,576.077,376,576.077l-31.14.3c3.338,4.491,7.957,14.812-1.375,31.494l5.8-.221s-3.869,36.4,4.9,50.52a3.446,3.446,0,0,0,.2.319l49.524-.206h3.442a.7.7,0,0,0,.033-.113H395.407a5.156,5.156,0,0,1-4.911-3.621,4.991,4.991,0,0,1-.221-1.531,5.17,5.17,0,0,1,5.153-5.162h29.624a3.64,3.64,0,0,1,.443.018.246.246,0,0,0,.077,0h.044l-.1.017h0a1.805,1.805,0,0,0-.182.034h-.016a3.405,3.405,0,0,0,.429-.018,6.628,6.628,0,0,0,.7-.082c.131-.02.259-.044.387-.073l.135-.024c.115-.025.229-.057.344-.09l.147-.041c.162-.051.317-.111.472-.171s.31-.122.465-.2a.079.079,0,0,0,.044-.016c.137-.068.274-.139.4-.208a6.765,6.765,0,0,0,.793-.516l.221-.179a5.92,5.92,0,0,0,.558-.5,6.411,6.411,0,0,0,.465-.516l.023-.029c.138-.172.276-.342.4-.531a5,5,0,0,0,.31-.507c.06-.1.12-.221.171-.328l.009-.012a.1.1,0,0,0,.026-.057,2.657,2.657,0,0,0,.119-.266,6.453,6.453,0,0,0,.277-.724c.069-.221.128-.456.179-.688.026-.12.051-.241.068-.361.036-.221.06-.443.077-.679,0-.069,0-.14.009-.21s.009-.142.009-.21a7.3,7.3,0,0,0-.328-2.178,2.427,2.427,0,0,0-.111-.334,2.6,2.6,0,0,0-.13-.336,7.483,7.483,0,0,0-1.549-2.3,3.194,3.194,0,0,0-.25-.241,6.019,6.019,0,0,0-.817-.646c-.037-.023-.074-.048-.111-.073-.058-.039-.118-.079-.181-.115a7.029,7.029,0,0,0-2.623-.98,6.658,6.658,0,0,0-1.093-.1l-4.611-.027-6.744-.033h-.2c-.2-.018-.4-.027-.6-.027h-1.014a36.683,36.683,0,0,0-2.7-15.139h0C409.511,618.111,417.172,603.047,433.725,606.438Zm.591,51.726s.456-1.264,1.085-3.475q-.636,1.784-1.412,3.475Zm-9.265,0c.2,0,.391-.007.586-.024l-.071.006c-.155.013-.216.018.423.018Z" transform="translate(-280.805 -459.28)" fill="#5715e8"/>
      <path id="Caminho_2240" data-name="Caminho 2240" d="M464.741,518.394s-.748,4.542-1.523,8.654c-2.213.024-4.427.042-6.616.06a24.591,24.591,0,0,1,1.523-14.358C459.925,516.854,462.643,518.1,464.741,518.394Z" transform="translate(-368.041 -410.255)" fill="#ed3d8e"/>
      <path id="Caminho_2241" data-name="Caminho 2241" d="M531.269,400.412A58.855,58.855,0,0,0,517,394.979l-1.629-.281s-1.213-2.758-1.219-2.767a31.612,31.612,0,0,1-1.8-4.887,18.5,18.5,0,0,1-.257-5.465c.319-2.709,1.58-8.44,3.86-10.246,1.9-1.5,2.685-1.182,3.763-3.522.774-1.669,1.089-4.473-.416-5.7-1.669-1.35-2.381-.664-4.378-.456-7.587.753-11.923-4.708-14.712-11.018a12.073,12.073,0,0,0-1.627-2.979c-.83-1-1.979-1.231-2.92-2.043a1.34,1.34,0,0,1-.482-1.417,1.771,1.771,0,0,1,.482-.611,15.567,15.567,0,0,1,6.235-3.508,22.8,22.8,0,0,1,11.288-.352,18.03,18.03,0,0,1,9.754,7.468c3.251,5.159,4.035,10.511,2.213,15.845-1.866,5.463-3.949,11.879-.443,17.136C529.377,387.157,532.19,392.068,531.269,400.412Z" transform="translate(-398.19 -275.886)" fill="#ed3d8e"/>
      <path id="Caminho_2242" data-name="Caminho 2242" d="M239.23,577.456l-.219-1.223c15.294-2.743,29.742-2.794,45.038-2.847l4.446-.018,6.612-.06.014,1.242-6.433.058-4.635.02C268.812,574.681,254.417,574.732,239.23,577.456Z" transform="translate(-199.928 -457.136)"/>
      <path id="Caminho_2243" data-name="Caminho 2243" d="M620.018,662.694l-1.255-.232.007-.018.119-.268c.508-1.107.977-2.259,1.391-3.424a63.669,63.669,0,0,0,3.344-23.146,72.147,72.147,0,0,0-5.021-24.663,52.756,52.756,0,0,0-3.617-7.306,38.113,38.113,0,0,0-6.257-7.994,45.572,45.572,0,0,0-9.3-6.816l-.006.006-.388-.212a53.208,53.208,0,0,0-6.964-3.181,62.444,62.444,0,0,0-7.154-2.192c-.627-.157-1.25-.3-1.88-.44l.266-1.213c.641.141,1.276.288,1.91.447a63.692,63.692,0,0,1,7.291,2.234,54.456,54.456,0,0,1,6.737,3.044l.092-.084.435.38a45.757,45.757,0,0,1,9.817,7.132,39,39,0,0,1,6.369,8.106l.046.035.1.214a52.355,52.355,0,0,1,3.653,7.375,73.393,73.393,0,0,1,5.111,25.091,64.919,64.919,0,0,1-3.416,23.6C621.024,660.368,620.542,661.555,620.018,662.694Z" transform="translate(-466.26 -463.55)"/>
      <path id="Caminho_2244" data-name="Caminho 2244" d="M623.464,939.285v-.143l.042-.109,1.221.238Z" transform="translate(-497.551 -740.261)"/>
      <path id="Caminho_2245" data-name="Caminho 2245" d="M608.852,757.3l-1.226-.108a69.2,69.2,0,0,0,1.859-14.547,36.442,36.442,0,0,0-2.651-14.9c-3.039-7.012-7.637-9.31-7.683-9.332l.543-1.117c.205.1,5.06,2.526,8.28,9.955a37.632,37.632,0,0,1,2.754,15.393A68.533,68.533,0,0,1,608.852,757.3Z" transform="translate(-478.729 -568.6)"/>
      <path id="Caminho_2246" data-name="Caminho 2246" d="M204.984,333.11l-1.232-.159c.471-3.658.831-6.974,1.175-10.145a185.113,185.113,0,0,1,3.537-23.081c.813-3.574,2.687-6.249,4.67-9.08l.813-1.167c3.813-5.512,5.532-12.157,5.256-20.317-.082-2.4-.18-5.263-1.694-7.065-.717-.857-2.352-1.543-3.386-.714-1.506,1.208-1.55,3.221-1.459,5.352l.03.6c.105,1.943.264,4.879-1.72,6.135a3.437,3.437,0,0,1-2.63.366,5.822,5.822,0,0,1-4.479-4.423,12.72,12.72,0,0,1,.644-6.339,14.25,14.25,0,0,1,1.266-2.413c.758-1.254,1.542-2.55,1.5-3.657-.066-1.618-1.625-2.294-2.941-2.379-1.985-.136-3.852,1.071-5.88,3.8a27.717,27.717,0,0,0-3.136,7.714l-1.2-.317a28.973,28.973,0,0,1,3.338-8.135c1.452-1.954,3.75-4.523,6.962-4.3,1.972.128,4.006,1.282,4.1,3.571.052,1.48-.829,2.937-1.681,4.347a13.439,13.439,0,0,0-1.16,2.188,11.461,11.461,0,0,0-.59,5.7,4.565,4.565,0,0,0,3.549,3.433,2.208,2.208,0,0,0,1.694-.22c1.348-.854,1.219-3.254,1.124-5.006l-.031-.618c-.1-2.363-.035-4.8,1.923-6.373,1.566-1.256,3.909-.556,5.115.885,1.789,2.129,1.9,5.233,1.98,7.726.289,8.532-1.5,15.422-5.472,21.16l-.818,1.174c-1.912,2.729-3.717,5.306-4.477,8.643a184.112,184.112,0,0,0-3.513,22.939C205.817,326.118,205.456,329.443,204.984,333.11Z" transform="translate(-165.175 -209.46)"/>
      <path id="Caminho_2247" data-name="Caminho 2247" d="M165.046,496c-7.715-21.925-5.2-45.947-4.63-50.425l-45.207,1.433a14.315,14.315,0,0,1-14.688-15.821l11.271-41.134,2.435-8.756a12.113,12.113,0,0,0-.479-7.925L112.6,370.64c-.1-.194-1.046-2.228-.092-3.623.582-.851,1.692-1.213,3.3-1.076a17.066,17.066,0,0,1,7.374,2.718c3.035,1.932,4.329,4.087,3.645,6.068a4.424,4.424,0,0,1-2.934,2.762,5.372,5.372,0,0,1-4.662-.632l.715-1.015a4.166,4.166,0,0,0,3.565.465,3.21,3.21,0,0,0,2.141-1.986c.644-1.865-1.689-3.691-3.138-4.613a15.829,15.829,0,0,0-6.815-2.528c-.773-.066-1.778-.026-2.165.54-.468.684,0,2,.2,2.408l1.162,2.769a13.359,13.359,0,0,1,.53,8.74l-2.434,8.752-11.252,41.034a13.086,13.086,0,0,0,13.432,14.35l46.686-1.48-.112.738c-.04.264-3.926,26.689,4.474,50.563Z" transform="translate(-92.654 -296.582)"/>
      <path id="Caminho_2248" data-name="Caminho 2248" d="M170.091,349.692a8.3,8.3,0,0,1-1.32-.111l.2-1.226c2.323.374,3.773-.33,4.081-1.983.552-2.962-2.854-8.157-9.451-9.556-3.134-.665-5.283-.411-6.213.734-1.374,1.693.034,4.936.048,4.969l-1.135.5c-.072-.161-1.731-3.968.12-6.253,1.26-1.556,3.763-1.949,7.438-1.17,7.429,1.576,11.073,7.469,10.414,11C173.9,348.587,172.372,349.691,170.091,349.692Z" transform="translate(-135.315 -272.814)"/>
      <path id="Caminho_2249" data-name="Caminho 2249" d="M185.115,324.141l-.761-.982c3.644-2.824,4.618-5.8,2.894-8.848-2.7-4.765-11.237-8-14.171-6.857a3.467,3.467,0,0,0-2.369,2.105,4.159,4.159,0,0,0,.916,3.12l-.96.788c-.07-.085-1.711-2.11-1.159-4.218a4.6,4.6,0,0,1,3.122-2.954c3.728-1.447,12.8,2.272,15.7,7.4C189.5,315.763,190.632,319.865,185.115,324.141Z" transform="translate(-146.033 -250.185)"/>
      <path id="Caminho_2250" data-name="Caminho 2250" d="M499.829,396.494l-1.235-.134c.88-8.128-1.858-12.917-6.471-19.839-3.748-5.62-1.367-12.591.372-17.681,1.749-5.121,1.025-10.274-2.151-15.314a17.416,17.416,0,0,0-9.424-7.209,22.025,22.025,0,0,0-12.855-.183c-4.963,1.441-8.579,5.08-10.749,10.816l-.087.229-.045.022a37.2,37.2,0,0,0-1.565,6.19c-.2,1.222-.362,2.493-.468,3.782-.482,5.939-.227,10.806.758,14.465a16.017,16.017,0,0,0,.871,2.5c1.7,3.9,4.276,5.024,6.133,5.281a6.989,6.989,0,0,0,2.829-.183l.329,1.2a8.222,8.222,0,0,1-3.329.215c-2.171-.3-5.165-1.588-7.1-6.01a17.249,17.249,0,0,1-.935-2.683c-1.02-3.791-1.288-8.8-.795-14.882.109-1.325.27-2.63.48-3.882a35.228,35.228,0,0,1,1.741-6.649l.1-.24c2.324-6,6.188-9.823,11.486-11.361a23.269,23.269,0,0,1,13.585.2,18.649,18.649,0,0,1,10.09,7.728c3.387,5.374,4.152,10.884,2.276,16.378-1.747,5.115-3.921,11.481-.514,16.59C497.925,382.988,500.754,387.949,499.829,396.494Z" transform="translate(-366.108 -271.894)"/>
      <path id="Caminho_2251" data-name="Caminho 2251" d="M445.487,517.562a24.688,24.688,0,0,1,2.459-17.641l1.079.616a23.466,23.466,0,0,0-2.322,16.772Z" transform="translate(-359.295 -400.324)"/>
      <path id="Caminho_2252" data-name="Caminho 2252" d="M465.541,415.632c-1.406-2-2.86-3.075-4.324-3.186a3.7,3.7,0,0,0-2.731,1.01l-.9-.859a4.959,4.959,0,0,1,3.723-1.39c1.852.14,3.617,1.389,5.247,3.711Z" transform="translate(-369.138 -331.636)"/>
      <path id="Caminho_2253" data-name="Caminho 2253" d="M494.225,478.6h0a3.725,3.725,0,0,1-2.031-.593,4.027,4.027,0,0,1-1.075-1.029,6.644,6.644,0,0,1-1.176-3.013.621.621,0,0,1,.557-.7c3.184-.306,6.676-.992,8.438-3.759a.621.621,0,0,1,1.143.389l-.039.351a14.015,14.015,0,0,1-2.16,6.426A4.671,4.671,0,0,1,494.225,478.6Zm-2.932-4.165a5.4,5.4,0,0,0,.837,1.821,2.783,2.783,0,0,0,.741.71,2.449,2.449,0,0,0,1.353.392,3.408,3.408,0,0,0,2.657-1.421,10.484,10.484,0,0,0,1.639-4.073C496.554,473.546,493.866,474.143,491.293,474.435Z" transform="translate(-394.183 -376.558)"/>
      <path id="Caminho_2254" data-name="Caminho 2254" d="M574.916,564.672l-.009-.009.878-.878Z" transform="translate(-459.961 -449.763)"/>
      <path id="Caminho_2255" data-name="Caminho 2255" d="M519.744,411.6c0-.074-.159-2.069-3.946-3.391-3.736-1.3-4.83.262-4.84.278l-1.057-.653c.062-.1,1.578-2.449,6.307-.8,4.665,1.629,4.776,4.42,4.779,4.538Z" transform="translate(-409.636 -327.964)"/>
      <path id="Caminho_2256" data-name="Caminho 2256" d="M468.166,433.407l-.56-1.109a4.552,4.552,0,0,1,4.169.032l-.674,1.044A3.381,3.381,0,0,0,468.166,433.407Z" transform="translate(-376.893 -347.576)"/>
      <path id="Caminho_2257" data-name="Caminho 2257" d="M515.7,437.513l-.56-1.109a4.531,4.531,0,0,1,4.16.034l-.677,1.042A3.361,3.361,0,0,0,515.7,437.513Z" transform="translate(-413.689 -350.754)"/>
      <path id="Caminho_2258" data-name="Caminho 2258" d="M479.039,436.013a13.054,13.054,0,0,1-9.17-3.58,9.145,9.145,0,0,1-2.7-6.767c.021-.9.523-3.8.94-6.075.1-.566.206-1.146.32-1.735.773-4.1,1.519-8.635,1.52-8.637l1.226.2s-.749,4.549-1.525,8.668c-.113.583-.22,1.154-.317,1.719-.571,3.118-.906,5.261-.921,5.886a7.928,7.928,0,0,0,2.34,5.865,11.821,11.821,0,0,0,8.422,3.211,10.612,10.612,0,0,0,8-3.6A13.966,13.966,0,0,0,490.4,420.58l-.7-1.872-.741-2.029c-.177-.487-.369-.972-.562-1.456a21.829,21.829,0,0,1-1.263-3.876,18.382,18.382,0,0,1-.108-5.64c.3-2.584.817-6.927,3.353-8.936.432-.34.866-.653,1.294-.961a9.346,9.346,0,0,0,3.5-3.632c.64-1.378.7-3.244-.6-4.307-1.383-1.119-3.63-1.071-5.852-.852-9.475.969-13.438-5.612-16.06-9.966-1.031-1.713-1.922-3.192-2.794-3.65-2.321-1.225-4.152,1.6-4.832,2.872l-.043.081-.107.151a.473.473,0,0,1-.045.165l-1.151-.466a4.185,4.185,0,0,1,.19-.394l.028-.055c1.814-3.4,4.246-4.664,6.54-3.453,1.179.619,2.106,2.159,3.279,4.108,2.607,4.33,6.178,10.26,14.871,9.371,1.674-.165,4.786-.472,6.76,1.124,1.817,1.486,1.78,3.98.939,5.793a10.59,10.59,0,0,1-3.9,4.118c-.414.3-.834.6-1.25.928-2.132,1.689-2.607,5.713-2.89,8.117a17.15,17.15,0,0,0,.1,5.259,20.6,20.6,0,0,0,1.2,3.642c.2.5.394.992.575,1.491l1.479,4.051A15.235,15.235,0,0,1,488.1,432a11.824,11.824,0,0,1-8.91,4.012Z" transform="translate(-373.861 -301.181)"/>
      <path id="Caminho_2259" data-name="Caminho 2259" d="M485.724,448.58a1.625,1.625,0,0,1-.866-.207.968.968,0,0,1-.446-.675c-.11-.7.743-3.646,1.261-5.342l1.188.363a43.845,43.845,0,0,0-1.208,4.617,3.286,3.286,0,0,0,.871-.132l.35,1.192A4.319,4.319,0,0,1,485.724,448.58Z" transform="translate(-389.897 -355.76)"/>
      <path id="Elipse_259" data-name="Elipse 259" d="M5.9,0a5.968,5.968,0,0,1,5.9,6.024,5.968,5.968,0,0,1-5.9,6.024A5.968,5.968,0,0,1,0,6.024,5.968,5.968,0,0,1,5.9,0Zm0,10.806a4.724,4.724,0,0,0,4.653-4.782A4.724,4.724,0,0,0,5.9,1.242,4.724,4.724,0,0,0,1.242,6.024,4.724,4.724,0,0,0,5.9,10.806Z" transform="translate(94.67 87.504) rotate(-44.95)"/>
      <path id="Elipse_260" data-name="Elipse 260" d="M5.9,0a5.968,5.968,0,0,1,5.9,6.024,5.968,5.968,0,0,1-5.9,6.024A5.968,5.968,0,0,1,0,6.024,5.968,5.968,0,0,1,5.9,0Zm0,10.806a4.724,4.724,0,0,0,4.653-4.782A4.724,4.724,0,0,0,5.9,1.242,4.724,4.724,0,0,0,1.242,6.024,4.724,4.724,0,0,0,5.9,10.806Z" transform="translate(81.216 85.868) rotate(-44.95)"/>
      <path id="Caminho_2260" data-name="Caminho 2260" d="M442.111,422.846a4.566,4.566,0,0,1,4.557-4.137h.007a5.068,5.068,0,0,1,.575.035,4.838,4.838,0,0,1,4.225,5.241,4.566,4.566,0,0,1-4.564,4.137,5.04,5.04,0,0,1-.576-.035A4.839,4.839,0,0,1,442.111,422.846Zm7.682-2.156a4.205,4.205,0,0,0-3.125-1.37,3.96,3.96,0,0,0-3.957,3.586,4.206,4.206,0,0,0,4.205,4.606,3.96,3.96,0,0,0,3.957-3.586A4.206,4.206,0,0,0,449.793,420.69Z" transform="translate(-357.141 -337.454)" fill="#fff"/>
      <path id="Caminho_2261" data-name="Caminho 2261" d="M488.9,441.261l-2.824-.343.15-1.233,2.824.343Z" transform="translate(-391.192 -353.692)"/>
      <path id="Caminho_2262" data-name="Caminho 2262" d="M217.433,125.85a13.03,13.03,0,0,1,12.242-11.872h0a12.97,12.97,0,0,1,10.392,21.54.928.928,0,0,0-.078.1,13.212,13.212,0,0,1-3.225,2.59,4.185,4.185,0,0,0-.834.6,12.437,12.437,0,0,1-11.175-.018,5.726,5.726,0,0,0-.852-.6,12.7,12.7,0,0,1-3.1-2.486A12.906,12.906,0,0,1,217.433,125.85Zm20.217,8.473a.219.219,0,0,1,.06-.068l0,0a9.993,9.993,0,1,0-12.472,2.047,4.719,4.719,0,0,1,.664.474,9.628,9.628,0,0,0,8.619,0,3.078,3.078,0,0,1,.637-.465A10.266,10.266,0,0,0,237.65,134.322Z" transform="translate(-183.187 -101.533)" fill="#ed3d8e"/>
      <path id="Caminho_2263" data-name="Caminho 2263" d="M261.223,223.92a4.914,4.914,0,0,0-1.611,3.654v.593a4.1,4.1,0,0,1-3.541,4.137,3.971,3.971,0,0,1-4.376-3.936v-.795a4.958,4.958,0,0,0-1.633-3.67,12.457,12.457,0,0,0,11.171.015Z" transform="translate(-208.482 -186.647)" fill="#5715e8"/>
      <path id="Caminho_2264" data-name="Caminho 2264" d="M259.8,221.223h.009l.182.773.164.24-.146-.16.146.16.052.077a4.3,4.3,0,0,0-1.4,3.184v.6a4.731,4.731,0,0,1-4.1,4.755,4.592,4.592,0,0,1-5.06-4.551v-.8a4.344,4.344,0,0,0-1.429-3.209l.7-1.016a11.836,11.836,0,0,0,10.518.062l.113-.1Zm-5.561,2.557a13.131,13.131,0,0,1-3.847-.58,5.58,5.58,0,0,1,.5,2.3v.8a3.35,3.35,0,0,0,3.691,3.318,3.479,3.479,0,0,0,2.984-3.519V225.5a5.531,5.531,0,0,1,.49-2.29A13.133,13.133,0,0,1,254.234,223.78Z" transform="translate(-207.055 -184.571)"/>
      <path id="Caminho_2265" data-name="Caminho 2265" d="M228.227,111.082q.285,0,.572.012a13.613,13.613,0,0,1,9.61,22.613,13.8,13.8,0,0,1-3.461,2.81,3.825,3.825,0,0,0-.72.52,12.975,12.975,0,0,1-11.87.082,6.921,6.921,0,0,0-.885-.625,13.612,13.612,0,0,1,6.753-25.411Zm.012,26.19a11.9,11.9,0,0,0,5.292-1.249,3.445,3.445,0,0,1,.807-.589,12.544,12.544,0,0,0,3.075-2.467,12.378,12.378,0,0,0-8.665-20.633l-.521-.011a12.37,12.37,0,0,0-6.134,23.092,6.075,6.075,0,0,1,.952.678A12.044,12.044,0,0,0,228.239,137.272Z" transform="translate(-181.068 -99.305)"/>
      <path id="Caminho_2266" data-name="Caminho 2266" d="M243.192,176.327l-2.97-9.845-.749-2.808a1.031,1.031,0,0,1,.721-1.128,1,1,0,0,1,1.127.467c.972,1.718,1.772,2.312,2.2,2.3.076,0,.131-.153.163-.313a5.325,5.325,0,0,1-2.246-3.073,1.217,1.217,0,0,1,.774-1.344,1.32,1.32,0,0,1,1.475.4,5.717,5.717,0,0,1,1.273,3.381,4.7,4.7,0,0,0,1.669.642c.054.008.1.014.151.017a4.108,4.108,0,0,1-1.786-3.3,1.358,1.358,0,0,1,1.6-1.181,2.581,2.581,0,0,1,2.04,1.711,3.863,3.863,0,0,1,.224,2.529,4.932,4.932,0,0,0,.814.224,2.244,2.244,0,0,0,1.412-.088,6.083,6.083,0,0,1-.68-2.3c-.082-.939.1-1.535.548-1.772a.875.875,0,0,1,.979.138,3.789,3.789,0,0,1,.748,3.962l-.028.058a1.8,1.8,0,0,0,.492.37,7.778,7.778,0,0,1,.8-2.195l.3-.508.671.167c.731.376.535,2.242.393,2.561a2.243,2.243,0,0,1-1.155,1.2c-.07.336-.142.668-.226.991-.324,1.243-.724,2.461-1.124,3.679-.475,1.447-.967,2.943-1.306,4.443l-1.212-.274c.352-1.557.853-3.082,1.338-4.556.392-1.193.785-2.387,1.1-3.6.056-.218.107-.44.155-.666a2.9,2.9,0,0,1-1.053-.683,3.24,3.24,0,0,1-2.38.3,6.128,6.128,0,0,1-1.276-.384,2.166,2.166,0,0,1-1.727.387,5.621,5.621,0,0,1-1.666-.56,1.339,1.339,0,0,1-1.207.877,3.227,3.227,0,0,1-2.481-1.624l.334,1.215,2.965,9.826Zm3.185-14.548c-.138,0-.144.044-.154.119a3.138,3.138,0,0,0,1.492,2.281,2.785,2.785,0,0,0-.225-1.424c-.25-.572-.629-.935-1.015-.97C246.436,161.781,246.4,161.779,246.376,161.779Zm-3.738-.04a2.3,2.3,0,0,0,.335.757,4.921,4.921,0,0,0,.5.653C243.234,162.391,242.861,161.784,242.638,161.739Z" transform="translate(-200.284 -137.56)"/>
      <path id="Caminho_2267" data-name="Caminho 2267" d="M317.316,938.361c-49.3-.251-143.24-.579-145.9-.027l-.44-1.156c1.572-.737,112.414-.231,146.349-.059Z" transform="translate(-147.257 -738.523)"/>
      <path id="Caminho_2268" data-name="Caminho 2268" d="M270.647,66.765l-.129-7.8,1.658-.027.129,7.8Z" transform="translate(-224.319 -58.94)"/>
      <path id="Caminho_2269" data-name="Caminho 2269" d="M187.758,104.955l-5.4-5.629,1.2-1.148,5.4,5.628Z" transform="translate(-156.071 -89.316)"/>
      <path id="Caminho_2270" data-name="Caminho 2270" d="M339.426,106.874l-1.172-1.173,5.518-5.511,1.172,1.173Z" transform="translate(-276.757 -90.873)"/>
      <path id="Caminho_2271" data-name="Caminho 2271" d="M559.728,843.742l.188.018c-.1.018-.221.035-.325.06h-.159l-14.987-.077h-1.693l-25.179-.128h-.285a.191.191,0,0,1-.069,0H517.2a3.028,3.028,0,0,1-.474-.033,7.185,7.185,0,0,0,3.681-1.53c.166-.139.336-.272.491-.423l.018-.018a1.007,1.007,0,0,0,.1-.1,7.291,7.291,0,0,0,2.151-4.757v-.4a7.3,7.3,0,0,0-5.841-7.123.013.013,0,0,0-.018,0c-.164-.042-.352-.068-.525-.1l.37-.024a1.183,1.183,0,0,1,.181,0h.292l21.273.111,3.916.018,3.475.018h1.884a7.286,7.286,0,0,1,6.556,7.233,6.825,6.825,0,0,1-.077,1.025,7.289,7.289,0,0,1-6.957,6.211h12.417C559.934,843.733,559.814,843.733,559.728,843.742Z" transform="translate(-414.922 -655.163)" fill="#fff"/>
      <path id="Caminho_2272" data-name="Caminho 2272" d="M506.544,902.682a5.136,5.136,0,0,0,3.648,1.514H497.846c-2.364,0-3.648-.576-4.584-1.514a5.172,5.172,0,0,1-1.514-3.647c0-2.829,2.322-5.153,6.1-5.153h12.346a5.153,5.153,0,0,0-3.648,8.8Z" transform="translate(-395.583 -705.307)" fill="rgba(237,61,142,0.1)"/>
      <path id="Caminho_2273" data-name="Caminho 2273" d="M672.1,837.092a3.321,3.321,0,0,1-.018.421c-.018.232-.042.456-.078.679-.018.12-.042.241-.069.361-.051.221-.111.465-.179.689a6.483,6.483,0,0,1-.277.724,2.674,2.674,0,0,1-.12.266c0,.026-.018.044-.035.068-.051.113-.111.222-.171.328-.1.173-.2.343-.31.507-.131.2-.277.379-.423.56a6.411,6.411,0,0,1-.465.516,5.9,5.9,0,0,1-.558.5l-.221.179a6.786,6.786,0,0,1-.793.516c-.128.069-.266.14-.4.208a.079.079,0,0,1-.044.016c-.155.077-.31.14-.465.2s-.31.12-.472.171-.327.1-.491.131a7.816,7.816,0,0,1-1.222.179h-.4c.1-.024.19-.033.286-.051a.047.047,0,0,1,.033,0,.569.569,0,0,1-.128-.018.293.293,0,0,1,.086,0H653.1a7.259,7.259,0,0,0,4.247-1.662,6.549,6.549,0,0,0,.518-.471,5,5,0,0,0,.387-.423,3.173,3.173,0,0,0,.257-.325c.051-.062.1-.122.137-.182a2.938,2.938,0,0,0,.221-.345,3.346,3.346,0,0,0,.268-.443,4.37,4.37,0,0,0,.221-.456c.033-.069.06-.146.1-.222.06-.155.111-.31.162-.465.071-.221.139-.456.19-.686a3.008,3.008,0,0,0,.069-.378.378.378,0,0,0,.018-.1.255.255,0,0,0,.018-.077,2.439,2.439,0,0,1,.033-.25v-.051a4.946,4.946,0,0,0,.044-.724,2.124,2.124,0,0,0-.018-.334v-.077a2.07,2.07,0,0,0-.027-.328,6.9,6.9,0,0,0-.4-1.746,5.647,5.647,0,0,0-.443-.972,5.963,5.963,0,0,0-.567-.885,2.385,2.385,0,0,0-.182-.232c-.026-.026-.051-.062-.086-.1a3.553,3.553,0,0,0-.378-.423c-.1-.1-.221-.206-.325-.316a3.122,3.122,0,0,0-.423-.345c-.146-.1-.241-.179-.37-.266a4.584,4.584,0,0,0-.6-.37,4.312,4.312,0,0,0-.611-.294,7.444,7.444,0,0,0-.748-.274,1.3,1.3,0,0,0-.268-.069,5.6,5.6,0,0,0-.722-.155c-.122-.026-.241-.035-.37-.051h-.018a.1.1,0,0,1-.051,0h.129l6.744.033,4.61.026a6.685,6.685,0,0,1,1.093.1,7.03,7.03,0,0,1,2.641.981c.1.06.2.128.292.188a5.988,5.988,0,0,1,.817.646,3.245,3.245,0,0,1,.25.241,7.48,7.48,0,0,1,1.549,2.3,2.7,2.7,0,0,1,.13.336,2.483,2.483,0,0,1,.111.334A7.31,7.31,0,0,1,672.1,837.092Z" transform="translate(-520.323 -655.66)" fill="#ed3d8e"/>
      <path id="Caminho_2274" data-name="Caminho 2274" d="M556.963,842.257h-.089l-18.513-.09-23.5-.12a3.126,3.126,0,0,1-.33-.022c-.115,0-.3-.01-.487-.025a.658.658,0,0,1-.608-.61.594.594,0,0,1,.511-.631,6.7,6.7,0,0,0,5.9-6.243v-.239a6.73,6.73,0,0,0-5.353-6.651c-.144-.029-.288-.051-.436-.072a.65.65,0,0,1-.558-.628.6.6,0,0,1,.522-.611,5.665,5.665,0,0,1,.579-.037c.018,0,.218,0,.236,0l28.917.145h1.734l11.437.06a8.121,8.121,0,0,1,1.2.093,7.932,7.932,0,0,1,2.87,1.064l.2.128a8.448,8.448,0,0,1,1,.777l.27.26a8.076,8.076,0,0,1,1.682,2.5l.139.356a3.648,3.648,0,0,1,.132.4,7.869,7.869,0,0,1,.353,2.343,3.936,3.936,0,0,1-.023.5c-.015.216-.042.457-.08.7-.019.128-.046.265-.076.4-.055.239-.119.5-.191.735a7.121,7.121,0,0,1-.3.8,1.891,1.891,0,0,1-.145.3.746.746,0,0,1-.082.142,1.242,1.242,0,0,1-.131.266c-.1.185-.216.372-.337.551-.131.2-.281.387-.432.575a7.324,7.324,0,0,1-.544.6,6.479,6.479,0,0,1-.608.544l-.215.174a7.455,7.455,0,0,1-.881.576l-.427.221a.7.7,0,0,1-.082.034c-.161.078-.321.143-.482.2s-.334.129-.508.183c-.292.082-.419.117-.546.145-.273.055-.416.082-.561.1a7.013,7.013,0,0,1-.754.088A3.782,3.782,0,0,1,556.963,842.257Zm-39.564-1.44,24.494.124,14.962.073.107.622v-.621a2.806,2.806,0,0,0,.29-.015,6.156,6.156,0,0,0,.658-.076c.129-.02.243-.042.357-.067l.447-.106c.277-.082.42-.138.563-.193s.274-.107.411-.175a.623.623,0,0,1,.106-.041l.327-.175a6.126,6.126,0,0,0,.71-.463l.2-.166a5.374,5.374,0,0,0,.506-.453,6.065,6.065,0,0,0,.437-.475c.143-.178.27-.333.383-.505.105-.156.2-.31.286-.467.053-.094.1-.186.148-.282,0-.014.158-.322.164-.336a5.8,5.8,0,0,0,.25-.654c.063-.2.119-.433.166-.641.023-.1.044-.208.059-.312.034-.214.056-.421.073-.636a2.827,2.827,0,0,0,.016-.374,6.682,6.682,0,0,0-.3-2,2.634,2.634,0,0,0-.1-.29l-.132-.34a6.81,6.81,0,0,0-1.413-2.093l-.223-.215a6.944,6.944,0,0,0-.753-.6l.059-.7-.324.53a6.692,6.692,0,0,0-2.417-.9,6.866,6.866,0,0,0-1.008-.078l-11.289-.06h-1.88l-26.271-.133a7.951,7.951,0,0,1,3.61,6.653v.369A7.974,7.974,0,0,1,517.4,840.817Z" transform="translate(-412.372 -652.97)"/>
      <path id="Caminho_2275" data-name="Caminho 2275" d="M514.644,826.8l.065,0a.6.6,0,0,1,.107.006c.05,0,.095,0,.106,0l29.8,0a5.146,5.146,0,0,1,.686.032l.514.052a6.208,6.208,0,0,1,.8.172,2.706,2.706,0,0,1,.281.073,8.067,8.067,0,0,1,.81.3c.218.091.443.2.656.316a6.344,6.344,0,0,1,.669.411c.132.089.267.182.4.288.185.146.326.258.448.367l.226.218c.28.288.418.435.546.592l.276.338a9.048,9.048,0,0,1,.62.967,9.44,9.44,0,0,1,.479,1.05,8.27,8.27,0,0,1,.443,1.9l.016.226c0,.022.014.225.014.248l0,.323a7.24,7.24,0,0,1-.039.788l-.668.314.62.035a1.637,1.637,0,0,1-.047.25,1.452,1.452,0,0,1-.057.337c-.052.227-.125.486-.2.725-.059.179-.112.34-.174.5l-.11.235a4.919,4.919,0,0,1-.253.521,3.786,3.786,0,0,1-.306.5,2.549,2.549,0,0,1-.228.355l-.155.2a3.281,3.281,0,0,1-.275.346,5.384,5.384,0,0,1-.416.452,7.459,7.459,0,0,1-.562.5,7.923,7.923,0,0,1-4.6,1.814H514.854c-.293,0-.6-.016-.9-.045a.621.621,0,0,1-.016-1.235,4.741,4.741,0,0,0,.487-.084.617.617,0,0,1,.134-.015,6.755,6.755,0,0,0,3.307-1.81,6.649,6.649,0,0,0,1.935-4.445v-.253a6.7,6.7,0,0,0-5.873-6.586.621.621,0,0,1,0-1.233c.207-.026.412-.037.619-.046Zm36.824,10.6-.579-.224c.055-.141.1-.283.147-.424.067-.212.131-.437.179-.643a2.5,2.5,0,0,0,.057-.31c0-.007.052-.317.053-.324a6.864,6.864,0,0,0,.047-.8l0-.3c-.018-.237-.027-.334-.027-.433a7.125,7.125,0,0,0-.368-1.536,8.111,8.111,0,0,0-.407-.891,7.719,7.719,0,0,0-.519-.81l-.17-.217c-.188-.22-.308-.347-.429-.476l-.284-.276c-.106-.094-.226-.188-.326-.268-.178-.141-.287-.216-.4-.293a5.205,5.205,0,0,0-.547-.337c-.179-.094-.37-.191-.559-.27a6.867,6.867,0,0,0-.691-.254l-.256-.065a5.012,5.012,0,0,0-.641-.138l-.351-.051c-.32-.022-.49-.02-.67-.02H517.388a7.943,7.943,0,0,1,3.654,6.609v.29a7.887,7.887,0,0,1-2.278,5.28,8.11,8.11,0,0,1-1.347,1.089h27.471a6.749,6.749,0,0,0,4.068-1.533,6.312,6.312,0,0,0,.48-.428,4.456,4.456,0,0,0,.343-.374A2.877,2.877,0,0,0,550,838.7l.151-.2a2.279,2.279,0,0,0,.174-.271,3.511,3.511,0,0,0,.258-.425,4,4,0,0,0,.2-.415Z" transform="translate(-412.33 -653.38)"/>
      <path id="Caminho_2276" data-name="Caminho 2276" d="M495.583,902.611a9.1,9.1,0,0,1-2.784-.436,5.567,5.567,0,0,1-.61-.26c-.179-.094-.334-.185-.488-.277a3.434,3.434,0,0,1-.411-.3c-.228-.2-.359-.314-.482-.44a5.762,5.762,0,0,1-1.422-2.358,5.6,5.6,0,0,1-.26-1.719,5.075,5.075,0,0,1,.04-.677,4.915,4.915,0,0,1,.2-.938,4.768,4.768,0,0,1,.626-1.35,4.118,4.118,0,0,1,.563-.746,5.384,5.384,0,0,1,.408-.407,7.164,7.164,0,0,1,4.87-1.673h42.9a.621.621,0,0,1,0,1.242h-.419a.62.62,0,0,1-.081,0v.028a4.538,4.538,0,0,0,.246,8.977.62.62,0,0,1,.239.081h.016a.621.621,0,0,1,0,1.242H495.811Zm.255-10.335a5.949,5.949,0,0,0-4.042,1.356,4.254,4.254,0,0,0-.323.323,3.066,3.066,0,0,0-.424.562,3.669,3.669,0,0,0-.49,1.051,3.792,3.792,0,0,0-.16.728,3.912,3.912,0,0,0-.031.526,4.381,4.381,0,0,0,.2,1.349,4.525,4.525,0,0,0,1.12,1.855c.107.109.216.207.332.31a2.838,2.838,0,0,0,.311.232c.138.081.275.163.429.244a4.288,4.288,0,0,0,.445.189,7.828,7.828,0,0,0,2.375.366l.212,0h39.73a5.754,5.754,0,0,1-.129-9.09Z" transform="translate(-393.553 -703.102)"/>
      <path id="Caminho_2277" data-name="Caminho 2277" d="M583.3,902.668H553.659a5.777,5.777,0,0,1-5.5-4.058,5.61,5.61,0,0,1-.249-1.723,5.8,5.8,0,0,1,5.772-5.775H583.3a4.326,4.326,0,0,1,.519.022.641.641,0,0,1,.641.561.6.6,0,0,1-.482.666l-.114-.31v.32l-.129-.007,0,.039a4.538,4.538,0,0,0,.25,8.977.621.621,0,0,1,.478.9.673.673,0,0,1-.512.365C583.736,902.661,583.52,902.668,583.3,902.668Zm-29.624-10.314a4.559,4.559,0,0,0-4.532,4.542,4.376,4.376,0,0,0,.194,1.347,4.535,4.535,0,0,0,4.318,3.183h27.323a5.754,5.754,0,0,1-.061-9.072Z" transform="translate(-439.057 -703.163)"/>
      <path id="Caminho_2278" data-name="Caminho 2278" d="M508.064,902.668H495.72c-2.3,0-3.853-.523-5.025-1.7a5.788,5.788,0,0,1-1.687-4.079c0-3.35,2.823-5.781,6.712-5.781h12.344a.621.621,0,0,1,0,1.242,4.536,4.536,0,0,0,0,9.072.621.621,0,0,1,0,1.242ZM495.72,892.354c-3.221,0-5.47,1.867-5.47,4.541a4.538,4.538,0,0,0,1.323,3.2c.659.659,1.667,1.332,4.147,1.332h8.77a5.764,5.764,0,0,1,.015-9.072Z" transform="translate(-393.462 -703.163)"/>
      <path id="Caminho_2279" data-name="Caminho 2279" d="M703.444,937.955h-.938a.621.621,0,0,1,0-1.242h.053c.11,0,.219,0,.328-.007l.083-.008a.441.441,0,0,1,.053,0v0a.662.662,0,0,1,.15.017h.272a.621.621,0,1,1,0,1.242Z" transform="translate(-558.259 -738.449)"/>
      <path id="Caminho_2280" data-name="Caminho 2280" d="M703.028,892.361h-.047l-.038,0-.22-.012a.664.664,0,0,1-.123-.012h-.094a.621.621,0,1,1,0-1.242h.938a.621.621,0,0,1,0,1.242l-.251,0a.6.6,0,0,1-.152.024h-.017Z" transform="translate(-558.259 -703.147)"/>
      <path id="Caminho_2281" data-name="Caminho 2281" d="M84.2,696.642,68.84,657.28a5.166,5.166,0,0,1,5.011-6.419h61.04a6.1,6.1,0,0,1,5.934,4.675l16.822,39.358a5.166,5.166,0,0,1-5.024,6.372h-62.5A6.1,6.1,0,0,1,84.2,696.642Z" transform="translate(-68.071 -517.173)" fill="#fff" opacity="0.54"/>
      <path id="Caminho_2282" data-name="Caminho 2282" d="M84.2,696.642,68.84,657.28a5.166,5.166,0,0,1,5.011-6.419h61.04a6.1,6.1,0,0,1,5.934,4.675l16.822,39.358a5.166,5.166,0,0,1-5.024,6.372h-62.5A6.1,6.1,0,0,1,84.2,696.642Z" transform="translate(-68.071 -517.173)" fill="#ed3d8e"/>
      <path id="Caminho_2283" data-name="Caminho 2283" d="M150.517,699.758h-62.5a6.709,6.709,0,0,1-6.519-5.095L66.155,655.377a5.782,5.782,0,0,1,5.59-7.266h61.04a6.7,6.7,0,0,1,6.538,5.151l16.789,39.259a5.777,5.777,0,0,1-5.595,7.238ZM71.745,649.353A4.545,4.545,0,0,0,67.336,655l15.341,39.287a5.5,5.5,0,0,0,5.338,4.229h62.5a4.545,4.545,0,0,0,4.42-5.606l-16.789-39.259a5.513,5.513,0,0,0-5.362-4.3Z" transform="translate(-65.965 -515.044)"/>
      <path id="Caminho_2284" data-name="Caminho 2284" d="M98.293,701.733,84.128,665.418a4.765,4.765,0,0,1,4.617-5.923h56.3a5.631,5.631,0,0,1,5.474,4.314l15.518,36.3a4.768,4.768,0,0,1-4.635,5.881H103.756A5.631,5.631,0,0,1,98.293,701.733Z" transform="translate(-79.915 -523.857)" fill="#ed3d8e"/>
      <path id="Caminho_2285" data-name="Caminho 2285" d="M203.975,684.575c-.746-1.122-1.965-1.62-2.727-1.107s-.772,1.826-.026,2.948a3.672,3.672,0,0,0,.394.48l-5.533,11.68a2.308,2.308,0,0,0-2.548-.27,1.9,1.9,0,0,0-.777,1.405l-3.781-1.277-3.3-1.107-1.08-.354a4.867,4.867,0,0,0-.56-1.149c-1.049-1.576-2.762-2.275-3.831-1.565s-1.08,2.528-.06,4.093l-6.288,8.594c-1.372-1.126-2.99-1.474-4.11-.73-1.523,1.016-1.549,3.661-.051,5.91.06.089.128.164.19.248l-4.2,5.737-.038.055a1.463,1.463,0,1,0,2.435,1.616l3.734-5.62a3.165,3.165,0,0,0,3.349.2c1.457-.97,1.525-3.422.221-5.6l6.031-9.1a2.329,2.329,0,0,0,2.577.292,1.826,1.826,0,0,0,.746-1.173l.443.126,3.362.918,4.3,1.16a4.713,4.713,0,0,0,.642,1.448c1.047,1.574,2.762,2.275,3.831,1.565s1.083-2.563.035-4.137a5,5,0,0,0-.518-.644l5.266-11.906a1.639,1.639,0,0,0,1.839.208C204.714,687.027,204.725,685.7,203.975,684.575Z" transform="translate(-142.91 -542.259)" fill="#fff"/>
      <path id="Caminho_2286" data-name="Caminho 2286" d="M124.684,683.955h-8.156a1.926,1.926,0,0,1-1.771-1.151.856.856,0,0,1-.073-.334.845.845,0,0,1,.843-.837H124.2A1.981,1.981,0,0,0,124.684,683.955Z" transform="translate(-103.681 -540.995)" fill="rgba(237,61,142,0.1)"/>
      <path id="Caminho_2287" data-name="Caminho 2287" d="M161.892,683.118a.841.841,0,0,1-.839.837h-4.442a1.949,1.949,0,0,1-.476-2.322h3.918a1.925,1.925,0,0,1,1.771,1.144A.863.863,0,0,1,161.892,683.118Z" transform="translate(-135.608 -540.995)" fill="#ed3d8e"/>
      <path id="Caminho_2288" data-name="Caminho 2288" d="M159.867,681.294a1.151,1.151,0,0,1-.08.129,2.023,2.023,0,0,1-2.826.153,2.635,2.635,0,0,1-.33-.281,1.949,1.949,0,0,1-.476-2.322.742.742,0,0,1,.079-.128,2.016,2.016,0,0,1,2.82-.157,2.629,2.629,0,0,1,.334.285A1.964,1.964,0,0,1,159.867,681.294Z" transform="translate(-135.623 -538.335)" fill="#fff"/>
      <path id="Caminho_2289" data-name="Caminho 2289" d="M157.568,705.8a.843.843,0,0,1-.843.837h-8.564a1.937,1.937,0,0,0-.471-2.322h8.043a1.926,1.926,0,0,1,1.771,1.151A.858.858,0,0,1,157.568,705.8Z" transform="translate(-129.232 -558.551)" fill="#ed3d8e"/>
      <path id="Caminho_2290" data-name="Caminho 2290" d="M129.65,706.662h-4.028a1.926,1.926,0,0,1-1.771-1.144.887.887,0,0,1-.073-.339.834.834,0,0,1,.837-.839h4.564A1.934,1.934,0,0,1,129.65,706.662Z" transform="translate(-110.721 -558.574)" fill="rgba(237,61,142,0.1)"/>
      <path id="Caminho_2291" data-name="Caminho 2291" d="M136.34,704.01a.54.54,0,0,1-.073.128,2.017,2.017,0,0,1-2.822.159,3.03,3.03,0,0,1-.343-.288,1.967,1.967,0,0,1-.476-2.322.668.668,0,0,1,.08-.126,2.022,2.022,0,0,1,2.826-.155,2.829,2.829,0,0,1,.328.281A1.925,1.925,0,0,1,136.34,704.01Z" transform="translate(-117.411 -555.922)" fill="#fff"/>
      <path id="Caminho_2292" data-name="Caminho 2292" d="M138.519,729.194h-5.126a1.932,1.932,0,0,1-1.771-1.146.863.863,0,0,1-.073-.334.846.846,0,0,1,.843-.843h5.64A1.99,1.99,0,0,0,138.519,729.194Z" transform="translate(-116.737 -576.015)" fill="#ed3d8e"/>
      <path id="Caminho_2293" data-name="Caminho 2293" d="M168.378,728.313a.837.837,0,0,1-.839.832h-7.47a1.975,1.975,0,0,1-.478-2.324h6.952a1.919,1.919,0,0,1,1.76,1.151A.865.865,0,0,1,168.378,728.313Z" transform="translate(-138.287 -575.978)" fill="rgba(237,61,142,0.1)"/>
      <path id="Caminho_2294" data-name="Caminho 2294" d="M163.3,726.551a.664.664,0,0,1-.08.126,2.014,2.014,0,0,1-2.82.159,3.273,3.273,0,0,1-.334-.286,1.975,1.975,0,0,1-.478-2.324.99.99,0,0,1,.08-.126,2.029,2.029,0,0,1,2.826-.155,3.177,3.177,0,0,1,.33.281A1.953,1.953,0,0,1,163.3,726.551Z" transform="translate(-138.287 -573.372)" fill="#fff"/>
      <path id="Caminho_2295" data-name="Caminho 2295" d="M285.259,835.367h-5.128a1.932,1.932,0,0,1-1.771-1.146.822.822,0,0,1-.075-.334.846.846,0,0,1,.843-.843h5.642A1.988,1.988,0,0,0,285.259,835.367Z" transform="translate(-230.332 -658.209)" fill="#ed3d8e"/>
      <path id="Caminho_2296" data-name="Caminho 2296" d="M327.176,834.535a.834.834,0,0,1-.837.832H306.825a1.975,1.975,0,0,1-.478-2.324h18.995a1.918,1.918,0,0,1,1.76,1.151A.866.866,0,0,1,327.176,834.535Z" transform="translate(-251.897 -658.209)" fill="rgba(237,61,142,0.1)"/>
      <path id="Caminho_2297" data-name="Caminho 2297" d="M310.058,832.724a.668.668,0,0,1-.08.126,2.014,2.014,0,0,1-2.82.159,3.044,3.044,0,0,1-.334-.286,1.975,1.975,0,0,1-.478-2.324.984.984,0,0,1,.08-.126,2.029,2.029,0,0,1,2.826-.155,3.126,3.126,0,0,1,.33.281A1.953,1.953,0,0,1,310.058,832.724Z" transform="translate(-251.897 -655.566)" fill="#fff"/>
    </g>
  </g>
</svg>
