<svg xmlns="http://www.w3.org/2000/svg" width="328" height="271" viewBox="0 0 328 271">
  <g id="Grupo_5677" data-name="Grupo 5677" transform="translate(-0.065 -0.087)">
    <g id="Retângulo_1674" data-name="Retângulo 1674" transform="translate(0.065 0.087)" fill="#fff" stroke="#d9e1e7" stroke-width="1">
      <rect width="328" height="271" rx="11" stroke="none"/>
      <rect x="0.5" y="0.5" width="327" height="270" rx="10.5" fill="none"/>
    </g>
    <text id="Segurança_LGPD" data-name="Segurança LGPD" transform="translate(162.065 238.087)" fill="#10182b" font-size="17" font-family="Inter-Bold, Inter" font-weight="700"><tspan x="-69" y="0">Segurança LGPD</tspan></text>
    <g id="Shopping_e-commerce___clothing_fashion_store_clothes_shop_woman_bill_list_invoice" data-name="Shopping, e-commerce _ clothing, fashion, store, clothes, shop, woman, bill, list, invoice" transform="translate(79.831 8.598)">
      <path id="Caminho_2083" data-name="Caminho 2083" d="M564.806,404.848l-.666-.759c1.586-1.393,4.435-4.016,7.245-6.825a56.131,56.131,0,0,0,6.52-7.368,41.183,41.183,0,0,0,6.77-21.635,32.117,32.117,0,0,0-.65-6.744c-.435-2.293-1.044-4.648-1.634-6.926s-1.194-4.615-1.63-6.9a32.554,32.554,0,0,1-.663-6.821,20.234,20.234,0,0,1,.346-3.342,16.811,16.811,0,0,1,2.683-6.428,20.049,20.049,0,0,1,2.572-3.023,83.385,83.385,0,0,0,6.308-6.752,45.9,45.9,0,0,0,4.847-7.039,36.546,36.546,0,0,0,1.811-3.778,34.931,34.931,0,0,0,1.37-4.034,36.644,36.644,0,0,0,.9-4.355,41.851,41.851,0,0,0,.407-4.741,42.992,42.992,0,0,0-2.7-16.555,33.785,33.785,0,0,0-3.909-7.376,28.753,28.753,0,0,0-5.756-6.073,68.449,68.449,0,0,0-13.021-7.909A91.059,91.059,0,0,0,561,254.018a103.068,103.068,0,0,0-15.7-2.962,97.536,97.536,0,0,0-10.585-.589q-2.371,0-4.682.124l-.054-1.008q2.335-.125,4.735-.125a98.542,98.542,0,0,1,10.695.595,104.09,104.09,0,0,1,15.857,2.991,92.071,92.071,0,0,1,15.119,5.507,69.458,69.458,0,0,1,13.213,8.027,29.763,29.763,0,0,1,5.958,6.286,34.8,34.8,0,0,1,4.027,7.6,44.014,44.014,0,0,1,2.771,16.948,42.9,42.9,0,0,1-.417,4.856,37.693,37.693,0,0,1-.928,4.475,35.973,35.973,0,0,1-1.41,4.151,37.551,37.551,0,0,1-1.861,3.883,46.885,46.885,0,0,1-4.952,7.193A84.317,84.317,0,0,1,586.4,328.8a19.036,19.036,0,0,0-2.442,2.87,16.025,16.025,0,0,0-1.613,2.973,17.212,17.212,0,0,0-1.239,6.249,31.57,31.57,0,0,0,.645,6.609c.43,2.255,1.033,4.585,1.615,6.838.593,2.294,1.207,4.666,1.648,6.991a33.11,33.11,0,0,1,.667,6.956,42.193,42.193,0,0,1-6.936,22.165,31.627,31.627,0,0,1-2.779,3.468c-1.073,1.2-2.375,2.564-3.87,4.059C569.272,400.8,566.4,403.445,564.806,404.848Z" transform="translate(-443.66 -204.75)" fill="rgba(87,21,232,0.5)"/>
      <path id="Caminho_2084" data-name="Caminho 2084" d="M182.437,511.49c-1.749-.647-3.487-1.349-5.164-2.086l0,0c-1.016-.455-2.029-.931-3.014-1.413h0a29.355,29.355,0,0,1-4.937-3.125,33.02,33.02,0,0,1-4.453-4.179,27.831,27.831,0,0,1-6-10.52,18.881,18.881,0,0,1-.708-7.168,16.847,16.847,0,0,1,2.413-7.111,33.2,33.2,0,0,1,6.355-7,53.625,53.625,0,0,0,4.008-3.906,20.129,20.129,0,0,0,1.679-2.143,14.736,14.736,0,0,0,1.318-2.389,12.19,12.19,0,0,0,.994-4.138,15.745,15.745,0,0,0-.322-4.151,46.423,46.423,0,0,0-2.885-8.372,49.286,49.286,0,0,1-2.726-7.7,45.435,45.435,0,0,1-.251-19.077,43.543,43.543,0,0,1,2.871-9.2,29.071,29.071,0,0,1,2.351-4.267,22.015,22.015,0,0,1,3.1-3.7,12.783,12.783,0,0,1,2.446-1.834,9.745,9.745,0,0,1,2.87-1.1l.2.989a8.74,8.74,0,0,0-2.572.989,11.776,11.776,0,0,0-2.252,1.69,21.005,21.005,0,0,0-2.959,3.531,28.06,28.06,0,0,0-2.269,4.119,42.532,42.532,0,0,0-2.8,8.984,44.426,44.426,0,0,0,.246,18.652,47.813,47.813,0,0,0,2.674,7.539,47.16,47.16,0,0,1,2.943,8.561,16.738,16.738,0,0,1,.34,4.415,13.535,13.535,0,0,1-.33,2.234,13.358,13.358,0,0,1-.745,2.241,15.73,15.73,0,0,1-1.407,2.552,21.124,21.124,0,0,1-1.762,2.25,54.342,54.342,0,0,1-4.083,3.982c-1.132,1.029-2.3,2.093-3.363,3.2a21.151,21.151,0,0,0-2.809,3.57,15.845,15.845,0,0,0-2.271,6.688,17.878,17.878,0,0,0,.674,6.786,26.818,26.818,0,0,0,5.787,10.132,32.015,32.015,0,0,0,4.316,4.051,28.344,28.344,0,0,0,4.766,3.018c.973.477,1.975.947,2.979,1.4,1.658.728,3.375,1.422,5.105,2.062Z" transform="translate(-158.067 -317.979)" fill="rgba(87,21,232,0.5)"/>
      <g id="Grupo_5669" data-name="Grupo 5669" transform="translate(71.889 56.913)">
        <path id="Caminho_2085" data-name="Caminho 2085" d="M776.018,493.533h8.911V597.75h-8.911Zm7.9,1.01h-6.892v102.2h6.892Z" transform="translate(-704.483 -449.091)" fill="rgba(87,21,232,0.5)"/>
        <path id="Caminho_2086" data-name="Caminho 2086" d="M515.155,547.807l0,.5h0Zm-.5-.51.5,0v0Zm8.691-4.562v.5h0Zm.507.5h.5v0Zm0,4.06h-.5v0Zm-.507.51,0-.5h0Zm6.21,6.6.5.013V554.4Zm-.5.5v.5h.011Zm-8.188,0v-.5h0Zm-.507-.5h-.5v0Zm0-4.062-.5,0v0Zm.507-.5v.5h0Zm8.188,0v.5h0Zm.509.5h.5v-.008Zm-4.106-3.032-.357.357.862.862V547.3Zm0-4.065-.5,0v0Zm.507-.5,0,.5h0Zm8.188,0v.5h0Zm.507.5h.5v0Zm0,4.06h-.5v0Zm-.507.51v-.5h0Zm-8.188,0v-.5h-.007Zm-.512-.51.357-.357-.851-.851-.011,1.2ZM540.32,554.4l.5.007V554.4Zm-.507.5,0-.5h0Zm.5-4.565h0Zm5.15-3.032h-.5v0Zm-.507.509,0-.5h0Zm-8.188,0,0,.5h0Zm-.5-.509.5,0v0Zm8.691-4.567v.5h0Zm.507.5h.5v0Zm10.8,4.065h-.5v0Zm-.5.509v.5h0Zm-8.188,0v-.5h0Zm-.507-.509.5,0v0Zm0-4.065-.5,0v0Zm.507-.5,0,.5h0Zm8.188,0v0Zm8.086-10.672h0Zm-4.793,4.8v.5h0Zm-39.982,0v-.5h0Zm-4.8-4.813h0Zm0-16.918h0Zm4.8-4.8v.5h0Zm39.984,0v.5h0Zm4.8,4.8h0Zm-.707-10.39.359.355.218-.221-.1-.294Zm-1.685.7,0-.5h0Zm-44.422,0v-.5h0Zm-2.388-2.4.5,0h0Zm2.388-2.386v-.5h0Zm44.417,0v.5h0Zm2.4,2.386h0Zm-.712,1.688-.353-.361-.226.221.1.3Zm7.279-10.631h.5v-.5h-.5Zm0,103.194v.5h.5v-.5Zm-10.581,0h-.5v.5h.5Zm0-31.7h0Zm-4.8-4.795v.5h0Zm-31.587,0v.5h0Zm-4.8,4.795h0Zm0,31.7v.5h.5v-.5Zm-3.5-49.987h0l-.719.709a1.011,1.011,0,0,0,.714.3Zm0,0h0l-1.01-.009a1.01,1.01,0,0,0,.291.718Zm0,0v-4.06h-1.01v4.06Zm0-4.06v0l-.714-.714a1.008,1.008,0,0,0-.3.712Zm0,0h0v-1.01a1.007,1.007,0,0,0-.712.3Zm0,0h8.188v-1.01h-8.188Zm8.191,0h0l.711-.717a1.009,1.009,0,0,0-.715-.292Zm0,0h0l1.01,0a1.01,1.01,0,0,0-.3-.713Zm0,0v4.06h1.01v-4.06Zm0,4.065h0l.716.712a1.008,1.008,0,0,0,.294-.721Zm0,0h0l0,1.01a1.01,1.01,0,0,0,.72-.3Zm0,0h-8.188v1.01h8.188Zm5.7,7.087h0v0h0l.022,1.009a1.014,1.014,0,0,0,.991-.987Zm.006,0h-8.188v1.01h8.188Zm-8.188,0h0l-1.009.009a1.012,1.012,0,0,0,1.012,1Zm0,0v-4.062h-1.01V554.4Zm0-4.058h0v-1.009a1.012,1.012,0,0,0-1.012,1Zm0,0h8.188v-1.009h-8.188Zm8.188,0h0v0h0v0l1.01-.014a1.014,1.014,0,0,0-1.014-1Zm0,0-.011,4.069,1.01,0,.011-4.069Zm-3.1-3.03v-4.065h-1.01V547.3Zm0-4.062h0l-.711-.717a1.01,1.01,0,0,0-.3.713Zm0,0h0l0-1.01a1.009,1.009,0,0,0-.715.292Zm0,0h8.188v-1.01h-8.188Zm8.188,0h0l1.01-.009a1.012,1.012,0,0,0-1.012-1Zm0,0v4.06h1.01v-4.06Zm0,4.062v0l.715.712a1.013,1.013,0,0,0,.295-.719Zm0,0h0v1.01a1.012,1.012,0,0,0,.717-.3Zm0,0h-8.188v1.01h8.188Zm-8.2,0h0l-.712.715a1.009,1.009,0,0,0,.726.294Zm0,0h0l-1.009-.009a1.009,1.009,0,0,0,.3.725Zm-.862.352,0,0,.714-.714,0,0Zm14.719,6.742s0,0,0,0h0l-.009,1.01a1.007,1.007,0,0,0,1.016-.994Zm0,0h-8.188v1.01h8.188Zm-8.188,0h-1.008a1.008,1.008,0,0,0,1.008,1.008Zm0,0v-4.062h-1.01V554.4Zm0-4.062h0v-1.009a1.007,1.007,0,0,0-1.008,1.007Zm0,0h8.188v-1.009h-8.188Zm8.188,0s0,0,0,0h1.008a1.007,1.007,0,0,0-1.008-1.007Zm0,0,0,4.069h1.01l0-4.069Zm5.149-3.028h0l.716.712a1.01,1.01,0,0,0,.294-.721Zm0,0h0l0,1.01a1.009,1.009,0,0,0,.72-.3Zm0,0H536.77v1.01h8.188Zm-8.186,0h0l-.719.709a1.009,1.009,0,0,0,.714.3Zm0,0h0l-1.01-.009a1.009,1.009,0,0,0,.291.718Zm0,0v-4.065h-1.01V547.3Zm0-4.065h0v-1.01a1.007,1.007,0,0,0-1.008,1.007Zm0,0h8.188v-1.01H536.77Zm8.19,0h0l.711-.717a1.009,1.009,0,0,0-.715-.292Zm0,0h0l1.01,0a1.01,1.01,0,0,0-.3-.713Zm0,0V547.3h1.01v-4.065Zm10.8,4.069h0l.719.709a1.009,1.009,0,0,0,.291-.718Zm0,0h0l0,1.01a1.009,1.009,0,0,0,.714-.3Zm0,0h-8.188v1.01h8.188Zm-8.191,0h0l-.715.712a1.009,1.009,0,0,0,.72.3Zm0,0h0l-1.01-.009a1.01,1.01,0,0,0,.294.721Zm0,0v-4.065h-1.01V547.3Zm0-4.062h0l-.711-.717a1.01,1.01,0,0,0-.3.713Zm0,0h0l0-1.01a1.009,1.009,0,0,0-.715.292Zm0,0h8.188v-1.01h-8.188Zm8.188,0s0,0,0,0h1.007a1.007,1.007,0,0,0-1.007-1.007Zm0,0V547.3h1.01v-4.065Zm7.584-11.174a4.292,4.292,0,0,1-4.288,4.294v1.01a5.3,5.3,0,0,0,5.3-5.3Zm-4.288,4.294H519.074v1.01h39.982Zm-39.982,0a4.3,4.3,0,0,1-3.043-1.261l-.715.713a5.306,5.306,0,0,0,3.758,1.558Zm-3.043-1.261a4.3,4.3,0,0,1-1.256-3.046l-1.01,0a5.306,5.306,0,0,0,1.551,3.761Zm-1.256-3.047V515.131h-1.01v16.918Zm0-16.918a4.293,4.293,0,0,1,1.256-3.036l-.714-.714a5.3,5.3,0,0,0-1.552,3.751Zm1.256-3.036a4.293,4.293,0,0,1,3.036-1.258v-1.01a5.3,5.3,0,0,0-3.75,1.554Zm3.036-1.258h39.984v-1.01H519.067Zm39.985,0a4.288,4.288,0,0,1,3.041,1.254l.714-.714a5.3,5.3,0,0,0-3.756-1.55Zm3.041,1.254a4.288,4.288,0,0,1,1.257,3.04h1.01a5.3,5.3,0,0,0-1.553-3.755Zm1.257,3.04-.007,16.932h1.01l.007-16.932Zm-.561-10.745a1.857,1.857,0,0,1-1.325.551l0,1.01a2.865,2.865,0,0,0,2.046-.85Zm-1.327.551H517.041v1.01h44.422Zm-44.422,0a1.883,1.883,0,0,1-1.335-.555l-.716.712a2.893,2.893,0,0,0,2.051.853Zm-1.335-.555a1.884,1.884,0,0,1-.548-1.339l-1.01-.006a2.892,2.892,0,0,0,.842,2.056Zm-.548-1.34a1.891,1.891,0,0,1,1.885-1.883l0-1.01a2.9,2.9,0,0,0-2.892,2.889Zm1.883-1.883h44.417v-1.01H517.041Zm44.42,0a1.881,1.881,0,0,1,1.336.548l.712-.716a2.89,2.89,0,0,0-2.053-.842Zm1.336.548a1.881,1.881,0,0,1,.554,1.333h1.01a2.889,2.889,0,0,0-.852-2.049Zm.554,1.333a1.855,1.855,0,0,1-.56,1.327l.705.723a2.866,2.866,0,0,0,.864-2.048Zm-.686,1.848,0,.013.958-.319,0-.013ZM507.624,494.6h62.8v-1.01h-62.8Zm62.293-.5V597.29h1.009V494.1Zm.5,102.689H559.841v1.01h10.581Zm-10.076.5v-31.7h-1.01v31.7Zm0-31.7a5.3,5.3,0,0,0-1.555-3.748l-.714.714a4.291,4.291,0,0,1,1.259,3.034Zm-1.555-3.748a5.3,5.3,0,0,0-3.75-1.551v1.01a4.291,4.291,0,0,1,3.036,1.256Zm-3.749-1.551H523.455v1.01h31.587Zm-31.586,0a5.3,5.3,0,0,0-3.75,1.551l.713.714a4.292,4.292,0,0,1,3.036-1.256Zm-3.75,1.551a5.3,5.3,0,0,0-1.555,3.748h1.01a4.292,4.292,0,0,1,1.259-3.034Zm-1.555,3.748v31.7h1.01v-31.7Zm.5,31.2h-10.3v1.01h10.3Z" transform="translate(-498.383 -449.135)" fill="rgba(87,21,232,0.5)"/>
        <path id="Caminho_2087" data-name="Caminho 2087" d="M583.054,527.626h-44.43a2.893,2.893,0,0,1-2.893-2.89v0a2.9,2.9,0,0,1,2.892-2.889h44.43a2.891,2.891,0,0,1,2.891,2.891h0a2.9,2.9,0,0,1-2.889,2.889Zm-46.314-2.89a1.886,1.886,0,0,0,1.884,1.881h44.427a1.881,1.881,0,1,0,0-3.762H538.625a1.891,1.891,0,0,0-1.885,1.881Z" transform="translate(-519.966 -470.831)" fill="rgba(87,21,232,0.5)"/>
        <path id="Caminho_2088" data-name="Caminho 2088" d="M539.394,564.049v.5h0Zm-4.8,4.8h0Zm0,16.918h0Zm4.8,4.8v.5h0Zm39.984,0v-.5h0Zm4.8-4.8h0Zm0-16.918h0Zm-27.188,14.573h0Zm-3.376,3.382v.5h0Zm-11.828,0v.5h0Zm-3.375-3.382h0Zm0-12.207h0Zm3.375-3.38v-.5h0Zm11.828,0v0Zm3.376,3.38h0Zm23.246,12.223h0Zm-3.376,3.382v.5h0Zm-11.868,0v.5h0Zm-3.375-3.382h0Zm0-12.239h0Zm3.375-3.38v-.5h0Zm11.868,0v-.5h0Zm3.376,3.38h0Zm-.862-7.654H539.394v1.01h39.977Zm-39.976,0a5.3,5.3,0,0,0-3.755,1.551l.714.714a4.292,4.292,0,0,1,3.04-1.256ZM535.64,565.1a5.3,5.3,0,0,0-1.555,3.753h1.01a4.293,4.293,0,0,1,1.259-3.039Zm-1.555,3.753v16.918h1.01V568.848Zm0,16.918a5.306,5.306,0,0,0,5.3,5.3v-1.01a4.3,4.3,0,0,1-4.293-4.295Zm5.3,5.3h39.984v-1.01H539.387Zm39.983,0a5.3,5.3,0,0,0,3.755-1.551l-.714-.714a4.292,4.292,0,0,1-3.04,1.256Zm3.755-1.551a5.3,5.3,0,0,0,1.555-3.753h-1.01a4.292,4.292,0,0,1-1.259,3.039Zm1.555-3.753V568.848h-1.01v16.918Zm0-16.917a5.3,5.3,0,0,0-1.553-3.755l-.713.714a4.288,4.288,0,0,1,1.257,3.039Zm-1.553-3.755a5.3,5.3,0,0,0-3.756-1.55l0,1.01a4.288,4.288,0,0,1,3.041,1.254Zm-26.644,18.328a2.874,2.874,0,0,1-.84,2.033l.715.713a3.883,3.883,0,0,0,1.135-2.748Zm-.84,2.033a2.873,2.873,0,0,1-2.032.843v1.01a3.883,3.883,0,0,0,2.745-1.14Zm-2.031.843H541.784v1.01h11.828Zm-11.827,0a2.874,2.874,0,0,1-2.032-.843l-.715.713a3.883,3.883,0,0,0,2.745,1.14Zm-2.032-.843a2.874,2.874,0,0,1-.839-2.033H537.9a3.882,3.882,0,0,0,1.134,2.748Zm-.839-2.034V571.214H537.9v12.207Zm0-12.208a2.874,2.874,0,0,1,.84-2.032l-.714-.713a3.883,3.883,0,0,0-1.135,2.746Zm.84-2.032a2.873,2.873,0,0,1,2.031-.843v-1.01a3.882,3.882,0,0,0-2.744,1.139Zm2.03-.843h11.828v-1.01H541.784Zm11.828,0a2.871,2.871,0,0,1,2.031.842l.714-.713a3.88,3.88,0,0,0-2.746-1.138Zm2.031.842a2.872,2.872,0,0,1,.84,2.032h1.01a3.88,3.88,0,0,0-1.135-2.747Zm.84,2.033v12.207h1.01V571.214Zm23.246,12.224a2.873,2.873,0,0,1-.839,2.033l.715.713a3.883,3.883,0,0,0,1.134-2.748Zm-.839,2.033a2.873,2.873,0,0,1-2.032.844v1.01a3.883,3.883,0,0,0,2.745-1.14Zm-2.031.844H564.989v1.01h11.868Zm-11.868,0a2.873,2.873,0,0,1-2.032-.844l-.715.713a3.883,3.883,0,0,0,2.745,1.14Zm-2.032-.844a2.871,2.871,0,0,1-.839-2.033h-1.01a3.882,3.882,0,0,0,1.134,2.748Zm-.839-2.034V571.2h-1.01v12.239Zm0-12.24a2.874,2.874,0,0,1,.84-2.032l-.714-.713a3.882,3.882,0,0,0-1.135,2.746Zm.84-2.032a2.874,2.874,0,0,1,2.031-.843v-1.01a3.883,3.883,0,0,0-2.745,1.139Zm2.031-.843h11.868v-1.01H564.989Zm11.868,0a2.873,2.873,0,0,1,2.031.843l.714-.713a3.882,3.882,0,0,0-2.745-1.139Zm2.031.843a2.872,2.872,0,0,1,.84,2.032h1.01a3.882,3.882,0,0,0-1.135-2.746Zm.84,2.032v12.239h1.01V571.2Z" transform="translate(-518.702 -502.852)" fill="rgba(87,21,232,0.5)"/>
        <path id="Caminho_2089" data-name="Caminho 2089" d="M583.054,527.626h-44.43a2.893,2.893,0,0,1-2.893-2.89v0a2.9,2.9,0,0,1,2.892-2.889h44.43a2.891,2.891,0,0,1,2.891,2.891h0a2.9,2.9,0,0,1-2.889,2.889Zm-46.314-2.89a1.886,1.886,0,0,0,1.884,1.881h44.427a1.881,1.881,0,1,0,0-3.762H538.625a1.891,1.891,0,0,0-1.885,1.881Z" transform="translate(-519.966 -470.831)" fill="rgba(87,21,232,0.5)"/>
        <path id="Retângulo_1679" data-name="Retângulo 1679" d="M-.294-2.175h31.4A1.883,1.883,0,0,1,32.987-.294a1.883,1.883,0,0,1-1.881,1.881H-.294A1.883,1.883,0,0,1-2.175-.294,1.883,1.883,0,0,1-.294-2.175ZM31.106.577a.872.872,0,0,0,.871-.871.872.872,0,0,0-.871-.871H-.294a.872.872,0,0,0-.871.871A.872.872,0,0,0-.294.577Z" transform="translate(25.398 117.008)" fill="rgba(87,21,232,0.5)"/>
        <path id="Retângulo_1680" data-name="Retângulo 1680" d="M-.294-2.175h31.4A1.883,1.883,0,0,1,32.987-.294a1.883,1.883,0,0,1-1.881,1.881H-.294A1.883,1.883,0,0,1-2.175-.294,1.883,1.883,0,0,1-.294-2.175ZM31.106.577a.872.872,0,0,0,.871-.871.872.872,0,0,0-.871-.871H-.294a.872.872,0,0,0-.871.871A.872.872,0,0,0-.294.577Z" transform="translate(25.398 122.689)" fill="rgba(87,21,232,0.5)"/>
        <path id="Retângulo_1681" data-name="Retângulo 1681" d="M-.294-2.175h31.4A1.883,1.883,0,0,1,32.987-.294a1.883,1.883,0,0,1-1.881,1.881H-.294A1.883,1.883,0,0,1-2.175-.294,1.883,1.883,0,0,1-.294-2.175ZM31.106.577a.872.872,0,0,0,.871-.871.872.872,0,0,0-.871-.871H-.294a.872.872,0,0,0-.871.871A.872.872,0,0,0-.294.577Z" transform="translate(25.398 128.371)" fill="rgba(87,21,232,0.5)"/>
        <path id="Retângulo_1682" data-name="Retângulo 1682" d="M-.294-2.175h31.4A1.883,1.883,0,0,1,32.987-.294a1.883,1.883,0,0,1-1.881,1.881H-.294A1.883,1.883,0,0,1-2.175-.294,1.883,1.883,0,0,1-.294-2.175ZM31.106.577a.872.872,0,0,0,.871-.871.872.872,0,0,0-.871-.871H-.294a.872.872,0,0,0-.871.871A.872.872,0,0,0-.294.577Z" transform="translate(25.398 134.053)" fill="rgba(87,21,232,0.5)"/>
        <path id="Retângulo_1683" data-name="Retângulo 1683" d="M-.294-2.175h31.4A1.883,1.883,0,0,1,32.987-.294a1.883,1.883,0,0,1-1.881,1.881H-.294A1.883,1.883,0,0,1-2.175-.294,1.883,1.883,0,0,1-.294-2.175ZM31.106.577a.872.872,0,0,0,.871-.871.872.872,0,0,0-.871-.871H-.294a.872.872,0,0,0-.871.871A.872.872,0,0,0-.294.577Z" transform="translate(25.398 139.733)" fill="rgba(87,21,232,0.5)"/>
        <path id="Caminho_2090" data-name="Caminho 2090" d="M556.826,463.36H467.807v-1.01h88.009v-2.718a5.588,5.588,0,0,0-5.593-5.593H472.586v-1.01h77.637a6.6,6.6,0,0,1,6.6,6.6Z" transform="translate(-467.807 -417.987)" fill="rgba(87,21,232,0.5)"/>
        <path id="Retângulo_1684" data-name="Retângulo 1684" d="M3.15-2.175H50.138A5.321,5.321,0,0,1,55.464,3.15V16.8a5.321,5.321,0,0,1-5.325,5.325H3.15A5.321,5.321,0,0,1-2.175,16.8V3.15A5.321,5.321,0,0,1,3.15-2.175ZM50.138,21.114A4.316,4.316,0,0,0,54.454,16.8V3.15a4.316,4.316,0,0,0-4.316-4.316H3.15A4.316,4.316,0,0,0-1.165,3.15V16.8A4.316,4.316,0,0,0,3.15,21.114Z" transform="translate(27.14 2.175)" fill="rgba(87,21,232,0.5)"/>
        <path id="Caminho_2091" data-name="Caminho 2091" d="M656.935,341.978a4.618,4.618,0,0,0,4.858-4.913,4.476,4.476,0,0,0-4.706-4.7,4.6,4.6,0,0,0-4.913,4.874A4.508,4.508,0,0,0,656.935,341.978Zm.077-2.052c-1.224,0-1.883-1.185-1.883-2.766v-.009c0-1.347.51-2.759,1.883-2.759,1.292,0,1.82,1.4,1.82,2.768C658.832,338.816,658.122,339.926,657.012,339.926Z" transform="translate(-609.383 -325.326)" fill="rgba(237,61,142,0.1)"/>
        <path id="Caminho_2092" data-name="Caminho 2092" d="M706.848,334.026c.023.491.023,1.044.023,1.629v8.414a1.431,1.431,0,1,0,2.861,0v-3.144h.037a2.87,2.87,0,0,0,2.391,1.053c2.052,0,4.181-1.581,4.181-4.931,0-2.936-1.808-4.686-3.821-4.686a3.538,3.538,0,0,0-3.068,1.485h-.039l-.132-1.278h-1a1.426,1.426,0,0,0-1.431,1.458Zm2.941,4.394a2.764,2.764,0,0,1-.057-.6v-1.251a2.141,2.141,0,0,1,.057-.507,1.8,1.8,0,0,1,1.71-1.451c1.28,0,1.94,1.112,1.94,2.579,0,1.562-.735,2.6-1.976,2.6A1.731,1.731,0,0,1,709.789,338.42Z" transform="translate(-651.367 -325.326)" fill="rgba(237,61,142,0.1)"/>
        <path id="Caminho_2093" data-name="Caminho 2093" d="M705.684,416.32h-1.01V404.568h1.01Z" transform="translate(-649.698 -380.774)" fill="rgba(87,21,232,0.5)"/>
      </g>
      <path id="Caminho_2094" data-name="Caminho 2094" d="M162.66,879.613h23.471v2.5a11.741,11.741,0,1,1-23.48,0v-2.5Z" transform="translate(-161.586 -688.649)" fill="rgba(237,61,142,0.1)"/>
      <path id="Caminho_2095" data-name="Caminho 2095" d="M303.032,256.956l-.039,7.831V400.406c0,7.574-6.141,6.141-13.715,6.13l-19.313-.013H215.292A11.716,11.716,0,0,0,225,395.43c.014-.157.014-.316.014-.473a1.626,1.626,0,0,0,0-.178l-.171-138.947a11.874,11.874,0,0,0-5.709-9.053,11.657,11.657,0,0,0-5.866-1.569h78.017A11.748,11.748,0,0,1,303.032,256.956Z" transform="translate(-200.459 -201.489)" fill="#ed3d8e"/>
      <path id="Caminho_2096" data-name="Caminho 2096" d="M186.161,275.056H162.69V256.43a11.741,11.741,0,1,1,23.48,0v21.349" transform="translate(-161.616 -200.963)" fill="rgba(237,61,142,0.1)"/>
      <rect id="Retângulo_1685" data-name="Retângulo 1685" width="37.607" height="91.241" rx="18.804" transform="translate(67.131 176.95) rotate(180)" fill="#ed3d8e"/>
      <path id="Caminho_2097" data-name="Caminho 2097" d="M415.664,393.367H402.206v-1.01h13.458Z" transform="translate(-345.542 -314.484)" fill="#fff"/>
      <path id="Caminho_2098" data-name="Caminho 2098" d="M341.43,466.5H320.484v-1.01H341.43Z" transform="translate(-282.788 -370.647)" fill="#fff"/>
      <path id="Caminho_2099" data-name="Caminho 2099" d="M341.43,498.2H320.484v-1.01H341.43Z" transform="translate(-282.788 -394.984)" fill="#fff"/>
      <path id="Caminho_2100" data-name="Caminho 2100" d="M341.43,529.891H320.484v-1.01H341.43Z" transform="translate(-282.788 -419.321)" fill="#fff"/>
      <path id="Caminho_2101" data-name="Caminho 2101" d="M341.43,561.584H320.484v-1.01H341.43Z" transform="translate(-282.788 -443.658)" fill="#fff"/>
      <path id="Caminho_2102" data-name="Caminho 2102" d="M341.43,593.268H320.484v-1.01H341.43Z" transform="translate(-282.788 -467.988)" fill="#fff"/>
      <path id="Caminho_2103" data-name="Caminho 2103" d="M341.43,624.961H320.484v-1.01H341.43Z" transform="translate(-282.788 -492.326)" fill="#fff"/>
      <path id="Caminho_2104" data-name="Caminho 2104" d="M341.43,730.84H320.484v-1.01H341.43Z" transform="translate(-282.788 -573.63)" fill="#fff"/>
      <path id="Caminho_2105" data-name="Caminho 2105" d="M341.43,745.619H320.484v-1.01H341.43Z" transform="translate(-282.788 -584.979)" fill="#fff"/>
      <path id="Caminho_2106" data-name="Caminho 2106" d="M341.43,760.387H320.484v-1.01H341.43Z" transform="translate(-282.788 -596.32)" fill="#fff"/>
      <path id="Caminho_2107" data-name="Caminho 2107" d="M413.492,356.137H402.206v-1.01h11.286Z" transform="translate(-345.542 -285.895)" fill="#fff"/>
      <path id="Caminho_2108" data-name="Caminho 2108" d="M415.068,374.757H402.206v-1.01h12.862Z" transform="translate(-345.542 -300.193)" fill="#fff"/>
      <path id="Caminho_2109" data-name="Caminho 2109" d="M417.432,337.527H402.206v-1.01h15.226Z" transform="translate(-345.542 -271.604)" fill="#fff"/>
      <rect id="Retângulo_1686" data-name="Retângulo 1686" width="15.819" height="15.819" rx="7.91" transform="translate(50.898 79.809) rotate(180)" fill="#ed3d8e"/>
      <ellipse id="Elipse_247" data-name="Elipse 247" cx="2.325" cy="2.325" rx="2.325" ry="2.325" transform="translate(40.664 66)" fill="rgba(237,61,142,0.1)"/>
      <path id="Caminho_2110" data-name="Caminho 2110" d="M329.728,372.548a5.887,5.887,0,1,0-11.773,0Z" transform="translate(-280.846 -294.752)" fill="rgba(237,61,142,0.1)"/>
      <path id="Caminho_2111" data-name="Caminho 2111" d="M318.973,845.6l-1.72,3.484a.637.637,0,0,1-.482.35l-3.839.559a.641.641,0,0,0-.364,1.1l2.784,2.714a.632.632,0,0,1,.184.567l-.657,3.833a.641.641,0,0,0,.93.682l3.441-1.82a.642.642,0,0,1,.6,0l3.441,1.82a.639.639,0,0,0,.928-.682l-.655-3.833a.633.633,0,0,1,.184-.567l2.784-2.714a.641.641,0,0,0-.357-1.094l-3.846-.559a.637.637,0,0,1-.482-.35l-1.722-3.484a.639.639,0,0,0-1.149,0Z" transform="translate(-276.559 -662.256)" fill="rgba(237,61,142,0.1)"/>
      <path id="Caminho_2112" data-name="Caminho 2112" d="M409.729,883.367h-13.07v-1.01h13.07Z" transform="translate(-341.283 -690.757)" fill="rgba(87,21,232,0.5)"/>
      <path id="Caminho_2113" data-name="Caminho 2113" d="M448.487,258.518h-5.445a5.748,5.748,0,0,1-5.563-7.176l1.938-7.506h19.6l-11.7-36.227h2.668a6,6,0,0,0,3.171-.9,5.672,5.672,0,0,0,.93-.705c.073-.066.146-.136.211-.2.137-.139.262-.284.387-.43s.227-.3.344-.455a6.073,6.073,0,0,0,.955-4.3q-.573-3.776-1.16-7.363c-12.069-74.25-26.021-90.035-32.981-93.39l.614-7.877a4.73,4.73,0,0,0,2.5-2.088c.159.045.323.1.5.171a7.045,7.045,0,0,0,4.758.3c1.858-.705.764-2.65.639-4.053-.041-.33-.35-2.4.289-2.4h1.41a.455.455,0,0,0,.4-.707,13.255,13.255,0,0,1-1.792-7.151,2.7,2.7,0,0,1-.257.316c.087-.1.171-.209.25-.316.045-.066.093-.127.139-.193s.087-.136.132-.209a4,4,0,0,0,.227-.455,4.594,4.594,0,0,0,.323-.962,4.866,4.866,0,0,0-.15-2.716V71.5a.856.856,0,0,0-.066-.171,3.663,3.663,0,0,0-.227-.528c-.052-.1-.1-.2-.164-.3a2.649,2.649,0,0,0-.146-.227c-.1-.152-.209-.3-.323-.441a5.968,5.968,0,0,0-.553-.626,13.65,13.65,0,0,0-4.983-2.957c-.171-.059-.351-.118-.521-.171s-.277-.086-.414-.125c-.33-.1-.66-.184-1-.257-.177-.039-.355-.08-.534-.1-.227-.048-.455-.086-.705-.118-.177-.027-.355-.048-.534-.066s-.362-.034-.539-.048h-.046a11.379,11.379,0,0,0-8.609,2.754c-.125.121-.25.227-.375.371.059-.086.125-.18.177-.271a5.862,5.862,0,0,0,.455-.876,3.748,3.748,0,0,0,.152-.416c.046-.139.084-.284.125-.428a5.541,5.541,0,0,0,.164-1.365,5.76,5.76,0,0,0-.316-1.886c-.032-.086-.059-.171-.091-.25a5.815,5.815,0,0,0-.3-.639,6.86,6.86,0,0,0-.455-.705,5.775,5.775,0,0,0-4.658-2.34,3.023,3.023,0,0,0-.43.02,3.691,3.691,0,0,0-.48.052,5.821,5.821,0,0,0,.91,11.568,5.724,5.724,0,0,0,2.786-.753h.014a6.158,6.158,0,0,0,.553-.344,1.311,1.311,0,0,0,.121-.084c.136-.107.261-.212.389-.323a14.05,14.05,0,0,0-2.566,11.421,25.2,25.2,0,0,0,1.24,4.094c.56,1.417,1.569,2.445,1.754,4.008.139,1.205-2.275,8.047-3.046,11.054a16.24,16.24,0,0,0-3.867,5.55c.048-.132.1-.257.146-.389-.125.262-.243.532-.364.81a17.684,17.684,0,0,0-.657,1.774,26.378,26.378,0,0,0-1.022,4.592c-.073.521-.138,1.042-.191,1.569l-.02.227a.726.726,0,0,1-.014.118c-.025.275-.045.553-.066.83-.027.348-.052.7-.066,1.049s-.032.657-.052.994v.066c-.02.382-.034.764-.039,1.153v.139c-.034,1.378-.027,2.768,0,4.153.032,2.195.1,4.383.1,6.492v.962s0,.639-.014.948-.013.6-.025.892c0,.33-.027.653-.041.976v.091a.72.72,0,0,1,0,.1v.045c-.014.257-.034.514-.055.771a170.6,170.6,0,0,1-4.713,29.305C394.3,176.3,388.971,188.8,386.3,202c-.633,3.1-.994,6.61-.059,9.524a9.152,9.152,0,0,0,.35.93c.066.15.136.3.209.455.118.227.246.434.371.646a6.185,6.185,0,0,0,.428.612c.1.132.212.257.323.389a4.925,4.925,0,0,0,.35.369,11.641,11.641,0,0,0,6.25,2.8L384.6,231.353l6.116,2.939.441.211-.087.132-.257-.125-12.282,16.01,20.56,10.131a2.523,2.523,0,0,0,1.344.264,2.629,2.629,0,0,0,2.557-1.472,2.579,2.579,0,0,0,.278-1.174,2.656,2.656,0,0,0-1.483-2.379l-4.56-2.247a5.741,5.741,0,0,1-1.82-8.891l4.31-5.418,1.067-.2,12.794,6.141L422.1,235v8.853H429.2l-3.99,19.964h23.273a2.65,2.65,0,1,0,0-5.3Z" transform="translate(-327.361 -58.738)" fill="#fff"/>
      <path id="Caminho_2114" data-name="Caminho 2114" d="M555.2,240.3c3.348,14.664,4.922,36.449,5.648,56.181-.733-19.716-2.313-41.453-5.648-56.092-1.681-7.315-4.062-10.788-6.862-12.173.257.1.521.227.785.357a.167.167,0,0,0,.046.025C551.609,230.243,553.686,233.71,555.2,240.3Z" transform="translate(-457.755 -188.44)" fill="#5715e8"/>
      <path id="Caminho_2115" data-name="Caminho 2115" d="M603.754,619.233a3.267,3.267,0,0,0-.228-.271,6.151,6.151,0,0,0,.212-.824C603.754,618.508,603.754,618.871,603.754,619.233Z" transform="translate(-500.137 -487.862)" fill="#5715e8"/>
      <path id="Caminho_2116" data-name="Caminho 2116" d="M554.311,166.191a4.619,4.619,0,0,1-3.041,4.342,4.466,4.466,0,0,1-1.574.28,4.024,4.024,0,0,1-.83-.082,4.615,4.615,0,0,1-.93-7.961,4.549,4.549,0,0,1,2.748-.91,4,4,0,0,1,.83.082A4.614,4.614,0,0,1,554.311,166.191Z" transform="translate(-456.008 -137.485)"/>
      <path id="Caminho_2117" data-name="Caminho 2117" d="M604.658,646.119c0-.3,0-.612-.014-.924C606.022,645.011,604.658,645.821,604.658,646.119Z" transform="translate(-500.995 -508.619)" fill="#ed3d8e"/>
      <path id="Caminho_2118" data-name="Caminho 2118" d="M464.928,315.4c.369,4.153.764,8.306,1.278,12.432.065.526.145,1.085.228,1.667.635,4.441,1.459,10.213-2.417,13.113a7.628,7.628,0,0,1-3.316,1.178,128.148,128.148,0,0,1-40.423.989c-2.98-.393-6.15-1.008-8.286-3.123-3.241-3.2-2.886-8.464-1.977-12.919a197.678,197.678,0,0,1,6.295-22.119c1.8-5.509,3.6-11.02,5.035-16.63a170.59,170.59,0,0,0,4.713-29.307c.02-.3.041-.614.059-.924v62.3a1.365,1.365,0,0,0-.573,1.092v14.375h.573v1.665a1.012,1.012,0,0,0,1.01,1.014h26.514a1.01,1.01,0,0,0,1.015-.994c.034-2.077.1-8.134.086-15.346v-1.824c-.1.013-.23.032-.369.059a1.292,1.292,0,0,0-.91-.368.348.348,0,0,0-.073,0h-3.184l-.83-3.776,6.824.093s-.507-2.955-1.279-7.668c-.059-1.046-.184-2.234-.389-3.564.007.221.012.441.017.66s.01.447.017.671c-2.32-14.375-6.287-40.805-6.6-54.464q-.023-.995-.044-1.955c-.4-18.033-.591-26.7-10.455-27.209h-.628a7.685,7.685,0,0,1,2.215,0h.014a9.889,9.889,0,0,1,2.5.7.031.031,0,0,1,.025,0l.041.018a6.931,6.931,0,0,1,.778.455c-.264-.13-.528-.253-.785-.357,2.8,1.385,5.181,4.858,6.862,12.173,2.177,9.6,3.608,22.252,4.549,35.39-.91-13.172-2.354-25.859-4.549-35.483-1.51-6.592-3.587-10.058-6.032-11.7a20.121,20.121,0,0,1,3.782,2.5c6.789,5.709,9.307,14.443,10.672,22.859,2.879,17.782,5.049,35.7,6.987,53.613C464.3,308.254,464.612,311.827,464.928,315.4Zm-27.506,6.071,6.578.25H426.9a1.341,1.341,0,0,0-.771.246v-62.3c.137-2.592.085-5.367.032-8.193q-.017-.895-.032-1.8v-4.665c.023-1.424.1-2.827.227-4.213a29.461,29.461,0,0,1,1.226-6.287,17.179,17.179,0,0,1,.66-1.774c.118-.278.237-.548.362-.81a41.4,41.4,0,0,0-2.1,14.612s1.82,43.867,10.463,70.934h-.18Z" transform="translate(-351.055 -185.54)" fill="#5715e8"/>
      <path id="Caminho_2119" data-name="Caminho 2119" d="M555.2,240.3c3.348,14.664,4.922,36.449,5.648,56.181-.733-19.716-2.313-41.453-5.648-56.092-1.681-7.315-4.062-10.788-6.862-12.173.257.1.521.227.785.357a.167.167,0,0,0,.046.025C551.609,230.243,553.686,233.71,555.2,240.3Z" transform="translate(-457.755 -188.44)" fill="#5715e8"/>
      <path id="Caminho_2120" data-name="Caminho 2120" d="M603.754,619.233a3.267,3.267,0,0,0-.228-.271,6.163,6.163,0,0,0,.212-.824C603.754,618.508,603.754,618.871,603.754,619.233Z" transform="translate(-500.137 -487.862)" fill="#5715e8"/>
      <path id="Caminho_2121" data-name="Caminho 2121" d="M583.165,338.574h-2.67l-6.13-18.958c-.316-3.573-.633-7.147-1.021-10.711-1.938-17.91-4.106-35.831-6.987-53.613-1.365-8.416-3.88-17.15-10.67-22.859a20.057,20.057,0,0,0-3.785-2.5,7.282,7.282,0,0,1,3.139.91c7.179,3.462,21.817,20.175,34.136,100.762a6.085,6.085,0,0,1-6.012,6.971Z" transform="translate(-460.494 -189.755)" fill="#ed3d8e"/>
      <path id="Caminho_2122" data-name="Caminho 2122" d="M605.425,871.437a2.653,2.653,0,0,1-2.657,2.65H579.85l3.985-19.984H594.07l-1.938,7.506a5.748,5.748,0,0,0,5.564,7.176h5.088a2.656,2.656,0,0,1,2.657,2.65Z" transform="translate(-481.956 -669.06)" fill="#ed3d8e"/>
      <path id="Caminho_2123" data-name="Caminho 2123" d="M403.028,837.595a2.582,2.582,0,0,1-.278,1.174,2.638,2.638,0,0,1-3.546,1.208l-20.557-10.131,12.283-16.01,9.232,4.436-5,5.807a5.741,5.741,0,0,0,1.82,8.891l4.549,2.254A2.652,2.652,0,0,1,403.028,837.595Z" transform="translate(-327.451 -638.138)" fill="#ed3d8e"/>
      <path id="Caminho_2124" data-name="Caminho 2124" d="M479.107,658.523a3.921,3.921,0,0,1,.439,1.995c0,1.313,4.076,1.08,4.615,1.08l20.983-.055s2.957.762,2.957-2.2.91-15.226-.334-15.824-8.944-.12-8.944-.12l-17.412-.25s-2.568-1.592-2.438,3.341S479.107,658.523,479.107,658.523Z" transform="translate(-404.489 -506.881)" fill="rgba(237,61,142,0.1)"/>
      <path id="Caminho_2125" data-name="Caminho 2125" d="M536.625,93.874a4.79,4.79,0,0,1-.823,1.82,6.458,6.458,0,0,1-2.577,2.011,12.436,12.436,0,0,1-7.506.751,8.867,8.867,0,0,0-1.733-.255,2.589,2.589,0,0,0-1.831.585c-1.5,1.385-.705,3.171.48,4.528a4.763,4.763,0,0,0-1.94,3.849,3.066,3.066,0,0,1-.771,1.226c-.2,0-.682.7-.851.682-1.383-.243-1.942.441-2.4-.682a27.069,27.069,0,0,1-1.758-7.535c-.293-2.982-.409-6.337.91-9.1a11.143,11.143,0,0,1,4.126-4.49,15.369,15.369,0,0,1,5.8-2.275,15.875,15.875,0,0,1,4.237.892C533.343,87.071,537.521,89.721,536.625,93.874Z" transform="translate(-431.948 -78.455)" fill="#ed3d8e"/>
      <path id="Caminho_2126" data-name="Caminho 2126" d="M495.734,64.821a5.774,5.774,0,0,1-1.067,3.355,10.867,10.867,0,0,0-.876.983,5.5,5.5,0,0,1-1.062.751,5.816,5.816,0,0,1-3.717-10.836,5.97,5.97,0,0,1,.91-.073A5.821,5.821,0,0,1,495.734,64.821Z" transform="translate(-409.895 -58.497)" fill="#ed3d8e"/>
      <path id="Caminho_2127" data-name="Caminho 2127" d="M436.257,222.581h0a10.465,10.465,0,0,1,4.755,1.245,20.571,20.571,0,0,1,3.879,2.565,24.18,24.18,0,0,1,2.4,2.324,25.77,25.77,0,0,1,2.028,2.57,31.146,31.146,0,0,1,3.081,5.709,44.526,44.526,0,0,1,2.037,6.194c.49,1.919.915,4,1.3,6.363,3.164,19.527,5.4,38.924,6.991,53.642.349,3.225.644,6.514.93,9.694.4,4.417.808,8.984,1.366,13.445.065.518.143,1.064.226,1.643a33.031,33.031,0,0,1,.492,7.26,10.6,10.6,0,0,1-.837,3.5,7.158,7.158,0,0,1-2.257,2.847,8.2,8.2,0,0,1-3.529,1.27c-3.847.713-7.772,1.255-11.667,1.612s-7.841.538-11.748.538a129,129,0,0,1-17.175-1.152,25.64,25.64,0,0,1-4.548-.937,9.977,9.977,0,0,1-4.028-2.327,8.541,8.541,0,0,1-1.916-2.912,11.911,11.911,0,0,1-.775-3.391,24.782,24.782,0,0,1,.577-7.081c.684-3.391,1.611-7.053,2.833-11.2,1.088-3.688,2.3-7.406,3.482-11,1.768-5.4,3.6-10.988,5.021-16.572,1.2-4.77,2.206-9.651,2.987-14.507s1.358-9.807,1.713-14.714c.208-2.782.148-5.758.085-8.909-.118-5.911-.24-12.023,1.451-17.284h0c.206-.635.433-1.245.676-1.812a21.1,21.1,0,0,1,1.872-3.5,14.249,14.249,0,0,1,2.336-2.721,9.874,9.874,0,0,1,2.782-1.771A8.3,8.3,0,0,1,436.257,222.581ZM435.706,344c3.875,0,7.8-.179,11.655-.534s7.759-.893,11.575-1.6a7.282,7.282,0,0,0,3.108-1.086c1.6-1.195,2.477-3.034,2.693-5.623a32.279,32.279,0,0,0-.486-7.033c-.084-.583-.163-1.135-.229-1.661-.561-4.479-.972-9.055-1.37-13.481-.285-3.176-.581-6.459-.928-9.676-1.591-14.705-3.823-34.086-6.984-53.589-.378-2.333-.8-4.385-1.279-6.275a43.532,43.532,0,0,0-1.99-6.055,30.133,30.133,0,0,0-2.98-5.524,24.732,24.732,0,0,0-1.948-2.469,23.144,23.144,0,0,0-2.3-2.227,19.553,19.553,0,0,0-3.689-2.439,9.472,9.472,0,0,0-4.3-1.135h0a7.839,7.839,0,0,0-5.29,2.147,13.241,13.241,0,0,0-2.168,2.529,20.082,20.082,0,0,0-1.781,3.337c-.231.54-.447,1.121-.644,1.728-1.639,5.1-1.519,11.127-1.4,16.954.063,3.175.123,6.175-.087,9-.358,4.935-.937,9.915-1.723,14.8s-1.8,9.8-3.006,14.6v0c-1.433,5.617-3.267,11.219-5.039,16.636-1.174,3.589-2.388,7.3-3.473,10.973-1.214,4.113-2.134,7.747-2.812,11.11a23.819,23.819,0,0,0-.561,6.791,10.913,10.913,0,0,0,.705,3.1,7.535,7.535,0,0,0,1.689,2.571,9,9,0,0,0,3.632,2.086,24.727,24.727,0,0,0,4.368.9h0A128,128,0,0,0,435.706,344Z" transform="translate(-349.378 -184.112)"/>
      <path id="Caminho_2128" data-name="Caminho 2128" d="M511.357,372.853l-.612-.015c-.126,0-12.7-.317-19.666-.246l-.412,0-.087-.4c-.867-4.037-1.891-8.678-3.045-13.792-2.589-11.448-4.428-27.705-5.515-39.327-1.175-12.57-1.793-23.22-1.733-23.929l1.006.084h0c-.017.237.083,2.618.4,7.29.248,3.658.681,9.493,1.338,16.516,1.083,11.575,2.915,27.762,5.489,39.144,1.116,4.949,2.112,9.454,2.96,13.4.6,0,1.232-.007,1.892-.007,6.122,0,14.479.187,16.787.242-.448-2.71-2.327-14.192-4.161-27.276-1.228-8.763-2.2-16.52-2.879-23.056a174.469,174.469,0,0,1-1.2-18.685l1.01.013a173.579,173.579,0,0,0,1.2,18.566c.681,6.524,1.648,14.269,2.875,23.02,2.089,14.9,4.236,27.727,4.258,27.855Z" transform="translate(-405.498 -239.834)"/>
      <path id="Caminho_2129" data-name="Caminho 2129" d="M480.293,390.431h-1.01V313.477h1.01Z" transform="translate(-404.73 -253.911)"/>
      <path id="Caminho_2130" data-name="Caminho 2130" d="M507.3,666.926H480.8a1.519,1.519,0,0,1-1.517-1.516v-1.65h1.01v1.649a.511.511,0,0,0,.508.508h26.5a.5.5,0,0,0,.5-.495v0c.042-2.661.108-9.054.087-16.14l1.01,0c.021,7.093-.044,13.494-.087,16.158a1.51,1.51,0,0,1-1.51,1.491Z" transform="translate(-404.73 -511.773)"/>
      <path id="Caminho_2131" data-name="Caminho 2131" d="M552.193,321.871c-.024-6.7-.117-13.351-.276-19.758-.2-8.128-.51-15.86-.916-22.982-1.045-18.317-2.734-32.683-5.019-42.7a39.738,39.738,0,0,0-1.373-4.754,20.8,20.8,0,0,0-1.592-3.443,11.2,11.2,0,0,0-1.764-2.3,7.3,7.3,0,0,0-1.8-1.3h-.013l-.1-.05a6.842,6.842,0,0,0-2.356-.651l.091-1.005a7.845,7.845,0,0,1,2.6.7h.018l.1.05a8.254,8.254,0,0,1,2.163,1.541,12.207,12.207,0,0,1,1.927,2.508,21.8,21.8,0,0,1,1.672,3.611,40.783,40.783,0,0,1,1.409,4.876c2.3,10.071,3.994,24.493,5.043,42.866.407,7.132.716,14.875.917,23.014.159,6.414.252,13.069.276,19.78Z" transform="translate(-449.039 -184.375)"/>
      <path id="Caminho_2132" data-name="Caminho 2132" d="M504.455,658.521H476.833V643.646a1.852,1.852,0,0,1,1.848-1.849h26.513v1.01H478.682a.843.843,0,0,0-.839.841v13.865h25.6v-12.9h1.01Z" transform="translate(-402.849 -506.03)"/>
      <path id="Caminho_2133" data-name="Caminho 2133" d="M592.454,644.616h-1.01v-1.073a1.779,1.779,0,0,1,1.778-1.756h.011a1.791,1.791,0,0,1,1.26.514,1.731,1.731,0,0,1,.527,1.216l-1.009.02a.73.73,0,0,0-.222-.512h0a.788.788,0,0,0-.555-.227h-.011a.771.771,0,0,0-.769.757Z" transform="translate(-490.859 -506.021)"/>
      <path id="Caminho_2134" data-name="Caminho 2134" d="M596.192,651.578h-2.573v-1.01h2.573Z" transform="translate(-492.529 -512.765)"/>
      <path id="Caminho_2135" data-name="Caminho 2135" d="M539.022,630.836H525.565l-.921-4.419.988-.206.753,3.615h11.4l-.672-3.286.989-.2Z" transform="translate(-439.564 -494.061)"/>
      <path id="Caminho_2136" data-name="Caminho 2136" d="M431.369,768.737l-29.882-14.355,10.278-14.112.816.594L403.017,754,431.1,767.486l8.271-9.971.777.645Z" transform="translate(-344.991 -581.647)"/>
      <path id="Caminho_2137" data-name="Caminho 2137" d="M602.326,671.5H564.191v-9.539l.116-.14,14.887-17.946.777.645L565.2,662.329v8.166h35.738L589.451,634.93l-6.132-18.963.961-.311,6.132,18.963Z" transform="translate(-469.931 -485.956)"/>
      <path id="Caminho_2138" data-name="Caminho 2138" d="M602.234,874.185H578.689l4.105-20.592.99.2-3.865,19.385h22.314a2.147,2.147,0,0,0,0-4.295h-5.092a6.246,6.246,0,0,1-6.043-7.8l1.936-7.506.978.252-1.936,7.506a5.236,5.236,0,0,0,5.066,6.543h5.092a3.157,3.157,0,0,1,0,6.314Z" transform="translate(-481.064 -668.651)"/>
      <path id="Caminho_2139" data-name="Caminho 2139" d="M399.329,839.2a3.148,3.148,0,0,1-1.392-.326l-21.109-10.407,12.78-16.66.8.615L378.377,828.1l20.005,9.863a2.148,2.148,0,1,0,1.9-3.853l-4.565-2.252a6.246,6.246,0,0,1-1.979-9.675l5.059-5.88.765.659-5.059,5.88a5.236,5.236,0,0,0,1.66,8.111l4.566,2.252a3.159,3.159,0,0,1-1.4,5.99Z" transform="translate(-326.054 -636.58)"/>
      <path id="Caminho_2140" data-name="Caminho 2140" d="M583.119,337.359h-2.685v-1.01h2.685a5.572,5.572,0,0,0,5.509-6.411c-1.854-12.135-3.889-23.431-6.047-33.572-1.963-9.226-4.072-17.705-6.269-25.2-3.7-12.637-7.72-22.753-11.94-30.066a47.146,47.146,0,0,0-5.028-7.252,21.453,21.453,0,0,0-3.965-3.667,9.4,9.4,0,0,0-2.585-1.305,3.321,3.321,0,0,0-.921-.168h.006l-.053-1.008a3.822,3.822,0,0,1,1.117.169,9.946,9.946,0,0,1,2.8,1.342,21.564,21.564,0,0,1,4.136,3.719,46.623,46.623,0,0,1,5.152,7.3c4.291,7.331,8.37,17.5,12.125,30.239,2.226,7.55,4.362,16.1,6.349,25.407,2.185,10.236,4.243,21.645,6.117,33.912a6.582,6.582,0,0,1-6.507,7.573Z" transform="translate(-460.436 -188.04)"/>
      <path id="Caminho_2141" data-name="Caminho 2141" d="M506.264,118.03l-.978-.252c.28-1.087.763-2.644,1.275-4.292.451-1.452.917-2.954,1.257-4.183.182-.657.311-1.174.4-1.581a3.11,3.11,0,0,0,.106-.817,6.16,6.16,0,0,0-.944-2.355,11.925,11.925,0,0,1-.773-1.524,25.516,25.516,0,0,1-1.264-4.176,14.78,14.78,0,0,1-.3-3.581,14.956,14.956,0,0,1,.567-3.559,13.142,13.142,0,0,1,3.708-6.111,10.812,10.812,0,0,1,3.033-1.955,12.069,12.069,0,0,1,3.4-.888,15.753,15.753,0,0,1,6.973.866,16.709,16.709,0,0,1,2.657,1.2,11.6,11.6,0,0,1,2.438,1.795,6.824,6.824,0,0,1,1.654,2.456,5.473,5.473,0,0,1,.206,3.118,5.328,5.328,0,0,1-.982,2.123,6.509,6.509,0,0,1-1.7,1.529,10.929,10.929,0,0,1-4.43,1.494,12.854,12.854,0,0,1-4.412-.164c-1.116-.257-2.369-.473-3.108.209a1.807,1.807,0,0,0-.614,1.8,4.687,4.687,0,0,0,1.13,2.021l-.762.662c-1.727-1.986-1.887-3.89-.439-5.224a2.957,2.957,0,0,1,2.047-.723,8.563,8.563,0,0,1,1.973.273,11.824,11.824,0,0,0,4.056.146,9.922,9.922,0,0,0,4.018-1.345,4.719,4.719,0,0,0,2.237-3.013,4.479,4.479,0,0,0-.165-2.551,5.824,5.824,0,0,0-1.417-2.09,13.337,13.337,0,0,0-4.723-2.76,14.741,14.741,0,0,0-6.522-.815,11.061,11.061,0,0,0-3.113.813A9.8,9.8,0,0,0,510,86.345a12.134,12.134,0,0,0-3.419,5.644,13.94,13.94,0,0,0-.528,3.318,13.778,13.778,0,0,0,.277,3.335,24.509,24.509,0,0,0,1.214,4.01,11.158,11.158,0,0,0,.712,1.4,7.038,7.038,0,0,1,1.07,2.739,9.446,9.446,0,0,1-.531,2.784c-.345,1.243-.813,2.753-1.266,4.212C507.017,115.421,506.537,116.967,506.264,118.03Z" transform="translate(-424.501 -76.672)"/>
      <path id="Caminho_2142" data-name="Caminho 2142" d="M581.872,146.177q-.337,0-.689-.034a10.229,10.229,0,0,1-2.49-.591l-.01,0c-.185-.072-.324-.12-.45-.156l.277-.971c.155.044.32.1.532.183a9.218,9.218,0,0,0,2.237.533,4.8,4.8,0,0,0,2.167-.237.963.963,0,0,0,.733-.836,4.837,4.837,0,0,0-.2-1.55,8.637,8.637,0,0,1-.214-1.142l-.008-.061c-.19-1.453-.126-2.241.215-2.632a.769.769,0,0,1,.58-.27h1.35a13.73,13.73,0,0,1-1.83-7.384l1.009.038a12.722,12.722,0,0,0,1.717,6.879.959.959,0,0,1-.844,1.477h-1.244a2.743,2.743,0,0,0-.046.741c.014.414.068.824.094,1.021,0,.031.007.056.01.076l0,.017a7.756,7.756,0,0,0,.193,1.011,5.5,5.5,0,0,1,.221,1.91,1.966,1.966,0,0,1-1.376,1.649A5.425,5.425,0,0,1,581.872,146.177Z" transform="translate(-480.715 -113.807)"/>
      <path id="Elipse_248" data-name="Elipse 248" d="M3.106-2.175A5.277,5.277,0,0,1,8.388,3.106,5.277,5.277,0,0,1,3.106,8.388,5.277,5.277,0,0,1-2.175,3.106,5.277,5.277,0,0,1,3.106-2.175Zm0,9.553A4.272,4.272,0,0,0,7.378,3.106,4.272,4.272,0,0,0,3.106-1.165,4.272,4.272,0,0,0-1.165,3.106,4.272,4.272,0,0,0,3.106,7.378Z" transform="translate(90.421 25.6)"/>
      <path id="Elipse_249" data-name="Elipse 249" d="M4.148-2.175a6.318,6.318,0,0,1,6.323,6.323,6.318,6.318,0,0,1-6.323,6.323A6.318,6.318,0,0,1-2.175,4.148,6.318,6.318,0,0,1,4.148-2.175Zm0,11.637A5.309,5.309,0,0,0,9.462,4.148,5.309,5.309,0,0,0,4.148-1.165,5.309,5.309,0,0,0-1.165,4.148,5.309,5.309,0,0,0,4.148,9.462Z" transform="translate(75.879 2.175)"/>
      <path id="Caminho_2143" data-name="Caminho 2143" d="M564.273,207.628l-1.007-.078.607-7.872,1.007.078Z" transform="translate(-469.221 -166.525)"/>
      <path id="Caminho_2144" data-name="Caminho 2144" d="M522.486,182.342a5.206,5.206,0,0,1-2.083-.477l.446-.906h0a3.594,3.594,0,0,0,2.511.218,1.867,1.867,0,0,0,.669-.461,2.775,2.775,0,0,0,.556-.947l.948.349a3.768,3.768,0,0,1-.769,1.292,2.869,2.869,0,0,1-1.033.707A3.338,3.338,0,0,1,522.486,182.342Z" transform="translate(-436.306 -151.236)"/>
      <path id="Caminho_2145" data-name="Caminho 2145" d="M514.947,134.568c0,.416-.02.8-.041,1.16.007-.389.014-.771.041-1.16Z" transform="translate(-432.085 -116.526)" fill="#ed3d8e"/>
      <path id="Caminho_2146" data-name="Caminho 2146" d="M347.972,939.041H213.281v-1.01H347.972Z" transform="translate(-200.466 -733.509)"/>
    </g>
  </g>
</svg>
