<svg xmlns="http://www.w3.org/2000/svg" width="793" height="533" viewBox="0 0 793 533">
  <path id="União_2" data-name="União 2" d="M478.468,481.954l.091.353S445.1,446.379,404.7,471.364c-1.914,1.183-3.646,2.244-5.216,3.195a257.616,257.616,0,0,1-140.954,41.7C115.748,516.264,0,400.694,0,258.132S115.748,0,258.531,0A258.544,258.544,0,0,1,488.248,139.586c6.838,11.392,26.958,37.632,63.568,29.346.9-.2,1.756-.4,2.584-.58a186.682,186.682,0,0,1,52.277-7.422C709.58,160.93,793,244.221,793,346.964S709.58,533,606.678,533A185.832,185.832,0,0,1,478.468,481.954Z" transform="translate(793 533) rotate(180)" fill="#f4f6f6"/>
</svg>
