<svg xmlns="http://www.w3.org/2000/svg" width="623.721" height="496.864" viewBox="0 0 623.721 496.864">
  <path id="União_14" data-name="União 14" d="M330.148,332.553l.063.244s-23.086-24.79-50.964-7.551c-1.32.816-2.516,1.548-3.6,2.2a177.758,177.758,0,0,1-97.259,28.777C79.868,356.228,0,276.484,0,178.114S79.868,0,178.389,0A178.4,178.4,0,0,1,336.9,96.316c4.718,7.86,18.6,25.966,43.863,20.249.619-.14,1.211-.273,1.783-.4a128.813,128.813,0,0,1,36.072-5.121c71,0,128.564,57.471,128.564,128.366s-57.56,128.367-128.564,128.367A128.226,128.226,0,0,1,330.148,332.553Z" transform="matrix(0.966, -0.259, 0.259, 0.966, 0, 141.62)" fill="#5715e8" opacity="0.385"/>
</svg>
