<svg xmlns="http://www.w3.org/2000/svg" xmlns:xlink="http://www.w3.org/1999/xlink" width="1920" height="403" viewBox="0 0 1920 403">
  <defs>
    <clipPath id="clip-path">
      <rect id="Retângulo_38524" data-name="Retângulo 38524" width="1920" height="403" transform="translate(0 146)" fill="#fff" stroke="#707070" stroke-width="1"/>
    </clipPath>
  </defs>
  <g id="Grupo_de_máscara_6" data-name="Grupo de máscara 6" transform="translate(0 -146)" opacity="0.477" clip-path="url(#clip-path)">
    <path id="União_9" data-name="União 9" d="M251.837,853.117c-24.46-34.03-40.952-72.912-56.951-111.582-21.3-51.542-45.689-99.63-76.543-146.081C64.462,514.46-4.253,426.283.206,323.472c1.638-37.725,14.563-77.541,43.141-103.63,31.127-28.362,73.54-30.362,113.495-30.816,48.056-.545,96.566-2.364,127.42-44.634,25.575-35,36.679-78.359,70.81-107.266C480.58-68.958,632.027,73.033,655.964,202.934c8.1,44.088,2,90.267-22.389,128.446-23.209,36.271-58.522,62.542-93.29,86.9-39.956,28-81.731,55.359-110.31,95.812-13.743,19.544-23.937,42-26.394,65.9-2.639,26.452,4.187,52.451,14.927,76.45,4.166,9.278,8.848,18.3,13.785,27.185q2.941,4.189,5.7,8.455a394.267,394.267,0,0,1,21.861,38.853c10.774,18.937,20.6,38.346,26.919,59.5q.392,1.309.763,2.624c16.54,39.1,33.3,78.048,59.111,112.146,45.645,60.32,116.467,94.736,163.814,153.3,38.141,47.344-368.635,207.748-368.635,207.748S291.535,984.785,251.837,853.117Z" transform="translate(325.54 -38.595) rotate(56)" fill="none" stroke="#bfbfbf" stroke-width="2"/>
    <g id="Grupo_29025" data-name="Grupo 29025" transform="translate(1305.326 -460.376)">
      <path id="_24" data-name="24" d="M307.359,1.478A59.081,59.081,0,0,1,347.651,34.1c12.193,26.456-2.253,46.1-14.181,67.572-12.061,21.767-14.579,54.985-13.917,79.912.707,27.789,2.342,56.219-5.346,83.12-11.752,40.869-45.372,60.366-76.916,79.665-16.832,10.267-33.576,21.224-46.963,36.772-13.784,16.042-24.034,35.341-37.376,51.826-12.238,15.1-27.082,26.752-45.328,30.306-18.688,3.653-38.524-.79-55-11.106C16.218,429.318-.3,381,0,336.277c.353-53.85,21.471-103.554,42.147-150.939C60.176,143.976,75.683,96.3,115.665,75.812,135.988,65.4,158.343,61.4,179.018,51.972c22.355-10.217,42.235-25.913,64.06-37.414C262.827,4.192,285.4-3.31,307.359,1.478Z" transform="translate(110.061 1276.014) rotate(-106)" fill="#ddd"/>
      <path id="_24-2" data-name="24" d="M307.359,1.478A59.081,59.081,0,0,1,347.651,34.1c12.193,26.456-2.253,46.1-14.181,67.572-12.061,21.767-14.579,54.985-13.917,79.912.707,27.789,2.342,56.219-5.346,83.12-11.752,40.869-45.372,60.366-76.916,79.665-16.832,10.267-33.576,21.224-46.963,36.772-13.784,16.042-24.034,35.341-37.376,51.826-12.238,15.1-27.082,26.752-45.328,30.306-18.688,3.653-38.524-.79-55-11.106C16.218,429.318-.3,381,0,336.277c.353-53.85,21.471-103.554,42.147-150.939C60.176,143.976,75.683,96.3,115.665,75.812,135.988,65.4,158.343,61.4,179.018,51.972c22.355-10.217,42.235-25.913,64.06-37.414C262.827,4.192,285.4-3.31,307.359,1.478Z" transform="translate(97.1 1298.575) rotate(-106)" fill="none" stroke="#fff" stroke-width="2" opacity="0.3"/>
      <g id="Grupo_29023" data-name="Grupo 29023" transform="translate(0)">
        <path id="_15" data-name="15" d="M682.236,631.6c-1.7,39.1-15.073,80.357-44.653,107.394-32.218,29.392-76.118,31.465-117.474,31.936-49.741.565-99.952,2.449-131.888,46.255-26.472,36.269-37.965,81.205-73.292,111.163C185.019,1038.285,28.261,891.136,3.485,756.516-4.9,710.826,1.412,662.97,26.66,623.4c24.022-37.588,60.574-64.813,96.561-90.061,41.356-29.015,84.6-57.371,114.177-99.293,14.225-20.254,24.776-43.523,27.32-68.3,2.732-27.414-4.333-54.357-15.45-79.227-21.29-47.48-55.581-88.365-70.654-138.859-12.152-40.6-9.8-87.046,22.986-117.474C228.542,5.227,268.014-3.817,303.718,1.364c43.146,6.218,80.075,34.2,107.112,67.074,31.559,38.436,51.059,84.314,69.9,129.909,22.044,53.415,47.291,103.249,79.227,151.388C615.727,433.673,686.852,525.053,682.236,631.6Z" transform="translate(258.676 449.985)" fill="#d6d2d2"/>
      </g>
      <path id="União_10" data-name="União 10" d="M260.667,884.109c-25.318-35.266-42.388-75.561-58.947-115.636-22.045-53.414-47.291-103.249-79.227-151.388C66.723,533.149-4.4,441.769.214,335.222c1.7-39.1,15.073-80.357,44.654-107.394,32.218-29.392,76.118-31.465,117.474-31.936,49.741-.565,99.952-2.45,131.888-46.255,26.472-36.269,37.965-81.205,73.292-111.163C497.431-71.463,654.189,75.686,678.965,210.306c8.384,45.689,2.073,93.546-23.174,133.112-24.023,37.589-60.574,64.814-96.561,90.061-41.357,29.015-84.6,57.371-114.178,99.293-14.225,20.254-24.776,43.523-27.32,68.3-2.732,27.413,4.333,54.356,15.45,79.227,4.312,9.615,9.158,18.963,14.268,28.172q3.044,4.341,5.9,8.762a72.843,72.843,0,0,1,6.49,12.719c16.91,28.629,34.375,56.96,44,89.205,12.153,40.6,9.8,87.046-22.986,117.474a108.085,108.085,0,0,1-30.675,19.789c.877,22.524,5.516,42.39,16.912,57.461,47.246,62.511-49.008,101.249,0,161.938,39.478,49.062-113.279,136.437-113.279,136.437S301.757,1020.56,260.667,884.109Z" transform="translate(936.537 1396.21) rotate(180)" fill="none" stroke="#838383" stroke-width="2" opacity="0.3"/>
      <path id="_16" data-name="16" d="M255.995,113.945c1.378-16.67,4.291-33.263,3.849-50.037-.6-23.328-9.675-49.777-32.769-59.53-28.842-12.171-59.114,4.629-88.008,7.178C108.743,14.234,79.72-3.4,49.448,3.39,23.727,9.163-1.4,33.246.06,61.177.789,75.247,9.917,85.7,17.043,97.119a76.184,76.184,0,0,1,11.365,45.746c-.962,13.238-6.762,28.218.286,40.753C34.468,193.969,46.769,198.468,57.9,200c15.11,2.107,30.454.182,45.59,1.716,15.734,1.586,28.192,8.686,40.935,17.5,11.469,7.932,23.016,15.318,37.06,17.425a64.494,64.494,0,0,0,66.162-32.119c7.282-12.717,9.232-27.1,9.024-41.559C256.463,146.584,254.642,130.382,255.995,113.945Z" transform="translate(470.563 711.916) rotate(-76)" fill="#ddd"/>
      <g id="Grupo_29024" data-name="Grupo 29024" transform="translate(0)">
        <path id="_17" data-name="17" d="M352.8.01C415.051.855,468.7,44.05,495.139,98.39c64.716,132.967-13.6,273.466-98.688,375.305-56.107,67.175-119.9,128.586-166.478,203.294-26.67,42.734-61.8,118.518-122.9,103.53a107.272,107.272,0,0,1-75.169-37.2c-47.5-56.261-35.893-134.889-4.612-195.838,37.892-73.862,102.531-130.892,135.042-207.828,30.513-72.171,24.749-153.489,52.8-226.275C237.89,54.657,284.851-.836,352.8.01Z" transform="translate(0 449.473) rotate(-60)" fill="none"/>
        <path id="_15-2" data-name="15" d="M682.236,631.6c-1.7,39.1-15.073,80.357-44.653,107.394-32.218,29.392-76.118,31.465-117.474,31.936-49.741.565-99.952,2.449-131.888,46.255-26.472,36.269-37.965,81.205-73.292,111.163C185.019,1038.285,28.261,891.136,3.485,756.516-4.9,710.826,1.412,662.97,26.66,623.4c24.022-37.588,60.574-64.813,96.561-90.061,41.356-29.015,84.6-57.371,114.177-99.293,14.225-20.254,24.776-43.523,27.32-68.3,2.732-27.414-4.333-54.357-15.45-79.227-21.29-47.48-55.581-88.365-70.654-138.859-12.152-40.6-9.8-87.046,22.986-117.474C228.542,5.227,268.014-3.817,303.718,1.364c43.146,6.218,80.075,34.2,107.112,67.074,31.559,38.436,51.059,84.314,69.9,129.909,22.044,53.415,47.291,103.249,79.227,151.388C615.727,433.673,686.852,525.053,682.236,631.6Z" transform="translate(258.676 449.985)" fill="none"/>
      </g>
    </g>
  </g>
</svg>
