<svg xmlns="http://www.w3.org/2000/svg" width="50.756" height="43.49" viewBox="0 0 50.756 43.49">
  <g id="Grupo_12151" data-name="Grupo 12151" transform="translate(-294.475 -3587.768)">
    <g id="Grupo_12150" data-name="Grupo 12150" transform="translate(295 3588.306)" opacity="0.34">
      <g id="Grupo_12014" data-name="Grupo 12014" transform="translate(0)">
        <g id="Grupo_12013" data-name="Grupo 12013">
          <g id="Grupo_12012" data-name="Grupo 12012">
            <g id="Grupo_12011" data-name="Grupo 12011">
              <g id="Grupo_12010" data-name="Grupo 12010">
                <path id="Caminho_21741" data-name="Caminho 21741" d="M116.11,979.92c-12.667-15.542-54.244-8.48-41.909,20.646C86.556,1029.737,138.46,1007.342,116.11,979.92Z" transform="translate(-71.94 -971.883)" fill="#8a5cef" stroke="rgba(0,0,0,0)" stroke-width="1"/>
              </g>
            </g>
          </g>
        </g>
      </g>
    </g>
    <path id="_3507749_account_balance_bank_business_finance_icon" data-name="3507749_account_balance_bank_business_finance_icon" d="M22,11V7.83L12,2.06,2,7.83V11H4v8H2v2H22V19H20V11ZM4,9l8-4.62L20,9ZM6,19V11H8v8Zm4,0V11h4v8Zm8,0H16V11h2Z" transform="translate(307.846 3596.939)" fill="#5715e8"/>
  </g>
</svg>
