<svg xmlns="http://www.w3.org/2000/svg" width="50.756" height="43.49" viewBox="0 0 50.756 43.49">
  <g id="Grupo_12155" data-name="Grupo 12155" transform="translate(-294.475 -3587.768)">
    <g id="Grupo_12150" data-name="Grupo 12150" transform="translate(295 3588.306)" opacity="0.34">
      <g id="Grupo_12014" data-name="Grupo 12014" transform="translate(0)">
        <g id="Grupo_12013" data-name="Grupo 12013">
          <g id="Grupo_12012" data-name="Grupo 12012">
            <g id="Grupo_12011" data-name="Grupo 12011">
              <g id="Grupo_12010" data-name="Grupo 12010">
                <path id="Caminho_21741" data-name="Caminho 21741" d="M116.11,979.92c-12.667-15.542-54.244-8.48-41.909,20.646C86.556,1029.737,138.46,1007.342,116.11,979.92Z" transform="translate(-71.94 -971.883)" fill="#8a5cef" stroke="rgba(0,0,0,0)" stroke-width="1"/>
              </g>
            </g>
          </g>
        </g>
      </g>
    </g>
    <path id="_183745_chart_diagram_pie_report_icon" data-name="183745_chart_diagram_pie_report_icon" d="M12,1a11,11,0,0,0,0,22V12H23A11,11,0,0,0,12,1Zm-2,9V20.775A9,9,0,1,1,20.775,10Zm4,12.81A11,11,0,0,0,22.81,14H14ZM16,16h4.053A9.1,9.1,0,0,1,16,20.053Z" transform="translate(308 3597.293)" fill="#5715e8"/>
  </g>
</svg>
