<svg xmlns="http://www.w3.org/2000/svg" width="50.756" height="43.49" viewBox="0 0 50.756 43.49">
  <g id="Grupo_12154" data-name="Grupo 12154" transform="translate(-294.475 -3587.768)">
    <g id="Grupo_12150" data-name="Grupo 12150" transform="translate(295 3588.306)" opacity="0.34">
      <g id="Grupo_12014" data-name="Grupo 12014" transform="translate(0)">
        <g id="Grupo_12013" data-name="Grupo 12013">
          <g id="Grupo_12012" data-name="Grupo 12012">
            <g id="Grupo_12011" data-name="Grupo 12011">
              <g id="Grupo_12010" data-name="Grupo 12010">
                <path id="Caminho_21741" data-name="Caminho 21741" d="M116.11,979.92c-12.667-15.542-54.244-8.48-41.909,20.646C86.556,1029.737,138.46,1007.342,116.11,979.92Z" transform="translate(-71.94 -971.883)" fill="#8a5cef" stroke="rgba(0,0,0,0)" stroke-width="1"/>
              </g>
            </g>
          </g>
        </g>
      </g>
    </g>
    <g id="_4177659_budget_financial_planning_icon" data-name="4177659_budget_financial_planning_icon" transform="translate(306.691 3597.415)">
      <g id="Grupo_29127" data-name="Grupo 29127" transform="translate(2.465 0.79)">
        <path id="Caminho_21980" data-name="Caminho 21980" d="M9.928,13.014h1.706a.543.543,0,0,0,0-1.086H9.928a.543.543,0,1,0,0,1.086Z" transform="translate(-6.88 -7.897)" fill="#5715e8"/>
        <path id="Caminho_21981" data-name="Caminho 21981" d="M11.634,49.072H9.928a.543.543,0,0,0,0,1.086h1.706a.543.543,0,0,0,0-1.086Z" transform="translate(-6.88 -31.598)" fill="#5715e8"/>
        <path id="Caminho_21982" data-name="Caminho 21982" d="M22.714,13.014h5.325a.543.543,0,1,0,0-1.086H22.714a.543.543,0,0,0,0,1.086Z" transform="translate(-15.039 -7.897)" fill="#5715e8"/>
        <path id="Caminho_21983" data-name="Caminho 21983" d="M9.928,20.443h1.706a.543.543,0,0,0,0-1.086H9.928a.543.543,0,1,0,0,1.086Z" transform="translate(-6.88 -12.637)" fill="#5715e8"/>
        <path id="Caminho_21984" data-name="Caminho 21984" d="M22.714,20.443h5.325a.543.543,0,1,0,0-1.086H22.714a.543.543,0,0,0,0,1.086Z" transform="translate(-15.039 -12.637)" fill="#5715e8"/>
        <path id="Caminho_21985" data-name="Caminho 21985" d="M11.52,29.169c-.053-.022-.106-.04-.159-.062-.619-.23-.879-.367-.879-.667,0-.243.221-.464.694-.464A2.092,2.092,0,0,1,11.52,28c.1.018.19.04.27.062a.394.394,0,0,0,.49-.27l.031-.106a.4.4,0,0,0-.278-.486,2.7,2.7,0,0,0-.512-.084v-.155a.557.557,0,0,0-1.113,0v.256a1.374,1.374,0,0,0-1.021,1.312,1.424,1.424,0,0,0,1.021,1.29c.1.044.194.084.3.119.57.2.8.376.8.667,0,.314-.261.517-.755.517a2.1,2.1,0,0,1-.336-.026,2.466,2.466,0,0,1-.464-.106.39.39,0,0,0-.5.278l-.031.124a.388.388,0,0,0,.256.464,3.518,3.518,0,0,0,.742.142v.15a.557.557,0,0,0,1.113,0V31.9A1.4,1.4,0,0,0,12.6,30.534C12.6,29.907,12.253,29.483,11.52,29.169Z" transform="translate(-6.881 -17.139)" fill="#5715e8"/>
        <path id="Caminho_21986" data-name="Caminho 21986" d="M22.494,10.3V5.166a.546.546,0,0,0-.159-.384L18.5.949A.546.546,0,0,0,18.118.79H3.008a.542.542,0,0,0-.543.543V22.838a.542.542,0,0,0,.543.543H21.951a.542.542,0,0,0,.08-.007.09.09,0,0,0,.029,0,1.958,1.958,0,0,0,1.784-1.951V12.162A1.961,1.961,0,0,0,22.494,10.3ZM18.357,2.339l2.8,2.8h-2.8ZM3.551,22.3V1.876H17.271V5.683a.542.542,0,0,0,.543.543h3.594V10.2H10.14a.543.543,0,1,0,0,1.086h3.2a1.93,1.93,0,0,0-.21.876v.724H10.141a.543.543,0,0,0,0,1.086h2.993v1.6H10.14a.543.543,0,0,0,0,1.086h2.995v1.6H10.141a.543.543,0,0,0,0,1.086h2.993v2.07a1.93,1.93,0,0,0,.21.876Zm19.207-.876a.877.877,0,0,1-.876.876H15.1a.874.874,0,0,1-.876-.876V12.162a.874.874,0,0,1,.876-.876h6.786a.877.877,0,0,1,.876.876Z" transform="translate(-2.465 -0.79)" fill="#5715e8"/>
      </g>
      <g id="Grupo_29128" data-name="Grupo 29128" transform="translate(14.999 12.15)">
        <path id="Caminho_21987" data-name="Caminho 21987" d="M43.267,32.179H37.74a.644.644,0,0,0-.643.643v1.76a.644.644,0,0,0,.643.643h5.527a.644.644,0,0,0,.643-.643v-1.76A.644.644,0,0,0,43.267,32.179Zm-.313.956v1.134h-4.9V33.135Z" transform="translate(-37.097 -32.179)" fill="#5715e8"/>
        <path id="Caminho_21988" data-name="Caminho 21988" d="M39.185,43.152h-.343v-.343a.467.467,0,1,0-.934,0v.343h-.344a.467.467,0,0,0,0,.934h.344v.343a.467.467,0,1,0,.934,0v-.343h.343a.467.467,0,1,0,0-.934Z" transform="translate(-37.097 -38.664)" fill="#5715e8"/>
        <path id="Caminho_21989" data-name="Caminho 21989" d="M50.948,44.581H49.327a.467.467,0,0,0,0,.934h1.621a.467.467,0,0,0,0-.934Z" transform="translate(-44.603 -40.092)" fill="#5715e8"/>
        <path id="Caminho_21990" data-name="Caminho 21990" d="M50.948,55.272H49.327a.467.467,0,0,0,0,.934h1.622a.467.467,0,1,0,0-.934Z" transform="translate(-44.603 -46.914)" fill="#5715e8"/>
        <path id="Caminho_21991" data-name="Caminho 21991" d="M50.948,51.8H49.327a.467.467,0,0,0,0,.934h1.622a.467.467,0,1,0,0-.934Z" transform="translate(-44.603 -44.699)" fill="#5715e8"/>
        <path id="Caminho_21992" data-name="Caminho 21992" d="M39.792,52.269a.464.464,0,0,0-.136-.33.479.479,0,0,0-.661,0l-.3.3-.3-.3a.467.467,0,0,0-.8.331.464.464,0,0,0,.137.33l.3.3-.3.3a.469.469,0,0,0-.025.634.477.477,0,0,0,.355.163.469.469,0,0,0,.33-.136l.3-.3.3.3a.474.474,0,0,0,.33.136h.018a.466.466,0,0,0,.312-.8l-.3-.3.3-.3A.461.461,0,0,0,39.792,52.269Z" transform="translate(-37.419 -44.7)" fill="#5715e8"/>
      </g>
    </g>
  </g>
</svg>
