<svg xmlns="http://www.w3.org/2000/svg" width="50.756" height="43.49" viewBox="0 0 50.756 43.49">
  <g id="Grupo_12152" data-name="Grupo 12152" transform="translate(-294.475 -3587.768)">
    <g id="Grupo_12150" data-name="Grupo 12150" transform="translate(295 3588.306)" opacity="0.34">
      <g id="Grupo_12014" data-name="Grupo 12014" transform="translate(0)">
        <g id="Grupo_12013" data-name="Grupo 12013">
          <g id="Grupo_12012" data-name="Grupo 12012">
            <g id="Grupo_12011" data-name="Grupo 12011">
              <g id="Grupo_12010" data-name="Grupo 12010">
                <path id="Caminho_21741" data-name="Caminho 21741" d="M116.11,979.92c-12.667-15.542-54.244-8.48-41.909,20.646C86.556,1029.737,138.46,1007.342,116.11,979.92Z" transform="translate(-71.94 -971.883)" fill="#8a5cef" stroke="rgba(0,0,0,0)" stroke-width="1"/>
              </g>
            </g>
          </g>
        </g>
      </g>
    </g>
    <g id="Layer_x0020_1" transform="translate(291.378 3552.497)">
      <path id="Caminho_21979" data-name="Caminho 21979" d="M36.867,48.17H19.99a.8.8,0,0,0,0,1.605H36.867a2.046,2.046,0,0,1,2.041,2.043V51.9H19.99a.8.8,0,1,0,0,1.6H38.908v8.691a2.045,2.045,0,0,1-2.041,2.042h-16.8a2.045,2.045,0,0,1-2.041-2.042V51.739a.8.8,0,1,0-1.606,0V62.191a3.651,3.651,0,0,0,3.648,3.648h16.8a3.652,3.652,0,0,0,3.649-3.648V51.819A3.653,3.653,0,0,0,36.867,48.17ZM36.4,59.635a.8.8,0,1,0,0-1.605h-7.97a.8.8,0,1,0,0,1.605ZM21.186,57.587h2.49v2.489h-2.49Zm3.292,4.1a.8.8,0,0,0,.8-.8V56.784a.8.8,0,0,0-.8-.8H20.383a.8.8,0,0,0-.8.8v4.095a.8.8,0,0,0,.8.8h4.095Z" fill="#5715e8"/>
    </g>
  </g>
</svg>
