<svg xmlns="http://www.w3.org/2000/svg" width="50.756" height="43.49" viewBox="0 0 50.756 43.49">
  <g id="Grupo_12153" data-name="Grupo 12153" transform="translate(-294.475 -3587.768)">
    <g id="Grupo_12150" data-name="Grupo 12150" transform="translate(295 3588.306)" opacity="0.34">
      <g id="Grupo_12014" data-name="Grupo 12014" transform="translate(0)">
        <g id="Grupo_12013" data-name="Grupo 12013">
          <g id="Grupo_12012" data-name="Grupo 12012">
            <g id="Grupo_12011" data-name="Grupo 12011">
              <g id="Grupo_12010" data-name="Grupo 12010">
                <path id="Caminho_21741" data-name="Caminho 21741" d="M116.11,979.92c-12.667-15.542-54.244-8.48-41.909,20.646C86.556,1029.737,138.46,1007.342,116.11,979.92Z" transform="translate(-71.94 -971.883)" fill="#8a5cef" stroke="rgba(0,0,0,0)" stroke-width="1"/>
              </g>
            </g>
          </g>
        </g>
      </g>
    </g>
    <g id="Time15" transform="translate(309.696 3599.347)">
      <g id="Grupo_29129" data-name="Grupo 29129" transform="translate(1 1)">
        <path id="Caminho_21993" data-name="Caminho 21993" d="M4.606,2.046a.61.61,0,1,0-.853-.872A9.071,9.071,0,0,0,1,7.712a.61.61,0,1,0,1.22,0A7.858,7.858,0,0,1,4.606,2.046Z" transform="translate(-1 -1)" fill="#5715e8"/>
        <path id="Caminho_21994" data-name="Caminho 21994" d="M25.739,1.176a.61.61,0,0,0-.858.868,8.178,8.178,0,0,1,2.436,5.68.611.611,0,0,0,.61.6h.013a.611.611,0,0,0,.6-.623A9.391,9.391,0,0,0,25.739,1.176Z" transform="translate(-10.239 -1)" fill="#5715e8"/>
        <path id="Caminho_21995" data-name="Caminho 21995" d="M17.644,13.308V7.921a6.836,6.836,0,0,0-6.266-6.907,6.719,6.719,0,0,0-7.158,6.7v5.6a1.831,1.831,0,0,0,.61,3.557H7.345a3.567,3.567,0,0,0,3.587,2.441,3.567,3.567,0,0,0,3.587-2.441h2.514a1.831,1.831,0,0,0,.61-3.557Zm-6.712,4.777a2.492,2.492,0,0,1-2.291-1.22h4.582A2.492,2.492,0,0,1,10.932,18.085Zm6.1-2.441H4.83a.61.61,0,1,1,0-1.22.61.61,0,0,0,.61-.61v-6.1a5.5,5.5,0,0,1,5.492-5.491q.181,0,.366.012a5.613,5.613,0,0,1,5.124,5.689v5.892a.61.61,0,0,0,.61.61.61.61,0,1,1,0,1.22Z" transform="translate(-1.78 -1)" fill="#5715e8"/>
      </g>
    </g>
  </g>
</svg>
