<svg xmlns="http://www.w3.org/2000/svg" width="50.756" height="43.49" viewBox="0 0 50.756 43.49">
  <g id="Grupo_29130" data-name="Grupo 29130" transform="translate(-1193.475 -3946.767)">
    <g id="Grupo_12144" data-name="Grupo 12144" transform="translate(1194 3947.305)" opacity="0.34">
      <g id="Grupo_12014" data-name="Grupo 12014" transform="translate(0)">
        <g id="Grupo_12013" data-name="Grupo 12013">
          <g id="Grupo_12012" data-name="Grupo 12012">
            <g id="Grupo_12011" data-name="Grupo 12011">
              <g id="Grupo_12010" data-name="Grupo 12010">
                <path id="Caminho_21741" data-name="Caminho 21741" d="M116.11,979.92c-12.667-15.542-54.244-8.48-41.909,20.646C86.556,1029.737,138.46,1007.342,116.11,979.92Z" transform="translate(-71.94 -971.883)" fill="#8a5cef" stroke="rgba(0,0,0,0)" stroke-width="1"/>
              </g>
            </g>
          </g>
        </g>
      </g>
    </g>
    <g id="sos" transform="translate(1203 3951)">
      <path id="Caminho_21996" data-name="Caminho 21996" d="M27,5H5A3,3,0,0,0,2,8V21a3,3,0,0,0,3,3H7v5a1,1,0,0,0,.58.91A1.06,1.06,0,0,0,8,30a1,1,0,0,0,.65-.24L15.37,24H27a3,3,0,0,0,3-3V8A3,3,0,0,0,27,5Zm1,16a1,1,0,0,1-1,1H15a1,1,0,0,0-.65.24L9,26.83V23a1,1,0,0,0-1-1H5a1,1,0,0,1-1-1V8A1,1,0,0,1,5,7H27a1,1,0,0,1,1,1Z" fill="#5715e8"/>
      <path id="Caminho_21997" data-name="Caminho 21997" d="M11,14a6.18,6.18,0,0,0-1.55-.4c-.33-.07-.59-.13-.78-.19a.88.88,0,0,1-.39-.19.39.39,0,0,1,.07-.6.93.93,0,0,1,.52-.12,1.07,1.07,0,0,1,.51.11.5.5,0,0,1,.25.25.48.48,0,0,0,.17.13.4.4,0,0,0,.2,0h1.68a.2.2,0,0,0,.14-.06.24.24,0,0,0,.07-.16,1.53,1.53,0,0,0-.21-.67,2.27,2.27,0,0,0-.59-.66,3,3,0,0,0-.94-.5,3.87,3.87,0,0,0-1.28-.19,3.83,3.83,0,0,0-1.53.28,2.43,2.43,0,0,0-1,.79,2,2,0,0,0-.07,2.24,2.06,2.06,0,0,0,.86.69,5.6,5.6,0,0,0,1.34.39c.37.07.66.13.87.19a1.35,1.35,0,0,1,.46.2.37.37,0,0,1,.14.28.39.39,0,0,1-.26.35,1.63,1.63,0,0,1-.71.13,1.46,1.46,0,0,1-.44-.06,1,1,0,0,1-.31-.15A1,1,0,0,1,8,15.94l-.18-.12a.42.42,0,0,0-.22-.05H6a.21.21,0,0,0-.16.06A.2.2,0,0,0,5.8,16a1.9,1.9,0,0,0,.37,1,2.48,2.48,0,0,0,1,.77,4.43,4.43,0,0,0,1.75.3,4.37,4.37,0,0,0,1.64-.28A2.65,2.65,0,0,0,11.75,17a2.11,2.11,0,0,0,.14-2.28A1.9,1.9,0,0,0,11,14Z" fill="#5715e8"/>
      <path id="Caminho_21998" data-name="Caminho 21998" d="M18.84,12.07a2.56,2.56,0,0,0-1.12-.93,3.94,3.94,0,0,0-1.66-.32,4,4,0,0,0-1.67.32,2.51,2.51,0,0,0-1.12.93,2.86,2.86,0,0,0-.44,1.51c0,.29,0,.59,0,.89v.87a2.9,2.9,0,0,0,.44,1.52,2.56,2.56,0,0,0,1.11.91,4.34,4.34,0,0,0,1.68.3,4.21,4.21,0,0,0,1.66-.3,2.59,2.59,0,0,0,1.12-.91,2.9,2.9,0,0,0,.44-1.52V13.58a2.77,2.77,0,0,0-.44-1.51ZM17,15.28a1.08,1.08,0,0,1-.28.82,1.06,1.06,0,0,1-1.39,0,1.17,1.17,0,0,1-.29-.82V13.61a1.58,1.58,0,0,1,.14-.62.79.79,0,0,1,.35-.35,1.12,1.12,0,0,1,.5-.11,1.15,1.15,0,0,1,.5.11.88.88,0,0,1,.34.35,1.42,1.42,0,0,1,.13.62v.83A4.713,4.713,0,0,1,17,15.28Z" fill="#5715e8"/>
      <path id="Caminho_21999" data-name="Caminho 21999" d="M25.17,14a6,6,0,0,0-1.54-.4c-.34-.07-.6-.13-.79-.19a1,1,0,0,1-.39-.19.4.4,0,0,1-.11-.27.37.37,0,0,1,.18-.33,1,1,0,0,1,.53-.12,1.13,1.13,0,0,1,.51.11.54.54,0,0,1,.25.25A.46.46,0,0,0,24,13a.4.4,0,0,0,.2,0h1.68A.24.24,0,0,0,26,13a.23.23,0,0,0,.06-.16,1.41,1.41,0,0,0-.21-.67,2.23,2.23,0,0,0-.58-.66,3.11,3.11,0,0,0-.94-.5,4.39,4.39,0,0,0-2.82.09,2.34,2.34,0,0,0-1,.79A1.86,1.86,0,0,0,20.12,13a1.91,1.91,0,0,0,.3,1.09,1.94,1.94,0,0,0,.86.69,5.51,5.51,0,0,0,1.33.39c.37.07.66.13.88.19a1.56,1.56,0,0,1,.46.2.35.35,0,0,1,.13.28.38.38,0,0,1-.25.35,1.7,1.7,0,0,1-.71.13,1.53,1.53,0,0,1-.45-.06,1.12,1.12,0,0,1-.31-.15,1,1,0,0,1-.21-.21L22,15.82a.45.45,0,0,0-.22-.05h-1.6A.21.21,0,0,0,20,16a1.75,1.75,0,0,0,.37,1,2.51,2.51,0,0,0,1,.77,5.13,5.13,0,0,0,3.4,0A2.56,2.56,0,0,0,25.89,17a1.87,1.87,0,0,0,.41-1.23A1.73,1.73,0,0,0,25.17,14Z" fill="#5715e8"/>
    </g>
  </g>
</svg>
