<svg xmlns="http://www.w3.org/2000/svg" width="50.756" height="43.49" viewBox="0 0 50.756 43.49">
  <g id="Grupo_29133" data-name="Grupo 29133" transform="translate(-1193.475 -4227.314)">
    <g id="Grupo_12146" data-name="Grupo 12146" transform="translate(1194 4227.852)" opacity="0.34">
      <g id="Grupo_12014" data-name="Grupo 12014" transform="translate(0)">
        <g id="Grupo_12013" data-name="Grupo 12013">
          <g id="Grupo_12012" data-name="Grupo 12012">
            <g id="Grupo_12011" data-name="Grupo 12011">
              <g id="Grupo_12010" data-name="Grupo 12010">
                <path id="Caminho_21741" data-name="Caminho 21741" d="M116.11,979.92c-12.667-15.542-54.244-8.48-41.909,20.646C86.556,1029.737,138.46,1007.342,116.11,979.92Z" transform="translate(-71.94 -971.883)" fill="#8a5cef" stroke="rgba(0,0,0,0)" stroke-width="1"/>
              </g>
            </g>
          </g>
        </g>
      </g>
    </g>
    <g id="_5204121_arrows_transfer_icon" data-name="5204121_arrows_transfer_icon" transform="translate(1204.502 4235.238)">
      <path id="Caminho_22001" data-name="Caminho 22001" d="M4.26,12.548H24.424a1.26,1.26,0,0,0,.895-2.155L20.278,5.353A1.26,1.26,0,0,0,18.5,7.129l2.886,2.9H4.26a1.26,1.26,0,0,0,0,2.52Z" transform="translate(0.002 0)" fill="#5715e8"/>
      <path id="Caminho_22002" data-name="Caminho 22002" d="M24.425,13H4.262a1.26,1.26,0,0,0-.895,2.155L8.408,20.2a1.26,1.26,0,0,0,1.777-1.777L7.3,15.52H24.425a1.26,1.26,0,1,0,0-2.52Z" transform="translate(0 2.069)" fill="#5715e8"/>
    </g>
  </g>
</svg>
