<svg xmlns="http://www.w3.org/2000/svg" width="50.756" height="43.49" viewBox="0 0 50.756 43.49">
  <g id="Grupo_12156" data-name="Grupo 12156" transform="translate(-294.475 -3587.768)">
    <g id="Grupo_12150" data-name="Grupo 12150" transform="translate(295 3588.306)" opacity="0.34">
      <g id="Grupo_12014" data-name="Grupo 12014" transform="translate(0)">
        <g id="Grupo_12013" data-name="Grupo 12013">
          <g id="Grupo_12012" data-name="Grupo 12012">
            <g id="Grupo_12011" data-name="Grupo 12011">
              <g id="Grupo_12010" data-name="Grupo 12010">
                <path id="Caminho_21741" data-name="Caminho 21741" d="M116.11,979.92c-12.667-15.542-54.244-8.48-41.909,20.646C86.556,1029.737,138.46,1007.342,116.11,979.92Z" transform="translate(-71.94 -971.883)" fill="#8a5cef" stroke="rgba(0,0,0,0)" stroke-width="1"/>
              </g>
            </g>
          </g>
        </g>
      </g>
    </g>
    <path id="_183674_aim_goal_target_icon" data-name="183674_aim_goal_target_icon" d="M12,0A12,12,0,1,0,24,12,12,12,0,0,0,12,0Zm0,22A10,10,0,1,1,22,12,10,10,0,0,1,12,22ZM12,4a8,8,0,1,0,8,8A8,8,0,0,0,12,4Zm0,14a6,6,0,1,1,6-6A6,6,0,0,1,12,18ZM12,8a4,4,0,1,0,4,4A4,4,0,0,0,12,8Zm0,6a2,2,0,1,1,2-2A2,2,0,0,1,12,14Z" transform="translate(308 3597.834)" fill="#5715e8"/>
  </g>
</svg>
