<svg xmlns="http://www.w3.org/2000/svg" width="50.756" height="43.49" viewBox="0 0 50.756 43.49">
  <g id="Grupo_29131" data-name="Grupo 29131" transform="translate(-1193.475 -4092.462)">
    <g id="Grupo_12145" data-name="Grupo 12145" transform="translate(1194 4093)" opacity="0.34">
      <g id="Grupo_12014" data-name="Grupo 12014" transform="translate(0)">
        <g id="Grupo_12013" data-name="Grupo 12013">
          <g id="Grupo_12012" data-name="Grupo 12012">
            <g id="Grupo_12011" data-name="Grupo 12011">
              <g id="Grupo_12010" data-name="Grupo 12010">
                <path id="Caminho_21741" data-name="Caminho 21741" d="M116.11,979.92c-12.667-15.542-54.244-8.48-41.909,20.646C86.556,1029.737,138.46,1007.342,116.11,979.92Z" transform="translate(-71.94 -971.883)" fill="#8a5cef" stroke="rgba(0,0,0,0)" stroke-width="1"/>
              </g>
            </g>
          </g>
        </g>
      </g>
    </g>
    <g id="_4365225_note_tax_transaction_document_icon" data-name="4365225_note_tax_transaction_document_icon" transform="translate(1206.419 4102.418)">
      <rect id="note-tax-transaction-" width="26" height="26" transform="translate(-0.419 -0.419)" fill="none"/>
      <path id="Caminho_22000" data-name="Caminho 22000" d="M19.51,23.439h0c-4.2,0-8.4.013-12.6,0A4.035,4.035,0,0,1,3,19.509V6.93a.82.82,0,0,1,1.3-.594.8.8,0,0,1,.257.446.78.78,0,0,1,.014.149c0,4.2-.039,8.406,0,12.608a2.42,2.42,0,0,0,2.343,2.329c3.15.01,6.3,0,9.449,0-.015-.019-.029-.039-.043-.059a3.979,3.979,0,0,1-.743-2.3V4.571H3.786S3.028,4.4,3,3.822A.824.824,0,0,1,3.786,3H16.365a.823.823,0,0,1,.786.786c0,5.251-.049,10.5,0,15.753a2.425,2.425,0,0,0,2.311,2.329c.062-.007.043,0,.185,0a2.423,2.423,0,0,0,2.221-2.356V12.433H19.509a1.068,1.068,0,0,1-.576-.252.816.816,0,0,1,.459-1.312.735.735,0,0,1,.117-.009h3.145l.058,0a.624.624,0,0,1,.282.075.821.821,0,0,1,.445.708c0,2.629.009,5.258,0,7.887a4.045,4.045,0,0,1-3.929,3.906h0Zm-7.862-4.717H8.5a.786.786,0,0,1,0-1.573h3.176a.786.786,0,0,1-.031,1.572Zm1.573-3.144H6.931A.682.682,0,0,1,6.59,15.5a.817.817,0,0,1-.113-1.349.782.782,0,0,1,.323-.134,1.044,1.044,0,0,1,.131-.011h6.29l.044,0a.812.812,0,0,1,.542,1.308.719.719,0,0,1-.586.263Zm0-3.144H6.931a.812.812,0,0,1-.586-1.311.717.717,0,0,1,.586-.262h6.334a.818.818,0,0,1,.542,1.309A.721.721,0,0,1,13.221,12.433Zm0-3.145H6.931a.814.814,0,0,1-.586-1.31.717.717,0,0,1,.586-.262h6.334a.671.671,0,0,1,.336.1.816.816,0,0,1,.075,1.33.792.792,0,0,1-.323.134.915.915,0,0,1-.131.011Z" transform="translate(-0.641 -0.641)" fill="#5715e8"/>
    </g>
  </g>
</svg>
