<svg xmlns="http://www.w3.org/2000/svg" width="1404.488" height="1319.88" viewBox="0 0 1404.488 1319.88">
  <path id="União_8" data-name="União 8" d="M703.786,75.085l.135-.52s-49.212,52.847-108.641,16.1c-2.815-1.741-5.363-3.3-7.672-4.7A378.932,378.932,0,0,0,380.277,24.618C170.256,24.618,0,194.61,0,404.308S170.256,784,380.277,784c147.069,0,274.633-83.345,337.894-205.319,10.058-16.756,39.652-55.353,93.5-43.165,1.319.3,2.583.582,3.8.854a274.592,274.592,0,0,0,76.895,10.917c151.361,0,274.064-122.513,274.064-273.641S1043.732,0,892.371,0A273.343,273.343,0,0,0,703.786,75.085Z" transform="matrix(0.809, -0.588, 0.588, 0.809, 0, 685.613)" fill="#5715e8"/>
</svg>
