<svg id="图层_x0020_1" xmlns="http://www.w3.org/2000/svg" width="14.109" height="14.109" viewBox="0 0 14.109 14.109">
  <path id="Caminho_21745" data-name="Caminho 21745" d="M7.055,0A7.055,7.055,0,1,1,0,7.055,7.055,7.055,0,0,1,7.055,0Z" transform="translate(0 0)" fill="#5715E8"/>
  <path id="Caminho_21744" data-name="Caminho 21744" d="M8.2,2.389l-.018.019L4.128,6.467a.7.7,0,0,1-.3.178.711.711,0,0,1-.7-.174l-2.4-2.4a.709.709,0,0,1,0-1h0a.707.707,0,0,1,1,0l1.9,1.9L7.658.941a.708.708,0,0,1,1,0h0a.71.71,0,0,1,0,1L8.2,2.389Z" transform="translate(2.365 3.35)" fill="#fff"/>
</svg>
