<svg id="Grupo_5672" data-name="Grupo 5672" xmlns="http://www.w3.org/2000/svg" width="328" height="271" viewBox="0 0 328 271">
  <g id="Retângulo_333" data-name="Retângulo 333" fill="#fff" stroke="#d9e1e7" stroke-width="1">
    <rect width="328" height="271" rx="11" stroke="none"/>
    <rect x="0.5" y="0.5" width="327" height="270" rx="10.5" fill="none"/>
  </g>
  <text id="Assinatura_Premium" data-name="Assinatura Premium" transform="translate(161 238)" fill="#10182b" font-size="17" font-family="Inter-Bold, Inter" font-weight="700"><tspan x="-84" y="0">Assinatura Premium</tspan></text>
  <g id="Business_finance___boss_king_woman_account_graph_taxes_success_competition_manager" data-name="Business, finance _ boss, king, woman, account, graph, taxes, success, competition, manager" transform="translate(53.485 6.93)">
    <path id="Caminho_1991" data-name="Caminho 1991" d="M175.791,449.74l-.2-.011a2.587,2.587,0,0,1-2.4-3.051l.749.138a1.825,1.825,0,0,0,1.695,2.152l.2.011Z" transform="translate(-135.119 -348.589)"/>
    <rect id="Retângulo_1676" data-name="Retângulo 1676" width="40.312" height="62.24" rx="17.64" transform="translate(132.374 50.888)" fill="#ed3d8e"/>
    <path id="Caminho_1992" data-name="Caminho 1992" d="M427.142,325.452l-.194,4.233-.545,3.471-3,19.192-.08.508-.122-1.016-.31-2.555,3.983-23.38Z" transform="translate(-330.028 -253.984)" fill="#ed3d8e"/>
    <path id="Caminho_1993" data-name="Caminho 1993" d="M445.3,250.708l-.075,1.614C445.228,251.4,445.3,250.708,445.3,250.708Z" transform="translate(-347.457 -195.653)" fill="#ed3d8e"/>
    <path id="Caminho_1994" data-name="Caminho 1994" d="M512.355,219.026V307.46a4.644,4.644,0,0,1-4.64,4.642H436.482c.03-.43.056-.861.086-1.291.024-.467.05-.925.073-1.38a26.772,26.772,0,0,1-2.862,1.151c-.732.254-1.481.473-2.232.667l-.075-.054a4.627,4.627,0,0,1-1.885-3.736V278.265l1.1-7.978.394-2.856.03-.646.314-7.042v-.056l.1-2.4.011-.14.015-.368.43-9.854.174-3.9.846-5.415c-.265.489-.493.9-.646,1.181l.084-1.963.34-7.313V229.5l.243-5.466a9.287,9.287,0,0,0,.469,3.2,2.348,2.348,0,0,0,.811,1.126l.069.049a.6.6,0,0,0,.073.041v-.034l1.132-7.2.4-.587,2-2.942a.024.024,0,0,0,0-.026l.232-1.868.125-1h.151l1.683-.065h.02l6.4-.249h.043l12.654-.075h48.421A4.637,4.637,0,0,1,512.355,219.026Z" transform="translate(-335.251 -167.318)" fill="#ed3d8e"/>
    <path id="Caminho_1995" data-name="Caminho 1995" d="M500.51,224.782v86.082a4.519,4.519,0,0,1-4.519,4.519H425.818c.024-.467.05-.925.073-1.379a26.794,26.794,0,0,1-2.862,1.151.958.958,0,0,0-.095-.035,4.536,4.536,0,0,1-2.993-4.259V271.91l-1.1.534-.071.034-.148-.368-.738-1.842-.2-.508-1.864-4.653s3.547-14.311,5.886-23.7c.861-3.443,1.554-6.23,1.849-7.4.088-.349.144-.553.153-.588a.189.189,0,0,0,0-.023.489.489,0,0,0-.03-.2,1.8,1.8,0,0,0-.106-.215.115.115,0,0,0-.019-.041,9.738,9.738,0,0,0-.816-1.179l-.39-4.8.065-.049.295-.234,2.006-1.593.469-1.235.921-2.415.409-1.076h2.978l6.495-.019h.557l12.32-.075h47.13A4.519,4.519,0,0,1,500.51,224.782Z" transform="translate(-324.506 -171.899)" fill="#ed3d8e"/>
    <path id="Caminho_1996" data-name="Caminho 1996" d="M429.968,500.024l-.08-.057a5.008,5.008,0,0,1-2.036-4.039V455.9h.762v40.028a4.247,4.247,0,0,0,1.724,3.423l.073.052Z" transform="translate(-333.897 -355.786)"/>
    <path id="Caminho_1997" data-name="Caminho 1997" d="M532.2,311.067H460.966V310.3H532.2a4.263,4.263,0,0,0,4.263-4.253V217.618a4.257,4.257,0,0,0-4.256-4.261H483.782l-12.7.075-6.445.035-1.666.011,0-.762,1.7-.011,6.454-.034,12.656-.075h48.424a5.019,5.019,0,0,1,5.018,5.023v88.434a5.021,5.021,0,0,1-5.025,5.014Z" transform="translate(-359.739 -165.91)"/>
    <rect id="Retângulo_1677" data-name="Retângulo 1677" width="73.243" height="22.321" rx="11.161" transform="translate(99.441 117.699)" fill="#fff"/>
    <path id="Caminho_1998" data-name="Caminho 1998" d="M514.642,587.1H487.485v-.762h27.157Z" transform="translate(-380.435 -457.58)" fill="#fff" opacity="0.54"/>
    <rect id="Retângulo_1678" data-name="Retângulo 1678" width="44.444" height="12.699" rx="5.98" transform="translate(104.025 122.67)" fill="#ed3d8e"/>
    <ellipse id="Elipse_229" data-name="Elipse 229" cx="1.313" cy="1.313" rx="1.313" ry="1.313" transform="translate(138.169 125.392)" fill="#fff"/>
    <path id="Caminho_1999" data-name="Caminho 1999" d="M618.462,591.316a3.671,3.671,0,0,1,7.341,0Z" transform="translate(-482.65 -458.668)" fill="#fff"/>
    <path id="Caminho_2000" data-name="Caminho 2000" d="M704.118,558.614a6.456,6.456,0,1,0,4.57,1.9A6.469,6.469,0,0,0,704.118,558.614Zm0,11.374a.947.947,0,1,1,.9-.946A.947.947,0,0,1,704.118,569.987Zm1.109-6.7q.04-.29.081-.576c.014-.1.032-.213.05-.324.106-.636.225-1.355-.418-1.723a1.6,1.6,0,0,0-2.058.4,3.323,3.323,0,0,0,.033,2.2c.046.2.088.388.116.553a23.939,23.939,0,0,0,.678,3.131.457.457,0,0,0,.811,0A23.338,23.338,0,0,0,705.227,563.29Z" transform="translate(-544.437 -435.944)" fill="#ed3d8e"/>
    <path id="Caminho_2001" data-name="Caminho 2001" d="M714.275,713.105h-.241l0-.762h.237a40.725,40.725,0,0,0,12.883-1.894,26.361,26.361,0,0,0,5.912-2.795,21.543,21.543,0,0,0,4.949-4.367,29.312,29.312,0,0,0,2.921-4.238,30.231,30.231,0,0,0,2.1-4.56,34.9,34.9,0,0,0,1.975-9.779,49.964,49.964,0,0,0-3.184-19.972,61.369,61.369,0,0,0-8.527-15.794l.61-.456a62.13,62.13,0,0,1,8.633,15.989,50.727,50.727,0,0,1,3.229,20.279,35.66,35.66,0,0,1-2.02,9.992,30.986,30.986,0,0,1-2.15,4.675,30.074,30.074,0,0,1-3,4.349,22.3,22.3,0,0,1-5.124,4.522,27.117,27.117,0,0,1-6.083,2.877A41.487,41.487,0,0,1,714.275,713.105Z" transform="translate(-557.234 -506.083)" fill="rgba(87,21,232,0.5)"/>
    <path id="Caminho_2002" data-name="Caminho 2002" d="M299.989,115.209a52.508,52.508,0,0,1-2.492-8.922,50.053,50.053,0,0,1-.852-9.271,44.838,44.838,0,0,1,.971-9.23,39.536,39.536,0,0,1,2.98-8.8,34.588,34.588,0,0,1,7.171-9.92,39.254,39.254,0,0,1,9.852-6.9,46.565,46.565,0,0,1,11.505-3.909,50.626,50.626,0,0,1,12.148-.958,48.007,48.007,0,0,1,7.186.846,47.513,47.513,0,0,1,6.786,1.862,50.074,50.074,0,0,1,12.24,6.42,57.721,57.721,0,0,1,10.26,9.431,66.877,66.877,0,0,1,8.041,11.744c.668,1.226,1.346,2.566,2.013,3.983l-.689.325c-.661-1.4-1.332-2.731-1.993-3.944h0a66.111,66.111,0,0,0-7.949-11.61,56.959,56.959,0,0,0-10.124-9.306,49.314,49.314,0,0,0-12.054-6.323,46.746,46.746,0,0,0-6.677-1.832,47.242,47.242,0,0,0-7.072-.832,49.863,49.863,0,0,0-11.965.943,45.8,45.8,0,0,0-11.317,3.845,38.5,38.5,0,0,0-9.661,6.763,33.829,33.829,0,0,0-7.013,9.7,38.77,38.77,0,0,0-2.922,8.626,44.073,44.073,0,0,0-.954,9.073,49.28,49.28,0,0,0,.839,9.13,51.738,51.738,0,0,0,2.456,8.792Z" transform="translate(-231.502 -44.686)" fill="rgba(87,21,232,0.5)"/>
    <path id="Caminho_2003" data-name="Caminho 2003" d="M662.4,382.825a13.558,13.558,0,1,1-11.047-14.92.88.88,0,0,1,.685,1.076l-.269,1.042-2.4,9.357a.878.878,0,0,0,1.087,1.063l9.3-2.6,1.272-.355a.878.878,0,0,1,1.089.646A13.5,13.5,0,0,1,662.4,382.825Z" transform="translate(-495.849 -286.944)" fill="#fff"/>
    <path id="Caminho_2004" data-name="Caminho 2004" d="M723.9,369.428a.874.874,0,0,1-.586,1.158l-.876.245-7.575,2.115a.876.876,0,0,1-1.076-1.061l1.95-7.618.189-.732a.872.872,0,0,1,1.119-.618A11.424,11.424,0,0,1,723.9,369.428Z" transform="translate(-557.022 -283.188)" fill="#fff"/>
    <ellipse id="Elipse_230" data-name="Elipse 230" cx="3.732" cy="3.732" rx="3.732" ry="3.732" transform="translate(149.147 55.597)" fill="rgba(237,61,142,0.1)"/>
    <path id="Caminho_2005" data-name="Caminho 2005" d="M635.171,307.714h27.157v.747H635.171Z" transform="translate(-495.689 -240.141)" fill="rgba(237,61,142,0.1)"/>
    <path id="Caminho_2006" data-name="Caminho 2006" d="M635.171,320.3h27.157v.747H635.171Z" transform="translate(-495.689 -249.961)" fill="rgba(237,61,142,0.1)"/>
    <path id="Caminho_2007" data-name="Caminho 2007" d="M635.171,331.773h27.157v.747H635.171Z" transform="translate(-495.689 -258.917)" fill="rgba(237,61,142,0.1)"/>
    <path id="Caminho_2008" data-name="Caminho 2008" d="M386.961,303.307a.048.048,0,0,0,0,.024,17.523,17.523,0,0,1-.471,7.515c-1.539,5.133-5.641,9.142-10.16,12.019a39.128,39.128,0,0,1-3.775,2.128c-.521.263-1.054.516-1.6.755q-.329.153-.658.284c-.325.14-.648.273-.971.4-1.28.5-2.525.96-3.79,1.338-.057.021-.118.038-.175.054l-.04.011s-.146.045-.415.12c-.781.228-1.578.422-2.385.588-.364.084-.727.155-1.1.215-.534.088-1.061.168-1.61.228-.473.05-.951.091-1.425.114v-.08c.454-3.715-1.229-9.74-1.229-9.74a.023.023,0,0,1-.015,0,20.986,20.986,0,0,0-2.759.667.582.582,0,0,0-.1.03,15.173,15.173,0,0,0-2.744,1.218,10.622,10.622,0,0,0-4.659,5.1c-.067.138-.131.282-.19.43-.174.439-.325.887-.458,1.349l-.015.06c-.114.43-.219.861-.3,1.291-.03.121-.049.243-.069.368q-.129.71-.2,1.45c0-.23,0-.458.015-.673.015-.342.043-.687.088-1.024a10.567,10.567,0,0,1-2.888-5.016l-.032-.114c-.042-.149-.08-.286-.112-.414-.114-.448-.164-.727-.164-.727-1.952-18.017,5.621-29.292,9.183-33.5q.059,0,.118,0a4.748,4.748,0,0,0,2.565-.43l.024-.011A12.1,12.1,0,0,0,358.2,286a.867.867,0,0,0,.114.019,2.428,2.428,0,0,0,1.506-.159l.045-.015a2.673,2.673,0,0,0,.831-.626,6.213,6.213,0,0,0,1.21-2.111,11.566,11.566,0,0,0,.518-1.722l.063-.051c.054-.044.109-.089.168-.13a11.1,11.1,0,0,1,1.956-1.27c.179-.095.359-.178.547-.258a1.23,1.23,0,0,1,.131-.056,9.706,9.706,0,0,1,.93-.334.463.463,0,0,1,.064-.013,8.8,8.8,0,0,1,1.046-.245c.17.015.344.034.514.06a17.528,17.528,0,0,1,7.6,2.5c.079.043.15.091.22.138.039.026.078.053.117.077a.116.116,0,0,0,.026.022c3.964,2.8,6.456,7.405,8.216,11.748a60.2,60.2,0,0,1,2.04,5.707c.015.009.015.034.015.034l.025.085c.037.124.072.247.1.373v.011A27.189,27.189,0,0,1,386.961,303.307Zm-16.622,3.665a.131.131,0,0,0,.011.035,8.427,8.427,0,0,1,.114,1.681,1.8,1.8,0,0,1,0,.19v.095a7.162,7.162,0,0,1-.831,3.062,10.477,10.477,0,0,1-4.02,3.775c-.656.394-1.334.757-2.025,1.091l-.107.052c-.179.086-.359.173-.538.252q-.534.247-1.046.463l-.254.11-.215.09a.815.815,0,0,1-.08.034,14.338,14.338,0,0,1,.342-6.213,23.716,23.716,0,0,1,1.7-4.476,47.865,47.865,0,0,1,3.695-6.181c.015.015.029.03.042.045l.042.045.064.071c.064.071.128.142.2.213a12.347,12.347,0,0,1,2.354,3.624c.056.14.11.28.159.42a.914.914,0,0,1,.034.11A8.963,8.963,0,0,1,370.338,306.972Z" transform="translate(-267.084 -217.756)" fill="#5715e8"/>
    <path id="Caminho_2009" data-name="Caminho 2009" d="M380.664,281.051a11.849,11.849,0,0,1-.518,1.722c-.966,2.582-2.311,3.2-3.714,2.888a7.958,7.958,0,0,1-3.1-1.8.536.536,0,0,0-.611-.1,7.93,7.93,0,0,1-5.494,1.186,1.965,1.965,0,0,1-1.506-2.7,7.649,7.649,0,0,1,.846-1.922c1.4-2.367,3.346-1.722,4.816-.646a10.2,10.2,0,0,1,1.6,1.506.538.538,0,0,0,.706.136C376.1,279.663,381.659,276.288,380.664,281.051Z" transform="translate(-285.323 -217.424)" fill="#ed3d8e"/>
    <path id="Caminho_2010" data-name="Caminho 2010" d="M231.145,335.821s-.075,6.12-3.267,6.844h-.011c-7.823-1.175-9.073-4.642-9.073-4.642a108.4,108.4,0,0,1,3.506-20.313c-.85.334-1.683.712-2.494,1.076-2.9,1.311-5.707,2.839-8.471,4.422-1.793,1.027-3.57,2.092-5.333,3.172-.166-6.579-4.13-6.564-6.51-7.769,15.064-13.3,28.117-20.092,36.585-23.49a1.958,1.958,0,0,0,1.506,2.7c-.708,1.986-.538,4,2.6,4.476.049,0,.095.015.144.019C236.767,306.54,229.193,317.8,231.145,335.821Z" transform="translate(-155.685 -230.313)" fill="#5715e8"/>
    <path id="Caminho_2011" data-name="Caminho 2011" d="M325.444,518.761s-6.17,4.078-17.091,4.181-22.6-4.173-22.6-4.173c-3.013-9.684-.628-33.284-.628-33.284-.049.921,3.316,2.946,3.316,2.946s7.1,3.383,8.507-1.6.372-1.849,1.887.349,1.937,1.612,1.752,4.855,2.24,3.172,3.039,1.7a18.3,18.3,0,0,0,.671-2.4c.25.034,2.27.262,1.584-2.038a5.2,5.2,0,0,1,2.983-.258c5.165.742,11.176-1.1,11.176-1.1C326.843,497.682,325.444,518.761,325.444,518.761Z" transform="translate(-221.816 -377.85)" fill="#ed3d8e"/>
    <path id="Caminho_2012" data-name="Caminho 2012" d="M434.643,390.188s1.524-2.184,8.133-2.029c0,0-1.205-7.874-3.71-7.283C439.066,380.876,434.312,387.984,434.643,390.188Z" transform="translate(-339.184 -297.212)" fill="#ed3d8e"/>
    <path id="Caminho_2013" data-name="Caminho 2013" d="M402.729,194.141c-.17.071-.317.129-.43.174l-.2.071h-.013l-.067.024H402a2.63,2.63,0,0,1-1.211-2.4c3.676.028,3.984-2.993,3.984-2.993-.256-1.388-.62-2-1.291-2.29a12.9,12.9,0,0,0-3.349-.359l-.267-.019c-2.4-.181-3.839-2.4-4.465-3.658a7.414,7.414,0,0,1-.377-.861,13.326,13.326,0,0,0-4.707,4.218c-1.489-7.38,6.131-7.435,6.131-7.435a14.6,14.6,0,0,1,3.792-.013c.293.075.573.155.842.245.133.043.265.088.4.14s.254.1.381.153a2.8,2.8,0,0,1,.26.114,10.4,10.4,0,0,1,4.429,3.719c.015.024.03.045.041.067a2.489,2.489,0,0,1,.138.237C409.53,190.411,404.638,193.31,402.729,194.141Z" transform="translate(-304.455 -139.284)" fill="#ed3d8e"/>
    <path id="Caminho_2014" data-name="Caminho 2014" d="M402.729,194.156a2.892,2.892,0,0,1-.57-1.872c3.673.028,3.983-3,3.983-3-.4-2.126-1.035-2.44-2.66-2.548-.6-.043-1.336-.056-2.245-.121a3.972,3.972,0,0,1-1.1-.239c-2.582-.953-3.742-4.278-3.742-4.278-.349.194-.682.4-.99.6a7.375,7.375,0,0,1-.377-.861,13.33,13.33,0,0,0-4.707,4.218c-1.489-7.379,6.131-7.435,6.131-7.435a14.625,14.625,0,0,1,3.792-.013c.293.075.573.155.842.246.133.043.265.088.4.14s.254.1.381.153a2.809,2.809,0,0,1,.26.114,10.4,10.4,0,0,1,4.429,3.719c.015.024.03.045.041.067a2.47,2.47,0,0,1,.138.237C409.53,190.427,404.638,193.326,402.729,194.156Z" transform="translate(-304.455 -139.3)" fill="#ed3d8e"/>
    <path id="Caminho_2015" data-name="Caminho 2015" d="M483.595,215.37c.071,1.991-2.075,4.625-3.34,6.17-1.11,1.354-2.3,2.714-2.38,2.434a.047.047,0,0,0-.015-.034c-.564-1.937-1.291-3.843-2.042-5.707-1.747-4.341-4.248-8.944-8.221-11.746l-.011-.011a14.218,14.218,0,0,0-7.982-2.869s1.394-3.037,2.18-4.885,1.076-2.638,1.076-2.638c1.334-4.07.777-8.74-.09-9.547a.068.068,0,0,0-.03-.019c-.805-1.8-2-.385-2-.385l.015.03a13.5,13.5,0,0,0-1.149-1.229.937.937,0,0,1,.024-.215,2.187,2.187,0,0,1,1.007-1.336,4.645,4.645,0,0,1,2.8-.766,6.352,6.352,0,0,1,5.514,2.918c1.19,2.436,1.132,5.279,1.42,7.913.125,1.145.215,2.914,1.229,3.706a18.444,18.444,0,0,0,2.819,8.251,29.547,29.547,0,0,0,7.569,7.584Z" transform="translate(-358.676 -142.51)" fill="#ed3d8e"/>
    <path id="Caminho_2016" data-name="Caminho 2016" d="M387.171,205.951a3.615,3.615,0,0,1-1.78-.425,3.815,3.815,0,0,1-1.774-2.811,12.764,12.764,0,0,1-.26-3.072,7.205,7.205,0,0,1,.791-3.029,11.46,11.46,0,0,1,2.354-3.021,19.765,19.765,0,0,1,3.025-2.29l.4-.253.16.448a8.46,8.46,0,0,0,1.426,2.362,5.983,5.983,0,0,0,1.877,1.49,5.016,5.016,0,0,0,2.756.474,4.1,4.1,0,0,1,2,.247,2.78,2.78,0,0,1,1.274,1.041,2.928,2.928,0,0,1,.022,3.051,3.752,3.752,0,0,1-1.622,1.493,5.7,5.7,0,0,1-2.774.524l.029-.761a4.952,4.952,0,0,0,2.406-.445,3,3,0,0,0,1.3-1.186,2.17,2.17,0,0,0,0-2.259,1.994,1.994,0,0,0-.929-.753,3.354,3.354,0,0,0-1.631-.192,5.765,5.765,0,0,1-3.181-.555,6.757,6.757,0,0,1-2.121-1.689,9.35,9.35,0,0,1-1.368-2.147,18.32,18.32,0,0,0-2.531,1.957,10.7,10.7,0,0,0-2.2,2.818,6.46,6.46,0,0,0-.706,2.715,12.036,12.036,0,0,0,.247,2.891,3.1,3.1,0,0,0,1.4,2.287c.609.339,1.736.587,3.651-.151l.371-.14a5.208,5.208,0,0,0,2.562-1.559l.611.455a5.861,5.861,0,0,1-2.905,1.818l-.365.138a7.4,7.4,0,0,1-2.276.525Q387.289,205.951,387.171,205.951Z" transform="translate(-299.163 -149.096)"/>
    <path id="Caminho_2017" data-name="Caminho 2017" d="M383.331,185.183a8.768,8.768,0,0,1-.644-2.011,7.558,7.558,0,0,1-.138-1.971,5.242,5.242,0,0,1,2.623-4.278,10.508,10.508,0,0,1,3.931-1.3h0a13.424,13.424,0,0,1,5.313.252,8.844,8.844,0,0,1,.872.254c.154.05.284.1.406.143a4.226,4.226,0,0,1,.4.161,10.8,10.8,0,0,1,3.114,1.928l-.5.571a10.039,10.039,0,0,0-2.9-1.8l-.018-.008a3.457,3.457,0,0,0-.343-.138l-.016-.006c-.111-.044-.229-.085-.373-.132l-.009,0a8.064,8.064,0,0,0-.8-.234h-.006a12.662,12.662,0,0,0-5.014-.238h0c-2.755.414-4.572,1.429-5.4,3.016-1.269,2.427.184,5.428.2,5.458Z" transform="translate(-298.53 -136.932)"/>
    <path id="Caminho_2018" data-name="Caminho 2018" d="M460.018,212.984l-.742-.172a23.993,23.993,0,0,1,1.691-4.49,25.8,25.8,0,0,0,1.506-3.831,15.4,15.4,0,0,0,.552-4.332,10.713,10.713,0,0,0-.892-4.2v0c-.13-.29-.343-.644-.618-.683-.306-.043-.663.3-.742.39l-.582-.491a2.273,2.273,0,0,1,.4-.357,1.447,1.447,0,0,1,1.032-.3,1.662,1.662,0,0,1,1.207,1.126,11.47,11.47,0,0,1,.959,4.5,16.17,16.17,0,0,1-.579,4.55,26.364,26.364,0,0,1-1.548,3.946A23.421,23.421,0,0,0,460.018,212.984Z" transform="translate(-358.42 -151.792)"/>
    <path id="Caminho_2019" data-name="Caminho 2019" d="M358.85,271.635a1.582,1.582,0,0,1-.525-.089h0a1.813,1.813,0,0,1-1.135-1.279,6.167,6.167,0,0,1-.187-1.544c0-.068,0-.135-.007-.2-.024-.519-.024-1.023,0-1.5a11.359,11.359,0,0,1,.851-3.88,11.707,11.707,0,0,1,2.055-3.288,12.244,12.244,0,0,1,3.012-2.471,12.513,12.513,0,0,1,3.725-1.437h0a36.236,36.236,0,0,0,8.506-2.9h0c.68-.328,1.352-.689,2-1.075a14.386,14.386,0,0,0,2.218-1.588,7.545,7.545,0,0,0,1.66-2.041,6.442,6.442,0,0,0,.6-1.585,7.51,7.51,0,0,0,.2-1.7,9.129,9.129,0,0,0-.668-3.407h0a11.116,11.116,0,0,0-1.773-2.915,34.345,34.345,0,0,0-2.392-2.549,32.134,32.134,0,0,1-2.654-2.867l.6-.47a31.562,31.562,0,0,0,2.592,2.8,34.9,34.9,0,0,1,2.445,2.607,11.862,11.862,0,0,1,1.891,3.113h0a9.9,9.9,0,0,1,.723,3.694,8.269,8.269,0,0,1-.219,1.873,7.2,7.2,0,0,1-.673,1.772,8.29,8.29,0,0,1-1.823,2.246,15.141,15.141,0,0,1-2.334,1.674c-.665.4-1.357.769-2.056,1.107h0a37,37,0,0,1-8.685,2.959,11.753,11.753,0,0,0-3.5,1.349,11.486,11.486,0,0,0-2.825,2.318,10.947,10.947,0,0,0-1.922,3.074,10.6,10.6,0,0,0-.794,3.623v0c-.023.451-.023.93,0,1.426v0c0,.066,0,.135.007.206a5.5,5.5,0,0,0,.155,1.349,1.065,1.065,0,0,0,.661.78.983.983,0,0,0,.724-.061,1.692,1.692,0,0,0,.657-.548,4.791,4.791,0,0,0,.622-1.771l.013-.061a4.521,4.521,0,0,1,.874-2.093,2.532,2.532,0,0,1,.568-.5c1.2-.819,2.883-.709,4.237-.621l.378.024h0a28.779,28.779,0,0,0,4.83-.1,35.734,35.734,0,0,0,9.411-2.519c1.22-.489,2.266-.957,3.2-1.43l0,0a38.649,38.649,0,0,0,3.738-2.105,29.043,29.043,0,0,0,6.116-5.1,17.864,17.864,0,0,0,3.882-6.713,15.664,15.664,0,0,0,.57-2.852,17.563,17.563,0,0,0,.061-2.841,25.213,25.213,0,0,0-1.022-5.574.422.422,0,0,1-.04-.12c-.585-2-1.35-3.975-2.021-5.642a36.269,36.269,0,0,0-3.241-6.385,22.2,22.2,0,0,0-2.192-2.84,16.645,16.645,0,0,0-2.628-2.333.394.394,0,0,1-.071-.052l-.1-.071c-.072-.049-.14-.1-.21-.14l0,0a14.091,14.091,0,0,0-3.763-1.7,22.5,22.5,0,0,0-4.152-.783l-1.33-.1a1.313,1.313,0,0,1-1.212-1.211l-.446-5.489.318-.076a6.45,6.45,0,0,0,4.4-3.666,8.182,8.182,0,0,0,.709-3.647,7.181,7.181,0,0,0-.93-3.2l-.005-.01,0-.01a1.826,1.826,0,0,0-.11-.194l-.061-.092-.012-.027a.239.239,0,0,0,.024.042l.615-.449a.534.534,0,0,1,.037.058l.035.053a2.606,2.606,0,0,1,.151.265,7.935,7.935,0,0,1,1.022,3.528,8.938,8.938,0,0,1-.771,3.986v0a7.21,7.21,0,0,1-4.608,4.018l.394,4.85a.554.554,0,0,0,.509.509l1.344.1a23.27,23.27,0,0,1,4.3.811,14.852,14.852,0,0,1,3.964,1.788c.079.05.154.1.226.151l.14.094.171.113v.012a17.5,17.5,0,0,1,2.625,2.351,22.968,22.968,0,0,1,2.268,2.938,37.015,37.015,0,0,1,3.311,6.518c.669,1.661,1.43,3.623,2.021,5.627l.006,0,.043.146a26.039,26.039,0,0,1,1.068,5.8,18.327,18.327,0,0,1-.064,2.964,16.435,16.435,0,0,1-.6,2.991,18.62,18.62,0,0,1-4.042,7,29.8,29.8,0,0,1-6.276,5.233,39.394,39.394,0,0,1-3.809,2.146c-.951.483-2.016.96-3.257,1.457a36.458,36.458,0,0,1-9.608,2.569h0a29.54,29.54,0,0,1-4.959.107l-.383-.024c-1.238-.081-2.779-.181-3.761.492l-.01.006a1.771,1.771,0,0,0-.4.354l0,0a3.891,3.891,0,0,0-.707,1.756l-.013.061a5.428,5.428,0,0,1-.746,2.053,2.442,2.442,0,0,1-.963.8A1.857,1.857,0,0,1,358.85,271.635Z" transform="translate(-278.585 -154.336)"/>
    <ellipse id="Elipse_231" data-name="Elipse 231" cx="0.59" cy="0.499" rx="0.59" ry="0.499" transform="matrix(0.482, -0.876, 0.876, 0.482, 90.012, 49.151)" fill="#5715e8"/>
    <ellipse id="Elipse_232" data-name="Elipse 232" cx="0.59" cy="0.499" rx="0.59" ry="0.499" transform="matrix(0.482, -0.876, 0.876, 0.482, 85.556, 48.596)" fill="#5715e8"/>
    <path id="Caminho_2020" data-name="Caminho 2020" d="M452.636,856.427v14.825a1.091,1.091,0,0,1-2.031.553c-.646-1.13-1.838-3.327-3.387-6.241,3.611-1.494,1.345-12.15,1.265-12.529a2.187,2.187,0,0,0,1.952,1.19A2.2,2.2,0,0,1,452.636,856.427Z" transform="translate(-349.01 -665.711)" fill="#5715e8"/>
    <path id="Caminho_2021" data-name="Caminho 2021" d="M361.081,915.059c-.174.921-.355,1.851-.534,2.8a3.577,3.577,0,0,1-3.51,2.9H344.364a1,1,0,0,1-.454-1.883l6.712-3.426.5-.254s4.935,3.411,9.96-.134Z" transform="translate(-267.966 -714.115)" fill="#5715e8"/>
    <path id="Caminho_2022" data-name="Caminho 2022" d="M430.869,416.525l-.677-.35a4.039,4.039,0,0,1,1.38-1.5,7.15,7.15,0,0,1,2.083-.9,20.366,20.366,0,0,1,5.668-.517l-.016.762a19.648,19.648,0,0,0-5.452.49,6.4,6.4,0,0,0-1.861.8A3.287,3.287,0,0,0,430.869,416.525Z" transform="translate(-335.723 -322.503)"/>
    <path id="Caminho_2023" data-name="Caminho 2023" d="M512.018,459.084l-5.81,10.8,1.741,39.058-2.929-2.012L502.2,474.867s-1.762-12.947,3.4-15.783S512.018,459.084,512.018,459.084Z" transform="translate(-391.694 -357.286)" fill="#fff"/>
    <path id="Caminho_2024" data-name="Caminho 2024" d="M545.124,388.832a.418.418,0,0,1,0-.289l.393.144Z" transform="translate(-425.397 -303.22)"/>
    <path id="Caminho_2025" data-name="Caminho 2025" d="M475.13,220.333l-.761-.036a3.655,3.655,0,0,1,.554-1.767,12.378,12.378,0,0,1,2.323-2.486,10.223,10.223,0,0,0,2.4-2.683,3.1,3.1,0,0,0-.365-3.269,8.772,8.772,0,0,0-2.657-2.347A17.786,17.786,0,0,1,475,206.561a18.544,18.544,0,0,1-2.861-3.1,22.713,22.713,0,0,1-2.159-3.614,30.975,30.975,0,0,1-1.748-4.613c-.416-1.4-.785-2.916-1.161-4.769h0c-.2-1.013-.315-2.075-.424-3.1-.106-.994-.215-2.023-.4-3a11.045,11.045,0,0,0-.883-2.777,6.251,6.251,0,0,0-2.956-2.868,6.329,6.329,0,0,0-4.1-.483,3.006,3.006,0,0,0-1.342.689,2.378,2.378,0,0,0-.685,1.046c.126.12.249.238.371.365a8.761,8.761,0,0,1,.91,1.1l.035-.025a1.45,1.45,0,0,1,1.034-.3,1.661,1.661,0,0,1,1.207,1.124l-.7.311c-.129-.289-.341-.641-.616-.681-.3-.043-.647.276-.747.392l-.336.405-.278-.449a8,8,0,0,0-1.06-1.345l0,0c-.157-.164-.323-.319-.5-.483l-.168-.158.044-.21a3.1,3.1,0,0,1,.972-1.655,3.77,3.77,0,0,1,1.682-.867,7.194,7.194,0,0,1,7.913,3.76,17.8,17.8,0,0,1,1.361,6.033c.107,1.01.218,2.054.413,3.033h0c.372,1.831.735,3.325,1.145,4.7a30.226,30.226,0,0,0,1.7,4.5,21.941,21.941,0,0,0,2.086,3.492,17.775,17.775,0,0,0,2.743,2.975,16.942,16.942,0,0,0,1.554,1.131,9.472,9.472,0,0,1,2.872,2.567,3.838,3.838,0,0,1,.406,4.021,10.732,10.732,0,0,1-2.572,2.911,11.663,11.663,0,0,0-2.183,2.32l0,0A2.891,2.891,0,0,0,475.13,220.333Z" transform="translate(-355.42 -138.379)"/>
    <path id="Caminho_2026" data-name="Caminho 2026" d="M395.844,215.949c-.028-.005-.091-.013-.152-.02a4.475,4.475,0,0,1-.6-.1.954.954,0,0,1-.643-.414.627.627,0,0,1,0-.586,6.062,6.062,0,0,0,.583-2.12A3.078,3.078,0,0,0,395,211.9v0l.74-.181a5.481,5.481,0,0,1-.555,3.338,1.278,1.278,0,0,0,.164.046c.145.032.3.051.433.066.084.01.151.018.206.028Z" transform="translate(-307.774 -165.228)"/>
    <path id="Elipse_233" data-name="Elipse 233" d="M2.882,0A3.183,3.183,0,0,1,4.89.68a2.438,2.438,0,0,1,.634.766,2.07,2.07,0,0,1,0,1.933,2.438,2.438,0,0,1-.634.766,3.183,3.183,0,0,1-2.008.68,3.183,3.183,0,0,1-2.008-.68A2.438,2.438,0,0,1,.24,3.379a2.07,2.07,0,0,1,0-1.933A2.438,2.438,0,0,1,.873.68,3.183,3.183,0,0,1,2.882,0Zm0,4.063a2.42,2.42,0,0,0,1.528-.51A1.476,1.476,0,0,0,5,2.413,1.476,1.476,0,0,0,4.41,1.272,2.42,2.42,0,0,0,2.882.762a2.42,2.42,0,0,0-1.528.51A1.476,1.476,0,0,0,.762,2.413a1.476,1.476,0,0,0,.592,1.141A2.42,2.42,0,0,0,2.882,4.063Z" transform="translate(87.472 49.807) rotate(-68.53)"/>
    <path id="Elipse_234" data-name="Elipse 234" d="M2.882,0A3.183,3.183,0,0,1,4.89.68a2.438,2.438,0,0,1,.634.766,2.07,2.07,0,0,1,0,1.933,2.438,2.438,0,0,1-.634.766,3.183,3.183,0,0,1-2.008.68,3.183,3.183,0,0,1-2.008-.68A2.438,2.438,0,0,1,.24,3.379a2.07,2.07,0,0,1,0-1.933A2.438,2.438,0,0,1,.873.68,3.183,3.183,0,0,1,2.882,0Zm0,4.063a2.42,2.42,0,0,0,1.528-.51A1.476,1.476,0,0,0,5,2.413,1.476,1.476,0,0,0,4.41,1.272,2.42,2.42,0,0,0,2.882.762a2.42,2.42,0,0,0-1.528.51A1.476,1.476,0,0,0,.762,2.413a1.476,1.476,0,0,0,.592,1.141A2.42,2.42,0,0,0,2.882,4.063Z" transform="translate(82.244 49.234) rotate(-68.53)"/>
    <path id="Caminho_2027" data-name="Caminho 2027" d="M381.3,207.661a2.2,2.2,0,0,1,1.924-1.493v-.011a1.488,1.488,0,0,1,.544.1,2.025,2.025,0,0,1,.861,2.7,2.2,2.2,0,0,1-1.922,1.506,1.507,1.507,0,0,1-.547-.1A2.027,2.027,0,0,1,381.3,207.661Zm2.285-.928a.979.979,0,0,0-.361-.069,1.722,1.722,0,0,0-1.459,1.179,1.54,1.54,0,0,0,.577,2.055.985.985,0,0,0,.364.067,1.723,1.723,0,0,0,1.459-1.179A1.539,1.539,0,0,0,383.59,206.734Z" transform="translate(-297.428 -160.885)" fill="#fff"/>
    <ellipse id="Elipse_235" data-name="Elipse 235" cx="2.199" cy="1.786" rx="2.199" ry="1.786" transform="translate(83.076 48.828) rotate(-68.53)" fill="#ed3d8e"/>
    <ellipse id="Elipse_236" data-name="Elipse 236" cx="2.199" cy="1.786" rx="2.199" ry="1.786" transform="translate(88.305 49.401) rotate(-68.53)" fill="#ed3d8e"/>
    <path id="Caminho_2028" data-name="Caminho 2028" d="M398.823,212.581c-.4-.348-.594-.35-.628-.347s-.025.007-.026.009a.148.148,0,0,0,.013-.024l-.688-.327a.778.778,0,0,1,.534-.4,1.58,1.58,0,0,1,1.294.515Z" transform="translate(-310.204 -165.033)"/>
    <path id="Caminho_2029" data-name="Caminho 2029" d="M560.058,533.156c-9.213,1.907-19.65-.943-28.678-2.735l-12.628-2.5a16.73,16.73,0,0,1-4.031-1.171c-.058-.045-.118-.095-.174-.144-2.249-1.937-2.662-5.21-2.922-8.178q-.775-8.845-1.554-17.679-.97-11.085-1.937-22.166c-.441-5.07-.74-10.672,2.367-14.707a5.2,5.2,0,0,1,5.791-2.031,3.887,3.887,0,0,1,.374.155,7.907,7.907,0,0,1,1.982,2.55c2.707,5.38,2.081,12.161,2.419,18,.613,10.691.319,21.383-.024,32.08-.041,1.24-.564,2.475-.553,3.659,0-.17.562-.394,1.464-.646,3.57-.977,12.5-2.337,13.4-2.44a58.442,58.442,0,0,1,22.762,1.842,17.916,17.916,0,0,1,5.124,2.425,11.338,11.338,0,0,1,4.3,4.98C569.476,529.514,564.223,532.289,560.058,533.156Z" transform="translate(-396.336 -360.22)" fill="rgba(237,61,142,0.1)"/>
    <path id="Caminho_2030" data-name="Caminho 2030" d="M560.058,533.156c-9.213,1.907-19.65-.943-28.678-2.735l-12.628-2.5a16.73,16.73,0,0,1-4.031-1.171c-.058-.045-.118-.095-.174-.144-2.249-1.937-2.662-5.21-2.922-8.178q-.775-8.845-1.554-17.679-.97-11.085-1.937-22.166c-.441-5.07-.74-10.672,2.367-14.707a5.2,5.2,0,0,1,5.791-2.031,3.887,3.887,0,0,1,.374.155,7.907,7.907,0,0,1,1.982,2.55c2.707,5.38,2.081,12.161,2.419,18,.613,10.691.319,21.383-.024,32.08-.041,1.24-.564,2.475-.553,3.659,0-.17.562-.394,1.464-.646a6.978,6.978,0,0,0-.174,1.438c0-.842,13.734-2.948,14.86-3.077a58.513,58.513,0,0,1,22.769,1.842,17.851,17.851,0,0,1,3.833,1.625,11.338,11.338,0,0,1,4.3,4.98C569.476,529.514,564.223,532.289,560.058,533.156Z" transform="translate(-396.336 -360.22)" fill="rgba(237,61,142,0.1)"/>
    <path id="Caminho_2031" data-name="Caminho 2031" d="M547.467,530a58.45,58.45,0,0,1-9.135-.813c-3.041-.482-6.057-1.117-8.973-1.732-1.387-.292-2.7-.568-4-.827l-12.628-2.5a24.224,24.224,0,0,1-2.957-.729,7.953,7.953,0,0,1-2.71-1.47,7.8,7.8,0,0,1-2.325-3.885,24.073,24.073,0,0,1-.729-4.548l-1.565-17.674-1.948-22.166a42.38,42.38,0,0,1-.15-7.815,13.634,13.634,0,0,1,2.595-7.16,5.95,5.95,0,0,1,4.6-2.443,4.79,4.79,0,0,1,1.628.285A6.255,6.255,0,0,1,511.449,458a8.581,8.581,0,0,1,1.584,2.212h0a17.492,17.492,0,0,1,1.256,3.336,25.76,25.76,0,0,1,.676,3.53,68.967,68.967,0,0,1,.4,7.225c.028,1.412.054,2.745.129,4.055.279,4.847.393,10.1.348,16.065-.041,5.384-.2,10.665-.373,16.052a10.121,10.121,0,0,1-.288,1.848c-.082.372-.161.732-.211,1.083l.029-.011a16.1,16.1,0,0,1,1.613-.461c1.179-.287,2.816-.621,4.868-.993,3.573-.648,7.294-1.21,7.876-1.278a58.874,58.874,0,0,1,22.913,1.854,17.528,17.528,0,0,1,2.858,1.1,18.179,18.179,0,0,1,2.8,1.68,14,14,0,0,1,2.4,2.2,9.269,9.269,0,0,1,1.622,2.66,6.056,6.056,0,0,1,.432,2.5,5,5,0,0,1-.615,2.136,6.5,6.5,0,0,1-1.381,1.7,10.024,10.024,0,0,1-1.877,1.307,15.883,15.883,0,0,1-4.318,1.549,30.079,30.079,0,0,1-3.324.491C549.779,529.945,548.637,530,547.467,530Zm-39.932-73a4.593,4.593,0,0,0-2.2.592,5.855,5.855,0,0,0-1.794,1.554,12.9,12.9,0,0,0-2.44,6.773,28.572,28.572,0,0,0-.1,3.822c.043,1.326.148,2.633.254,3.849l1.948,22.166,1.565,17.674a23.426,23.426,0,0,0,.7,4.4,7.067,7.067,0,0,0,2.09,3.521,7.212,7.212,0,0,0,2.456,1.325,23.626,23.626,0,0,0,2.862.7l12.628,2.5c1.311.26,2.624.536,4.013.829,2.907.612,5.914,1.246,8.935,1.725a57.708,57.708,0,0,0,9.016.8c1.147,0,2.265-.05,3.323-.148a29.328,29.328,0,0,0,3.24-.478,15.118,15.118,0,0,0,4.106-1.471,9.252,9.252,0,0,0,1.734-1.206,5.743,5.743,0,0,0,1.221-1.5,4.247,4.247,0,0,0,.523-1.813,5.3,5.3,0,0,0-.382-2.189c-1.355-3.528-5.707-6.193-9.176-7.175a58.116,58.116,0,0,0-22.617-1.83c-.525.061-3.989.583-7.409,1.2-1.959.351-3.563.669-4.769.947-.7.161-1.261.308-1.675.438a2.447,2.447,0,0,0-.736.3.26.26,0,0,0,.064-.179l-.762,0a8.816,8.816,0,0,1,.281-1.966,9.536,9.536,0,0,0,.27-1.709c.173-5.382.332-10.658.373-16.033.045-5.946-.069-11.185-.346-16.016-.076-1.324-.1-2.665-.13-4.084a68.375,68.375,0,0,0-.389-7.145,25.023,25.023,0,0,0-.656-3.426,16.74,16.74,0,0,0-1.2-3.192,7.824,7.824,0,0,0-1.442-2.016,5.5,5.5,0,0,0-2.006-1.308A4.03,4.03,0,0,0,507.535,456.993Z" transform="translate(-390.372 -356.044)"/>
    <path id="Caminho_2032" data-name="Caminho 2032" d="M437.491,847.784a1.479,1.479,0,0,1-1.27-.722l0-.005c-.627-1.1-1.8-3.259-3.391-6.251-1.107-2.076-2.359-4.446-3.621-6.854l.675-.354c1.261,2.407,2.513,4.775,3.619,6.85,1.586,2.983,2.754,5.136,3.378,6.228a.712.712,0,0,0,1.324-.362V831.481a1.823,1.823,0,0,0-1.82-1.821h-.01a2.56,2.56,0,0,1-2.282-1.4v0a38.932,38.932,0,0,1-2.71-6.985l.734-.206a38.176,38.176,0,0,0,2.656,6.847,1.8,1.8,0,0,0,1.611.982h0a2.585,2.585,0,0,1,2.582,2.582v14.836a1.473,1.473,0,0,1-1.472,1.468Z" transform="translate(-334.954 -640.765)"/>
    <path id="Caminho_2033" data-name="Caminho 2033" d="M369.477,688.309c-.126-4.242-.461-8.528-1-12.739s-1.283-8.443-2.222-12.581c-.313-1.349-.607-2.668-.873-3.921l.745-.158c.265,1.248.558,2.563.87,3.907v0c.945,4.163,1.7,8.421,2.235,12.655s.875,8.545,1,12.812Z" transform="translate(-285.148 -514.215)"/>
    <path id="Caminho_2034" data-name="Caminho 2034" d="M374.021,711.971v-.762h6.938a3.2,3.2,0,0,0,3.136-2.594c.082-.432.165-.869.246-1.291.095-.494.193-1.006.287-1.506.516-2.724,1.012-5.393,1.474-7.932.7-3.843,1.4-7.846,2.194-12.6,1.188-7.22,2.165-13.908,2.9-19.878.708-5.722,1.224-11.008,1.534-15.71v0c.015-.219.03-.443.044-.659s.027-.418.042-.628c.014-.267.028-.535.042-.794q.016-.293.031-.583l.761.04q-.015.291-.031.584c-.014.26-.029.528-.042.8v.007c-.015.209-.028.422-.042.628s-.029.441-.044.662h0c-.311,4.716-.829,10.016-1.539,15.753-.74,5.979-1.718,12.678-2.908,19.909-.8,4.756-1.494,8.762-2.2,12.609-.462,2.541-.958,5.211-1.475,7.937-.094.5-.192,1.013-.287,1.508-.081.422-.164.858-.246,1.29a3.958,3.958,0,0,1-3.884,3.213Z" transform="translate(-291.887 -504.949)"/>
    <path id="Caminho_2035" data-name="Caminho 2035" d="M319.785,712.92a1.377,1.377,0,0,1-.618-2.608l7.036-3.591c.651-4.371,1.11-8.821,1.364-13.231.256-4.442.309-8.948.16-13.4l-.3-.487c-1.9-3.1-3.871-6.3-5.716-9.5-2.073-3.6-3.762-6.813-5.162-9.82-1.2-2.581-2.213-5.282-3.192-7.893-.476-1.269-.967-2.581-1.474-3.861l.709-.28c.509,1.286,1,2.6,1.479,3.874.974,2.6,1.981,5.284,3.169,7.839,1.391,2.988,3.07,6.181,5.132,9.762,1.84,3.195,3.8,6.391,5.705,9.482l.4.658,0,.1c.155,4.5.1,9.067-.157,13.566s-.73,9.039-1.4,13.495l-.029.194-.674.343-6.714,3.427a.616.616,0,0,0,.275,1.166h8.832v.762h-8.831Z" transform="translate(-243.394 -505.898)"/>
    <path id="Caminho_2036" data-name="Caminho 2036" d="M427.724,394.977a13.929,13.929,0,0,1-.05-4.406,19.879,19.879,0,0,1,1.182-4.366,41.391,41.391,0,0,1,4.682-8.4l.627.432a40.668,40.668,0,0,0-4.6,8.239,19.115,19.115,0,0,0-1.138,4.2,13.169,13.169,0,0,0,.046,4.165Z" transform="translate(-333.641 -294.843)"/>
    <path id="Caminho_2037" data-name="Caminho 2037" d="M307.114,401.878q-.582,0-1.173-.014h0l-.509-.015c-1.3-.043-2.669-.138-4.06-.282h0a72.593,72.593,0,0,1-11.821-2.3c-2.883-.809-4.651-1.493-4.793-1.548l-.334-.117-.038-.221a100.05,100.05,0,0,1-1.237-11.179c-.184-3.219-.244-6.6-.178-10.063V376c.117-5.706.549-10.022.73-11.613v0q.01-.083.019-.15c.009-.073.017-.13.02-.167,0-.011,0-.023,0-.035v-.017a81.037,81.037,0,0,1,2.712-17.54,65.712,65.712,0,0,1,3.628-10.11,47.04,47.04,0,0,1,4.464-7.812l.619.444a46.288,46.288,0,0,0-4.391,7.686,64.952,64.952,0,0,0-3.585,9.992,80.267,80.267,0,0,0-2.684,17.339.669.669,0,0,1,0,.126c0,.047-.012.108-.023.191-.005.043-.012.091-.018.145-.179,1.582-.608,5.867-.725,11.537v.137c-.065,3.441-.005,6.808.177,10.009a99.709,99.709,0,0,0,1.19,10.876c.359.137,2.037.764,4.658,1.5a71.824,71.824,0,0,0,11.7,2.273c1.372.142,2.72.236,4,.278l.507.015q.581.013,1.154.013a39.841,39.841,0,0,0,9.89-1.157c.8-.206,1.52-.421,2.2-.658h0a26.521,26.521,0,0,0,2.822-1.135h0c.351-.163.7-.335,1.027-.511l.2-.1.145-.08c.217-.12.44-.243.658-.37.007-.221.013-.447.013-.669v-.006c.015-.962.015-1.945.015-2.895-.03-2.886-.147-5.493-.358-7.969a72.576,72.576,0,0,0-1.079-7.885c-.191-.983-.429-1.97-.73-3.02a60.381,60.381,0,0,0-2.467-6.793v0c-.1-.234-.2-.47-.3-.7-.081-.186-.164-.378-.247-.57l-.02-.046-.007-.049a.35.35,0,0,0,.126.221l.481-.591a.409.409,0,0,1,.129.185c.079.185.159.369.237.547.1.229.2.466.3.7a61.141,61.141,0,0,1,2.5,6.879v0c.307,1.072.551,2.081.746,3.086a73.341,73.341,0,0,1,1.091,7.967c.212,2.5.33,5.122.36,8.027v0c0,.953,0,1.938-.015,2.906,0,.257-.008.514-.015.762q0,.069,0,.138l-.006.21-.216.128h0c-.274.163-.553.317-.822.466l-.148.082-.007,0-.2.1c-.342.183-.7.361-1.063.529a27.274,27.274,0,0,1-2.9,1.167c-.7.243-1.44.464-2.259.675A40.608,40.608,0,0,1,307.114,401.878Z" transform="translate(-220.808 -256.406)"/>
    <path id="Caminho_2038" data-name="Caminho 2038" d="M374.707,311.5a5.541,5.541,0,0,1-.693-.044h0l-.148-.02a3.8,3.8,0,0,1-2.876-1.585,3.937,3.937,0,0,1-.029-3.395l.718.254a3.241,3.241,0,0,0-.035,2.749,3.1,3.1,0,0,0,2.334,1.223l.137.019a4.392,4.392,0,0,0,1.741-.116,5.144,5.144,0,0,0,1.533-.729,14.711,14.711,0,0,0,2.841-2.792l.584.49C379.06,309.641,377.269,311.5,374.707,311.5Z" transform="translate(-289.212 -239.161)"/>
    <path id="Caminho_2039" data-name="Caminho 2039" d="M434.468,279.92l-.5-.577a10.737,10.737,0,0,1,5.085-2.432l.137.75A9.975,9.975,0,0,0,434.468,279.92Z" transform="translate(-338.672 -216.102)"/>
    <path id="Caminho_2040" data-name="Caminho 2040" d="M341.723,360.18a53.771,53.771,0,0,1-.315-6.487,49,49,0,0,1,.426-5.85,45,45,0,0,1,2.434-9.768,41.95,41.95,0,0,1,3.479-7.161,36.6,36.6,0,0,1,3.244-4.524l.582.492a35.831,35.831,0,0,0-3.176,4.43,41.179,41.179,0,0,0-3.415,7.031,44.235,44.235,0,0,0-2.393,9.6,48.252,48.252,0,0,0-.419,5.759,53.026,53.026,0,0,0,.31,6.394Z" transform="translate(-266.433 -254.716)"/>
    <path id="Caminho_2041" data-name="Caminho 2041" d="M376.666,284.358h0c-1.13,0-2.4-.624-4-1.962l-.013-.011-.012-.012a.147.147,0,0,0-.155-.034,9.068,9.068,0,0,1-4.563,1.35,4.483,4.483,0,0,1-1.644-.274,2.252,2.252,0,0,1-1.175-.968,2.54,2.54,0,0,1-.232-1.725,7.213,7.213,0,0,1,.959-2.356,4.012,4.012,0,0,1,1.259-1.379,2.662,2.662,0,0,1,1.45-.423,4.488,4.488,0,0,1,2.545.964,10.453,10.453,0,0,1,1.78,1.644l.011.014a.161.161,0,0,0,.127.062.158.158,0,0,0,.076-.019c1.852-1.261,4.393-2.759,6-2.759a1.944,1.944,0,0,1,.756.138,1.365,1.365,0,0,1,.6.485,2.321,2.321,0,0,1,.3,1.564,9.96,9.96,0,0,1-.643,2.486,8.344,8.344,0,0,1-.692,1.454,4.574,4.574,0,0,1-.812,1A2.8,2.8,0,0,1,376.666,284.358Zm-3.5-2.537a11.086,11.086,0,0,0,1.791,1.26,3.7,3.7,0,0,0,1.713.516h0a2.034,2.034,0,0,0,1.411-.565,5.451,5.451,0,0,0,1.3-2.156,9.241,9.241,0,0,0,.6-2.287,1.675,1.675,0,0,0-.165-1.062c-.051-.073-.205-.3-.732-.3a6.9,6.9,0,0,0-2.768.928,27.9,27.9,0,0,0-2.817,1.708l-.009.006-.01.006a.923.923,0,0,1-1.2-.215,9.67,9.67,0,0,0-1.638-1.514,3.764,3.764,0,0,0-2.1-.823,1.886,1.886,0,0,0-1.041.3,3.267,3.267,0,0,0-1.012,1.124c-.87,1.473-1.119,2.619-.722,3.315.183.32.706.858,2.157.858a7.718,7.718,0,0,0,2.168-.342,7.92,7.92,0,0,0,2.005-.9l.019-.012.02-.01a.913.913,0,0,1,.4-.094A.9.9,0,0,1,373.161,281.821Z" transform="translate(-284.703 -215.757)"/>
    <path id="Caminho_2042" data-name="Caminho 2042" d="M294.546,486.649a4.974,4.974,0,0,1-1.3-.173c-5.492-1.49-6.519-4.19-6.56-4.3l.717-.258v0a4.152,4.152,0,0,0,1.09,1.384,8.977,8.977,0,0,0,1.833,1.252,15.3,15.3,0,0,0,3.12,1.192,4.233,4.233,0,0,0,5.227-3.138,14.542,14.542,0,0,0,.339-2.771l.756-.057a14.743,14.743,0,0,0,.667,2.322,11.929,11.929,0,0,0,.951,1.989,6.813,6.813,0,0,0,1.442,1.728l-.485.587a7.574,7.574,0,0,1-1.613-1.927,12.71,12.71,0,0,1-1.014-2.123q-.076-.2-.143-.4-.068.41-.158.815v0a5,5,0,0,1-4.871,3.877Z" transform="translate(-223.732 -374.418)"/>
    <path id="Caminho_2043" data-name="Caminho 2043" d="M375.49,509.95l-.047-.761a1.528,1.528,0,0,0,1.178-.516,1.873,1.873,0,0,0,.26-1.319l.747-.149a2.62,2.62,0,0,1-.4,1.933A2.248,2.248,0,0,1,375.49,509.95Z" transform="translate(-292.996 -395.825)"/>
    <path id="Caminho_2044" data-name="Caminho 2044" d="M570.4,815.2a1.808,1.808,0,0,1-.623-3.5l8.739-3.287a6,6,0,0,0,3.868-5.588V779.026h1.2v23.791a7.205,7.205,0,0,1-4.646,6.713l-8.742,3.288a.607.607,0,0,0,.214,1.177h30.134a.614.614,0,0,0,.6-.5.608.608,0,0,0-.384-.68l-9.253-3.458a7.21,7.21,0,0,1-4.662-6.719v-22.76h1.2v22.76a6,6,0,0,0,3.882,5.594l9.254,3.458a1.81,1.81,0,0,1-.643,3.5H570.4Z" transform="translate(-443.735 -607.954)"/>
    <path id="Caminho_2045" data-name="Caminho 2045" d="M585.12,779.026v23.791a6.57,6.57,0,0,1-4.257,6.151l-8.742,3.288a1.207,1.207,0,0,0,.43,2.339H602.68a1.209,1.209,0,0,0,.43-2.341l-9.254-3.458a6.576,6.576,0,0,1-4.272-6.157v-22.76Z" transform="translate(-445.87 -607.954)" fill="#5715e8"/>
    <path id="Caminho_2046" data-name="Caminho 2046" d="M149.846,333.468q-.091,0-.183,0a2.105,2.105,0,0,1-1.767-.939v0a1.344,1.344,0,0,1,.048-1.359,3.19,3.19,0,0,1,.752-.892c.2-.172.433-.345.676-.528.959-.722,2.047-1.539,1.914-2.591l0-.017v-.017a.338.338,0,0,0-.041-.146l0-.006a1.269,1.269,0,0,0-1.834-.459l-6.189,4.183a1.535,1.535,0,0,1-1.948-2.352l0,0,4.6-4.6c2.088-2.069,4.176-4.049,6.206-5.885h0c1.009-.907,2.021-1.8,3.008-2.658h0a146.677,146.677,0,0,1,19.975-14.6,106.655,106.655,0,0,1,15.29-7.7l.326.816a105.771,105.771,0,0,0-15.163,7.632,145.8,145.8,0,0,0-19.854,14.511c-.983.853-1.991,1.744-3,2.648-2.02,1.826-4.1,3.8-6.176,5.856l-4.6,4.6a.656.656,0,0,0,.833,1.005l6.186-4.181a2.148,2.148,0,0,1,3.1.774,1.223,1.223,0,0,1,.145.5,2.3,2.3,0,0,1-.141,1.108,3.187,3.187,0,0,1-.561.916,9.457,9.457,0,0,1-1.557,1.364c-.233.176-.454.341-.638.5l0,0c-.293.244-.794.8-.6,1.143a1.3,1.3,0,0,0,1.051.5,5.091,5.091,0,0,0,2.945-1.2c.118-.079.241-.161.361-.239a9.9,9.9,0,0,0,1.776-2.324,9.412,9.412,0,0,1,2.1-2.648c3.438-2.178,6.547-4.018,9.5-5.624a106.819,106.819,0,0,1,9.955-4.8l.338.811a105.979,105.979,0,0,0-9.873,4.759c-2.939,1.6-6.031,3.427-9.453,5.595a9.644,9.644,0,0,0-1.835,2.38,9.648,9.648,0,0,1-2.031,2.581l0,0c-.117.077-.238.157-.355.235A6.082,6.082,0,0,1,149.846,333.468Z" transform="translate(-109.901 -228.574)"/>
    <path id="Caminho_2047" data-name="Caminho 2047"/>
    <path id="Caminho_2048" data-name="Caminho 2048" d="M391.827,262.469l-.83-.288,1.982-5.7.83.288Z" transform="translate(-305.135 -200.157)"/>
    <path id="Elipse_237" data-name="Elipse 237" d="M10.022,0a26.7,26.7,0,0,1,6.895.8,7.859,7.859,0,0,1,2.178.91,2.6,2.6,0,0,1,.671.611,1.342,1.342,0,0,1,.279.8,1.342,1.342,0,0,1-.279.8,2.6,2.6,0,0,1-.671.611,7.859,7.859,0,0,1-2.178.91,26.7,26.7,0,0,1-6.895.8,26.7,26.7,0,0,1-6.895-.8A7.859,7.859,0,0,1,.95,4.534a2.6,2.6,0,0,1-.671-.611A1.342,1.342,0,0,1,0,3.123a1.342,1.342,0,0,1,.279-.8A2.6,2.6,0,0,1,.95,1.712,7.859,7.859,0,0,1,3.128.8,26.7,26.7,0,0,1,10.022,0Zm0,5.367A25.816,25.816,0,0,0,16.68,4.6a7.124,7.124,0,0,0,1.93-.8c.359-.238.556-.478.556-.678s-.2-.441-.556-.678a7.124,7.124,0,0,0-1.93-.8,25.816,25.816,0,0,0-6.658-.77,25.816,25.816,0,0,0-6.658.77,7.124,7.124,0,0,0-1.93.8c-.359.238-.556.478-.556.678s.2.441.556.678a7.124,7.124,0,0,0,1.93.8A25.816,25.816,0,0,0,10.022,5.367Z" transform="translate(82.292 30.513) rotate(-2.29)" fill="rgba(87,21,232,0.5)"/>
    <path id="Elipse_238" data-name="Elipse 238" d="M7.963,0a36.378,36.378,0,0,1,5.388.353,9.176,9.176,0,0,1,1.7.4c.217.081.877.327.877.874s-.66.793-.877.874a9.176,9.176,0,0,1-1.7.4,36.378,36.378,0,0,1-5.388.353A36.378,36.378,0,0,1,2.574,2.9a9.176,9.176,0,0,1-1.7-.4C.66,2.42,0,2.174,0,1.627S.66.834.877.753a9.176,9.176,0,0,1,1.7-.4A36.378,36.378,0,0,1,7.963,0Zm6.9,1.627a8.074,8.074,0,0,0-2.008-.459A37.429,37.429,0,0,0,7.963.878a37.429,37.429,0,0,0-4.894.29,8.074,8.074,0,0,0-2.008.459,8.073,8.073,0,0,0,2.008.459,37.429,37.429,0,0,0,4.894.29,37.429,37.429,0,0,0,4.894-.29A8.073,8.073,0,0,0,14.865,1.627Z" transform="translate(84.41 31.925) rotate(-2.29)" fill="rgba(87,21,232,0.5)"/>
    <path id="Caminho_2049" data-name="Caminho 2049" d="M375.166,124.046a2.7,2.7,0,0,1,.32-1.851,8.155,8.155,0,0,1,.974-1.411h0a1.452,1.452,0,0,0,.312-.807,5.93,5.93,0,0,0-.025-1.081,5.188,5.188,0,0,1,.027-1.53,2.117,2.117,0,0,1,1.017-1.405,1.219,1.219,0,0,1,.66-.21h.028l.027,0a1.13,1.13,0,0,1,.939.724,3.142,3.142,0,0,1,.182,1.228c.005.625.026.936.44,1.161h0a2.244,2.244,0,0,0,2.018-.352,2.176,2.176,0,0,0,.772-.906,5.754,5.754,0,0,0,.405-1.281l.858.188a6.549,6.549,0,0,1-.474,1.48,3.029,3.029,0,0,1-1.085,1.257h0a3.046,3.046,0,0,1-2.915.383,1.568,1.568,0,0,1-.788-.932,3.322,3.322,0,0,1-.11-.993,2.389,2.389,0,0,0-.115-.9l0-.011,0-.011a.254.254,0,0,0-.184-.16.342.342,0,0,0-.16.06l-.011.008-.011.007a1.251,1.251,0,0,0-.626.85,4.5,4.5,0,0,0-.009,1.27,3.288,3.288,0,0,1-.485,2.518c-.655.8-1.3,1.719-1.116,2.505Z" transform="translate(-292.739 -90.331)" fill="rgba(87,21,232,0.5)"/>
    <path id="Caminho_2050" data-name="Caminho 2050" d="M428.223,120.666a4.311,4.311,0,0,0-2.007-2.761,2.029,2.029,0,0,1-1.084-1.245,3.993,3.993,0,0,1-.078-1.368,3.047,3.047,0,0,0-.138-1.441v0c-.121-.276-.449-.547-.675-.471-.188.066-.251.4-.313.829-.021.14-.04.273-.069.4a2.775,2.775,0,0,1-1.049,1.66,2.517,2.517,0,0,1-1.635.457,2.637,2.637,0,0,1-1.551-.63,2.359,2.359,0,0,1-.806-1.526,6.283,6.283,0,0,1-.244-1.045l.869-.126a5.4,5.4,0,0,0,.223.937l.016.047,0,.049a1.5,1.5,0,0,0,.514,1,1.754,1.754,0,0,0,1.032.417,1.637,1.637,0,0,0,1.064-.294A1.888,1.888,0,0,0,423,114.4c.021-.088.037-.2.055-.323a3.588,3.588,0,0,1,.183-.8,1.178,1.178,0,0,1,.712-.728h0a1.256,1.256,0,0,1,1.109.177,1.834,1.834,0,0,1,.654.771,3.815,3.815,0,0,1,.212,1.85c-.053.905-.046,1.4.695,1.785a5.146,5.146,0,0,1,1.6,1.441,4.087,4.087,0,0,1,.878,2.03Z" transform="translate(-326.655 -87.783)" fill="rgba(87,21,232,0.5)"/>
    <path id="Elipse_239" data-name="Elipse 239" d="M1.867,0a1.584,1.584,0,0,1,.766.2,1.9,1.9,0,0,1,.591.511,2.567,2.567,0,0,1,.51,1.571,2.567,2.567,0,0,1-.51,1.571,1.9,1.9,0,0,1-.591.511,1.579,1.579,0,0,1-1.532,0A1.9,1.9,0,0,1,.51,3.852,2.567,2.567,0,0,1,0,2.281,2.567,2.567,0,0,1,.51.709,1.9,1.9,0,0,1,1.1.2,1.584,1.584,0,0,1,1.867,0Zm0,3.683a.853.853,0,0,0,.663-.369,1.687,1.687,0,0,0,.326-1.033A1.687,1.687,0,0,0,2.53,1.248.853.853,0,0,0,1.867.878a.853.853,0,0,0-.663.369A1.687,1.687,0,0,0,.878,2.281,1.687,1.687,0,0,0,1.2,3.314.853.853,0,0,0,1.867,3.683Z" transform="matrix(0.999, -0.04, 0.04, 0.999, 89.609, 22.169)" fill="rgba(87,21,232,0.5)"/>
    <path id="Caminho_2051" data-name="Caminho 2051" d="M363.375,940.149H299.012v-.659h64.363Z" transform="translate(-233.35 -733.181)"/>
  </g>
</svg>
