<svg xmlns="http://www.w3.org/2000/svg" width="328" height="271" viewBox="0 0 328 271">
  <g id="Grupo_5674" data-name="Grupo 5674" transform="translate(-0.13)">
    <g id="Retângulo_1671" data-name="Retângulo 1671" transform="translate(0.13)" fill="#fff" stroke="#d9e1e7" stroke-width="1">
      <rect width="328" height="271" rx="11" stroke="none"/>
      <rect x="0.5" y="0.5" width="327" height="270" rx="10.5" fill="none"/>
    </g>
    <text id="Funcionalidades" transform="translate(160.13 238)" fill="#10182b" font-size="17" font-family="Inter-Bold, Inter" font-weight="700"><tspan x="-68" y="0">Funcionalidades</tspan></text>
    <g id="workflow_business___profile_woman_account_user_homework_tablet_busy" data-name="workflow, business _ profile, woman, account, user, homework, tablet, busy" transform="translate(23.994 59.309)">
      <path id="Caminho_2298" data-name="Caminho 2298" d="M73.186,811.243a54.442,54.442,0,0,1-6.51-7.2,52.605,52.605,0,0,1-5.1-8.216,46.4,46.4,0,0,1-3.359-8.881,38.786,38.786,0,0,1-1.292-9.192,32.276,32.276,0,0,1,2.23-12.49,33.03,33.03,0,0,1,7.653-11.363,45.479,45.479,0,0,1,15.019-9.591l.023-.009c.1-.037.2-.076.311-.118s.222-.086.338-.128l.463,1.277c-.1.037-.2.076-.311.118s-.215.083-.326.124a44.123,44.123,0,0,0-14.564,9.295,31.68,31.68,0,0,0-7.343,10.9,30.924,30.924,0,0,0-2.134,11.966,37.429,37.429,0,0,0,1.248,8.869,45.036,45.036,0,0,0,3.262,8.62,52.559,52.559,0,0,0,11.312,15.019Z" transform="translate(-56.924 -674.792)" fill="rgba(87,21,232,0.5)"/>
      <path id="Caminho_2299" data-name="Caminho 2299" d="M563.734,689.14l-.572-1.233a35.855,35.855,0,0,0,11.725-8.886A50.414,50.414,0,0,0,583,666.214a64.84,64.84,0,0,0,2.748-7.269,71.505,71.505,0,0,0,1.9-7.517,73.08,73.08,0,0,0,1.071-7.514,68.031,68.031,0,0,0,.267-7.262,65.4,65.4,0,0,0-.534-7.144,68.728,68.728,0,0,0-1.344-7.269,64.194,64.194,0,0,0-5.145-14.067,50.052,50.052,0,0,0-8.445-12.05,37.977,37.977,0,0,0-11.77-8.4,36.063,36.063,0,0,0-6.36-2.17,39.011,39.011,0,0,0-6.5-.977,46.142,46.142,0,0,0-6.579.05,57.889,57.889,0,0,0-6.6.912,85.526,85.526,0,0,0-13.031,3.741c-3.642,1.333-7.573,2.974-12.371,5.164-2.827,1.291-5.681,2.824-8.44,4.307-3.327,1.787-6.767,3.636-10.28,5.133a49.622,49.622,0,0,1-5.391,1.964,35.649,35.649,0,0,1-5.647,1.21,17.888,17.888,0,0,1-3.98.078,15.452,15.452,0,0,1-3.538-.765,17.444,17.444,0,0,1-5.892-3.531c-3.439-3.027-6.128-7.225-8.728-11.285-1.4-2.18-2.715-4.238-4.129-6.1-.718-.949-1.281-1.674-1.824-2.349-1.948-2.424-3.712-4.591-5.559-6.575a38.4,38.4,0,0,0-5.974-5.337,29.4,29.4,0,0,0-7.462-3.822,41.2,41.2,0,0,0-10.086-2.019l.115-1.354c7.458.635,13.247,2.569,18.217,6.086a39.719,39.719,0,0,1,6.184,5.52c1.878,2.017,3.658,4.205,5.623,6.65.551.686,1.121,1.421,1.848,2.38,1.446,1.907,2.779,3.988,4.19,6.191,2.55,3.98,5.186,8.1,8.482,11a16.116,16.116,0,0,0,5.437,3.266,14.092,14.092,0,0,0,3.226.7,16.536,16.536,0,0,0,3.677-.074,34.3,34.3,0,0,0,5.433-1.165,48.3,48.3,0,0,0,5.244-1.911c3.457-1.474,6.869-3.307,10.17-5.08,2.779-1.493,5.652-3.037,8.519-4.346,4.831-2.205,8.793-3.859,12.468-5.2a86.84,86.84,0,0,1,13.238-3.8,59.2,59.2,0,0,1,6.76-.933,47.5,47.5,0,0,1,6.773-.051,40.381,40.381,0,0,1,6.722,1.011,37.427,37.427,0,0,1,6.6,2.252,39.327,39.327,0,0,1,12.191,8.7,51.407,51.407,0,0,1,8.677,12.375,65.554,65.554,0,0,1,5.255,14.365,70.112,70.112,0,0,1,1.371,7.413,66.717,66.717,0,0,1,.545,7.294,69.412,69.412,0,0,1-.272,7.408,74.45,74.45,0,0,1-1.092,7.655,69.249,69.249,0,0,1-4.741,15.082,51.767,51.767,0,0,1-8.337,13.15A37.2,37.2,0,0,1,563.734,689.14Z" transform="translate(-305.655 -552.572)" fill="rgba(87,21,232,0.5)"/>
      <path id="Caminho_2300" data-name="Caminho 2300" d="M225.435,591.368a40.717,40.717,0,0,1-8.154,23.432.131.131,0,0,0-.028.038c-.482.519-.973,1.039-1.473,1.539a42.952,42.952,0,0,1-30.475,12.64h-.117c-6.536,0-13.069.022-19.595.022-5.151,0-10.361.315-15.461-.431a25.708,25.708,0,0,0-4.867-.68c-6.4.3-10.792,6.35-13.824,11.246a.5.5,0,0,1-.157.157.436.436,0,0,1-.031-.176,39.223,39.223,0,0,0-4.877-21.44c-.066-.126-.135-.245-.2-.362-2.05-3.463-4.779-6.438-6.536-10.074A40.928,40.928,0,0,1,157.6,548.627l28.051.756A40.906,40.906,0,0,1,225.435,591.368Z" transform="translate(-96.743 -542.132)" fill="#ed3d8e"/>
      <path id="Caminho_2301" data-name="Caminho 2301" d="M148.043,528.441h29.572a43.754,43.754,0,0,1,32.522,73.078l-.009.019-.066.071c-.58.625-1.053,1.12-1.491,1.558a43.63,43.63,0,0,1-30.912,12.839h-.16c-3.269,0-6.591.006-9.8.011s-6.529.011-9.791.011c-1.173,0-2.371.017-3.53.033s-2.374.033-3.562.033c-1.625,0-2.971-.031-4.234-.1-1.531-.081-2.915-.214-4.233-.407-.555-.08-1.1-.191-1.625-.3a14.024,14.024,0,0,0-2.809-.382c-.1,0-.2,0-.3.007a10.244,10.244,0,0,0-4.157,1.121,15.256,15.256,0,0,0-3.58,2.591,36.542,36.542,0,0,0-5.54,7.213l0,0a1.18,1.18,0,0,1-.374.373,1.149,1.149,0,0,1-1.756-1.008h0a42.166,42.166,0,0,0-1.25-11.46,38.4,38.4,0,0,0-4.4-10.619l-.015-.026c-.06-.109-.126-.218-.193-.317l-.012-.019c-.919-1.459-1.981-2.864-3.008-4.222a43.643,43.643,0,0,1,34.726-70.105Zm61.056,72.2A42.418,42.418,0,0,0,177.615,529.8H148.043a42.421,42.421,0,0,0-37.7,61.874,43.019,43.019,0,0,0,4.059,6.053c1.042,1.378,2.12,2.8,3.069,4.308.085.127.17.265.246.4a39.765,39.765,0,0,1,4.549,10.981,43.493,43.493,0,0,1,1.3,11.073,35.981,35.981,0,0,1,5.364-6.849,16.605,16.605,0,0,1,3.9-2.818,11.594,11.594,0,0,1,4.707-1.266c.121-.005.243-.008.366-.008a15.266,15.266,0,0,1,3.081.409c.507.1,1.032.211,1.549.285a57.963,57.963,0,0,0,8.272.49c1.179,0,2.381-.017,3.543-.033s2.367-.033,3.549-.033c3.261,0,6.58-.006,9.789-.011s6.536-.011,9.806-.011h.16a42.271,42.271,0,0,0,29.95-12.44c.417-.417.868-.888,1.418-1.481A.829.829,0,0,1,209.1,600.641Z" transform="translate(-89.054 -528.441)"/>
      <rect id="Retângulo_1699" data-name="Retângulo 1699" width="39.454" height="48.043" rx="19.727" transform="translate(73.776 20.844)" fill="rgba(237,61,142,0.1)"/>
      <ellipse id="Elipse_261" data-name="Elipse 261" cx="3.035" cy="3.035" rx="3.035" ry="3.035" transform="translate(90.689 28.104)" fill="#fff"/>
      <path id="Caminho_2302" data-name="Caminho 2302" d="M322.277,650.186a8.478,8.478,0,0,1,16.957,0Z" transform="translate(-237.032 -605.321)" fill="#fff"/>
      <rect id="Retângulo_1700" data-name="Retângulo 1700" width="22.696" height="9.605" rx="4.803" transform="translate(82.154 52.104)" fill="#ed3d8e"/>
      <path id="Caminho_2303" data-name="Caminho 2303" d="M196.495,640.266H172.665a.679.679,0,0,1,0-1.359h23.829a.679.679,0,0,1,0,1.359Z" transform="translate(-135.022 -603.419)" fill="#fff"/>
      <path id="Caminho_2304" data-name="Caminho 2304" d="M196.495,657.612H172.665a.679.679,0,0,1,0-1.359h23.829a.679.679,0,0,1,0,1.359Z" transform="translate(-135.022 -615.193)" fill="#fff"/>
      <path id="Caminho_2305" data-name="Caminho 2305" d="M196.495,673.1H172.665a.679.679,0,0,1,0-1.359h23.829a.679.679,0,0,1,0,1.359Z" transform="translate(-135.022 -625.703)" fill="#fff"/>
      <path id="Caminho_2306" data-name="Caminho 2306" d="M196.495,690.442H172.665a.679.679,0,1,1,0-1.359h23.829a.679.679,0,1,1,0,1.359Z" transform="translate(-135.022 -637.476)" fill="#fff"/>
      <path id="Caminho_2307" data-name="Caminho 2307" d="M196.495,624.782H172.665a.679.679,0,1,1,0-1.359h23.829a.679.679,0,1,1,0,1.359Z" transform="translate(-135.022 -592.91)" fill="#fff"/>
      <path id="Caminho_2308" data-name="Caminho 2308" d="M196.495,705.936H172.665a.679.679,0,1,1,0-1.359h23.829a.679.679,0,1,1,0,1.359Z" transform="translate(-135.022 -647.993)" fill="#fff"/>
      <path id="Caminho_2309" data-name="Caminho 2309" d="M248.021,737.924s-11.035-1.067-9.842-12.278,3.362-10.7,13.273-15.366c0,0,8.094-.038,10.351,2.389s3.567-2.38,3.567-2.38,10.547-13.267,23.713-10.477-10.276,13.349-10.276,13.349-15.127.208-11.214,5.821c0,0,2.276,4.222.967,7.738s-1.294,9.158-2.16,9.322-13.783,2.978-13.783,2.978Z" transform="translate(-179.889 -644.497)" fill="#fff"/>
      <path id="Caminho_2310" data-name="Caminho 2310" d="M414.573,809.367H383.921a38.622,38.622,0,0,1-27.346-11.29,11.005,11.005,0,0,1-.236,2.226v-20.42c-10.075-11.765-21.811-5.78-23.388-4.9-.7-6.684-1.316-11.963-1.316-11.963s-1.7-14.337,11.589-19.586c.107-.047.214-.088.315-.126a20.181,20.181,0,0,1,16.551,1.118c.079.047.157.079.236.126,4.965,2.494,8.859,6.243,11.264,8.431.255.223.491.441.715.63,2.474,2.159,8.928,8.538,16.179,13.679l.12.088c5.327,3.756,11.076,6.847,15.984,7.112C404.6,774.516,417.025,787.018,414.573,809.367Z" transform="translate(-243.335 -673.412)" fill="#5715e8"/>
      <path id="Caminho_2311" data-name="Caminho 2311" d="M353.737,745.038a22.93,22.93,0,0,1-7.691,1.845,14.282,14.282,0,0,1-3.709-.365c-3.573-.784-7.32-2.944-12.278-6.759l-.116-.088c-4.279-3.277-9.445-7.783-16.182-13.679-.224-.2-.46-.412-.715-.63-.658-.57-1.335-1.158-2.021-1.766a54.039,54.039,0,0,0-9.249-6.671c-.079-.047-.157-.079-.236-.126-.315-.186-.645-.353-.969-.519a17.714,17.714,0,0,0-2.257-.973,18.3,18.3,0,0,0-5.906-1.067l-1.237.031c-15.952.469-19.466,4.178-19.466,4.178A15.27,15.27,0,0,1,274.586,726c-1.316-.214-2.629.2-2.855,1.65-.274,1.785-.687,3.422-2.345,4.474a4.7,4.7,0,0,1-3.353.538H266c-.334-.1-.658-.176-.944-.236a2.83,2.83,0,0,1-.375-.117c-3.343-1.218-5.3-.746-4.659,2.833.746,4.209-4.747,4.76-8.368,4.112-6.388-2.874-8.135-14.089-3.073-21,.129-.176.274-.362.422-.551s.315-.362.463-.538a13.726,13.726,0,0,1,1.206-1.158c.148-.126.3-.255.45-.372s.375-.286.56-.422a5.122,5.122,0,0,1,.57-.394A15.112,15.112,0,0,1,264,712.737a16.571,16.571,0,0,1,4.483,2.424s.126-.2.381-.548a16.55,16.55,0,0,1,1.706,1.158s9.587-14.62,23.489-14.454a15.415,15.415,0,0,1,3.328.394c10.843,3.835,18.2,17.649,24.833,19.768a15.579,15.579,0,0,0,1.53.4c5.132,1.1,10.871-.1,15.965-.422a30.425,30.425,0,0,1,10.046.765c.4.11.815.246,1.218.394h.019c4.534,1.628,9,5.239,10.106,10.037C362.344,737.974,358.3,742.948,353.737,745.038Z" transform="translate(-185.012 -645.78)" fill="#ed3d8e"/>
      <path id="Caminho_2312" data-name="Caminho 2312" d="M813.638,696.76a3.813,3.813,0,0,1-2.122,2.56l-8.831,4.209-19.67,7.213,1.889-6.564a5.089,5.089,0,0,1,2.4-1.889l17.086-6.545,4.2-1.637a3.853,3.853,0,0,1,4.6,1.6A3.745,3.745,0,0,1,813.638,696.76Z" transform="translate(-549.757 -640.727)" fill="#ed3d8e"/>
      <path id="Caminho_2313" data-name="Caminho 2313" d="M434.958,771.928A39.3,39.3,0,0,1,407.19,760.44l.96-.962a37.943,37.943,0,0,0,26.809,11.091h87.049a12.222,12.222,0,0,0,11.8-9.03L547,697.633l9.146-4.356a3.168,3.168,0,0,0-2.4-5.859l-4.2,1.65-.5-1.265,4.218-1.658a4.527,4.527,0,0,1,3.443,8.365l-8.522,4.059-13.064,63.284-.005.02a13.582,13.582,0,0,1-13.117,10.055H434.958Z" transform="translate(-294.666 -635.294)"/>
      <path id="Caminho_2314" data-name="Caminho 2314" d="M736.259,840.164l-1.355-.1a46.635,46.635,0,0,1,.921-5.645c.448-2.112,1.016-4.357,1.688-6.675.839-2.893,1.843-5.907,2.985-8.958l.273-.752,1.277.463-.276.762c-1.127,3.011-2.118,5.983-2.945,8.835-.662,2.281-1.222,4.491-1.663,6.567A46.584,46.584,0,0,0,736.259,840.164Z" transform="translate(-517.101 -725.001)"/>
      <path id="Caminho_2315" data-name="Caminho 2315" d="M332.812,798.951l-3.879-39.572v-.033a19.909,19.909,0,0,1,11.995-18.284,19.07,19.07,0,0,1,16.491.491l.006,0,.249.131c.241.126.49.256.74.4l.015.008.014.009c.01.006.037.02.059.03.042.021.094.046.153.081a54.827,54.827,0,0,1,9.354,6.746c.744.658,1.466,1.285,2.013,1.758l0,0c.1.085.191.169.282.251.149.133.289.258.422.371l.009.008c6.528,5.719,11.863,10.356,16.148,13.651l.117.089a44.915,44.915,0,0,0,8.56,5.462,15.3,15.3,0,0,0,6.987,1.509,18.377,18.377,0,0,0,4.571-.787,42.667,42.667,0,0,0,5.329-2.02,32.927,32.927,0,0,1,6.063-1.983,41.086,41.086,0,0,1,6.68-.93,46.63,46.63,0,0,1,14.008,1.336,42.728,42.728,0,0,1,6.725,2.3,36.662,36.662,0,0,1,6.132,3.412,30.784,30.784,0,0,1,5.226,4.552,27.018,27.018,0,0,1,4,5.713l-1.206.627a25.655,25.655,0,0,0-3.8-5.425,29.43,29.43,0,0,0-5-4.35,35.309,35.309,0,0,0-5.9-3.284,41.375,41.375,0,0,0-6.51-2.223,45.269,45.269,0,0,0-13.6-1.3,39.724,39.724,0,0,0-6.458.9A31.572,31.572,0,0,0,413,770.5a43.959,43.959,0,0,1-5.5,2.082,19.706,19.706,0,0,1-4.907.841A16.6,16.6,0,0,1,395,771.792a46.171,46.171,0,0,1-8.827-5.622l-.118-.09c-4.325-3.326-9.447-7.777-16.211-13.7-.145-.123-.291-.253-.445-.391l-.271-.241c-.55-.476-1.277-1.107-2.026-1.77l0,0a53.467,53.467,0,0,0-9.127-6.581l-.013-.007c-.011-.007-.035-.018-.058-.029a1.972,1.972,0,0,1-.178-.1c-.224-.128-.457-.25-.682-.368l-.251-.132a17.71,17.71,0,0,0-15.316-.454l-.006,0a18.55,18.55,0,0,0-11.179,17.005l3.872,39.506Z" transform="translate(-241.549 -671.645)"/>
      <path id="Caminho_2316" data-name="Caminho 2316" d="M374.07,865.278c-.112,0-.219-.005-.322-.01s-.187-.009-.276-.009V863.9c.122,0,.233.005.341.01.091,0,.177.008.257.008a10.016,10.016,0,0,0,10.025-10.025V823.4h1.359v30.494a11.375,11.375,0,0,1-11.384,11.384Z" transform="translate(-271.78 -728.644)"/>
      <path id="Caminho_2317" data-name="Caminho 2317" d="M274.536,746.589a14.626,14.626,0,0,0-2.844-7.342,15.835,15.835,0,0,0-5.889-4.8,15.634,15.634,0,0,0-7.31-1.526,14.225,14.225,0,0,0-7.319,2.359l-.021.014-.021.012a2.489,2.489,0,0,0-.36.246l-.014.012-.133.1c-.178.133-.363.27-.542.41a13.853,13.853,0,0,0-1.576,1.456c-.149.167-.3.347-.445.518-.128.153-.262.335-.38.5l-.014.02-1.1-.8.014-.019c.13-.178.278-.38.435-.567s.314-.372.476-.554l.008-.009A15.214,15.214,0,0,1,249.243,735l0,0c.192-.15.384-.293.569-.431l0,0,.106-.078a3.815,3.815,0,0,1,.522-.358,15.582,15.582,0,0,1,7.993-2.57,17,17,0,0,1,7.948,1.657,17.2,17.2,0,0,1,6.395,5.22,15.987,15.987,0,0,1,3.107,8.02Z" transform="translate(-185.647 -666.298)"/>
      <path id="Caminho_2318" data-name="Caminho 2318" d="M274.789,824.284a14.561,14.561,0,0,1-5.439-1.138l-.017-.007a20.678,20.678,0,0,1-6.389-4.342l.96-.962a19.32,19.32,0,0,0,5.963,4.054,12.685,12.685,0,0,0,5.729,1,9.568,9.568,0,0,0,4-1.228,9.733,9.733,0,0,0,3.161-2.83l1.146.73a11.033,11.033,0,0,1-3.636,3.281,10.914,10.914,0,0,1-4.569,1.4Q275.25,824.284,274.789,824.284Z" transform="translate(-196.76 -724.867)"/>
      <path id="Caminho_2319" data-name="Caminho 2319" d="M398.466,743.893l-.454-1.281c.3-.108.595-.207.862-.293l.1-.033a1.272,1.272,0,0,0,.142-.051l.029-.012.03-.01c.205-.067.421-.146.681-.249l.453-.182a13.67,13.67,0,0,0,5.713-4.735,8.867,8.867,0,0,0,1.488-6.981,12.067,12.067,0,0,0-4.057-6.3,18.08,18.08,0,0,0-6.8-3.631,29.335,29.335,0,0,0-9.819-.741c-1.349.085-2.72.229-4.172.383-2.236.236-4.548.48-6.829.5a21.562,21.562,0,0,1-6.753-.891,14.018,14.018,0,0,1-4.81-3.051c-1.6-1.411-3.257-3.155-5.01-5-1.4-1.471-2.842-2.993-4.366-4.459a45.708,45.708,0,0,0-4.781-4.076,23.98,23.98,0,0,0-5.262-2.972,17.362,17.362,0,0,0-2.833-.858,15.608,15.608,0,0,0-2.988-.33,20.945,20.945,0,0,0-9.221,2.111,31.411,31.411,0,0,0-7.26,4.859,42.057,42.057,0,0,0-4.747,4.927c-1.091,1.335-1.691,2.244-1.7,2.253l-1.136-.746c.025-.038.632-.96,1.759-2.34a43.6,43.6,0,0,1,4.9-5.092,32.8,32.8,0,0,1,7.586-5.082,22.3,22.3,0,0,1,9.836-2.25c3.96.05,7.841,1.5,11.865,4.42a71.2,71.2,0,0,1,9.334,8.7c1.731,1.823,3.367,3.545,4.923,4.917a12.78,12.78,0,0,0,4.325,2.776c4.032,1.287,8.6.8,13.027.338,1.467-.155,2.852-.3,4.228-.387a30.619,30.619,0,0,1,10.27.788,19.464,19.464,0,0,1,7.321,3.911,13.411,13.411,0,0,1,4.493,7.017,9.4,9.4,0,0,1,0,4.255,11.346,11.346,0,0,1-1.68,3.792,14.381,14.381,0,0,1-2.821,3.077,14.959,14.959,0,0,1-3.484,2.148l-.02.008-.465.187c-.277.11-.512.2-.737.27a2.633,2.633,0,0,1-.255.091l-.081.026C399.035,743.695,398.758,743.789,398.466,743.893Z" transform="translate(-232.073 -643.04)"/>
      <path id="Caminho_2320" data-name="Caminho 2320" d="M326.158,744.731l-1.093-.807c.086-.117.928-1.172,3.884-2.225a34.131,34.131,0,0,1,6.164-1.465,78.877,78.877,0,0,1,10.374-.8l.025,1.359a77.515,77.515,0,0,0-10.193.783,32.787,32.787,0,0,0-5.914,1.4A7.92,7.92,0,0,0,326.158,744.731Z" transform="translate(-238.924 -671.653)"/>
      <path id="Caminho_2321" data-name="Caminho 2321" d="M753.588,733.614l-1.28-.456,8.437-23.716.658-1.854,2.109-5.935a5.442,5.442,0,0,1,.765-1.428,5.77,5.77,0,0,1,2.706-2.128l16.327-6.23.484,1.27-16.327,6.23a4.414,4.414,0,0,0-2.077,1.638l-.017.024a4.092,4.092,0,0,0-.58,1.08l-2.109,5.934-.658,1.854Z" transform="translate(-528.914 -639.367)"/>
      <path id="Caminho_2322" data-name="Caminho 2322" d="M692.07,690.759l-4.455,7.408-11.626,15.64-1.549-7.115a5.126,5.126,0,0,1,.963-2.874l10.185-14.208,1.1-1.373a3.847,3.847,0,0,1,4.722-1.209,3.628,3.628,0,0,1,1.14.825A3.845,3.845,0,0,1,692.07,690.759Z" transform="translate(-476.062 -635.838)" fill="#ed3d8e"/>
      <path id="Caminho_2323" data-name="Caminho 2323" d="M721.511,720.331l-14.3-27.413,4.65-7.747a3.181,3.181,0,0,0-.049-3.433v0a3.094,3.094,0,0,0-1.291-1.11h0a3.18,3.18,0,0,0-3.891.986l-.013.017-1.1,1.385-1.063-.846,1.1-1.377a4.539,4.539,0,0,1,5.547-1.4,4.452,4.452,0,0,1,1.855,1.6,4.533,4.533,0,0,1,.073,4.9l-4.25,7.08L722.716,719.7Z" transform="translate(-496.43 -630.612)"/>
      <path id="Caminho_2324" data-name="Caminho 2324" d="M676.555,736.788,671.442,716.1l-.472-1.915-1.512-6.113a5.685,5.685,0,0,1-.154-1.615,5.805,5.805,0,0,1,1.069-3.256l0,0,10.185-14.2,1.1.792-10.183,14.194a4.452,4.452,0,0,0-.818,2.5v.023a4.326,4.326,0,0,0,.116,1.236l1.511,6.11.472,1.915,5.113,20.684Z" transform="translate(-472.571 -637.423)"/>
      <path id="Caminho_2325" data-name="Caminho 2325" d="M248.37,766.107h-.006a13.129,13.129,0,0,1-4.889-.863,8.919,8.919,0,0,1-2.6-1.768,11.171,11.171,0,0,1-1.951-2.562,15.767,15.767,0,0,1-1.884-6.592,18.183,18.183,0,0,1,.184-4.147,17.058,17.058,0,0,1,1.167-4.05,14.965,14.965,0,0,1,2.218-3.643,13.729,13.729,0,0,1,3.331-2.9l.716,1.155a12.371,12.371,0,0,0-3,2.618,13.609,13.609,0,0,0-2.016,3.313,15.7,15.7,0,0,0-1.073,3.727,16.822,16.822,0,0,0-.17,3.836,14.4,14.4,0,0,0,1.713,6.021,9.815,9.815,0,0,0,1.712,2.251,7.566,7.566,0,0,0,2.207,1.5,11.893,11.893,0,0,0,4.341.748h.005a7.132,7.132,0,0,0,4.286-1.077,2.342,2.342,0,0,0,.815-2.465v0a6.017,6.017,0,0,1-.058-2.134,2.5,2.5,0,0,1,.821-1.507,2.939,2.939,0,0,1,2.123-.578,9.688,9.688,0,0,1,2.68.628,4.564,4.564,0,0,0,4.116-.109,4.329,4.329,0,0,0,1.546-1.839,5.063,5.063,0,0,0,.443-1.335s0,.011,0,.029H266.5a5.423,5.423,0,0,1-.5,1.731,5.953,5.953,0,0,1-1.935,2.44,4.786,4.786,0,0,1-2.317.845,7.3,7.3,0,0,1-3.172-.483,8.524,8.524,0,0,0-2.294-.549,1.668,1.668,0,0,0-1.172.26c-.516.434-.448,1.525-.3,2.364a3.684,3.684,0,0,1-1.309,3.774,6.076,6.076,0,0,1-2.37,1.072A11.91,11.91,0,0,1,248.37,766.107Z" transform="translate(-179.145 -671.749)"/>
      <path id="Caminho_2326" data-name="Caminho 2326" d="M324.246,828.3l-3.787-1.127.388-1.3L324.634,827Z" transform="translate(-235.798 -730.321)"/>
      <path id="Caminho_2327" data-name="Caminho 2327" d="M204.226,871.2a2.941,2.941,0,0,1-2.551-4.406l.677-1.182c.027-.069.056-.137.088-.2l.487-.983,4.149-8.361a7.511,7.511,0,0,1,5.863-4.152l.04,0h.134v1.359h-.053a6.151,6.151,0,0,0-4.764,3.4v0l-4.15,8.362-.49.988a.965.965,0,0,0-.046.108l-.02.057-.735,1.284a1.583,1.583,0,1,0,2.8,1.478l3.627-7.483,1.223.593-3.627,7.484A2.943,2.943,0,0,1,204.226,871.2Z" transform="translate(-154.908 -747.995)"/>
      <path id="Caminho_2328" data-name="Caminho 2328" d="M227.813,870.592a3.074,3.074,0,0,1-.856-6.027l7.593-2.2.379,1.3-7.594,2.2a1.713,1.713,0,0,0-1.171,2.124,1.726,1.726,0,0,0,.819,1.026,1.7,1.7,0,0,0,1.3.145l5.353-1.549.378,1.305-5.352,1.549A3.056,3.056,0,0,1,227.813,870.592Z" transform="translate(-170.827 -755.089)"/>
      <path id="Caminho_2329" data-name="Caminho 2329" d="M222.829,889.134a7.508,7.508,0,0,1-1.245-.1l.226-1.34a6.389,6.389,0,0,0,2.815-.175,3.36,3.36,0,0,0,2-1.375,2.5,2.5,0,0,0,.272-1.879l1.319-.327a3.875,3.875,0,0,1-.423,2.9l-.005.009a4.744,4.744,0,0,1-2.774,1.972A7.621,7.621,0,0,1,222.829,889.134Z" transform="translate(-168.686 -769.732)"/>
      <path id="Caminho_2330" data-name="Caminho 2330" d="M201.955,862.647a5.461,5.461,0,0,1-2.219-3.222,7.478,7.478,0,0,1,.093-3.839,11.159,11.159,0,0,1,1.427-3.229,8.833,8.833,0,0,1,2.137-2.25,9.778,9.778,0,0,1,2.651-1.36,13.724,13.724,0,0,1,2.97-.629,25.675,25.675,0,0,1,6.32.236c2.106.3,4.178.768,5.956,1.18h0a89.878,89.878,0,0,1,12.689,4.032c.865.346,1.736.726,2.579,1.094a29.55,29.55,0,0,0,7.612,2.534l-.185,1.346a30.563,30.563,0,0,1-7.97-2.635c-.833-.364-1.695-.74-2.541-1.078a88.538,88.538,0,0,0-12.5-3.971c-1.75-.406-3.788-.863-5.841-1.158a24.367,24.367,0,0,0-5.985-.229,12.366,12.366,0,0,0-2.675.564A8.425,8.425,0,0,0,204.2,851.2a7.481,7.481,0,0,0-1.809,1.905,9.808,9.808,0,0,0-1.25,2.839v0a6.207,6.207,0,0,0-.086,3.14,4.372,4.372,0,0,0,.6,1.358,3.988,3.988,0,0,0,1.072,1.078Z" transform="translate(-153.717 -745.351)"/>
      <path id="Caminho_2331" data-name="Caminho 2331" d="M265.114,903.822a33.7,33.7,0,0,1-4.986-1.448,20.268,20.268,0,0,1-4.217-2.17,76.663,76.663,0,0,0-15.5-8.258c-1.247-.49-1.992-.754-2-.757l.454-1.281c.031.011.772.274,2.043.773a78.028,78.028,0,0,1,15.778,8.4,18.914,18.914,0,0,0,3.933,2.021,32.382,32.382,0,0,0,4.784,1.388Z" transform="translate(-180.106 -773.786)"/>
      <path id="Caminho_2332" data-name="Caminho 2332" d="M337.389,921.783a85.829,85.829,0,0,1-11.422-1.076,7.723,7.723,0,0,1-3.378-1.4,7.812,7.812,0,0,1-2.286-2.658,7.186,7.186,0,0,1-.137-6.529,5.829,5.829,0,0,1,6.309-3.388l-.228,1.34a4.466,4.466,0,0,0-4.843,2.607l-.011.024a5.7,5.7,0,0,0-.583,2.72,6.086,6.086,0,0,0,.7,2.595,6.447,6.447,0,0,0,1.887,2.193,6.274,6.274,0,0,0,2.784,1.153h.006a84.515,84.515,0,0,0,11.243,1.059Z" transform="translate(-235.111 -785.149)"/>
      <path id="Caminho_2333" data-name="Caminho 2333" d="M335.536,844.772l-.176-.038s.057-.038.176-.107A.752.752,0,0,0,335.536,844.772Z" transform="translate(-245.912 -743.051)" fill="#5715e8"/>
      <path id="Caminho_2334" data-name="Caminho 2334" d="M146.443,908.057a2.813,2.813,0,0,1,.525.05l44.514,8.459a2.8,2.8,0,0,1,2.228,3.273l-.175.919a2.8,2.8,0,0,1-3.273,2.228l-44.513-8.459a2.8,2.8,0,0,1-2.228-3.273l.174-.918A2.8,2.8,0,0,1,146.443,908.057Zm44.343,13.619A1.441,1.441,0,0,0,192.2,920.5l.175-.919a1.443,1.443,0,0,0-1.147-1.684l-44.514-8.459a1.462,1.462,0,0,0-.271-.026,1.441,1.441,0,0,0-1.413,1.172l-.174.919A1.442,1.442,0,0,0,146,913.191l44.513,8.459A1.453,1.453,0,0,0,190.787,921.676Z" transform="translate(-115.668 -786.104)"/>
      <path id="Caminho_2335" data-name="Caminho 2335" d="M167.053,936.5h-1.359v-7.169h1.359Z" transform="translate(-130.751 -800.542)"/>
      <path id="Caminho_2336" data-name="Caminho 2336" d="M331.966,950.887H64.419v-1.359H331.966Z" transform="translate(-62.012 -814.253)"/>
    </g>
  </g>
</svg>
