<svg xmlns="http://www.w3.org/2000/svg" width="328" height="271" viewBox="0 0 328 271">
  <g id="Grupo_5676" data-name="Grupo 5676" transform="translate(-0.13 -0.087)">
    <g id="Retângulo_1675" data-name="Retângulo 1675" transform="translate(0.13 0.087)" fill="#fff" stroke="#d9e1e7" stroke-width="1">
      <rect width="328" height="271" rx="11" stroke="none"/>
      <rect x="0.5" y="0.5" width="327" height="270" rx="10.5" fill="none"/>
    </g>
    <text id="Outros_Assuntos" data-name="Outros Assuntos" transform="translate(160.13 238.087)" fill="#10182b" font-size="17" font-family="Inter-Bold, Inter" font-weight="700"><tspan x="-70" y="0">Outros Assuntos</tspan></text>
    <g id="Business_Support_design_communication___customer_service_laptop_computer_messages_woman" data-name="Business, Support, design, communication _ customer service, laptop, computer, messages, woman" transform="translate(16.937 16.523)">
      <path id="Caminho_2052" data-name="Caminho 2052" d="M644.207,676.934l-.574,5.475-4.474,10.69q-.78,1.876-1.568,3.745a5.427,5.427,0,0,1-1,1.587.249.249,0,0,1-.188.11c-.126,0-.172-.168-.181-.295a30.613,30.613,0,0,0-.483-4.024c-1.4-6.417-8.847-8.769-14.691-8.624a16.459,16.459,0,0,0-6.757,1.565c-3.052,1.477-4.241,5.585-4.4,5.737l-.13.528-2.092,8.717c-.441,1.944-.777,2.97-2.572,3.489-.058.02-1.846.972-1.9.972-.693.194,1.205-.224.454-.35l-2.381-.372-1.014-.233-14.795-3.5c.574.1,1.16.2,1.756.324l3.434.82-.907-4.354c-2.362-13.554,1.552-25.851,8.218-32.527a17.276,17.276,0,0,1,4.675-3.376l1.15,2.725s11.765,3.508,14.539-7.256c1.121.1,3.275.081,4.386.324a26.941,26.941,0,0,1,14.885,8.786c.34.389.674.79,1,1.2l.175.214c.2.256.421.518.625.78l.146.208A68.9,68.9,0,0,1,644.207,676.934Z" transform="translate(-410.686 -560.945)" fill="#5715e8"/>
      <path id="Caminho_2053" data-name="Caminho 2053" d="M482.167,547.647l-.426-1.432c3.1-.921,6.1-1.973,8.937-3.128h0a84.255,84.255,0,0,0,24.412-14.754,69.788,69.788,0,0,0,8.8-9.276,62.951,62.951,0,0,0,6.508-10.137l0,0a55.125,55.125,0,0,0,6.191-23.552,50.4,50.4,0,0,0-4.549-22.541,55.785,55.785,0,0,0-4.8-8.509,42.422,42.422,0,0,0-5.4-6.389,36.274,36.274,0,0,0-11.951-7.687,47.435,47.435,0,0,0-12.448-2.932c-4.1-.448-8.1-.492-11.628-.532a64.642,64.642,0,0,1-9.529-.528c-3.06-.522-5.012-1.562-6.141-3.275a8.755,8.755,0,0,1-1-6.034,39.075,39.075,0,0,1,2.95-9.822,35.306,35.306,0,0,0,2-6.446,30.084,30.084,0,0,0,.619-6.123,28.922,28.922,0,0,0-2.335-11.218,36.265,36.265,0,0,0-6.211-9.716,49.954,49.954,0,0,0-9.016-7.968,60.509,60.509,0,0,0-6.151-3.753,64.125,64.125,0,0,0-6.5-3,62.367,62.367,0,0,0-6.624-2.205,54.991,54.991,0,0,0-6.511-1.357,43.615,43.615,0,0,0-6.161-.463H425.2a31.17,31.17,0,0,0-5.559.47,20.6,20.6,0,0,0-4.745,1.43,13.644,13.644,0,0,0-3.7,2.4,20.362,20.362,0,0,0-3.317,3.894,15.941,15.941,0,0,0-1.782,3.767,27.677,27.677,0,0,0-1.056,7.264,24.287,24.287,0,0,1-.854,6.2,10.506,10.506,0,0,1-1.437,2.905,11.728,11.728,0,0,1-2.616,2.634c-2.3,1.718-5.578,3.111-10.018,4.256A121.72,121.72,0,0,1,371.265,403c-2.738.25-5.342.614-7.739,1.079a54.849,54.849,0,0,0-6.448,1.642,38.984,38.984,0,0,0-5.259,2.12,28.771,28.771,0,0,0-4.177,2.514,22.73,22.73,0,0,0-3.207,2.827,19.474,19.474,0,0,0-4.925,9.658l-1.465-.293a21.408,21.408,0,0,1,8.715-13.4,30.246,30.246,0,0,1,4.395-2.646,40.457,40.457,0,0,1,5.462-2.2,56.345,56.345,0,0,1,6.625-1.688c2.447-.475,5.1-.845,7.888-1.1,3.931-.359,7.506-.788,10.627-1.276,3-.468,5.683-1.006,7.985-1.6,4.248-1.1,7.355-2.407,9.5-4.007a9.351,9.351,0,0,0,3.523-4.8,23.205,23.205,0,0,0,.785-5.821,28.849,28.849,0,0,1,1.126-7.644,19.259,19.259,0,0,1,5.505-8.3,15.14,15.14,0,0,1,4.1-2.666,22.092,22.092,0,0,1,5.09-1.537,32.679,32.679,0,0,1,5.827-.494h.014a45.1,45.1,0,0,1,6.373.478,56.48,56.48,0,0,1,6.688,1.394,63.849,63.849,0,0,1,6.783,2.258,65.646,65.646,0,0,1,6.656,3.075,62.031,62.031,0,0,1,6.3,3.846,51.45,51.45,0,0,1,9.285,8.209,37.751,37.751,0,0,1,6.463,10.118,30.408,30.408,0,0,1,2.453,11.8,31.575,31.575,0,0,1-.649,6.428,36.8,36.8,0,0,1-2.085,6.72,37.691,37.691,0,0,0-2.847,9.429,7.373,7.373,0,0,0,.763,5.031c1.973,2.992,7.475,3.054,14.44,3.131,3.564.04,7.6.085,11.773.54a48.9,48.9,0,0,1,12.836,3.028,37.769,37.769,0,0,1,12.437,8,43.916,43.916,0,0,1,5.59,6.614A57.285,57.285,0,0,1,533.4,462.2a51.893,51.893,0,0,1,4.684,23.212v0a56.614,56.614,0,0,1-6.357,24.188,64.45,64.45,0,0,1-6.662,10.377,71.272,71.272,0,0,1-8.986,9.475,85.746,85.746,0,0,1-24.84,15.017C488.361,545.644,485.309,546.713,482.167,547.647Z" transform="translate(-245.057 -363.367)" fill="rgba(87,21,232,0.5)"/>
      <path id="Caminho_2054" data-name="Caminho 2054" d="M680.825,787.636H619.6l-1.824-.544s-.369-20.788-2.812-26.107l9.07,3.084,8.785,2.527s12.086.253,19-12.083a52.026,52.026,0,0,0,2.206-8.254c.9-4.607,5.689-30,7.7-35.676a153.752,153.752,0,0,1,7.2,14.273c1.775,4.312,3.269,8.607,4.49,12.589a158.021,158.021,0,0,1,4.8,20A175.3,175.3,0,0,1,680.825,787.636Z" transform="translate(-430.439 -595.808)" fill="#5715e8"/>
      <path id="Caminho_2055" data-name="Caminho 2055" d="M653.778,612.3c-.392,4.577-3.5,5.322-3.5,5.322a5.4,5.4,0,0,1-7.467-3.026.3.3,0,0,1-.019-.1,53.1,53.1,0,0,0-3.609-9.194c-3.272-7.917-7.525-15.9-12.98-22.213a26.949,26.949,0,0,0-14.885-8.786c-.019,0-.029-.02-.049-.02-7.681-2.313-11.419-7.036-13.039-11.565V562.7c-.693-2.861-1.4-5.65-1.02-7.337.648-2.958.972-6.155.165-6.8-1.014-.849-2.848-.22-7.512.719-4.04.829-6.194.36-6.68-2.109a5.952,5.952,0,0,1-.117-1.163c-.019.246-.972-.732-1.017-.5-.3,1.26-.914,1.766-2.242,2.32-1.973.819-2.779,3.985-3.071,6.094-.3,2.245.706,5.342,1.506,7.451-1.024-1.17-2.2-1.034-4.03-.324a4.69,4.69,0,0,1-2.536-.194,1.142,1.142,0,0,1,.447-.237c.295-.1-1.843-1.16-1.532-1.228,3.113-.7,4.859-3.3,4.49-5.581-.917-5.75.3-12.514,4.188-16.994,4.283-4.927,11.27-5.951,17.185-3.7,4.645,1.765,9.038,5.387,10.648,10.217a.072.072,0,0,0,.019.058,12.642,12.642,0,0,1,.47,1.882c.593,3.593-.674,7.234-1.377,10.784-.253,1.28.389,2.676.525,3.69.781,6.09,7.81,7.81,13.373,10.4a62.519,62.519,0,0,1,27.658,26.078C652.038,603.721,653.561,608.833,653.778,612.3Z" transform="translate(-400.716 -476.245)" fill="#ed3d8e"/>
      <path id="Caminho_2056" data-name="Caminho 2056" d="M589.773,708.847l-.912-4.356a46.606,46.606,0,0,1-.66-10.023,42.147,42.147,0,0,1,1.4-9.143,35.6,35.6,0,0,1,3.132-7.857,27.348,27.348,0,0,1,4.553-6.16,28.061,28.061,0,0,1,5.877-4.5c.138-.09.274-.164.406-.235l.71,1.315h0c-.114.062-.222.12-.31.178l-.021.014-.022.012a26.569,26.569,0,0,0-5.583,4.272,25.856,25.856,0,0,0-4.3,5.825,34.1,34.1,0,0,0-3,7.527,40.638,40.638,0,0,0-1.348,8.819,45.094,45.094,0,0,0,.637,9.688l.9,4.319Z" transform="translate(-412.495 -566.345)"/>
      <path id="Caminho_2057" data-name="Caminho 2057" d="M727.46,751.254h-1.494c0-5.014-.218-10.089-.651-15.085s-1.089-10.032-1.952-14.972v0a157.867,157.867,0,0,0-4.778-19.9v0c-1.337-4.359-2.84-8.572-4.467-12.523v0a102.049,102.049,0,0,0-5.66-11.667l0,0a65.383,65.383,0,0,0-7.194-10.339,26.2,26.2,0,0,0-14.471-8.541,27.749,27.749,0,0,0-3.279-.492l.133-1.488a29.351,29.351,0,0,1,3.454.518,27.7,27.7,0,0,1,15.3,9.029l0,0a66.874,66.874,0,0,1,7.36,10.576A103.56,103.56,0,0,1,715.5,688.2h0c1.644,3.993,3.163,8.249,4.513,12.652a159.348,159.348,0,0,1,4.823,20.09h0c.87,4.982,1.533,10.062,1.969,15.1S727.461,746.2,727.46,751.254Z" transform="translate(-476.327 -559.426)"/>
      <path id="Caminho_2058" data-name="Caminho 2058" d="M379.921,693.33l-1.2-.884a3.962,3.962,0,0,1,.278-.338l1.3-1.426,11.078-12.069a12.733,12.733,0,0,1,11.524-3.991l.171.03-.259,1.472-.162-.029a11.239,11.239,0,0,0-10.17,3.524l0,0L381.393,691.69l-1.3,1.428A2.523,2.523,0,0,0,379.921,693.33Z" transform="translate(-272.285 -571.618)"/>
      <path id="Caminho_2059" data-name="Caminho 2059" d="M403.009,725.5l-1.11-1,6.1-6.764.029-.028.657.68.407.367Z" transform="translate(-287.805 -600.578)"/>
      <path id="Caminho_2060" data-name="Caminho 2060" d="M598.453,752.393a21.08,21.08,0,0,1-7.011-1.2l-28.6-10.078.5-1.409,28.6,10.078a19.594,19.594,0,0,0,25.741-14.716l6.767-34.546a12.659,12.659,0,0,0-2.074-9.711l0,0a11.723,11.723,0,0,0-.889-1.121l1.112-1a13.275,13.275,0,0,1,1,1.263,14.151,14.151,0,0,1,2.318,10.857l-6.767,34.546a21.092,21.092,0,0,1-20.693,17.039Z" transform="translate(-395.546 -581.151)"/>
      <path id="Caminho_2061" data-name="Caminho 2061" d="M461.845,781.651h-.016a4.79,4.79,0,0,1-1.994-.438l0,0a4.718,4.718,0,0,1-2.617-5.23A54.8,54.8,0,0,1,460.4,765.6a38.455,38.455,0,0,1,6.889-11.016,29.367,29.367,0,0,1,5.289-4.573,27.912,27.912,0,0,1,6.745-3.3,32.057,32.057,0,0,1,8.339-1.543,44.312,44.312,0,0,1,10.062.671c.632.107,1.214.214,1.778.328l.027.006,3.429.826,9.612,2.342,2.59.625a4.76,4.76,0,0,0,2.574-.092l.042-.013.043-.008a.388.388,0,0,0,.061-.017l.015,0a4.828,4.828,0,0,0,3.128-3.439l2.313-9.624,2.864-11.893,1.453.35-2.99,12.419-2.187,9.1a6.322,6.322,0,0,1-4.089,4.5,1.91,1.91,0,0,1-.234.068,6.254,6.254,0,0,1-3.343.11l-2.591-.625-9.613-2.343-3.412-.822c-.545-.11-1.107-.214-1.718-.317h-.005c-12.294-2.158-22.077.629-29.077,8.282a36.968,36.968,0,0,0-6.616,10.59,53.3,53.3,0,0,0-3.1,10.1v0a3.21,3.21,0,0,0,3.153,3.873h.015a3.218,3.218,0,0,0,3.084-2.3,59.05,59.05,0,0,1,3.077-8.435,26.541,26.541,0,0,1,2.221-3.945,11.029,11.029,0,0,1,2.739-2.856l.836,1.238a9.568,9.568,0,0,0-2.351,2.474,25.064,25.064,0,0,0-2.092,3.721,57.571,57.571,0,0,0-3,8.222v0a4.713,4.713,0,0,1-4.517,3.372Z" transform="translate(-324.769 -605.374)"/>
      <path id="Caminho_2062" data-name="Caminho 2062" d="M433.859,710.35h-9.8a4.958,4.958,0,1,1,0-9.917h13.878v1.494H424.063a3.464,3.464,0,0,0,0,6.928h9.8Z" transform="translate(-299.323 -589.014)"/>
      <path id="Caminho_2063" data-name="Caminho 2063" d="M409.318,734.315a12.94,12.94,0,0,1-5.547-1.281l.657-1.342a11.466,11.466,0,0,0,5.027,1.128,8.179,8.179,0,0,0,2.43-.378,5.257,5.257,0,0,0,1.929-1.088,4.917,4.917,0,0,0,1.518-3.373l1.489.121a7.245,7.245,0,0,1-.638,2.5,5.857,5.857,0,0,1-1.363,1.852,6.736,6.736,0,0,1-2.471,1.4,9.664,9.664,0,0,1-2.874.451Z" transform="translate(-289.058 -607.456)"/>
      <path id="Caminho_2064" data-name="Caminho 2064" d="M441.8,693.051a5.551,5.551,0,0,1-3.732-1.436l0,0c-2.8-2.579-5.753-5.111-9.032-7.741-3.066-2.459-6.34-5.055-9.682-7.384a66.77,66.77,0,0,0-10.424-6.079,38.8,38.8,0,0,0-7.458-2.521,30.281,30.281,0,0,0-8.055-.79,18.3,18.3,0,0,0-7.4,1.793A13.789,13.789,0,0,0,382.929,671a14.1,14.1,0,0,0-2.532,3.078,12.347,12.347,0,0,0-1.232,2.667,10.264,10.264,0,0,0-.5,2.805,8.116,8.116,0,0,0,.363,2.729,7.425,7.425,0,0,0,1.364,2.488l-1.151.952a8.911,8.911,0,0,1-1.636-2.987,9.605,9.605,0,0,1-.433-3.23,11.753,11.753,0,0,1,.573-3.214,13.832,13.832,0,0,1,1.381-2.99,15.209,15.209,0,0,1,6.228-5.745,19.782,19.782,0,0,1,8-1.95,31.782,31.782,0,0,1,8.454.825,40.311,40.311,0,0,1,7.749,2.62,68.2,68.2,0,0,1,10.657,6.212c3.38,2.355,6.676,4.969,9.762,7.444,3.3,2.651,6.284,5.2,9.107,7.806a4.063,4.063,0,0,0,6.29-1.068c1.076-1.986,3.315-6.119,3.658-7.056l1.4.513c-.316.863-1.727,3.525-3.747,7.255v0a5.558,5.558,0,0,1-3.95,2.818A5.531,5.531,0,0,1,441.8,693.051Z" transform="translate(-271.247 -565.677)"/>
      <path id="Caminho_2065" data-name="Caminho 2065" d="M459.889,758.357A89.97,89.97,0,0,0,451.4,750.6c-2.547-2.062-5.3-4.1-8.2-6.069-4.922-3.346-8.563-5.329-8.6-5.348l.712-1.313c.037.02,3.744,2.039,8.727,5.426,2.926,1.989,5.717,4.056,8.3,6.143a91.458,91.458,0,0,1,8.63,7.888Z" transform="translate(-309.7 -614.075)"/>
      <path id="Caminho_2066" data-name="Caminho 2066" d="M504.361,856.609c-.988,0-1.975-.049-2.956-.148a29.7,29.7,0,0,1-6.151-1.285,5.8,5.8,0,0,1-3.592-3.535,6.646,6.646,0,0,1-.436-2.693,5.858,5.858,0,0,1,.776-2.662l1.289.755a4.745,4.745,0,0,0-.235,4.064,4.313,4.313,0,0,0,2.651,2.647h0a28.173,28.173,0,0,0,11.811,1.183,8.146,8.146,0,0,0,2.809-.861,9.939,9.939,0,0,0,2.374-1.748,18.144,18.144,0,0,0,3.587-5.365,1.711,1.711,0,1,0-3.147-1.345l0,.008a16.56,16.56,0,0,1-1.294,2.463,6.862,6.862,0,0,1-1.969,2.082l-.8-1.262a5.419,5.419,0,0,0,1.518-1.638,15.089,15.089,0,0,0,1.171-2.235,3.205,3.205,0,1,1,5.884,2.543l0,.007a19.622,19.622,0,0,1-3.9,5.807,10.249,10.249,0,0,1-6.058,3.027h0A29.728,29.728,0,0,1,504.361,856.609Z" transform="translate(-347.599 -684.5)"/>
      <path id="Caminho_2067" data-name="Caminho 2067" d="M512.113,861.3a3.406,3.406,0,0,1-.622-.655l-.009-.013a7.175,7.175,0,0,1-.847-6.82,9.612,9.612,0,0,1,1.76-2.971l1.094,1.017h0a8.238,8.238,0,0,0-1.47,2.516,5.659,5.659,0,0,0,.685,5.4,1.91,1.91,0,0,0,.345.362Z" transform="translate(-360.264 -689.703)"/>
      <path id="Caminho_2068" data-name="Caminho 2068" d="M531.242,863.586a3.615,3.615,0,0,1-1.534-.538,3.055,3.055,0,0,1-1-1.073c-.674-1.2-.719-2.99-.132-5.325a20.742,20.742,0,0,1,1.028-3.042l1.365.607-.683-.3.683.3a19.593,19.593,0,0,0-.95,2.821,11.019,11.019,0,0,0-.357,2.357,3.63,3.63,0,0,0,.347,1.851,1.734,1.734,0,0,0,1.418.862Z" transform="translate(-372.336 -691.555)"/>
      <path id="Caminho_2069" data-name="Caminho 2069" d="M467.937,942.939H238.83v-1.494H467.937Z" transform="translate(-178.639 -750.358)"/>
      <path id="Caminho_2070" data-name="Caminho 2070" d="M295.739,893.944h0a3.342,3.342,0,0,1,3.339,3.339v5.27a8.606,8.606,0,0,1-8.609,8.58H189.917a8.593,8.593,0,0,1-8.583-8.582l0-.749h77.555a8.039,8.039,0,0,0,7.992-7.179l.072-.667h23.517Zm1.846,8.6v-5.264a1.847,1.847,0,0,0-1.843-1.845l-5.272.013h-22.2a9.533,9.533,0,0,1-9.382,7.846H182.868a7.1,7.1,0,0,0,7.05,6.342H290.47a7.112,7.112,0,0,0,7.115-7.092Z" transform="translate(-140.147 -718.558)"/>
      <path id="Caminho_2071" data-name="Caminho 2071" d="M205.516,727.971a9.476,9.476,0,0,1,7.29,3.422l.007.008.4.5.012.016a9.509,9.509,0,0,1,1.546,3.367L225.6,780.424a9.2,9.2,0,0,1,.2,3.255,9.533,9.533,0,0,1-9.477,8.509H138.089a9.535,9.535,0,0,1-9.275-7.318l-10.8-45.135a9.536,9.536,0,0,1,9.272-11.763Zm6.137,4.373a7.983,7.983,0,0,0-6.137-2.879H127.283a8.042,8.042,0,0,0-7.819,9.921l10.8,45.136a8.041,8.041,0,0,0,7.822,6.172h78.232a8.039,8.039,0,0,0,7.992-7.179v-.007a7.709,7.709,0,0,0-.169-2.732v0l-10.823-45.138a8.022,8.022,0,0,0-1.293-2.824Z" transform="translate(-97.581 -607.449)"/>
      <path id="Caminho_2072" data-name="Caminho 2072" d="M165.376,546.478c.547.547,1.072,1.111,1.571,1.7a32.879,32.879,0,0,1,5.183,17.808,18.141,18.141,0,0,1-18.141,18.141H144.2a4.629,4.629,0,0,0-4.626,4.626v.214a4.353,4.353,0,0,0,2.938,4.12,1.148,1.148,0,0,0,.01.129,1.331,1.331,0,0,1,.01.143l-9.926.253h-.1a4.636,4.636,0,0,1-4.636-4.629,4.626,4.626,0,0,0-4.626-4.626h-40.2A18.06,18.06,0,0,1,70.1,578.947a18.082,18.082,0,0,1-2.284-8.821v-.237a33.114,33.114,0,0,1,33.127-33.13h41A33.041,33.041,0,0,1,165.376,546.478Zm-76.767,16a7.93,7.93,0,1,0,1.72-8.644A7.93,7.93,0,0,0,88.609,562.475Zm33.2,4.895a7.923,7.923,0,1,1,5.609-2.317A7.931,7.931,0,0,1,121.812,567.37Zm16.719-7.937a7.93,7.93,0,1,0,7.937-7.924A7.931,7.931,0,0,0,138.531,559.433Z" transform="translate(-64.157 -479.444)" fill="rgba(237,61,142,0.1)"/>
      <path id="Caminho_2073" data-name="Caminho 2073" d="M125.2,584.971h-.116A5.379,5.379,0,0,1,119.7,579.6a3.879,3.879,0,0,0-3.879-3.88h-40.2a18.8,18.8,0,0,1-10.561-3.226,18.939,18.939,0,0,1-6.842-8.309,18.77,18.77,0,0,1-1.485-7.352v-.236A33.857,33.857,0,0,1,90.6,522.74h41a34.121,34.121,0,0,1,6.823.688,33.7,33.7,0,0,1,12.11,5.1,33.968,33.968,0,0,1,12.27,14.9,33.7,33.7,0,0,1,1.975,6.357,34.112,34.112,0,0,1,.69,6.823,18.8,18.8,0,0,1-3.226,10.561,18.941,18.941,0,0,1-8.31,6.842,18.773,18.773,0,0,1-7.352,1.485h-9.78a3.882,3.882,0,0,0-3.879,3.877v.213a3.607,3.607,0,0,0,2.434,3.414h0a3.455,3.455,0,0,0,1.137.192h.019l.025,1.494-1.388.039ZM90.6,524.234a32.362,32.362,0,0,0-32.363,32.36v.236a17.379,17.379,0,0,0,17.394,17.394h40.2A5.369,5.369,0,0,1,121.2,579.6a3.888,3.888,0,0,0,3.889,3.879h.1l7.822-.2a5.1,5.1,0,0,1-1.585-3.7v-.214a5.373,5.373,0,0,1,5.373-5.37h9.78A17.379,17.379,0,0,0,163.966,556.6a32.62,32.62,0,0,0-.659-6.524,32.195,32.195,0,0,0-4.872-11.572,32.475,32.475,0,0,0-14.243-11.727,32.21,32.21,0,0,0-6.075-1.886,32.6,32.6,0,0,0-6.524-.658Z" transform="translate(-56.74 -470.058)"/>
      <path id="Caminho_2074" data-name="Caminho 2074" d="M633.741,598.53a.77.77,0,0,1-.314-.066c-8.508-2.579-12.025-7.954-13.477-12.014l-.044-.122v-.02a18.968,18.968,0,0,1-1.035-5.137,15.388,15.388,0,0,1,.273-4.144l0-.02a17.5,17.5,0,0,0,.5-3.151c.02-.63-.071-1.036-.272-1.205a2.642,2.642,0,0,0-1.718-.182c-1.049.1-2.483.393-4.3.763-.521.106-1.06.216-1.639.331a7.052,7.052,0,0,1-4.189-.287,5.393,5.393,0,0,1-2.545-2.226,3.845,3.845,0,0,1-.292-.535,6.631,6.631,0,0,1-.609-3.445l1.488.138a5.135,5.135,0,0,0,.475,2.675l.008.018a2.325,2.325,0,0,0,.186.34l.01.016.009.016a3.909,3.909,0,0,0,1.85,1.627,5.6,5.6,0,0,0,3.313.2h0c.577-.115,1.114-.225,1.634-.33,1.858-.378,3.326-.678,4.454-.786a6.579,6.579,0,0,1,1.556,0,2.452,2.452,0,0,1,1.269.527,2.906,2.906,0,0,1,.8,2.408v.023a19,19,0,0,1-.537,3.423,16.33,16.33,0,0,0,.757,8.565l.044.122v.018a16.466,16.466,0,0,0,4.02,6.208,20.444,20.444,0,0,0,8.451,4.761.8.8,0,0,1,.259.114.7.7,0,0,0-.225-.1l-.165.547Z" transform="translate(-423.136 -499.734)"/>
      <path id="Caminho_2075" data-name="Caminho 2075" d="M646.434,613.723a6.589,6.589,0,0,1-4.58-1.911,5.227,5.227,0,0,1-1.331-2.229,1.032,1.032,0,0,1-.045-.191,52.519,52.519,0,0,0-3.543-9l1.344-.651a53.675,53.675,0,0,1,3.659,9.331l.021.082v.024a4.333,4.333,0,0,0,2.634,2.684,4.267,4.267,0,0,0,3.727-.121l.1-.061.1-.022a3.461,3.461,0,0,0,1.333-.825,4.654,4.654,0,0,0,.983-1.389,7.168,7.168,0,0,0,.613-2.445,17.889,17.889,0,0,0-.97-6.583,56.7,56.7,0,0,0-4.992-10.9,65.212,65.212,0,0,0-11.837-15.069,59.026,59.026,0,0,0-15.77-10.7c-.965-.445-2-.875-3-1.291-4.331-1.8-8.81-3.655-10.405-7.69a8.317,8.317,0,0,1-.592-2.6,11.671,11.671,0,0,1,.229-3.079c.705-3.563,1.278-7.335.7-10.769l-.01-.064a.865.865,0,0,1-.015-.095,12.261,12.261,0,0,0-1.357-3.757,14.915,14.915,0,0,0-2.454-3.24,18.434,18.434,0,0,0-3.238-2.591,20.273,20.273,0,0,0-3.688-1.84,16.9,16.9,0,0,0-4.428-1.021,15.877,15.877,0,0,0-4.465.212,13.426,13.426,0,0,0-7.642,4.3,15.865,15.865,0,0,0-2.335,3.569,19.654,19.654,0,0,0-1.431,4.127,22.976,22.976,0,0,0-.286,8.681l.031.185a13.259,13.259,0,0,1,.249,4.06,4.117,4.117,0,0,1-.824,2,3.615,3.615,0,0,1-2.09,1.232l-.027.006-.027,0a8.586,8.586,0,0,0-.852.17l-.018,0a.307.307,0,0,0-.2.146c-.014.049-.006.065,0,.072a1.2,1.2,0,0,0,.647.4,4.828,4.828,0,0,0,1.238.241,2.352,2.352,0,0,0,.781-.041,6.645,6.645,0,0,1,2.612-.591,3.017,3.017,0,0,1,2.24,1.114,5.252,5.252,0,0,1,.407.518l-1.221.862a3.829,3.829,0,0,0-.292-.375l-.013-.014a1.542,1.542,0,0,0-1.176-.612,5.455,5.455,0,0,0-2.022.493h0a5.287,5.287,0,0,1-3.049-.187l0,0a2.452,2.452,0,0,1-1.5-1.174,1.6,1.6,0,0,1-.036-1.251l.01-.028.012-.027a1.811,1.811,0,0,1,1.225-1c.316-.08.64-.145.964-.193a2.117,2.117,0,0,0,1.738-2,12.162,12.162,0,0,0-.245-3.587l-.031-.187v0a24.386,24.386,0,0,1,.3-9.256,21.142,21.142,0,0,1,1.542-4.441,17.355,17.355,0,0,1,2.557-3.9,14.907,14.907,0,0,1,8.482-4.784,17.367,17.367,0,0,1,4.885-.233,18.394,18.394,0,0,1,4.819,1.111,21.758,21.758,0,0,1,3.96,1.976,19.937,19.937,0,0,1,3.5,2.8,16.413,16.413,0,0,1,2.7,3.566,13.757,13.757,0,0,1,1.516,4.19.792.792,0,0,1,.051.308c.59,3.641,0,7.535-.724,11.2a10.184,10.184,0,0,0-.2,2.684,6.821,6.821,0,0,0,.485,2.134l0,.011a6.963,6.963,0,0,0,1.441,2.233,11.344,11.344,0,0,0,2.233,1.8,39.767,39.767,0,0,0,5.916,2.833c1.016.421,2.066.857,3.057,1.314a60.515,60.515,0,0,1,16.169,10.97,66.712,66.712,0,0,1,12.109,15.415c4.446,7.791,6.517,13.963,6.154,18.344v0a8.592,8.592,0,0,1-.783,3.025,6.086,6.086,0,0,1-1.35,1.839A4.927,4.927,0,0,1,649,613.077a5.2,5.2,0,0,1-2.421.644Z" transform="translate(-399.136 -471.008)"/>
      <path id="Caminho_2076" data-name="Caminho 2076" d="M596.7,591.432a7.708,7.708,0,0,1-4.923-1.858,14.7,14.7,0,0,1-5.13-13.124v0a9.768,9.768,0,0,1,.992-3.283,5.106,5.106,0,0,1,2.561-2.4,3.22,3.22,0,0,0,1.6-1.393,4.163,4.163,0,0,0,.53-2.088h1.494a5.657,5.657,0,0,1-.731,2.837,4.744,4.744,0,0,1-2.324,2.026,3.6,3.6,0,0,0-1.813,1.73,8.286,8.286,0,0,0-.827,2.778,12.857,12.857,0,0,0,1.779,8.389l0,0a12.806,12.806,0,0,0,2.809,3.372,7.221,7.221,0,0,0,1.846,1.108,5.717,5.717,0,0,0,2.136.416,16.249,16.249,0,0,0,3.864-.442,12.3,12.3,0,0,0,2.647-.969,7.591,7.591,0,0,0,2.023-1.409l0,0,1.117.993a8.737,8.737,0,0,1-2.373,1.7,13.705,13.705,0,0,1-2.99,1.116A17.7,17.7,0,0,1,596.7,591.432Z" transform="translate(-411.402 -499.873)"/>
      <ellipse id="Elipse_240" data-name="Elipse 240" cx="1.082" cy="1.082" rx="1.082" ry="1.082" transform="translate(187.2 75.506)"/>
      <ellipse id="Elipse_241" data-name="Elipse 241" cx="1.082" cy="1.082" rx="1.082" ry="1.082" transform="translate(177.683 76.137)"/>
      <path id="Caminho_2077" data-name="Caminho 2077" d="M609.508,597.639a1.394,1.394,0,0,1-.519-.092,1.081,1.081,0,0,1-.624-.635c-.094-.255-.177-.716.037-2.979.108-1.14.245-2.222.246-2.233l1.482.188c0,.01-.127,1-.231,2.08-.114,1.18-.139,1.809-.139,2.136a3.264,3.264,0,0,0,.545-.2l.662,1.339a4.984,4.984,0,0,1-.622.25A2.756,2.756,0,0,1,609.508,597.639Z" transform="translate(-425.956 -516.223)"/>
      <path id="Caminho_2078" data-name="Caminho 2078" d="M618.812,613.6a5.381,5.381,0,0,1-1.865-.338l.516-1.4a3.651,3.651,0,0,0,2.86-.09,3.018,3.018,0,0,0,1.58-1.763l1.417.476a4.5,4.5,0,0,1-2.351,2.634,4.935,4.935,0,0,1-1.932.478Q618.924,613.6,618.812,613.6Z" transform="translate(-431.767 -528.481)"/>
      <path id="Elipse_242" data-name="Elipse 242" d="M5.678,0A5.542,5.542,0,0,1,7.894.458,5.653,5.653,0,0,1,9.7,1.7a5.786,5.786,0,0,1,1.213,1.842,5.928,5.928,0,0,1,0,4.5A5.786,5.786,0,0,1,9.7,9.89a5.653,5.653,0,0,1-1.8,1.246,5.586,5.586,0,0,1-4.432,0,5.653,5.653,0,0,1-1.8-1.246A5.786,5.786,0,0,1,.444,8.048a5.928,5.928,0,0,1,0-4.5A5.786,5.786,0,0,1,1.657,1.7,5.653,5.653,0,0,1,3.461.458,5.542,5.542,0,0,1,5.678,0Zm0,10.1A4.1,4.1,0,0,0,8.629,8.847a4.391,4.391,0,0,0,0-6.1,4.1,4.1,0,0,0-5.9,0,4.391,4.391,0,0,0,0,6.1A4.1,4.1,0,0,0,5.678,10.1Z" transform="translate(181.746 76.529) rotate(-54.76)"/>
      <path id="Elipse_243" data-name="Elipse 243" d="M5.678,0A5.542,5.542,0,0,1,7.894.458,5.653,5.653,0,0,1,9.7,1.7a5.786,5.786,0,0,1,1.213,1.842,5.928,5.928,0,0,1,0,4.5A5.786,5.786,0,0,1,9.7,9.89a5.653,5.653,0,0,1-1.8,1.246,5.586,5.586,0,0,1-4.432,0,5.653,5.653,0,0,1-1.8-1.246A5.786,5.786,0,0,1,.444,8.048a5.928,5.928,0,0,1,0-4.5A5.786,5.786,0,0,1,1.657,1.7,5.653,5.653,0,0,1,3.461.458,5.542,5.542,0,0,1,5.678,0Zm0,10.1A4.1,4.1,0,0,0,8.629,8.847a4.391,4.391,0,0,0,0-6.1,4.1,4.1,0,0,0-5.9,0,4.391,4.391,0,0,0,0,6.1A4.1,4.1,0,0,0,5.678,10.1Z" transform="translate(169.093 77.165) rotate(-54.76)"/>
      <path id="Caminho_2079" data-name="Caminho 2079" d="M583.695,580.282h.217a4.321,4.321,0,0,1,4.3,3.971,4.081,4.081,0,0,1-3.887,4.386H584.1a4.321,4.321,0,0,1-4.3-3.972,4.081,4.081,0,0,1,3.887-4.386Zm3.78,4.027a3.563,3.563,0,0,0-3.563-3.291v0h-.181a3.373,3.373,0,0,0-2.375,1.134,3.328,3.328,0,0,0-.826,2.468,3.564,3.564,0,0,0,3.564,3.295h.181a3.36,3.36,0,0,0,2.378-1.134A3.32,3.32,0,0,0,587.475,584.309Z" transform="translate(-406.896 -508.579)" fill="#fff"/>
      <path id="Caminho_2080" data-name="Caminho 2080" d="M607.6,591.148l-.077-1.492,2.656-.136.077,1.492Z" transform="translate(-425.461 -514.764)"/>
      <ellipse id="Elipse_244" data-name="Elipse 244" cx="4.176" cy="4.276" rx="4.176" ry="4.276" transform="translate(183.855 76.18) rotate(-54.76)" fill="#fff" opacity="0.53"/>
      <ellipse id="Elipse_245" data-name="Elipse 245" cx="4.176" cy="4.276" rx="4.176" ry="4.276" transform="translate(171.202 76.816) rotate(-54.76)" fill="#fff" opacity="0.53"/>
      <path id="Caminho_2081" data-name="Caminho 2081" d="M631.087,652.668q-.2,0-.395,0a15.422,15.422,0,0,1-3.333-.423l-.353-.095-6.041-14.351,1.377-.58,5.75,13.661a15.157,15.157,0,0,0,2.678.295,13.319,13.319,0,0,0,2.887-.241,9.748,9.748,0,0,0,3.017-1.12,8.382,8.382,0,0,0,2.516-2.266,11.253,11.253,0,0,0,1.785-3.917l1.447.372a10.965,10.965,0,0,1-5,7.108,11.25,11.25,0,0,1-3.5,1.3A14.618,14.618,0,0,1,631.087,652.668Z" transform="translate(-434.457 -546.693)"/>
      <ellipse id="Elipse_246" data-name="Elipse 246" cx="8.458" cy="9.505" rx="8.458" ry="9.505" transform="translate(61.489 147.858) rotate(-17.5)" fill="rgba(237,61,142,0.1)"/>
      <path id="Caminho_2082" data-name="Caminho 2082" d="M609.849,888.155a156.022,156.022,0,0,0-3.05-27.137l1.465-.295a157.584,157.584,0,0,1,3.079,27.415Z" transform="translate(-424.974 -696.319)"/>
    </g>
  </g>
</svg>
