<svg xmlns="http://www.w3.org/2000/svg" width="328" height="271" viewBox="0 0 328 271">
  <g id="Grupo_5673" data-name="Grupo 5673" transform="translate(-0.065)">
    <g id="Retângulo_1621" data-name="Retângulo 1621" transform="translate(0.065)" fill="#fff" stroke="#d9e1e7" stroke-width="1">
      <rect width="328" height="271" rx="11" stroke="none"/>
      <rect x="0.5" y="0.5" width="327" height="270" rx="10.5" fill="none"/>
    </g>
    <text id="Saldos" transform="translate(164.065 238)" fill="#10182b" font-size="17" font-family="Inter-Bold, Inter" font-weight="700"><tspan x="-28" y="0">Saldos</tspan></text>
    <g id="Shopping_e-commerce_finance___store_online_shop_woman_invoice_fashion_purchase" data-name="Shopping, e-commerce, finance _ store, online, shop, woman, invoice, fashion, purchase" transform="translate(79.106 15.206)">
      <path id="Caminho_2147" data-name="Caminho 2147" d="M127.581,557.163h23.07v31.42h-23.07Z" transform="translate(-126.488 -444.819)" fill="#ed3d8e"/>
      <ellipse id="Elipse_250" data-name="Elipse 250" cx="1.938" cy="1.938" rx="1.938" ry="1.938" transform="translate(3.78 115.049)" fill="rgba(237,61,142,0.1)"/>
      <ellipse id="Elipse_251" data-name="Elipse 251" cx="1.938" cy="1.938" rx="1.938" ry="1.938" transform="translate(3.78 136.599)" fill="rgba(237,61,142,0.1)"/>
      <path id="Caminho_2148" data-name="Caminho 2148" d="M623.511,835.988l-.326-.953a43.111,43.111,0,0,0,12.6-6.609,41.584,41.584,0,0,0,7.546-7.629l0,0a48.927,48.927,0,0,0,4.869-8.379l.908.435a49.9,49.9,0,0,1-4.98,8.558,42.589,42.589,0,0,1-7.729,7.813h0A44.1,44.1,0,0,1,623.511,835.988Z" transform="translate(-510.703 -642.703)" fill="rgba(87,21,232,0.5)"/>
      <path id="Caminho_2149" data-name="Caminho 2149" d="M644.319,321.979l-1-.072c.809-11.365.124-21.651-2.036-30.574a65.921,65.921,0,0,0-2.147-7.112,55.734,55.734,0,0,0-2.933-6.651,48.51,48.51,0,0,0-3.782-6.094,44.432,44.432,0,0,0-4.7-5.445,43.64,43.64,0,0,0-5.677-4.7,46.462,46.462,0,0,0-6.729-3.872,53.533,53.533,0,0,0-7.854-2.944,65.771,65.771,0,0,0-9.05-1.917l.141-1a66.776,66.776,0,0,1,9.189,1.947,54.545,54.545,0,0,1,8,3,47.479,47.479,0,0,1,6.875,3.956,44.635,44.635,0,0,1,5.808,4.814,45.445,45.445,0,0,1,4.8,5.569,49.527,49.527,0,0,1,3.861,6.221,56.735,56.735,0,0,1,2.987,6.771,66.948,66.948,0,0,1,2.181,7.222C644.442,300.12,645.136,310.51,644.319,321.979Z" transform="translate(-491.497 -207.929)" fill="rgba(87,21,232,0.5)"/>
      <path id="Caminho_2150" data-name="Caminho 2150" d="M262.593,256.407c-.071-.553-.145-1.115-.215-1.658-.2-1.567-.415-3.187-.607-4.775a69.854,69.854,0,0,1-.511-11.687,45.589,45.589,0,0,1,1.363-9.356,32.611,32.611,0,0,1,2.83-7.279,26.961,26.961,0,0,1,3.88-5.449,26.323,26.323,0,0,1,7.023-5.388,30.2,30.2,0,0,1,6.916-2.621,32.309,32.309,0,0,1,5.277-.85,20.113,20.113,0,0,1,2.127-.065l-.042,1.006a19.713,19.713,0,0,0-2.042.065,31.312,31.312,0,0,0-5.115.83,29.172,29.172,0,0,0-6.674,2.537,25.314,25.314,0,0,0-6.738,5.178,25.957,25.957,0,0,0-3.731,5.246,31.621,31.621,0,0,0-2.738,7.053,44.606,44.606,0,0,0-1.329,9.145,68.868,68.868,0,0,0,.505,11.513c.191,1.585.4,3.2.606,4.767.071.544.144,1.105.216,1.659Z" transform="translate(-230.073 -173.569)" fill="rgba(87,21,232,0.5)"/>
      <path id="Caminho_2151" data-name="Caminho 2151" d="M167.313,752.284H153.436a44.465,44.465,0,0,1-13.316-1.855,29.009,29.009,0,0,1-6.156-2.722,23.361,23.361,0,0,1-5.282-4.28,21.8,21.8,0,0,1-3.66-5.508,24.449,24.449,0,0,1-1.917-6.219,30.066,30.066,0,0,1,.763-13.009,29.108,29.108,0,0,1,1.9-5,28.372,28.372,0,0,1,2.674-4.381,35.937,35.937,0,0,1,7.434-7.3h0c.887-.66,1.8-1.319,2.679-1.956,1.294-.936,2.632-1.9,3.907-2.885l.614.8c-1.287.99-2.631,1.962-3.931,2.9-.878.635-1.786,1.292-2.667,1.947a34.95,34.95,0,0,0-7.23,7.1,27.366,27.366,0,0,0-2.579,4.225,28.1,28.1,0,0,0-1.831,4.827,29.054,29.054,0,0,0-.74,12.57,23.443,23.443,0,0,0,1.837,5.963,20.79,20.79,0,0,0,3.49,5.253,22.351,22.351,0,0,0,5.055,4.1,28.007,28.007,0,0,0,5.942,2.626,43.465,43.465,0,0,0,13.014,1.809h13.876Z" transform="translate(-122.716 -553.355)" fill="rgba(87,21,232,0.5)"/>
      <path id="Caminho_2152" data-name="Caminho 2152" d="M145.593,594.69V582.215c2.839,0,5.141-2,5.141-4.458v-.337H164.61v21.722H151.373c0-2.5-2.372-4.511-5.258-4.456Z" transform="translate(-140.451 -460.523)" fill="rgba(237,61,142,0.1)"/>
      <path id="Caminho_2153" data-name="Caminho 2153" d="M201.992,604.008a6.5,6.5,0,0,0,6.5,6.5v-13a6.5,6.5,0,0,0-6.5,6.5Z" transform="translate(-184.175 -476.098)" fill="#ed3d8e"/>
      <rect id="Retângulo_1687" data-name="Retângulo 1687" width="22.541" height="16.37" rx="8.185" transform="translate(63.721 194.764) rotate(180)" fill="#ed3d8e"/>
      <path id="Caminho_2154" data-name="Caminho 2154" d="M255.566,874.853h7.546a1.645,1.645,0,0,0,1.645-1.643V861.443a.8.8,0,0,0-.813-.8l-4.2.037a.8.8,0,0,0-.59.282l-5.086,6.02a4.442,4.442,0,0,0-1.255,3.084v2.024a2.751,2.751,0,0,0,2.751,2.766Z" transform="translate(-223.575 -680.088)" fill="#ed3d8e"/>
      <ellipse id="Elipse_252" data-name="Elipse 252" cx="4.747" cy="4.747" rx="4.747" ry="4.747" transform="translate(47.706 181.833)" fill="rgba(237,61,142,0.1)"/>
      <path id="Caminho_2155" data-name="Caminho 2155" d="M278.449,873.08v-3.326a.372.372,0,0,0-.37-.372h-1.861a.373.373,0,0,0-.293.145l-2.57,3.326a.372.372,0,0,0,.3.6h4.423a.372.372,0,0,0,.376-.372Z" transform="translate(-239.438 -686.866)" fill="rgba(237,61,142,0.1)"/>
      <path id="Caminho_2156" data-name="Caminho 2156" d="M372.372,923.723v.033a3.672,3.672,0,1,1-7.341,0" transform="translate(-310.569 -728.994)" fill="#ed3d8e"/>
      <path id="Caminho_2157" data-name="Caminho 2157" d="M273.3,923.87a3.672,3.672,0,0,1-7.343,0" transform="translate(-233.763 -729.108)" fill="#ed3d8e"/>
      <path id="Caminho_2158" data-name="Caminho 2158" d="M603.745,532.1v50.26a3.965,3.965,0,0,1-3.945,3.954H539.278l1.872-9.885c5.066-21.315,6.742-44.834,7.143-51.657-.035.83-.068,1.661-.117,2.482.192.273.4.537.619.8.09.1.185.2.28.306s.22.231.326.339c.075.082.156.156.24.238l.095.088c.095.09.2.178.3.266.039.04.081.075.128.115.1.075.192.15.286.231s.245.185.368.28.258.183.387.266.264.17.4.251.293.176.441.257c.095.049.189.1.286.15a.377.377,0,0,0,.053.026q.441.22.9.41c.156.062.306.115.463.17a8.647,8.647,0,0,0,.954.293l.489.115c.163.035.332.062.5.088s.328.055.491.075h.013c.117.015.231.029.341.035s.22.02.326.026h.039c.11.013.22.013.328.022h.366a11.235,11.235,0,0,0,2.315-.238,11.59,11.59,0,0,0,7.777-5.63,11.387,11.387,0,0,0,1.15-2.824,3.673,3.673,0,0,0,.088-.365,11.8,11.8,0,0,0,.286-2.56,12.093,12.093,0,0,0,.2,2.163c.055.253.11.511.178.762a11.608,11.608,0,0,0,22.466,0,12.54,12.54,0,0,0,.271-1.421,12.047,12.047,0,0,0,.1-1.5,11.176,11.176,0,0,0,.1,1.531,10.8,10.8,0,0,0,.271,1.394,11.634,11.634,0,0,0,10.947,8.683Z" transform="translate(-445.655 -416.382)" fill="rgba(237,61,142,0.1)"/>
      <path id="Caminho_2159" data-name="Caminho 2159" d="M599.466,568.443v67.3a3.965,3.965,0,0,1-3.945,3.947H527.783c.5-4.777,1.421-10.22,2.551-16.191h60.555a3.965,3.965,0,0,0,3.945-3.954V569.28h.286a1.4,1.4,0,0,0,.169,0,11.437,11.437,0,0,0,4.176-.837Z" transform="translate(-436.743 -453.564)" fill="#ed3d8e"/>
      <rect id="Retângulo_1688" data-name="Retângulo 1688" width="5.775" height="5.775" rx="2.888" transform="translate(31.273 111.3)" fill="rgba(237,61,142,0.1)"/>
      <rect id="Retângulo_1689" data-name="Retângulo 1689" width="5.775" height="5.775" rx="2.888" transform="translate(41.982 111.3)" fill="rgba(237,61,142,0.1)"/>
      <rect id="Retângulo_1690" data-name="Retângulo 1690" width="5.775" height="5.775" rx="2.888" transform="translate(52.691 111.3)" fill="rgba(237,61,142,0.1)"/>
      <rect id="Retângulo_1691" data-name="Retângulo 1691" width="5.775" height="5.775" rx="2.888" transform="translate(31.273 120.218)" fill="rgba(237,61,142,0.1)"/>
      <rect id="Retângulo_1692" data-name="Retângulo 1692" width="5.775" height="5.775" rx="2.888" transform="translate(41.982 120.218)" fill="rgba(237,61,142,0.1)"/>
      <rect id="Retângulo_1693" data-name="Retângulo 1693" width="5.775" height="5.775" rx="2.888" transform="translate(52.691 120.218)" fill="rgba(237,61,142,0.1)"/>
      <rect id="Retângulo_1694" data-name="Retângulo 1694" width="5.775" height="5.775" rx="2.888" transform="translate(31.273 129.137)" fill="rgba(237,61,142,0.1)"/>
      <rect id="Retângulo_1695" data-name="Retângulo 1695" width="5.775" height="5.775" rx="2.888" transform="translate(41.982 129.137)" fill="rgba(237,61,142,0.1)"/>
      <rect id="Retângulo_1696" data-name="Retângulo 1696" width="5.775" height="5.775" rx="2.888" transform="translate(52.691 129.137)" fill="rgba(237,61,142,0.1)"/>
      <path id="Caminho_2160" data-name="Caminho 2160" d="M266.156,502.259H232.489a4.491,4.491,0,0,1-4.494-4.465V427.848a4.493,4.493,0,0,1,4.5-4.49h31.771l.845,1.57-.083.216a40.9,40.9,0,0,0-2.189,8.506,67.157,67.157,0,0,0-.675,11.305,234.323,234.323,0,0,0,2.525,29.187c1.331,9.249,3.024,18.151,4.644,26.475l.054.277-.208.19A4.457,4.457,0,0,1,266.156,502.259ZM229,497.789a3.488,3.488,0,0,0,3.487,3.463h33.666a3.452,3.452,0,0,0,2.128-.732c-1.605-8.254-3.277-17.07-4.6-26.235a235.307,235.307,0,0,1-2.535-29.312,68.171,68.171,0,0,1,.687-11.476A42.185,42.185,0,0,1,264,425l-.341-.633H232.492a3.49,3.49,0,0,0-3.49,3.484v69.94Z" transform="translate(-204.333 -341.087)" fill="rgba(87,21,232,0.5)"/>
      <path id="Caminho_2161" data-name="Caminho 2161" d="M286,475.931H260.124a1.322,1.322,0,0,0-1.322,1.322v9.691a1.322,1.322,0,0,0,1.322,1.322h25.484Z" transform="translate(-228.216 -381.844)" fill="rgba(237,61,142,0.1)"/>
      <path id="Caminho_2162" data-name="Caminho 2162" d="M291.446,481.762h-24.1a1.152,1.152,0,0,0-1.222,1.04v7.643a1.145,1.145,0,0,0,1.222,1.039h23.733Z" transform="translate(-233.892 -386.365)" fill="#ed3d8e"/>
      <rect id="Retângulo_1697" data-name="Retângulo 1697" width="28.792" height="5.143" rx="2.572" transform="translate(59.385 144.925) rotate(180)" fill="rgba(237,61,142,0.1)"/>
      <path id="Caminho_2163" data-name="Caminho 2163" d="M217.789,687.135a.763.763,0,0,1-.264.573,5.145,5.145,0,0,0-1.68,3.8v20.7a4.238,4.238,0,0,1-4.24,4.238h-.313a4.116,4.116,0,0,1-3.965-3.346,4.5,4.5,0,0,0-8.951.661v11.586c-.551.081-1.749.247-1.96.247s-3.551,3.837-5,5.524H173.046a1.934,1.934,0,0,1-1.934-1.934V713.234a4.5,4.5,0,0,1,4.5-4.5h9.566a4.172,4.172,0,0,0,4.185-4.185V691.51a5.147,5.147,0,0,1,5.143-5.143h22.517A.766.766,0,0,1,217.789,687.135Z" transform="translate(-160.235 -544.984)" fill="rgba(237,61,142,0.1)"/>
      <path id="Caminho_2164" data-name="Caminho 2164" d="M587.984,566.927a1,1,0,0,1,.355-.15.9.9,0,0,0-.355.15Z" transform="translate(-483.414 -452.272)" fill="#ed3d8e"/>
      <path id="Caminho_2165" data-name="Caminho 2165" d="M603.93,322.434h19.579a3.965,3.965,0,0,1,3.945,3.947v11.348a3.965,3.965,0,0,1-3.945,3.945H603.275a2.2,2.2,0,0,0-1.982,1.225,79.286,79.286,0,0,0,2.637-20.464Z" transform="translate(-493.732 -262.846)" fill="rgba(237,61,142,0.1)"/>
      <path id="Caminho_2166" data-name="Caminho 2166" d="M638.225,421.37v11.143a11.61,11.61,0,0,1-7.269,10.771,11.44,11.44,0,0,1-4.185.837,1.405,1.405,0,0,1-.17,0h-.286a11.634,11.634,0,0,1-10.947-8.682,10.845,10.845,0,0,1-.271-1.394,11.244,11.244,0,0,1-.1-1.531,12.074,12.074,0,0,1-.1,1.5,12.566,12.566,0,0,1-.271,1.421,11.608,11.608,0,0,1-22.466,0c-.068-.251-.123-.509-.179-.762a12.086,12.086,0,0,1-.2-2.163,11.815,11.815,0,0,1-.286,2.559,3.72,3.72,0,0,1-.088.366,11.387,11.387,0,0,1-1.137,2.815,11.59,11.59,0,0,1-7.769,5.628,11.237,11.237,0,0,1-2.315.238h-.365a1.631,1.631,0,0,1-.328-.022h-.04a2.616,2.616,0,0,1-.326-.026c-.106-.013-.22-.02-.341-.035h-.013c-.163-.02-.333-.046-.491-.075s-.339-.053-.5-.088l-.489-.115c-.328-.081-.641-.185-.954-.293-.156-.055-.306-.108-.463-.17q-.46-.185-.9-.41a.393.393,0,0,1-.053-.026c-.1-.049-.191-.1-.286-.15-.15-.081-.3-.163-.44-.258s-.264-.163-.4-.251-.258-.172-.388-.267-.245-.183-.368-.28-.189-.156-.286-.231c-.046-.04-.088-.075-.128-.114-.1-.088-.2-.176-.3-.266l-.095-.088c-.084-.082-.165-.156-.24-.238-.115-.108-.22-.22-.326-.339s-.19-.2-.28-.306c-.22-.26-.428-.524-.619-.8.048-.821.081-1.652.117-2.482.013-.258.026-.482.033-.694.049-1.322.088-2.661.117-3.993.15-8.191-.9-14.464-2.626-19.273l1.489-2.824c2.266,1.85,4.055,3.286,4.423,3.5,0,0,1.148-3.9,1.848-6.511,0,.04,1.621.189,1.621.231l4.722-.231c0,1.225-.674,4.185,3.095,4.689h42.95A9.678,9.678,0,0,1,638.225,421.37Z" transform="translate(-468.242 -328.404)" fill="rgba(237,61,142,0.1)"/>
      <path id="Caminho_2167" data-name="Caminho 2167" d="M569.58,436.124s3,9.176,2.26,23.691c0,0,2.663,4.366,9.471,4.366,6.321,0,9.361-4.3,11.035-9.912a.363.363,0,0,1,.7,0c.905,3.07,3.85,10.522,11.174,10.958,7.238.441,10.4-7.3,11.44-10.671a.363.363,0,0,1,.7.02c.731,2.925,3.172,9.031,10.907,9.993a.581.581,0,0,0,.15,0,9.923,9.923,0,0,0,3.661-.734,10.173,10.173,0,0,0,6.363-9.44V444.61a8.486,8.486,0,0,0-8.486-8.486Z" transform="translate(-469.146 -350.984)" fill="#ed3d8e"/>
      <path id="Caminho_2168" data-name="Caminho 2168" d="M570.928,628.071v12.645a8.189,8.189,0,0,1-8.165,8.165h-11c.645-3.3,1.322-6.709,1.982-10.233.108-.584.22-1.17.332-1.762q.245-1.322.489-2.672c.2-1.15.416-2.308.612-3.471.612-3.524,1.2-7.143,1.729-10.83h5.863A8.189,8.189,0,0,1,570.928,628.071Z" transform="translate(-455.334 -493.466)" fill="#ed3d8e"/>
      <rect id="Retângulo_1698" data-name="Retângulo 1698" width="28.114" height="28.977" rx="14.057" transform="translate(150.148 155.418) rotate(180)" fill="#ed3d8e"/>
      <path id="Caminho_2169" data-name="Caminho 2169" d="M573.071,678.731H562.024v-1.007h10.04v-.849a2.622,2.622,0,0,0-2.616-2.62h-.114v1.428a1.855,1.855,0,0,0-1.775.64.915.915,0,0,1-1.536-.6v-1.465h-1.792v-1.007h5.22a3.629,3.629,0,0,1,3.622,3.626Z" transform="translate(-463.288 -534.814)" fill="#fff"/>
      <path id="Caminho_2170" data-name="Caminho 2170" d="M552.493,722.592h11.033a1.4,1.4,0,0,1,1.385,1.375v.011a1.394,1.394,0,0,1-.416.98,1.377,1.377,0,0,1-.97.4H551.973l.11-.595c.079-.429.163-.868.243-1.292l.09-.472ZM563.52,723.6H553.327l-.012.063c-.043.228-.087.46-.131.692h10.337a.377.377,0,0,0,.265-.111l0,0a.381.381,0,0,0,.114-.263A.391.391,0,0,0,563.52,723.6Z" transform="translate(-455.496 -573.067)" fill="#fff"/>
      <path id="Caminho_2171" data-name="Caminho 2171" d="M556.449,694.3l.587.249a2.312,2.312,0,0,1-.783,4.438l-.632.032.111-.623.149-.833c.154-.862.314-1.753.462-2.634Zm.42,3.457a1.309,1.309,0,0,0,.326-1.838c-.107.613-.216,1.224-.323,1.821Z" transform="translate(-458.324 -551.133)" fill="#fff"/>
      <path id="Caminho_2172" data-name="Caminho 2172" d="M574.865,699.108a.916.916,0,0,1,.913.848v2.365a.915.915,0,1,1-1.829,0v-2.366a.915.915,0,0,1,.913-.848Z" transform="translate(-472.534 -554.862)" fill="#fff"/>
      <path id="Caminho_2173" data-name="Caminho 2173" d="M581.451,699.108a.915.915,0,0,1,.913.848v2.365a.915.915,0,1,1-1.828,0v-2.365a.915.915,0,0,1,.913-.848Z" transform="translate(-477.64 -554.862)" fill="#fff"/>
      <path id="Caminho_2174" data-name="Caminho 2174" d="M696.4,635.144a1.239,1.239,0,0,1,1.239,1.229v.112a9.56,9.56,0,0,0,.143,1.731,4.776,4.776,0,0,0,.469,1.41,2.432,2.432,0,0,0,4.234,0,4.776,4.776,0,0,0,.47-1.41,9.56,9.56,0,0,0,.144-1.729,1.237,1.237,0,0,1,1.237-1.242h0a1.24,1.24,0,0,1,.589.149l2.874,1.21.021.012a1.041,1.041,0,0,1,.427,1.4l0,0c-.235.439-.7,1.35-1.186,2.515a14.861,14.861,0,0,0,.426,12.294l1.095,2.189a1.559,1.559,0,0,1-1.4,2.252H694.4a1.561,1.561,0,0,1-1.421-2.2l1.036-2.278a14.869,14.869,0,0,0-1.453-14.832l-.04-.055a1.041,1.041,0,0,1,.427-1.561l.014-.006,2.929-1.08A1.229,1.229,0,0,1,696.4,635.144Zm.232,1.236a.232.232,0,0,0-.33-.207l-.019.009-.02.007-2.909,1.073a.034.034,0,0,0-.014.019.035.035,0,0,0,.005.029l.04.056a15.875,15.875,0,0,1,1.552,15.836l-1.035,2.277a.554.554,0,0,0,.5.782h12.776a.552.552,0,0,0,.495-.8l-1.095-2.19a15.867,15.867,0,0,1-.455-13.127h0c.5-1.2.983-2.144,1.226-2.6a.034.034,0,0,0-.006-.039l-2.87-1.209-.028-.016a.231.231,0,0,0-.116-.031.23.23,0,0,0-.23.231v0a7.613,7.613,0,0,1-.737,3.623,3.361,3.361,0,0,1-1.17,1.275,3.7,3.7,0,0,1-3.661,0,3.36,3.36,0,0,1-1.17-1.275,7.617,7.617,0,0,1-.736-3.623Z" transform="translate(-564.306 -505.274)" fill="#fff"/>
      <path id="Caminho_2175" data-name="Caminho 2175" d="M717.585,689.308h-9.658V688.3h9.658Z" transform="translate(-576.399 -546.483)" fill="#fff"/>
      <path id="Caminho_2176" data-name="Caminho 2176" d="M710.529,699.86l-.931-.382a22.382,22.382,0,0,0,1.3-8.962l1.006-.028a31.715,31.715,0,0,1-.146,4.032A19.363,19.363,0,0,1,710.529,699.86Z" transform="translate(-577.695 -548.179)" fill="#fff"/>
      <path id="Caminho_2177" data-name="Caminho 2177" d="M740.27,699.861a19.261,19.261,0,0,1-1.228-5.341,31.822,31.822,0,0,1-.145-4.032l1.006.028a24.12,24.12,0,0,0,1.3,8.961Z" transform="translate(-600.399 -548.179)" fill="#fff"/>
      <path id="Caminho_2178" data-name="Caminho 2178" d="M728.185,699.718h-1.007v-9.167h1.007Z" transform="translate(-591.324 -548.228)" fill="#fff"/>
      <path id="Caminho_2179" data-name="Caminho 2179" d="M483.859,897.729H522.42v-.123a3.859,3.859,0,0,0-3.859-3.856h-.066a3.851,3.851,0,0,1-3.852-3.857v-4.478H493.731s-1.947,9.962-2.711,11.493a1.65,1.65,0,0,1-2.2.85Z" transform="translate(-402.691 -699.295)" fill="#ed3d8e" opacity="0.54"/>
      <path id="Caminho_2180" data-name="Caminho 2180" d="M611.171,358.186a2.662,2.662,0,0,1,2.707-2.844,2.557,2.557,0,0,1,2.641,2.762,2.61,2.61,0,0,1-2.729,2.863A2.571,2.571,0,0,1,611.171,358.186Zm2.674,1.625h.02c.7,0,1.117-.681,1.117-1.667,0-.938-.436-1.645-1.136-1.645s-1.123.685-1.13,1.659S613.145,359.811,613.845,359.811Z" transform="translate(-501.39 -288.358)" fill="#fff"/>
      <path id="Caminho_2181" data-name="Caminho 2181" d="M641.627,358.494a1.416,1.416,0,0,1,.7.978c.062.2.121.429.176.659a.727.727,0,0,1-.7.905h-.013a.718.718,0,0,1-.694-.511c-.062-.2-.13-.449-.2-.749-.135-.645-.355-.788-.8-.788h-.238v1.322a.725.725,0,1,1-1.449,0v-4.185a.528.528,0,0,1,.469-.524c.368-.033.81-.062,1.293-.062a2.982,2.982,0,0,1,1.85.43,1.385,1.385,0,0,1,.531,1.176,1.458,1.458,0,0,1-.932,1.322Zm-1.762-.564h.381l.007,0c.551,0,.857-.273.857-.676s-.264-.641-.749-.641a2.717,2.717,0,0,0-.5.035Z" transform="translate(-522.511 -288.51)" fill="#fff"/>
      <path id="Caminho_2182" data-name="Caminho 2182" d="M663.729,359.8h-1.1a.5.5,0,1,1,0-1h.863a.593.593,0,1,0,0-1.183h-.905a.463.463,0,0,1,0-.925h1.029a.585.585,0,0,0,.59-.586v-.02a.59.59,0,0,0-.59-.592H661.28a.623.623,0,0,0-.619.625V360.5a.5.5,0,0,0,.5.5h2.564a.588.588,0,0,0,.586-.592v-.013a.588.588,0,0,0-.586-.592Z" transform="translate(-539.756 -288.472)" fill="#fff"/>
      <path id="Caminho_2183" data-name="Caminho 2183" d="M443.329,592.463v11.279a2.042,2.042,0,0,1-2.042,2.04H412.53a2.086,2.086,0,0,1-.59-.088.126.126,0,0,1-.013-.046,1.9,1.9,0,0,1-.137-.716V593.652a9.337,9.337,0,0,1,8.892-9.341c.156,0,.306-.013.463-.013h14.13a3.642,3.642,0,0,1,.381.013,9.132,9.132,0,0,1,1.811.245,7.137,7.137,0,0,1,5.863,7.907Z" transform="translate(-346.82 -465.855)" fill="rgba(237,61,142,0.1)"/>
      <path id="Caminho_2184" data-name="Caminho 2184" d="M403.424,255.532a3.987,3.987,0,0,1-.381-.271c-.707-.524-2.2-1.729-4-3.2-4.788-3.905-11.722-9.691-11.722-9.691l-.231.844-.932,3.381h-.013c-8.916,4.685-15.9.63-16.184.469l-.707-2.973-.191-.8-12.469,9.158-3.879,2.863c-2.02-5.566-13.81-40.869,9.083-50.974,2.987,2.559,9.121,6.423,16.26,5.687.359-.033.72-.082,1.066-.128a19.346,19.346,0,0,0,3.641-.714l.04-.013A25.717,25.717,0,0,0,393.1,203C417.739,214.908,403.424,255.532,403.424,255.532Z" transform="translate(-297.279 -170.256)" fill="#ed3d8e"/>
      <path id="Caminho_2185" data-name="Caminho 2185" d="M449.345,80.737s-.83.049-1.716.035c-1,0-2.061-.1-2.026-.416a18.957,18.957,0,0,0,.905-3.183.987.987,0,0,0-.39-.96,41.286,41.286,0,0,1-5.619-5.136c-.115-.13-.22-.251-.326-.374a3.563,3.563,0,0,1-.837-1.271c-.136-1.075-1.857,4.114-4.313,5.9,0,0-1.225,2.2-2.41,2.346A3.711,3.711,0,0,1,433.5,79.5a4.2,4.2,0,0,1,.055.5,1.332,1.332,0,0,1,0,.165c0,1.531-1.982,1.156-2.755.978a4.761,4.761,0,0,1-2.423-1.244V73.806s1.542-10.517,12.471-11.013a13.35,13.35,0,0,1,6.1,1.612.163.163,0,0,1,.029.02c2.251,1.762,4.218,4.742,4.489,9.845C451.46,74.275,452.345,80.737,449.345,80.737Z" transform="translate(-359.675 -61.56)" fill="#ed3d8e"/>
      <path id="Caminho_2186" data-name="Caminho 2186" d="M423.468,207.686a19.1,19.1,0,0,1-6.487-1.187,25.6,25.6,0,0,1-5.173-2.6,29.916,29.916,0,0,1-3.432-2.591c-.8-.7-1.242-1.172-1.26-1.192l.735-.688h0c.01.011.442.468,1.208,1.14a28.912,28.912,0,0,0,3.318,2.5,24.568,24.568,0,0,0,4.96,2.486,18.089,18.089,0,0,0,6.13,1.122,18.5,18.5,0,0,0,6.074-1.062,23.582,23.582,0,0,0,4.828-2.352,26.636,26.636,0,0,0,3.186-2.364c.736-.639,1.145-1.073,1.149-1.078l.736.688c-.018.019-.436.465-1.2,1.132a27.648,27.648,0,0,1-3.3,2.457,24.612,24.612,0,0,1-5.044,2.462A19.5,19.5,0,0,1,423.468,207.686Z" transform="translate(-343.197 -167.489)"/>
      <path id="Caminho_2187" data-name="Caminho 2187" d="M401.075,421.591a2.448,2.448,0,0,1-1.753-.744l0,0a2.454,2.454,0,0,1-.518-.823,2.124,2.124,0,0,1-.12-.4,2.241,2.241,0,0,1-.052-.491v-1.047a4.04,4.04,0,0,0-.478-1.905l-6.924-12.856-6.185-11.491-.312-.579.886-.478.313.579.593,1.1,5.592,10.389L399.04,415.7a5.05,5.05,0,0,1,.6,2.382v1.049h0a1.229,1.229,0,0,0,.03.275l0,.018a1.111,1.111,0,0,0,.065.22l.006.015a1.456,1.456,0,0,0,.307.49,1.437,1.437,0,0,0,1.027.435h4.354v-2.865a.54.54,0,0,1,0-.083s0-.009,0-.014a.519.519,0,0,1,0-.058,5.538,5.538,0,0,0-.142-1.095l-7.253-30.723-.894-3.777.98-.232.894,3.777,7.253,30.725a6.551,6.551,0,0,1,.162,1.152l.162.137-.151.242v.071l0,0v3.745h-5.361Z" transform="translate(-325.842 -308.82)"/>
      <path id="Caminho_2188" data-name="Caminho 2188" d="M482.591,418.4h-5.8v-3.807a6.309,6.309,0,0,1,.225-1.675l9.751-35.3.971.268-9.751,35.3a5.306,5.306,0,0,0-.189,1.407v2.8h4.8a1.456,1.456,0,0,0,1.455-1.455v-1.187a5.051,5.051,0,0,1,.624-2.426l13.854-25.138.882.486-13.854,25.138a4.041,4.041,0,0,0-.5,1.94v1.187A2.464,2.464,0,0,1,482.591,418.4Z" transform="translate(-397.209 -305.621)"/>
      <path id="Caminho_2189" data-name="Caminho 2189" d="M428.335,576.765c.115,0,.231,0,.344.014a9.3,9.3,0,0,1,1.9.258,9.853,9.853,0,0,1,7.543,9.586V597.9a2.545,2.545,0,0,1-2.542,2.543H406.8a2.357,2.357,0,0,1-.877-.168,2.532,2.532,0,0,1-1.643-2.376V586.624a9.853,9.853,0,0,1,7.557-9.586h0c.16-.037.3-.066.442-.092.167-.031.361-.065.542-.085a7.235,7.235,0,0,1,.809-.079h.045c.068,0,.137,0,.21-.006s.164-.007.253-.007h14.2Zm7.245,22.674a1.541,1.541,0,0,0,1.536-1.537V586.624a8.847,8.847,0,0,0-6.773-8.607,8.282,8.282,0,0,0-1.707-.231h-.029a3.2,3.2,0,0,0-.329-.011H414.14c-.068,0-.137,0-.21.006s-.164.007-.253.007h-.014a6.252,6.252,0,0,0-.695.069l-.022,0c-.154.017-.33.048-.483.076-.126.023-.252.05-.4.083a8.847,8.847,0,0,0-6.784,8.607V597.9a1.525,1.525,0,0,0,.994,1.433l.013,0a1.352,1.352,0,0,0,.507.1H435.58Z" transform="translate(-340.996 -460.016)"/>
      <path id="Caminho_2190" data-name="Caminho 2190" d="M513.78,552.284h-.67v-6.625a.788.788,0,0,0-.231-.554.778.778,0,0,0-.556-.228h-.995v-.67h1a1.445,1.445,0,0,1,1.025.423,1.464,1.464,0,0,1,.429,1.028Z" transform="translate(-423.987 -434.775)"/>
      <path id="Caminho_2191" data-name="Caminho 2191" d="M437.587,552.284h-.67v-6.625a1.454,1.454,0,0,1,1.451-1.452h1.212v.67h-1.211a.786.786,0,0,0-.782.783Z" transform="translate(-366.3 -434.775)"/>
      <path id="Caminho_2192" data-name="Caminho 2192" d="M510.07,558.589h-.67V553.48a.155.155,0,0,0-.154-.155h-.368v-.67h.368a.824.824,0,0,1,.824.826Z" transform="translate(-422.087 -441.324)"/>
      <path id="Caminho_2193" data-name="Caminho 2193" d="M445.28,558.589h-.67v-5.115a.821.821,0,0,1,.816-.819h.675v.67h-.673a.15.15,0,0,0-.148.15Z" transform="translate(-372.264 -441.324)"/>
      <path id="Caminho_2194" data-name="Caminho 2194" d="M504.284,890.893a28.907,28.907,0,0,1-.407,3.225c-.476,2.605-1.484,6.055-3.566,7.647-.707-.427-2.2-1.905-3.231-6.9a3.257,3.257,0,0,0,2.947,1.531,3.873,3.873,0,0,0,.394-.033c2.951-.449,3.769-4.9,3.863-5.471Z" transform="translate(-412.941 -703.542)"/>
      <path id="Caminho_2195" data-name="Caminho 2195" d="M444.854,890.893a28.935,28.935,0,0,1-.407,3.225c-.476,2.605-1.482,6.055-3.564,7.647-.709-.427-2.2-1.905-3.231-6.9A3.256,3.256,0,0,0,440.6,896.4a3.874,3.874,0,0,0,.394-.033c2.965-.449,3.769-4.9,3.863-5.471Z" transform="translate(-366.869 -703.542)"/>
      <path id="Caminho_2196" data-name="Caminho 2196" d="M425.8,69.381l-1.007-.011a12.2,12.2,0,0,1,24.4-.055v.061h-1.007v-.049a11.192,11.192,0,0,0-22.382.054Z" transform="translate(-356.897 -57.308)"/>
      <path id="Caminho_2197" data-name="Caminho 2197" d="M474.312,161.959a12.54,12.54,0,0,1-1.378-.077l.024-.214v-.454h.032l.018,0a11.866,11.866,0,0,0,1.3.073c.15,0,.292,0,.434-.012h.068v.67h-.026C474.623,161.959,474.465,161.959,474.312,161.959Z" transform="translate(-394.221 -137.861)"/>
      <path id="Caminho_2198" data-name="Caminho 2198" d="M452.923,104.407a5.779,5.779,0,0,1-1.146-.115h-.015l-.052-.011a5.882,5.882,0,0,1-3.025-1.742,9.976,9.976,0,0,1-1.811-2.722l0-.009a15.673,15.673,0,0,1-1.152-3.869l-.057-.354.315-.17a15.106,15.106,0,0,0,4.309-4.521c1.248-1.779,2.135-3.379,2.144-3.4l.441-.8.44.8a23.771,23.771,0,0,0,2.041,2.986,18.009,18.009,0,0,0,2.223,2.35,9.263,9.263,0,0,0,2.693,1.7l.361.138-.041.385a15.023,15.023,0,0,1-1.169,4.419,9.473,9.473,0,0,1-2.045,3.1,6.308,6.308,0,0,1-3.638,1.777l-.033,0H453.7a.73.73,0,0,1-.075.011A5.786,5.786,0,0,1,452.923,104.407Zm-1.053-1.122h.012l.052.011a4.759,4.759,0,0,0,1.556.07l.052-.019h.1a5.3,5.3,0,0,0,1.683-.521,5.562,5.562,0,0,0,1.353-.976A8.481,8.481,0,0,0,458.5,99.08v0a14.021,14.021,0,0,0,1.046-3.753,10.717,10.717,0,0,1-2.635-1.733,19.058,19.058,0,0,1-2.353-2.489,25.881,25.881,0,0,1-1.678-2.365c-.385.648-1,1.647-1.762,2.728a27.463,27.463,0,0,1-2.183,2.763,10.954,10.954,0,0,1-2.161,1.89,14.66,14.66,0,0,0,1.017,3.277,8.973,8.973,0,0,0,1.621,2.445A4.911,4.911,0,0,0,451.87,103.286Z" transform="translate(-373.079 -80.094)"/>
      <path id="Caminho_2199" data-name="Caminho 2199" d="M525.329,538.029l-1-.081c.011-.138.039-.328.068-.529.025-.175.052-.356.06-.463.587-7.35,2.34-16.333,4.37-26.734,1.614-8.268,3.443-17.639,4.88-27.374a237.491,237.491,0,0,0,2.7-30.428,67.938,67.938,0,0,0-.6-10.824,42.4,42.4,0,0,0-1.993-8.271l.947-.341a43.374,43.374,0,0,1,2.042,8.468,68.941,68.941,0,0,1,.613,10.986A238.534,238.534,0,0,1,534.7,483c-1.441,9.758-3.272,19.142-4.888,27.42-2.024,10.371-3.772,19.328-4.355,26.622-.011.138-.038.326-.067.526C525.364,537.74,525.338,537.922,525.329,538.029Z" transform="translate(-434.063 -348.55)"/>
      <path id="Caminho_2200" data-name="Caminho 2200" d="M482.6,727.213l-1.449-47.362,1.006-.031,1.449,47.362Z" transform="translate(-400.591 -539.909)"/>
      <path id="Caminho_2201" data-name="Caminho 2201" d="M492.295,902.407l-.169-.11a7.261,7.261,0,0,1-2.368-2.812,16.917,16.917,0,0,1-1.323-3.622,29,29,0,0,1-.794-5.042l1.005-.059a28.405,28.405,0,0,0,.765,4.853,15.924,15.924,0,0,0,1.241,3.4,6.589,6.589,0,0,0,1.81,2.283,1.889,1.889,0,0,0,.2-.134,4.247,4.247,0,0,0,.942-1.087,11.832,11.832,0,0,0,1.2-2.625,29.629,29.629,0,0,0,1.105-4.794l.995.155a29.987,29.987,0,0,1-1.213,5.157,11.975,11.975,0,0,1-1.374,2.856,4.715,4.715,0,0,1-1.194,1.248,1.78,1.78,0,0,1-.624.29Z" transform="translate(-405.622 -703.441)"/>
      <path id="Caminho_2202" data-name="Caminho 2202" d="M492.529,896.5l-.149,0h0a3.663,3.663,0,0,1-2.347-.94,6.1,6.1,0,0,1-1.406-1.9,11.663,11.663,0,0,1-.986-3.081l0-.023,0-.023a.894.894,0,0,1,0-.139l.753.057.245-.042a10.8,10.8,0,0,0,.894,2.8c.739,1.484,1.709,2.253,2.881,2.287h0a2.841,2.841,0,0,0,1.439-.3,2.925,2.925,0,0,0,1-.878,8.256,8.256,0,0,0,1.179-2.847l.976.246a9.155,9.155,0,0,1-1.347,3.2A3.72,3.72,0,0,1,492.529,896.5Z" transform="translate(-405.616 -703.151)"/>
      <path id="Caminho_2203" data-name="Caminho 2203" d="M387.591,535.741a1.131,1.131,0,0,1-.023-.18c-.013-.1-.031-.23-.049-.366-.033-.243-.068-.495-.085-.653a.693.693,0,0,1-.005-.115c-.58-7.291-2.328-16.247-4.352-26.615q-.2-1.049-.412-2.115c-1.622-8.337-3.318-17.252-4.652-26.525a235.4,235.4,0,0,1-2.535-29.318,68.177,68.177,0,0,1,.687-11.477,41.907,41.907,0,0,1,2.245-8.716l.939.363a40.894,40.894,0,0,0-2.189,8.506,67.161,67.161,0,0,0-.675,11.306,234.382,234.382,0,0,0,2.525,29.193c1.331,9.25,3.024,18.151,4.644,26.476q.207,1.065.412,2.114c2.033,10.417,3.789,19.413,4.37,26.768l0,.057,0,.016c.017.148.05.387.079.6.02.149.04.29.053.4l0,.027v.028a.111.111,0,0,0,0,.022Z" transform="translate(-318.658 -345.974)"/>
      <path id="Caminho_2204" data-name="Caminho 2204" d="M466.927,727.48l-1.006-.031,1.458-47.628,1.006.031Z" transform="translate(-388.785 -539.909)"/>
      <path id="Caminho_2205" data-name="Caminho 2205" d="M433.886,902.4l-.186-.026a1.688,1.688,0,0,1-.633-.264,4.4,4.4,0,0,1-1.2-1.2A11.435,11.435,0,0,1,430.5,898.1a29.583,29.583,0,0,1-1.212-5.136l.995-.155a29.277,29.277,0,0,0,1.1,4.761,11.352,11.352,0,0,0,1.187,2.578,3.348,3.348,0,0,0,1.131,1.168,6.571,6.571,0,0,0,1.821-2.291,15.937,15.937,0,0,0,1.24-3.4,28.366,28.366,0,0,0,.764-4.853l1.005.059a28.941,28.941,0,0,1-.794,5.042,16.922,16.922,0,0,1-1.323,3.622,7.26,7.26,0,0,1-2.368,2.812Z" transform="translate(-360.383 -703.441)"/>
      <path id="Caminho_2206" data-name="Caminho 2206" d="M433.782,896.389a3.56,3.56,0,0,1-2.987-1.518,9,9,0,0,1-1.32-3.143l.65-.164a12.6,12.6,0,0,0,.481,1.548,5.8,5.8,0,0,0,.726,1.358,2.9,2.9,0,0,0,2.574,1.246,2.845,2.845,0,0,0,1.821-.735,5.28,5.28,0,0,0,1.207-1.646,11,11,0,0,0,.906-2.826v-.006h0l0-.016.068.011.6-.039a.8.8,0,0,1,0,.105v.017l0,.017a11.5,11.5,0,0,1-.971,3.034,5.938,5.938,0,0,1-1.366,1.852,3.5,3.5,0,0,1-2.241.9Z" transform="translate(-360.53 -703.208)"/>
      <path id="Caminho_2207" data-name="Caminho 2207" d="M431.149,117.624h-3.183a3.178,3.178,0,0,1-3.177-3.175V109.3H425.8v5.145a2.171,2.171,0,0,0,2.17,2.168h3.183Z" transform="translate(-356.897 -97.617)"/>
      <path id="Caminho_2208" data-name="Caminho 2208" d="M509.85,118.435h-3.844v-1.007h3.844a1.3,1.3,0,0,0,.766-.538,2.327,2.327,0,0,0,.525-1.432v-4.685h1.007v4.685a3.306,3.306,0,0,1-.749,2.065A2.165,2.165,0,0,1,509.85,118.435Z" transform="translate(-419.861 -98.756)"/>
      <path id="Caminho_2209" data-name="Caminho 2209" d="M347.945,216.936l-.24-.608c-.007-.018-.7-1.791-1.574-4.643-.511-1.673-.982-3.386-1.4-5.092-.523-2.134-.964-4.263-1.311-6.329a61.6,61.6,0,0,1-.853-14.543,37.809,37.809,0,0,1,1.218-7.306,26.868,26.868,0,0,1,2.836-6.718,22,22,0,0,1,7.6-7.59,26.58,26.58,0,0,1,5.644-2.521,36.461,36.461,0,0,1,7.029-1.447h0a.6.6,0,0,0,.532-.548l.478-7.409,1,.065-.478,7.417A1.6,1.6,0,0,1,367,161.138a35.457,35.457,0,0,0-6.834,1.406,25.57,25.57,0,0,0-5.43,2.425,21,21,0,0,0-7.256,7.247,25.864,25.864,0,0,0-2.728,6.467,36.807,36.807,0,0,0-1.184,7.111,60.6,60.6,0,0,0,.842,14.3c.343,2.041.779,4.146,1.3,6.256.414,1.688.879,3.383,1.385,5.038.561,1.836,1.046,3.213,1.317,3.953l15.859-11.652-4.175-16.517.976-.247,4.341,17.174Z" transform="translate(-293.058 -130.858)"/>
      <path id="Caminho_2210" data-name="Caminho 2210" d="M519.287,216.8l-.529-.316c-.181-.108-.694-.473-3.054-2.383-1.384-1.12-3.23-2.632-5.486-4.493-3.84-3.168-7.59-6.293-7.627-6.324l-.252-.21,4.628-16.187.968.277-4.447,15.557c.9.753,4.105,3.417,7.372,6.112,4.961,4.093,7.043,5.758,7.9,6.412.238-.734.65-2.066,1.116-3.829.427-1.616.815-3.272,1.154-4.924.423-2.063.769-4.123,1.028-6.124a61.238,61.238,0,0,0,.331-14.065,38.718,38.718,0,0,0-1.362-7.046,27.893,27.893,0,0,0-2.813-6.463,23.049,23.049,0,0,0-3.072-4.023,22.545,22.545,0,0,0-4.1-3.366,25.883,25.883,0,0,0-5.263-2.561,34.253,34.253,0,0,0-6.567-1.6,1.607,1.607,0,0,1-1.363-1.4v0L497,152.19l1-.111.845,7.655a.6.6,0,0,0,.508.518,35.264,35.264,0,0,1,6.763,1.646,26.892,26.892,0,0,1,5.468,2.662,23.55,23.55,0,0,1,4.282,3.517,24.048,24.048,0,0,1,3.206,4.2,28.9,28.9,0,0,1,2.917,6.7,39.736,39.736,0,0,1,1.4,7.235,62.268,62.268,0,0,1-.338,14.306c-.263,2.025-.614,4.111-1.042,6.2-.343,1.669-.735,3.343-1.168,4.976-.737,2.784-1.324,4.459-1.349,4.529Z" transform="translate(-412.878 -130.779)"/>
      <path id="Caminho_2211" data-name="Caminho 2211" d="M452.974,398.6a17.321,17.321,0,0,1-2.84-.234,16.5,16.5,0,0,1-3.509-.986,9.988,9.988,0,0,1-1.3-.626l.348-.572a9.66,9.66,0,0,0,1.231.589,15.856,15.856,0,0,0,3.37.939,16.791,16.791,0,0,0,5.032.058,19,19,0,0,0,6.237-2.052l.312.593a19.657,19.657,0,0,1-6.478,2.126A17.658,17.658,0,0,1,452.974,398.6Z" transform="translate(-372.818 -319.655)"/>
      <path id="Caminho_2212" data-name="Caminho 2212" d="M439.734,127.1l-.269-.97a9.2,9.2,0,0,0,1.718-.668l.457.9A10.212,10.212,0,0,1,439.734,127.1Z" transform="translate(-368.275 -110.14)"/>
      <path id="Caminho_2213" data-name="Caminho 2213" d="M510.76,122.919a12.3,12.3,0,0,1-1.635-.459l.339-.948a11.293,11.293,0,0,0,1.5.422Z" transform="translate(-422.278 -107.082)"/>
      <path id="Elipse_253" data-name="Elipse 253" d="M.715-1.49a2.2,2.2,0,1,1-2.2,2.2A2.207,2.207,0,0,1,.715-1.49Zm0,3.74A1.535,1.535,0,1,0-.82.715,1.537,1.537,0,0,0,.715,2.25Z" transform="translate(71.292 22.511)"/>
      <path id="Elipse_254" data-name="Elipse 254" d="M.715-1.49a2.2,2.2,0,1,1-2.2,2.2A2.207,2.207,0,0,1,.715-1.49Zm0,3.74A1.535,1.535,0,1,0-.82.715,1.537,1.537,0,0,0,.715,2.25Z" transform="translate(87.085 22.511)"/>
      <path id="Caminho_2214" data-name="Caminho 2214" d="M439.84,156.068a1.436,1.436,0,1,1-.172-.786A1.761,1.761,0,0,1,439.84,156.068Z" transform="translate(-365.961 -132.843)"/>
      <path id="Caminho_2215" data-name="Caminho 2215" d="M510.1,156.068a1.434,1.434,0,1,1-.17-.786A1.8,1.8,0,0,1,510.1,156.068Z" transform="translate(-420.435 -132.843)"/>
      <path id="Caminho_2216" data-name="Caminho 2216" d="M441.868,134.692h-1.007V129.58h1.007Z" transform="translate(-369.357 -113.337)"/>
      <path id="Caminho_2217" data-name="Caminho 2217" d="M512.134,130.946h-1.007v-6.2h1.007Z" transform="translate(-423.831 -109.591)"/>
      <path id="Caminho_2218" data-name="Caminho 2218" d="M441.3,547.6h-.661a.484.484,0,0,0-.482.485v5.114a9.253,9.253,0,0,0-1.722.244v-6.625a1.119,1.119,0,0,1,1.117-1.117h1.2v.538A1.944,1.944,0,0,0,441.3,547.6Z" transform="translate(-367.478 -435.93)"/>
      <path id="Caminho_2219" data-name="Caminho 2219" d="M508.879,547.6h.661a.484.484,0,0,1,.482.485v5.114a9.206,9.206,0,0,1,1.72.244v-6.625a1.117,1.117,0,0,0-1.115-1.117h-1.2v.538a1.957,1.957,0,0,1-.544,1.361Z" transform="translate(-422.088 -435.93)"/>
      <path id="Caminho_2220" data-name="Caminho 2220" d="M348.408,938.973H259.4v-1.007h89.008Z" transform="translate(-228.68 -740.035)"/>
      <ellipse id="Elipse_255" data-name="Elipse 255" cx="0.705" cy="0.705" rx="0.705" ry="0.705" transform="translate(81.818 13.715)"/>
      <ellipse id="Elipse_256" data-name="Elipse 256" cx="0.705" cy="0.705" rx="0.705" ry="0.705" transform="translate(76.265 13.715)"/>
      <path id="Caminho_2221" data-name="Caminho 2221" d="M449.04,115.506c.41-.02,6.321,0,6.321,0l-1,3.267H450.7Z" transform="translate(-375.698 -102.419)" fill="#ed3d8e"/>
      <path id="Caminho_2222" data-name="Caminho 2222" d="M477.9,115.506c.408-.02,6.321,0,6.321,0l-1.676,3.267h-3.658Z" transform="translate(-398.072 -102.419)" fill="#ed3d8e"/>
      <path id="Caminho_2223" data-name="Caminho 2223" d="M449.024,114.007c1.852,0,4.475.009,4.5.009l.451,0-1.2,3.935h-4.123l-1.983-3.911.516-.025C447.234,114.014,447.377,114.007,449.024,114.007Zm4.049.677c-.834,0-2.659-.007-4.049-.007-.6,0-1,0-1.279,0l1.32,2.6h3.216Z" transform="translate(-373.861 -101.264)"/>
      <path id="Caminho_2224" data-name="Caminho 2224" d="M478.187,114.007c1.852,0,4.476.009,4.5.009l.546,0-2.019,3.934h-4.112l-1.182-3.915.428-.021C476.4,114.014,476.54,114.007,478.187,114.007Zm3.954.677c-.872,0-2.615-.007-3.954-.007-.668,0-1.1,0-1.371,0l.786,2.6h3.205Z" transform="translate(-396.539 -101.264)"/>
      <path id="Caminho_2225" data-name="Caminho 2225" d="M472.218,141.335q-.11,0-.229-.007a5.165,5.165,0,0,1-1.157-.217l.209-.636a4.543,4.543,0,0,0,1,.185,2.01,2.01,0,0,0,.722-.068.68.68,0,0,0,.425-.33l.595.308A1.586,1.586,0,0,1,472.218,141.335Z" transform="translate(-392.592 -121.618)"/>
      <path id="Caminho_2226" data-name="Caminho 2226" d="M507.81,346.806l-.224-.02c.011-.121.036-.3.063-.481s.057-.388.067-.511c.055-.7.124-1.42.205-2.153.552-5.321,1.654-11.453,2.552-16.2.493-2.63,1.021-5.354,1.518-7.906l.243-1.238c.57-2.906,1.16-5.91,1.728-8.994l.035-.186c.1-.515.2-1.047.3-1.577.163-.881.327-1.78.489-2.673q.073-.411.147-.823c.155-.865.316-1.76.465-2.645.667-3.839,1.232-7.381,1.729-10.827.385-2.651.7-5.057.964-7.358.6-5.057,1.049-10.04,1.321-14.81.131-2.4.221-4.812.266-7.167a68.288,68.288,0,0,0-.608-10.887A42.857,42.857,0,0,0,517.059,242l-.017-.047.023-.044,1.553-2.945.106.087c2.406,1.964,3.816,3.087,4.292,3.418.147-.435.626-1.889,1.2-4.041.03-.112.061-.224.093-.342.047-.173.1-.352.145-.538a79.166,79.166,0,0,0,2.64-20.434c-.142-7.631-1.82-13.939-4.989-18.749a22.8,22.8,0,0,0-7.232-6.99,26.678,26.678,0,0,0-5.177-2.42,34.92,34.92,0,0,0-6.364-1.518,1.217,1.217,0,0,1-1.027-1.056l.223-.027a.991.991,0,0,0,.837.86,35.138,35.138,0,0,1,6.4,1.528,26.9,26.9,0,0,1,5.22,2.44,23.025,23.025,0,0,1,7.3,7.058c3.193,4.846,4.884,11.194,5.026,18.868a79.4,79.4,0,0,1-2.646,20.494c-.049.187-.1.367-.146.541-.032.118-.063.23-.093.341-.694,2.593-1.248,4.177-1.254,4.193l-.045.129-.118-.07c-.325-.192-1.7-1.282-4.33-3.427l-1.4,2.659a43.109,43.109,0,0,1,2.005,8.343,68.524,68.524,0,0,1,.61,10.923c-.045,2.358-.135,4.772-.267,7.176-.272,4.775-.717,9.763-1.322,14.824-.263,2.3-.579,4.711-.965,7.364-.5,3.449-1.062,6.992-1.729,10.833-.149.886-.31,1.781-.465,2.647q-.074.412-.147.823c-.161.893-.326,1.793-.489,2.675-.1.53-.2,1.062-.3,1.576l-.035.186c-.569,3.085-1.158,6.09-1.729,9l-.243,1.238c-.5,2.551-1.024,5.274-1.517,7.9-1.708,9.03-2.26,13.391-2.549,16.182-.081.731-.149,1.453-.2,2.147-.011.131-.04.331-.068.526C507.846,346.512,507.82,346.692,507.81,346.806Z" transform="translate(-416.993 -157.355)"/>
      <path id="Caminho_2227" data-name="Caminho 2227" d="M292.04,718.85H277.364v-.9H292.04Z" transform="translate(-242.607 -569.47)" fill="#fff"/>
      <path id="Caminho_2228" data-name="Caminho 2228" d="M292.04,735.334H277.364v-.9H292.04Z" transform="translate(-242.607 -582.249)" fill="#fff"/>
      <path id="Caminho_2229" data-name="Caminho 2229" d="M292.04,751.817H277.364v-.9H292.04Z" transform="translate(-242.607 -595.027)" fill="#fff"/>
      <path id="Caminho_2230" data-name="Caminho 2230" d="M292.04,768.311H277.364v-.9H292.04Z" transform="translate(-242.607 -607.814)" fill="#fff"/>
      <path id="Caminho_2231" data-name="Caminho 2231" d="M212.258,811.6H197.582v-.9h14.676Z" transform="translate(-180.756 -641.371)" fill="#fff"/>
      <path id="Caminho_2232" data-name="Caminho 2232" d="M212.258,827.228H197.582v-.9h14.676Z" transform="translate(-180.756 -653.489)" fill="#fff"/>
      <path id="Caminho_2233" data-name="Caminho 2233" d="M212.258,842.869H197.582v-.9h14.676Z" transform="translate(-180.756 -665.615)" fill="#fff"/>
      <path id="Caminho_2234" data-name="Caminho 2234" d="M212.258,858.51H197.582v-.9h14.676Z" transform="translate(-180.756 -677.74)" fill="#fff"/>
      <path id="Caminho_2235" data-name="Caminho 2235" d="M292.04,784.794H277.364v-.9H292.04Z" transform="translate(-242.607 -620.592)" fill="#fff"/>
      <path id="Caminho_2236" data-name="Caminho 2236" d="M330.45,802.082h-3.537v-.9h3.537Z" transform="translate(-281.019 -633.995)" fill="#fff"/>
      <path id="Caminho_2237" data-name="Caminho 2237" d="M305.3,795.364H292.377V792.67a4.5,4.5,0,0,1,8.951-.661A4.134,4.134,0,0,0,305.3,795.364Z" transform="translate(-254.245 -623.905)" fill="#ed3d8e"/>
    </g>
  </g>
</svg>
