<svg xmlns="http://www.w3.org/2000/svg" width="328" height="271" viewBox="0 0 328 271">
  <g id="Grupo_5801" data-name="Grupo 5801" transform="translate(-0.195 -0.087)">
    <g id="Grupo_5799" data-name="Grupo 5799" transform="translate(0 0)">
      <g id="Retângulo_1675" data-name="Retângulo 1675" transform="translate(0.195 0.087)" fill="#fff" stroke="#d9e1e7" stroke-width="1">
        <rect width="328" height="271" rx="11" stroke="none"/>
        <rect x="0.5" y="0.5" width="327" height="270" rx="10.5" fill="none"/>
      </g>
    </g>
      <text id="SOS" transform="translate(163.195 239.087)" fill="#10182b" font-size="18" font-family="Inter-Bold, Inter" font-weight="700"><tspan x="-18" y="0"  style="font-family: 'Inter'; font-weight: bold;">SOS</tspan></text>
    <g id="Business_error___comment_review_account_profile_user_list_problem" data-name="Business, error _ comment, review, account, profile, user, list, problem" transform="translate(70.789 25.343)">
      <path id="Caminho_2650" data-name="Caminho 2650" d="M713.891,173.79c-.87-2.414-1.827-4.77-2.843-7a49.032,49.032,0,0,1-1.865-4.976,24.748,24.748,0,0,0-3.569-7.661l.668-.511a25.394,25.394,0,0,1,3.7,7.906,48.363,48.363,0,0,0,1.832,4.893c1.026,2.254,1.991,4.632,2.869,7.067Z" transform="translate(-569.233 -134.53)" fill="rgba(87,21,232,0.5)"/>
      <path id="Caminho_2651" data-name="Caminho 2651" d="M506.994,92.883c-.3-.3-.6-.616-.892-.917a45.281,45.281,0,0,0-3.51-3.373,21.951,21.951,0,0,0-4.625-2.991,32.268,32.268,0,0,0-7.166-2.443,34.2,34.2,0,0,0-3.955-.6,37.436,37.436,0,0,0-4.216-.152,42.468,42.468,0,0,0-4.487.333c-1.551.2-3.155.482-4.766.85-1.646.375-3.346.846-5.054,1.4-1.743.565-3.543,1.231-5.35,1.981l-.322-.777c1.828-.758,3.649-1.433,5.414-2,1.732-.561,3.456-1.038,5.127-1.419,1.638-.373,3.269-.664,4.848-.864a43.311,43.311,0,0,1,4.576-.339,38.29,38.29,0,0,1,4.311.156,35.042,35.042,0,0,1,4.052.62,33.112,33.112,0,0,1,7.353,2.507,27.919,27.919,0,0,1,8.376,6.537c.29.3.59.611.887.912Z" transform="translate(-377.356 -77.604)" fill="rgba(87,21,232,0.5)"/>
      <path id="Caminho_2652" data-name="Caminho 2652" d="M102.316,682.382c-1.773-2.506-3.432-5.106-4.933-7.728-1.478-2.584-2.842-5.26-4.054-7.953-1.194-2.653-2.273-5.4-3.206-8.152-.92-2.714-1.724-5.516-2.389-8.325-.656-2.767-1.2-5.618-1.6-8.473-.4-2.812-.688-5.7-.85-8.595-.159-2.848-.2-5.772-.127-8.691.074-2.876.263-5.824.564-8.762l.837.086c-.3,2.917-.487,5.844-.56,8.7-.074,2.9-.032,5.8.126,8.623.16,2.867.444,5.734.842,8.522.4,2.83.94,5.655,1.59,8.4.66,2.784,1.456,5.56,2.368,8.249.925,2.731,1.994,5.448,3.177,8.077,1.2,2.669,2.552,5.32,4.017,7.881,1.487,2.6,3.132,5.177,4.889,7.66Z" transform="translate(-79.205 -499.438)" fill="rgba(87,21,232,0.5)"/>
      <path id="Caminho_2653" data-name="Caminho 2653" d="M707.746,558.21a13.326,13.326,0,0,1,.194-2.944,21.146,21.146,0,0,1,.776-3.194,24.433,24.433,0,0,1,1.7-3.963,31.232,31.232,0,0,1,7.551-9.076,45.2,45.2,0,0,1,6.54-4.537,63.042,63.042,0,0,1,8.839-4.159c5.78-2.218,10.22-5.306,13.2-9.177a20.309,20.309,0,0,0,4.236-11.519,23.09,23.09,0,0,0-.663-6.664,25.128,25.128,0,0,0-2.367-6.069,22.935,22.935,0,0,0-3.616-4.948,18.5,18.5,0,0,0-2.129-1.89,14.847,14.847,0,0,0-2.261-1.416,22.678,22.678,0,0,1-7.665-6.577,39.2,39.2,0,0,1-5.007-8.823,51.86,51.86,0,0,1-2.72-8.529,26.52,26.52,0,0,1-.769-5.749v-.243h.841v.262c-.069,2.223.948,8.015,3.425,13.934a38.371,38.371,0,0,0,4.9,8.633,21.848,21.848,0,0,0,7.377,6.339,17.329,17.329,0,0,1,4.616,3.472,23.768,23.768,0,0,1,3.749,5.129,25.963,25.963,0,0,1,2.446,6.272,23.927,23.927,0,0,1,.686,6.907,21.151,21.151,0,0,1-4.409,11.99c-3.072,4-7.635,7.175-13.561,9.45a62.227,62.227,0,0,0-8.72,4.1,44.381,44.381,0,0,0-6.418,4.452,30.4,30.4,0,0,0-7.351,8.829,23.593,23.593,0,0,0-1.639,3.826,20.3,20.3,0,0,0-.745,3.067,12.688,12.688,0,0,0-.187,2.741Z" transform="translate(-570.904 -375.473)" fill="rgba(87,21,232,0.5)"/>
      <path id="Caminho_2654" data-name="Caminho 2654" d="M136.734,179.492H63.173A6.169,6.169,0,0,1,57,173.329V68.938a6.185,6.185,0,0,1,6.175-6.176H136.7a6.186,6.186,0,0,1,6.176,6.175h0v22.2a.421.421,0,0,1-.841,0v-22.2A5.344,5.344,0,0,0,136.7,63.6H63.176a5.344,5.344,0,0,0-5.335,5.336V173.328a5.328,5.328,0,0,0,5.332,5.322h73.56a4.987,4.987,0,0,0,1.887-.369.421.421,0,0,1,.317.779A5.825,5.825,0,0,1,136.734,179.492Z" transform="translate(-57 -62.763)"/>
      <rect id="Retângulo_1783" data-name="Retângulo 1783" width="79.869" height="108.864" rx="24.95" transform="translate(3.002 3.938)" fill="#ed3d8e"/>
      <rect id="Retângulo_1784" data-name="Retângulo 1784" width="71.338" height="20.383" rx="10.192" transform="translate(7.705 12.362)" fill="#ed3d8e"/>
      <circle id="Elipse_304" data-name="Elipse 304" cx="2.108" cy="2.108" r="2.108" transform="translate(40.829 16.73)" fill="rgba(237,61,142,0.1)"/>
      <path id="Caminho_2655" data-name="Caminho 2655" d="M233.186,175.592a5.891,5.891,0,1,1,11.782,0Z" transform="translate(-196.14 -147.216)" fill="rgba(237,61,142,0.1)"/>
      <path id="Caminho_2656" data-name="Caminho 2656" d="M220.55,322.365A11.36,11.36,0,1,0,231.9,333.719,11.36,11.36,0,0,0,220.55,322.365Zm0,19.969a1.658,1.658,0,1,1,1.658-1.658A1.658,1.658,0,0,1,220.55,342.334Zm1.954-11.722q.074-.53.15-1.053v.008c.023-.185.055-.378.087-.576.183-1.111.388-2.361-.751-3.016-1.08-.612-2.949-.468-3.606.7-.591,1.027-.238,2.582.05,3.856.081.357.157.692.205.987a42.233,42.233,0,0,0,1.191,5.487.823.823,0,0,0,1.442,0A42.839,42.839,0,0,0,222.5,330.612Z" transform="translate(-177.184 -267.78)" fill="rgba(237,61,142,0.1)"/>
      <path id="Caminho_2657" data-name="Caminho 2657" d="M183.04,259.674H127.571v-1.522H183.04Z" transform="translate(-112.732 -217.068)" fill="#fff"/>
      <path id="Caminho_2658" data-name="Caminho 2658" d="M183.04,285.634H127.571v-1.522H183.04Z" transform="translate(-112.732 -237.57)" fill="#fff"/>
      <path id="Caminho_2659" data-name="Caminho 2659" d="M183.04,452.851H127.571v-1.522H183.04Z" transform="translate(-112.732 -369.627)" fill="#fff"/>
      <path id="Caminho_2660" data-name="Caminho 2660" d="M218.55,477.41h-29.7v-1.522h29.7Z" transform="translate(-161.127 -389.022)" fill="#fff"/>
      <path id="Caminho_2661" data-name="Caminho 2661" d="M155.6,246.673s9.87-39.221,40.612-48.8l12.5-2.982s1.976-8.825,1.249-9.753A5.142,5.142,0,0,0,205,182.722c-2.736.412-9.811.544-11.622-8.1s4.882-29.205,22.275-32.279,17.8,9.7,17.8,9.7l-12.776,29.6,1.982,23.882.249,35.576Z" transform="translate(-134.867 -125.229)" fill="#fff"/>
      <g id="Grupo_5800" data-name="Grupo 5800" transform="translate(13.015 16.005)">
        <path id="Caminho_2662" data-name="Caminho 2662" d="M321.395,436.373c-.206.06-2.835.824-3.87,2.646a2.432,2.432,0,0,0-2.2-1.393H284.446a2.426,2.426,0,0,0-2.368,1.881L276,465.58c-.412-.08-.824-.13-1.253-.171l-14.35-3.581a2.551,2.551,0,0,0-3.025,1.622,2.423,2.423,0,0,0-.14.837,2.557,2.557,0,0,0,2.378,2.551l6.786.437c-6.536,3.076-14.488,8.937-21.125,14.321-6.458-10.112-.4-20.221,4.16-25.665-.587-6-3.563-19.932-18.409-19.553a54.186,54.186,0,0,1,19.394-15.943c27.068,30,58.035,5.473,58.692,4.945a54.47,54.47,0,0,1,12.289,11" transform="translate(-207.444 -361.233)" fill="#5715e8"/>
        <path id="Caminho_2663" data-name="Caminho 2663" d="M311.718,762.338v5.185H222.327v-7.344a22.672,22.672,0,0,0,10.478-2.12,34.527,34.527,0,0,0,10.977-8.308c3.2-3.524,4.964-8.409,7.006-12.658,3.066-6.4,7.128-10.956,13.573-12.887l-.412,1.772a2.436,2.436,0,0,0,2.368,2.986h31.033c-.618,5.358-3.225,34.618,14.368,33.382" transform="translate(-200.579 -601.132)" fill="#5715e8"/>
        <path id="Caminho_2664" data-name="Caminho 2664" d="M401.45,170.608a34.293,34.293,0,0,1-1.076,8.215,6.814,6.814,0,0,1-5.382,5.067,6.115,6.115,0,0,0-2.061-4.533,29.792,29.792,0,0,0-.047-4.756c-.08-1.045-.206-2.019-.338-2.9a10.751,10.751,0,0,0-.34-1.473,5.281,5.281,0,0,0-1.442-1.094c-1.91-1.076-5.842-2.219-13.126-.538a8.718,8.718,0,0,0-3.285,1.523.244.244,0,0,0-.058.049,10.005,10.005,0,0,1-2.359,1.77,1.982,1.982,0,0,1-2.617-.546c-.021-.021-.031-.039-.049-.06-.412-.538-.806-1.236-1.533-1.375-1.533-.288-2.279,1.236-2.473,2.518a5.289,5.289,0,0,0,.688,3.225,8.3,8.3,0,0,0,1.649,2.17,4.233,4.233,0,0,1,.468.536,1.047,1.047,0,0,0-.188.052,3.424,3.424,0,0,0-.412.169,5.885,5.885,0,0,0-3.2,5.374c0,.076-3.109.031-3.5,0a6.146,6.146,0,0,1-4.078-1.721c-3.029-3.245-3.015-8.061-1.77-11.828a49.221,49.221,0,0,1,4.645-10.282c4.259-6.961,10.867-12.1,19.234-12.557a27.727,27.727,0,0,1,6,.35,22.614,22.614,0,0,1,2.775.618c8.529,3.721,13.942,12.158,13.893,22.022" transform="translate(-304.665 -145.753)" fill="#5715e8"/>
        <path id="Caminho_2665" data-name="Caminho 2665" d="M527.487,610.966c-1.008,2.586-3.406,4.065-5.358,3.3s-2.718-3.472-1.712-6.058,3.406-4.068,5.357-3.3,2.72,3.474,1.712,6.06" transform="translate(-435.642 -506.757)" fill="#ed3d8e"/>
        <path id="Caminho_2666" data-name="Caminho 2666" d="M530.677,507.612a11.556,11.556,0,0,1-8.273-3.181c-8.92-8.5-5.811-30.986-5.674-31.939l1.507.216c-.032.226-3.136,22.664,5.218,30.621,2.57,2.448,6.036,3.271,10.3,2.447,8.684-1.679,15.3-17.75,15.378-37.382.116-27.467-12.536-59.4-48.393-66.648l.3-1.492c16.956,3.427,29.991,12.389,38.742,26.636,7.075,11.518,10.936,26.26,10.872,41.511-.086,20.345-7.227,37.056-16.612,38.87A17.79,17.79,0,0,1,530.677,507.612Z" transform="translate(-420.454 -345.297)"/>
        <path id="Caminho_2667" data-name="Caminho 2667" d="M283.856,597.657c-9.764-15.283,8.115-30.633,8.3-30.786l.982,1.164c-.171.145-17.04,14.645-8,28.8Z" transform="translate(-246.869 -476.88)"/>
        <path id="Caminho_2668" data-name="Caminho 2668" d="M537.218,680.5c-.287-.074-.579-.13-.87-.186-.248-.048-.5-.1-.743-.154a22.779,22.779,0,0,1-3.615-1.113,13.142,13.142,0,0,1-3.36-2.169,4.113,4.113,0,0,1-1.678-3.479,2.425,2.425,0,0,1,1.562-1.918,2.717,2.717,0,0,1,2.353.386,19.4,19.4,0,0,0,5.774,2.926c.355.109.715.212,1.079.308.108.029.224.069.346.111a2.5,2.5,0,0,0,.45.128l.087,1.52a2.7,2.7,0,0,1-1.035-.21l-.242-.079c-.378-.1-.758-.208-1.134-.324a20.907,20.907,0,0,1-6.219-3.149,1.265,1.265,0,0,0-.923-.193.907.907,0,0,0-.593.716,2.662,2.662,0,0,0,1.148,2.088,11.761,11.761,0,0,0,2.958,1.927,21.279,21.279,0,0,0,3.375,1.037c.238.055.468.1.7.144.321.062.642.125.959.206Z" transform="translate(-441.13 -559.391)"/>
        <path id="Caminho_2669" data-name="Caminho 2669" d="M530.281,651.442a3.784,3.784,0,0,1-2.6-3.321,3.545,3.545,0,0,1,1.477-3.47c.585-.339,1.824-.722,3.552.528,3.988,2.883,7.365,4.212,11.291,4.444a1.237,1.237,0,0,0,.416-.036c.724-.159.949-1.048,1.015-1.767a12.475,12.475,0,0,0-.264-3.376l1.5-.284a13.865,13.865,0,0,1,.284,3.8c-.159,1.732-.931,2.835-2.174,3.107a2.666,2.666,0,0,1-.876.075c-4.223-.249-7.84-1.663-12.08-4.729-.443-.32-1.278-.8-1.9-.445a2.065,2.065,0,0,0-.727,1.992,2.308,2.308,0,0,0,1.558,2.035Z" transform="translate(-441.705 -537.917)"/>
        <path id="Caminho_2670" data-name="Caminho 2670" d="M540.816,703.154a5.214,5.214,0,0,1-1.06-.109,21.113,21.113,0,0,1-6.628-2.21,5.53,5.53,0,0,1-2.172-1.958,3.783,3.783,0,0,1-.494-2.818,4.069,4.069,0,0,1-1.3-3.334,1.7,1.7,0,0,1,1.022-1.562c.423-.146,1.1-.136,1.934.734a2.528,2.528,0,0,0,.213.2l-.969,1.174a4.071,4.071,0,0,1-.342-.317,1.458,1.458,0,0,0-.4-.323c.071.071,0,.4.092.891a2.282,2.282,0,0,0,.982,1.561l.254.15c.291.115.432.176.579.237,1.9.605,3.844,1.232,5.795,1.869l-.437,1.458-.318-.087a40.345,40.345,0,0,1-5.637-1.84l-.043-.011a2.6,2.6,0,0,0,.375,1.243,4.13,4.13,0,0,0,1.6,1.4,19.676,19.676,0,0,0,6.177,2.046,3.753,3.753,0,0,0,1.047.071l.113,1.518Q541.01,703.154,540.816,703.154Z" transform="translate(-442.888 -574.982)"/>
        <path id="Caminho_2671" data-name="Caminho 2671" d="M627.988,656.036c-.278-.474-6.813-11.712-7.566-21.723-.448-6.037-2.145-6.8-2.854-6.85l.1-1.519c1.676.115,3.777,1.64,4.268,8.255.726,9.654,7.295,20.953,7.361,21.066Z" transform="translate(-512.715 -523.532)"/>
        <path id="Caminho_2672" data-name="Caminho 2672" d="M451.258,551.835H420.227a3.2,3.2,0,0,1-3.112-3.916l.412-1.783,10.52-45.1a3.173,3.173,0,0,1,3.106-2.47h30.883a3.195,3.195,0,0,1,3.122,3.868l-5.86,27.048-1.306,6.019-1.488-.323,2-9.233,5.164-23.833a1.673,1.673,0,0,0-1.634-2.024h-30.88a1.654,1.654,0,0,0-1.626,1.292l-10.52,45.1-.412,1.781a1.676,1.676,0,0,0,1.63,2.051h31.029Z" transform="translate(-354.346 -422.936)"/>
        <path id="Caminho_2673" data-name="Caminho 2673" d="M426.206,227.781s1.634-6.93,10.861-7.849,11.539,5.976,11.539,5.976l-.291.695s-12.131-4.867-18.83,2.079c0,0-2.413,1.094-3.281-.9" transform="translate(-361.59 -202.823)" fill="#ed3d8e"/>
        <path id="Caminho_2674" data-name="Caminho 2674" d="M361.025,620.344l-6.786-.447a3.3,3.3,0,1,1,1.016-6.5l14.354,3.586-.369,1.477-14.352-3.586a1.782,1.782,0,1,0-.547,3.507l6.784.447Z" transform="translate(-302.319 -513.542)"/>
        <path id="Caminho_2675" data-name="Caminho 2675" d="M350.639,434.094c-9.676,0-20.644-3.591-30.992-15.065l1.13-1.02c26.562,29.453,57.348,5.1,57.656,4.853l.958,1.183C379.192,424.207,366.695,434.094,350.639,434.094Z" transform="translate(-277.436 -359.318)"/>
        <path id="Caminho_2676" data-name="Caminho 2676" d="M247.646,512.975c-.567-5.8-3.422-19.239-17.642-18.866l-.04-1.522c15.5-.406,18.588,14.019,19.2,20.24Z" transform="translate(-206.611 -418.208)"/>
        <path id="Caminho_2677" data-name="Caminho 2677" d="M639.7,496.492l-1.323-.754c1.215-2.133,4.206-2.976,4.333-3.011l.405,1.467C643.089,494.2,640.6,494.91,639.7,496.492Z" transform="translate(-529.148 -418.325)"/>
        <path id="Caminho_2678" data-name="Caminho 2678" d="M251.993,929.592H118.9V928.07h133.1Z" transform="translate(-118.897 -762.131)"/>
        <path id="Caminho_2679" data-name="Caminho 2679" d="M524.038,298.738a6.15,6.15,0,0,1,2.061,4.727c0,3.235-2.248,5.852-5.026,5.852a4.227,4.227,0,0,1-.933-.109c3.235-2.473,3.89-10.47,3.89-10.47" transform="translate(-435.772 -265.125)" fill="#ed3d8e"/>
        <path id="Caminho_2680" data-name="Caminho 2680" d="M433.027,248.679a13.057,13.057,0,0,1-5.819-1.367l.678-1.363a11.546,11.546,0,0,0,9.472.365c8.572-3.58,8.281-14.24,7.343-20.276a10.816,10.816,0,0,0-.3-1.369,9.4,9.4,0,0,0-6.8-6.594,13.734,13.734,0,0,0-15.109,7.278l-1.363-.678a15.273,15.273,0,0,1,16.807-8.085,10.928,10.928,0,0,1,7.924,7.649,12.334,12.334,0,0,1,.345,1.567c1.005,6.474,1.269,17.933-8.269,21.915A13.083,13.083,0,0,1,433.027,248.679Z" transform="translate(-357.582 -199.96)"/>
        <path id="Caminho_2681" data-name="Caminho 2681" d="M465.4,243.729c-.385-.437-3.708-3.783-13.858-1.444a7.886,7.886,0,0,0-3,1.39l-1.078-1.076.24-.192A9.2,9.2,0,0,1,451.2,240.8c10.5-2.422,14.364.818,15.3,1.869l.029.033.114.146Z" transform="translate(-378.382 -218.677)"/>
        <path id="Caminho_2682" data-name="Caminho 2682" d="M349.161,181.129h-5.125c-4,0-7.206-3.538-8.613-7.045-1.928-4.81-.6-9.747.961-13.942a44.477,44.477,0,0,1,5.425-10.512c5.371-7.512,13.451-11.4,22.167-10.662q1.2.1,2.385.3c12.028,1.95,20.386,12.012,20.323,24.468a35.093,35.093,0,0,1-1.1,8.407,7.612,7.612,0,0,1-5.983,5.626l-.278-1.5a6.088,6.088,0,0,0,4.785-4.5,33.58,33.58,0,0,0,1.053-8.044c.058-11.687-7.773-21.127-19.046-22.955q-1.13-.185-2.269-.281c-8.168-.69-15.75,2.966-20.8,10.03a42.987,42.987,0,0,0-5.236,10.156c-1.53,4.12-2.707,8.528-.975,12.845,1.216,3.031,3.914,6.089,7.2,6.089h5.125Z" transform="translate(-289.14 -138.88)"/>
        <path id="Caminho_2683" data-name="Caminho 2683" d="M406.286,259.93a3.653,3.653,0,0,0-.387-.445,8.974,8.974,0,0,1-1.79-2.357,6.053,6.053,0,0,1-.768-3.687,4.234,4.234,0,0,1,1.462-2.761,2.434,2.434,0,0,1,1.9-.4,2.978,2.978,0,0,1,1.8,1.4l.193.258a1.28,1.28,0,0,0,.893.576c.955.079,2.226-1.1,3.068-1.879l.563.516.517.558c-1.145,1.061-2.651,2.457-4.274,2.322a2.743,2.743,0,0,1-1.97-1.16l-.217-.291c-.279-.381-.543-.741-.857-.8a.908.908,0,0,0-.738.142,2.676,2.676,0,0,0-.838,1.74,4.517,4.517,0,0,0,.613,2.766,7.471,7.471,0,0,0,1.492,1.96,5.2,5.2,0,0,1,.559.641Z" transform="translate(-343.492 -226.82)"/>
        <path id="Caminho_2684" data-name="Caminho 2684" d="M520.426,307.89a5,5,0,0,1-1.106-.129l.344-1.483a3.473,3.473,0,0,0,.765.09c2.347,0,4.26-2.284,4.26-5.091a5.423,5.423,0,0,0-1.789-4.144l.98-1.165a6.958,6.958,0,0,1,2.332,5.31C526.213,304.923,523.617,307.89,520.426,307.89Z" transform="translate(-435.125 -262.937)"/>
        <path id="Caminho_2685" data-name="Caminho 2685" d="M488.117,280.057a5.105,5.105,0,0,1-2.6-.819l.849-1.263a2.818,2.818,0,0,0,2.137.491c.043-.03.079-.2,0-.545-.843-3.418-.657-6.005.555-7.687a5.148,5.148,0,0,1,3.987-2.016,8.975,8.975,0,0,1,4.044,1.04l-.863,1.254a7.546,7.546,0,0,0-3.153-.775,3.6,3.6,0,0,0-2.781,1.387c-.925,1.284-1.033,3.509-.312,6.434a1.861,1.861,0,0,1-.6,2.156A2.17,2.17,0,0,1,488.117,280.057Z" transform="translate(-408.427 -241.023)"/>
        <path id="Caminho_2686" data-name="Caminho 2686" d="M477.8,333.27a3.393,3.393,0,0,1-1.078-.17,3.662,3.662,0,0,1-2.139-2.06l1.378-.646a2.218,2.218,0,0,0,1.233,1.26,2.6,2.6,0,0,0,1.793-.179l.709,1.347A4.42,4.42,0,0,1,477.8,333.27Z" transform="translate(-399.796 -290.125)"/>
        <path id="Caminho_2687" data-name="Caminho 2687" d="M470.9,284.5c-.105.913.251,1.7.8,1.766s1.074-.618,1.181-1.537-.253-1.7-.8-1.764S471.008,283.582,470.9,284.5Z" transform="translate(-396.874 -252.664)"/>
        <path id="Caminho_2688" data-name="Caminho 2688" d="M513.024,287.058c-.105.911.251,1.7.8,1.766s1.074-.618,1.179-1.537-.252-1.7-.8-1.764S513.129,286.141,513.024,287.058Z" transform="translate(-430.138 -254.685)"/>
        <path id="Caminho_2689" data-name="Caminho 2689" d="M460.534,267.812l-.826-1.279c4.361-2.815,6.469.325,6.49.357l-1.277.828.639-.414-.634.422C464.792,267.531,463.533,265.876,460.534,267.812Z" transform="translate(-388.048 -238.767)"/>
        <path id="Caminho_2690" data-name="Caminho 2690" d="M499.352,376.132H497.83V361.889h1.522Z" transform="translate(-418.154 -314.998)"/>
        <path id="Caminho_2691" data-name="Caminho 2691" d="M232.213,659.833l-1.047-1.1c.059-.056,5.979-5.655,13.539-11.784,8.592-6.97,15.755-11.824,21.291-14.427.858-.4,1.689-.756,2.5-1.055a14.181,14.181,0,0,1,6.243-.869,12.919,12.919,0,0,1,1.328.179l-.282,1.5a11.446,11.446,0,0,0-1.175-.159,12.661,12.661,0,0,0-5.578.777c-.777.288-1.57.629-2.387,1.009-5.422,2.55-12.481,7.338-20.977,14.23C238.152,654.217,232.272,659.778,232.213,659.833Z" transform="translate(-207.56 -527.161)"/>
        <path id="Caminho_2692" data-name="Caminho 2692" d="M156.894,464.01c-5.122,0-10.09-1.946-13.289-6.819-3.762-5.744-4.928-12.937-5.478-17.848-1.25-11.3,2.913-40.72,18.566-60.768a54.97,54.97,0,0,1,19.667-16.162,52.852,52.852,0,0,1,18.609-4.873l1.88-9.7,1.494.29-2.1,10.842-.584.04a51.474,51.474,0,0,0-18.644,4.773,53.464,53.464,0,0,0-19.121,15.723c-15.384,19.7-19.479,48.581-18.253,59.663.532,4.755,1.655,11.711,5.238,17.182,5.105,7.775,14.555,7.059,21.1,4.082a33.744,33.744,0,0,0,10.729-8.13c2.434-2.676,4.034-6.223,5.582-9.653.432-.956.859-1.9,1.3-2.821,3.464-7.234,7.926-11.456,14.041-13.287l.437,1.458c-5.675,1.7-9.839,5.667-13.1,12.487-.435.907-.858,1.843-1.284,2.789-1.6,3.538-3.248,7.2-5.845,10.052a35.252,35.252,0,0,1-11.223,8.489A23.8,23.8,0,0,1,156.894,464.01Z" transform="translate(-133.92 -303.905)"/>
        <path id="Caminho_2693" data-name="Caminho 2693" d="M646.039,912.357h-1.522V907.21h1.522Z" transform="translate(-533.997 -745.657)"/>
        <path id="Caminho_2694" data-name="Caminho 2694" d="M220.905,905.453h-1.522v-6.985h1.522Z" transform="translate(-198.254 -738.753)"/>
        <path id="Caminho_2695" data-name="Caminho 2695" d="M418.608,299.239a6.3,6.3,0,0,1-1.541,4.21,4.307,4.307,0,0,1-1.811.4c-2.776,0-5.026-2.617-5.026-5.852a6.287,6.287,0,0,1,1.543-4.208,4.285,4.285,0,0,1,1.811-.4C416.36,293.387,418.608,296.006,418.608,299.239Z" transform="translate(-348.972 -260.9)" fill="#ed3d8e"/>
        <path id="Elipse_305" data-name="Elipse 305" d="M2.161-3.62c3.188,0,5.781,2.967,5.781,6.613S5.348,9.607,2.161,9.607-3.62,6.64-3.62,2.993-1.027-3.62,2.161-3.62Zm0,11.7c2.348,0,4.258-2.284,4.258-5.091S4.509-2.1,2.161-2.1-2.1.186-2.1,2.993-.187,8.084,2.161,8.084Z" transform="translate(62.456 35.346)"/>
      </g>
      <path id="Caminho_2696" data-name="Caminho 2696" d="M631.245,75.436a16.316,16.316,0,1,0,10.975,20.3A16.316,16.316,0,0,0,631.245,75.436Zm-8.2,27.5a2.385,2.385,0,1,1,2.967-1.6A2.385,2.385,0,0,1,623.048,102.932Zm8.144-16.437q.047-.117.1-.241h-.006c.062-.146.128-.3.2-.454.667-1.525,1.528-3.491.285-4.786s-3.872-1.861-5.267-.521c-1.234,1.174-1.385,3.477-1.509,5.354-.034.515-.066,1-.117,1.417a60.693,60.693,0,0,0-.618,8.036,1.163,1.163,0,0,0,1.972.589A53.227,53.227,0,0,0,631.192,86.495Z" transform="translate(-493.935 -72.233)" fill="rgba(237,61,142,0.1)"/>
      <path id="Caminho_2697" data-name="Caminho 2697" d="M754.918,513.772a8.162,8.162,0,1,0,11.539-.1A8.162,8.162,0,0,0,754.918,513.772Zm10.237,10.062a1.193,1.193,0,1,1,.3-1.155A1.193,1.193,0,0,1,765.155,523.834Zm-5.054-6.944-.435-.567c-.082-.1-.165-.218-.25-.334-.478-.655-1.017-1.395-1.914-1.139a2.022,2.022,0,0,0-1.463,2.207c.23.82,1.214,1.427,2.015,1.921.219.135.425.262.6.383a30.083,30.083,0,0,0,3.41,2.155c.383.2.929-.354.723-.734A30.08,30.08,0,0,0,760.1,516.891Z" transform="translate(-606.319 -417.015)" fill="#ed3d8e"/>
      <path id="Caminho_2698" data-name="Caminho 2698" d="M872.435,172.106a6.518,6.518,0,1,0-4.389,2.372A6.518,6.518,0,0,0,872.435,172.106Zm-8.9-7.231a.953.953,0,1,1-.15.941A.953.953,0,0,1,863.54,164.875Zm4.533,5.135.4.428v-.012c.07.075.14.155.212.238.431.493.919,1.052,1.624.78a1.6,1.6,0,0,0,1-1.855c-.244-.636-1.07-1.044-1.743-1.375-.186-.091-.36-.177-.507-.261a24.281,24.281,0,0,0-2.883-1.463c-.313-.132-.713.35-.519.637A23.793,23.793,0,0,0,868.072,170.011Z" transform="translate(-691.836 -140.721)" fill="#ed3d8e"/>
      <path id="Caminho_2699" data-name="Caminho 2699" d="M587.376,298.053c2.3,3.915,2.195,6.7,1.6,11.222a2.058,2.058,0,0,0,3.116,2.019c13.272-7.624,25.661-1.595,41.486-5.333,5.811-1.364,13.056-4.191,18.022-8.737a14.822,14.822,0,0,0,2.528-8.28c0-12.364-16.9-22.4-37.736-22.4-13.355,0-25.088,4.121-31.8,10.33l-.018.019a14.749,14.749,0,0,0-2.638,8.242C581.928,289.571,585.226,294.381,587.376,298.053Z" transform="translate(-471.562 -223.696)" fill="rgba(237,61,142,0.1)"/>
      <path id="Caminho_2700" data-name="Caminho 2700" d="M616.9,244.776h0a59.284,59.284,0,0,1,20.8,3.73c6.174,2.307,10.645,5.24,13.671,8.966,3.776,4.645,5.856,12.5,2.275,17.9a32.761,32.761,0,0,1-14.788,11.777,48.728,48.728,0,0,1-18.738,3.413q-.976,0-1.951-.029c-1.816-.051-3.632-.173-5.447-.3-2.318-.156-4.715-.317-7.06-.317q-.925,0-1.851.036c-5.49.221-9.9,1.6-13.113,4.084a4.275,4.275,0,0,1-2.529,1.192,2.421,2.421,0,0,1-1.848-.906,3.8,3.8,0,0,1-.762-2.872,9.6,9.6,0,0,1,.6-2.047,8.847,8.847,0,0,0,.5-1.64c.409-2.416-1.277-4.691-2.908-6.891l-.236-.318c-3.276-4.445-4.9-8.464-4.966-12.288v-.326a17.6,17.6,0,0,1,5.157-11.759,31.9,31.9,0,0,1,11.04-7.069A57.506,57.506,0,0,1,616.9,244.776Zm3.227,44.265a47.221,47.221,0,0,0,18.155-3.3,31.227,31.227,0,0,0,14.1-11.211c3.18-4.8,1.246-11.878-2.188-16.1-2.85-3.51-7.11-6.291-13.022-8.5A57.769,57.769,0,0,0,616.9,246.3h0a56.772,56.772,0,0,0-21.567,4.223,30.435,30.435,0,0,0-10.525,6.717,16.063,16.063,0,0,0-4.734,10.711v.308c.06,3.483,1.587,7.216,4.669,11.4l.234.316c1.736,2.342,3.7,5,3.187,8.048a10.108,10.108,0,0,1-.578,1.925,8.324,8.324,0,0,0-.513,1.723,2.3,2.3,0,0,0,.428,1.692.86.86,0,0,0,.631.352,2.837,2.837,0,0,0,1.523-.782c3.582-2.776,8.287-4.257,14.1-4.492q.956-.039,1.912-.037c2.4,0,4.819.163,7.163.321,1.8.121,3.592.242,5.389.293Q619.174,289.042,620.128,289.042Z" transform="translate(-468.888 -206.505)"/>
      <circle id="Elipse_306" data-name="Elipse 306" cx="5.205" cy="5.205" r="5.205" transform="translate(160.844 55.954)" fill="#fff"/>
      <circle id="Elipse_307" data-name="Elipse 307" cx="5.205" cy="5.205" r="5.205" transform="translate(144.009 55.954)" fill="#fff"/>
      <circle id="Elipse_308" data-name="Elipse 308" cx="5.205" cy="5.205" r="5.205" transform="translate(126.847 55.954)" fill="#fff"/>
    </g>
  </g>
</svg>
