<svg xmlns="http://www.w3.org/2000/svg" xmlns:xlink="http://www.w3.org/1999/xlink" width="1920" height="372" viewBox="0 0 1920 372">
  <defs>
    <clipPath id="clip-path">
      <rect id="Retângulo_316" data-name="Retângulo 316" width="1920" height="372" fill="#fff" stroke="#707070" stroke-width="1"/>
    </clipPath>
  </defs>
  <g id="Grupo_de_máscara_3" data-name="Grupo de máscara 3" clip-path="url(#clip-path)">
    <g id="Grupo_3" data-name="Grupo 3" transform="translate(-2169.364 -1657.434)">
      <g id="Grupo_1" data-name="Grupo 1" transform="translate(2544.505 1906.305) rotate(133)">
        <path id="_15" data-name="15" d="M-54.1,270.053c-2.477-48.039,10.576-97.466,47.275-127.566,39.978-32.715,99.083-30.446,154.945-26.481,67.187,4.77,134.85,7.965,172.687-42.56,31.368-41.829,41.426-96,85.538-129.066C568.586-176.951,798.5,21.792,848.423,190.573c16.911,57.281,14.216,115.619-15.094,161.65-27.9,43.725-74,73.291-119.575,100.478-52.379,31.245-107.387,61.47-142.269,109.93-16.763,23.42-28.19,50.963-28.607,81.246-.349,33.516,12.492,67.527,30.557,99.427,34.581,60.908,85.935,115.11,112.477,179.053,21.386,51.42,23.868,108.45-16.748,142.381-33.384,27.833-85.653,34.65-134.562,24.334-59.1-12.412-112.444-50.984-153.014-94.512-47.362-50.881-79.327-109.616-110.365-167.93-36.324-68.311-76.542-132.559-125.6-195.45C59.977,521.511-47.344,400.974-54.1,270.053Z" transform="translate(0)" fill="#4206c4"/>
      </g>
      <path id="União_1" data-name="União 1" d="M454.049,1345.046c-46.714-62.278-80.654-131.684-113.723-200.647-44.033-91.916-92.786-178.364-152.251-262.988C84.248,733.846-45.848,571.657-54.04,395.5c-3-64.638,12.821-131.146,57.307-171.646,48.461-44.019,120.111-40.966,187.828-35.631,81.447,6.419,163.468,10.717,209.335-57.267C438.455,74.669,450.647,1.785,504.121-42.713,700.794-205.97,979.5,61.449,1040.018,288.552c20.5,77.074,17.233,155.572-18.3,217.508-33.816,58.836-89.7,98.617-144.952,135.2-63.5,42.042-130.176,82.71-172.462,147.916C683.988,820.69,670.135,857.75,669.63,898.5c-.423,45.1,15.142,90.86,37.042,133.784,8.489,16.6,17.816,32.829,27.554,48.87q5.632,7.656,10.959,15.415a151.371,151.371,0,0,1,12.518,22.07c31.951,50.018,64.768,99.624,85.314,154.568,25.925,69.188,28.933,145.926-20.3,191.581a138.641,138.641,0,0,1-47.353,28.309c4.769,37.514,15.311,71.173,36.218,97.874,86.685,110.742-65.353,160.8,23.951,268.78,71.964,87.27-165.5,209.7-165.5,209.7S541.58,1577.6,454.049,1345.046Z" transform="translate(2594.432 1975.655) rotate(133)" fill="none" stroke="#fff" stroke-width="2" opacity="0.3"/>
      <g id="Grupo_2" data-name="Grupo 2" transform="translate(2708.136 1965.703) rotate(133)">
        <path id="_17" data-name="17" d="M715.657,54.867C810.623,51.2,888.936,123.313,924.791,217.43c87.766,230.3-43.439,485.805-181.764,673.354-91.218,123.71-193.692,237.84-270.986,374.109-44.256,77.95-104.157,215.177-196.19,193.68-42.58-.4-84.432-21.367-111.662-59.7-67.844-95.777-43.609-236.094,9.2-346.711,63.966-134.051,167.367-240.486,223.375-379.54,52.562-130.442,50.5-274.087,99.364-405.415C535.722,161.248,612.01,59,715.657,54.867Z" transform="translate(1743.078 1472.488) rotate(120)" fill="none"/>
        <path id="_15-2" data-name="15" d="M-54.04,395.5c-3-64.639,12.821-131.146,57.307-171.646,48.462-44.019,120.111-40.966,187.828-35.631,81.446,6.419,163.468,10.718,209.335-57.266C438.455,74.669,450.647,1.785,504.12-42.712,700.794-205.97,979.5,61.449,1040.018,288.552c20.5,77.075,17.233,155.572-18.3,217.509-33.816,58.835-89.7,98.617-144.952,135.2-63.5,42.042-130.176,82.711-172.461,147.917-20.321,31.513-34.173,68.574-34.678,109.32-.423,45.1,15.142,90.86,37.041,133.784,41.919,81.955,104.172,154.886,136.346,240.924,25.924,69.189,28.933,145.926-20.3,191.581-40.469,37.45-103.83,46.623-163.118,32.743-71.64-16.7-136.307-68.6-185.486-127.171-57.413-68.463-96.161-147.494-133.787-225.959-44.032-91.916-92.785-178.365-152.251-262.988C84.248,733.845-45.847,571.656-54.04,395.5Z" transform="translate(0 0)" fill="none"/>
      </g>
    </g>
    <path id="União_5" data-name="União 5" d="M334.773,744.164c-25.4-24.122-40.9-52.379-55.839-80.505-19.884-37.491-43.769-72.195-75.445-105.276C148.158,500.708,76.055,438.528,91.779,360.9c5.772-28.485,25.072-59.229,61.446-80.594C192.836,257.073,243.081,253,290.269,250.23c56.755-3.326,114.176-7.637,154.88-41.315,33.736-27.886,51.249-61.186,94.461-85.008,158.878-87.438,323.117,10.216,338.14,106.508,5.071,32.683-6.823,67.8-39.487,98.008-31.074,28.7-75.413,50.61-118.913,71.051-49.992,23.491-102.064,46.614-139.9,78.786-18.2,15.54-32.516,33.053-37.848,51.192-5.805,20.064-.4,39.213,9.832,56.619a193.7,193.7,0,0,0,13.5,19.619q3.044,2.974,5.859,6.016a224.747,224.747,0,0,1,21.839,27.909c10.785,13.6,20.4,27.6,25.706,43.137q.33.961.633,1.928c15.535,28.42,31.345,56.707,58.331,80.8,47.717,42.619,127.775,64.219,177.68,105.41C895.165,904.2,398.9,1049.572,398.9,1049.572S368.213,840.829,334.773,744.164Z" transform="translate(1780.907 579.836) rotate(-124)" fill="none" stroke="#fff" stroke-width="2" opacity="0.241"/>
  </g>
</svg>
