<svg width="100" height="96" viewBox="0 0 100 96" fill="none" xmlns="http://www.w3.org/2000/svg">
<path fill-rule="evenodd" clip-rule="evenodd" d="M5.34761e-06 48.1992C0.0104904 27.0203 15.6366 9.85242 35.7426 3.19682C56.2324 -3.58585 79.8884 0.0707112 92.5174 17.5735C105.039 34.9272 100.719 58.3358 87.8803 75.4559C75.6839 91.719 55.1139 99.3609 35.6979 93.3389C15.4415 87.0562 -0.0104942 69.4075 5.34761e-06 48.1992Z" fill="#5715E8" fill-opacity="0.2"/>
<g clip-path="url(#clip0_42_118)">
<path d="M46.7851 69.028C42.1053 68.4092 37.7567 66.2756 34.4035 62.9532C31.0502 59.6307 28.8766 55.302 28.2146 50.6281C27.5527 45.9543 28.4387 41.1922 30.7374 37.0692C33.0362 32.9463 36.6212 29.689 40.9451 27.795C41.4202 27.6002 41.9526 27.5993 42.4284 27.7922C42.9041 27.9852 43.2854 28.3569 43.4906 28.8275C43.6957 29.2982 43.7084 29.8305 43.5258 30.3104C43.3433 30.7903 42.9802 31.1796 42.5141 31.395C39.8648 32.5448 37.5376 34.3265 35.7364 36.584C33.9351 38.8416 32.7146 41.5062 32.1818 44.3447C31.6489 47.1832 31.8199 50.1091 32.6797 52.8662C33.5396 55.6233 35.0621 58.1277 37.114 60.1601C39.166 62.1925 41.6848 63.691 44.45 64.5244C47.2152 65.3578 50.1426 65.5008 52.9758 64.9408C55.8091 64.3808 58.462 63.1348 60.7022 61.3121C62.9424 59.4893 64.7017 57.1452 65.8261 54.485C65.9266 54.2478 66.0729 54.0328 66.2565 53.8521C66.4402 53.6715 66.6576 53.5288 66.8964 53.4322C67.1352 53.3356 67.3906 53.2869 67.6482 53.289C67.9058 53.2911 68.1604 53.344 68.3976 53.4445C68.6348 53.545 68.8498 53.6913 69.0305 53.8749C69.2111 54.0586 69.3538 54.276 69.4504 54.5148C69.5471 54.7535 69.5957 55.009 69.5936 55.2666C69.5915 55.5242 69.5386 55.7788 69.4381 56.016C67.6092 60.3671 64.4019 63.9971 60.3092 66.3479C56.2165 68.6988 51.465 69.6404 46.7851 69.028V69.028ZM49.5721 49.573C49.3143 49.5729 49.059 49.5219 48.8209 49.4231C48.5828 49.3242 48.3665 49.1794 48.1844 48.9969C48.0022 48.8144 47.8579 48.5978 47.7595 48.3595C47.6611 48.1212 47.6107 47.8658 47.6111 47.608V27.965C47.6108 27.7072 47.6614 27.4519 47.7598 27.2136C47.8582 26.9754 48.0025 26.7588 48.1846 26.5764C48.3667 26.3939 48.583 26.2491 48.8211 26.1502C49.0591 26.0513 49.3143 26.0003 49.5721 26C55.2979 26.0056 60.787 28.2853 64.832 32.3376C68.8771 36.39 71.1469 41.8832 71.1421 47.609C71.1425 47.8668 71.0921 48.1222 70.9937 48.3605C70.8954 48.5988 70.751 48.8154 70.5689 48.9979C70.3867 49.1804 70.1704 49.3252 69.9323 49.4241C69.6942 49.5229 69.4389 49.5739 69.1811 49.574L49.5721 49.573ZM51.5331 45.644H67.1121C66.6699 41.6617 64.887 37.948 62.0562 35.1125C59.2253 32.2769 55.5147 30.4879 51.5331 30.039V45.644Z" fill="#5715E8"/>
</g>
<defs>
<clipPath id="clip0_42_118">
<rect width="43.142" height="43.21" fill="white" transform="translate(28 26)"/>
</clipPath>
</defs>
</svg>
