<svg xmlns="http://www.w3.org/2000/svg" width="1404.488" height="1319.881" viewBox="0 0 1404.488 1319.881">
  <path id="União_8" data-name="União 8" d="M703.786,708.913l.135.52s-49.212-52.847-108.641-16.1c-2.815,1.741-5.363,3.3-7.672,4.7A378.932,378.932,0,0,1,380.277,759.38C170.256,759.38,0,589.387,0,379.69S170.256,0,380.277,0C527.346,0,654.91,83.345,718.172,205.319c10.058,16.756,39.652,55.353,93.5,43.165,1.319-.3,2.583-.582,3.8-.854a274.593,274.593,0,0,1,76.895-10.917c151.361,0,274.064,122.513,274.064,273.641S1043.732,784,892.371,784A273.343,273.343,0,0,1,703.786,708.913Z" transform="matrix(-0.809, -0.588, 0.588, -0.809, 943.666, 1319.881)" fill="#5715e8"/>
</svg>
