<svg width="100" height="96" viewBox="0 0 100 96" fill="none" xmlns="http://www.w3.org/2000/svg">
<path fill-rule="evenodd" clip-rule="evenodd" d="M5.34761e-06 48.1992C0.0104904 27.0203 15.6366 9.85242 35.7426 3.19682C56.2324 -3.58585 79.8884 0.0707112 92.5174 17.5735C105.039 34.9272 100.719 58.3358 87.8803 75.4559C75.6839 91.719 55.1139 99.3609 35.6979 93.3389C15.4415 87.0562 -0.0104942 69.4075 5.34761e-06 48.1992Z" fill="#5715E8" fill-opacity="0.2"/>
<g clip-path="url(#clip0_42_121)">
<path d="M32.4009 32H68.3409C68.9369 32.0041 69.5256 32.1312 70.0702 32.3733C70.6148 32.6154 71.1036 32.9673 71.5059 33.407C72.306 34.2776 72.7472 35.4186 72.7409 36.601V59.958C72.7656 61.151 72.3164 62.305 71.4916 63.1673C70.6668 64.0296 69.5338 64.5297 68.3409 64.558H32.4019C31.2091 64.5297 30.0761 64.0296 29.2513 63.1673C28.4265 62.305 27.9773 61.151 28.0019 59.958V36.599C27.9775 35.4064 28.4268 34.2527 29.2513 33.3907C30.0758 32.5287 31.2084 32.0286 32.4009 32V32ZM68.7319 39.791V36.599C68.7358 36.4253 68.6748 36.2563 68.5609 36.125C68.5061 36.0581 68.427 36.0157 68.3409 36.007H32.4009C32.2409 36.007 32.0089 36.237 32.0089 36.598V39.791H68.7319ZM68.7319 43.799H32.0089V59.958C32.0089 60.319 32.2409 60.549 32.4019 60.549H68.3419C68.5019 60.549 68.7339 60.319 68.7339 59.958L68.7319 43.799Z" fill="#5715E8"/>
</g>
<defs>
<clipPath id="clip0_42_121">
<rect width="44.743" height="32.557" fill="white" transform="translate(28 32)"/>
</clipPath>
</defs>
</svg>
