<svg width="100" height="96" viewBox="0 0 100 96" fill="none" xmlns="http://www.w3.org/2000/svg">
<path fill-rule="evenodd" clip-rule="evenodd" d="M5.34761e-06 48.1992C0.0104904 27.0203 15.6366 9.85242 35.7426 3.19682C56.2324 -3.58585 79.8884 0.0707112 92.5174 17.5735C105.039 34.9272 100.719 58.3358 87.8803 75.4559C75.6839 91.719 55.1139 99.3609 35.6979 93.3389C15.4415 87.0562 -0.0104942 69.4075 5.34761e-06 48.1992Z" fill="#5715E8" fill-opacity="0.2"/>
<g clip-path="url(#clip0_42_119)">
<path d="M31.76 68C30.9972 67.9937 30.2432 67.8373 29.541 67.5396C28.8387 67.2419 28.202 66.8088 27.6671 66.265C27.1322 65.7212 26.7097 65.0774 26.4236 64.3703C26.1376 63.6632 25.9936 62.9067 26 62.144V32.858C25.9872 31.3174 26.5868 29.8348 27.667 28.7363C28.7471 27.6378 30.2194 27.0132 31.76 27H68.24C69.7805 27.0132 71.2528 27.6378 72.333 28.7363C73.4131 29.8348 74.0127 31.3174 74 32.858V62.144C74.0063 62.9067 73.8623 63.6632 73.5763 64.3703C73.2902 65.0774 72.8677 65.7212 72.3328 66.265C71.798 66.8088 71.1612 67.2419 70.459 67.5396C69.7567 67.8373 69.0027 67.9937 68.24 68H31.76ZM68.24 64.1C68.7533 64.0955 69.2439 63.8874 69.604 63.5214C69.964 63.1554 70.164 62.6614 70.16 62.148V50.048H63.86L59.162 64.1H68.24ZM29.84 32.858V62.144C29.8374 62.3985 29.8851 62.6511 29.9803 62.8872C30.0755 63.1233 30.2162 63.3383 30.3945 63.52C30.5729 63.7016 30.7852 63.8463 31.0195 63.9459C31.2538 64.0454 31.5054 64.0978 31.76 64.1H54.277L45.2 36.966L41.26 48.737C41.1321 49.1185 40.8874 49.45 40.5605 49.6846C40.2337 49.9192 39.8413 50.0449 39.439 50.044H31.76C31.5051 50.0498 31.2517 50.0047 31.0146 49.9112C30.7774 49.8177 30.5614 49.6777 30.3791 49.4996C30.1968 49.3214 30.0519 49.1086 29.9531 48.8737C29.8542 48.6387 29.8032 48.3864 29.8032 48.1315C29.8032 47.8766 29.8542 47.6243 29.9531 47.3893C30.0519 47.1544 30.1968 46.9416 30.3791 46.7634C30.5614 46.5853 30.7774 46.4453 31.0146 46.3518C31.2517 46.2583 31.5051 46.2132 31.76 46.219H38.06L43.181 30.906H31.76C31.5057 30.908 31.2543 30.96 31.0201 31.0592C30.786 31.1584 30.5737 31.3028 30.3954 31.484C30.2171 31.6653 30.0762 31.88 29.9809 32.1157C29.8856 32.3515 29.8377 32.6037 29.84 32.858V32.858ZM56.72 59.3L60.66 47.529C60.7876 47.1473 61.0322 46.8154 61.3591 46.5804C61.6859 46.3455 62.0784 46.2194 62.481 46.22H70.16V32.858C70.1622 32.6037 70.1143 32.3515 70.019 32.1157C69.9237 31.88 69.7829 31.6653 69.6045 31.484C69.4262 31.3028 69.2139 31.1584 68.9798 31.0592C68.7456 30.96 68.4942 30.908 68.24 30.906H47.22L56.72 59.3Z" fill="#5715E8"/>
</g>
<defs>
<clipPath id="clip0_42_119">
<rect width="48" height="41" fill="white" transform="translate(26 27)"/>
</clipPath>
</defs>
</svg>
