<svg xmlns="http://www.w3.org/2000/svg" width="449.691" height="523.99" viewBox="0 0 449.691 523.99">
  <g id="Business_Technology_startup___account_preferences_user_profile_settings_woman_graph_analysis" data-name="Business, Technology, startup _ account, preferences, user, profile, settings, woman, graph, analysis" transform="translate(0)">
    <path id="Caminho_21757" data-name="Caminho 21757" d="M651.006,700.069a.344.344,0,0,1,0-.11,1.133,1.133,0,0,0,0-.14v-.087a2.873,2.873,0,0,1-.058.29A.107.107,0,0,0,651.006,700.069Z" transform="translate(-510.652 -332.759)" fill="#fff"/>
    <path id="Caminho_21758" data-name="Caminho 21758" d="M571.637,660.449c4.882,4.946,9.717,10.448,14.871,15.446q2.126,2.083,4.35,4.028c1.646,1.44,3.345,2.81,5.084,4.063a7.5,7.5,0,0,1,.462-1.063c2.918-5.8,10.833-9.479,11.815-16.061.9-6.147-4.622-11.794-3.721-17.82,1.017-6.815,9.359-10.86,10.9-17.518.982-4.133.1-8.9.462-13.159a86.912,86.912,0,0,1,2.4-14.116c-.578-.041-1.156-.058-1.733-.076-11.728-.2-23.271,6.42-27.067,15.719-3.056,7.546-1.5,16.2-5.564,23.253a11.063,11.063,0,0,1-.826,1.312,24.768,24.768,0,0,1-1.733,2.124l-1.289,1.346c-.214.215-.451.412-.664.644s-.445.435-.659.667a29.955,29.955,0,0,0-5.425,6.223,5.352,5.352,0,0,0-.324.627,5.977,5.977,0,0,0-.323.668c-.121.249-.214.487-.3.72s-.2.58-.289.824c-.127.435-.248.848-.34,1.277a.771.771,0,0,1-.035.29c-.035.087,0,.069,0,.11a.223.223,0,0,0,0,.1.3.3,0,0,1-.035.18v.035A.275.275,0,0,1,571.637,660.449Z" transform="translate(-431.191 -293.482)" fill="#fff"/>
    <path id="Caminho_21759" data-name="Caminho 21759" d="M650.94,700.333h-.017l.017.018Z" transform="translate(-510.57 -333.006)" fill="#fff"/>
    <path id="Caminho_21760" data-name="Caminho 21760" d="M651.362,700.035c-.144-.128-.266-.214-.41-.342.121.11.266.232.393.36h.035Z" transform="translate(-511.026 -332.743)" fill="#fff"/>
    <path id="Caminho_21761" data-name="Caminho 21761" d="M667.5,643.2a49.579,49.579,0,0,1,0,6.077c3.524.865,7,1.817,10.4,2.966,2.114.7,4.189,1.474,6.263,2.356a69.954,69.954,0,0,1,16.113,9.229,19.011,19.011,0,0,1-2.242-5.956,2.045,2.045,0,0,0-.052-.284c-.9-4.347-.965-8.916-3-13.072-3.8-7.662-14.894-13.217-26.512-13.577h-.214c-1.057,0-2.132,0-3.206.052A65.652,65.652,0,0,1,667.5,643.2Z" transform="translate(-568.227 -304.487)" fill="#fff"/>
    <path id="Caminho_21762" data-name="Caminho 21762" d="M631,655.971a1.36,1.36,0,0,0,.053.285,18.893,18.893,0,0,0,2.273,5.974,18.262,18.262,0,0,0,1.359,1.855,45.255,45.255,0,0,0,6.152,5.351,4.756,4.756,0,0,0,.457.378c.123.11.27.233.4.36h.035a.1.1,0,0,1,0-.07.919.919,0,0,1,.059-.181v-.087a.168.168,0,0,0,0-.093v-.035a.378.378,0,0,1,.035-.18.225.225,0,0,1,0-.1.121.121,0,0,1,0-.11,2.19,2.19,0,0,1,.053-.291c.094-.431.217-.844.346-1.28.094-.267.181-.581.293-.826s.181-.471.3-.721a3.078,3.078,0,0,1,.328-.669,5.394,5.394,0,0,1,.329-.628,30.136,30.136,0,0,1,5.5-6.235c.217-.233.451-.471.668-.668s.457-.431.674-.646L651.624,656a25,25,0,0,0,1.758-2.129s-1.2-20.8-11.923-27.121C631.328,620.765,631,652.458,631,655.971Z" transform="translate(-501.276 -302.454)" fill="#fff"/>
    <path id="Caminho_21763" data-name="Caminho 21763" d="M650.434,699.992v.087a.344.344,0,0,1,0-.11,1.354,1.354,0,0,0,0-.139v-.087Q650.439,699.868,650.434,699.992Z" transform="translate(-509.775 -332.764)" fill="#fff"/>
    <path id="Caminho_21764" data-name="Caminho 21764" d="M692.02,642.382l5.174,14.58c2.123.7,4.2,1.471,6.287,2.351a75.762,75.762,0,0,0-11.461-16.93Z" transform="translate(-587.315 -309.188)" fill="#fff"/>
    <path id="Caminho_21765" data-name="Caminho 21765" d="M650.444,700.115a1.14,1.14,0,0,1,.052-.342C650.462,699.988,650.444,700.115,650.444,700.115Z" transform="translate(-509.844 -332.776)" fill="#fff"/>
    <path id="Caminho_21766" data-name="Caminho 21766" d="M608.017,617.5c-11.6,15.014-19.3,40.531-24.278,63.824q2.134,2.079,4.367,4.018Z" transform="translate(-428.076 -298.961)" fill="#fff"/>
    <path id="Caminho_21767" data-name="Caminho 21767" d="M649.473,660.48a51.57,51.57,0,0,1,2.134,18.731,37.587,37.587,0,0,1-.464,4.36Z" transform="translate(-510.491 -316.626)" fill="#fff"/>
    <path id="Caminho_21768" data-name="Caminho 21768" d="M650.918,702.248l-.3-2.059c0-.063,0-.127,0-.19v-.052l-.825-.06L649.6,700l-.251-.036.033-.1-1.49-.108a1.452,1.452,0,0,1-.03.15l-.137.54.279.482a1.469,1.469,0,0,0,.829.666Z" transform="translate(-508.666 -332.767)" fill="rgba(87,21,232,0.5)"/>
    <path id="Caminho_21769" data-name="Caminho 21769" d="M594.776,685.6l.6-1.733a6.05,6.05,0,0,1,.378-.863l.015-.028c1.125-2.229,3.1-4.149,5.183-6.183,3.024-2.946,6.151-5.993,6.79-10.258v0c.5-3.438-.749-6.6-1.959-9.666-1.114-2.817-2.166-5.478-1.77-8.11.467-3.114,2.759-5.667,5.185-8.371,2.406-2.681,4.894-5.453,5.72-9a31.607,31.607,0,0,0,.464-8.232,45.138,45.138,0,0,1,.031-5.1,85.248,85.248,0,0,1,2.365-13.86l.409-1.592-1.64-.115c-.621-.044-1.244-.062-1.793-.078h-.017c-.177,0-.358,0-.535,0a33.858,33.858,0,0,0-16.937,4.6,28.919,28.919,0,0,0-6.57,5.213,22.357,22.357,0,0,0-4.377,6.722v0a42.127,42.127,0,0,0-2.352,10.928c-.535,4.357-1.041,8.472-3.142,12.1l-.021.037a9.634,9.634,0,0,1-.725,1.146l0,0a23.449,23.449,0,0,1-1.63,1.991l-1.271,1.322c-.068.067-.145.139-.227.215-.143.132-.3.282-.466.456-.083.089-.178.182-.279.281s-.23.224-.352.354l-.123.118a30.273,30.273,0,0,0-5.518,6.356,6.766,6.766,0,0,0-.371.709,7.285,7.285,0,0,0-.349.719c-.138.288-.241.552-.333.8h0c-.049.13-.1.28-.149.424s-.1.286-.138.391l-.02.052-.033.111c-.123.42-.25.854-.349,1.312l-.031.143v.116a1.486,1.486,0,0,0-.046.261l-.024.036v.292l-.257.632.637.642c2.034,2.052,4.11,4.253,6.117,6.381,2.841,3.012,5.779,6.127,8.806,9.05,1.432,1.4,2.917,2.766,4.415,4.07,1.757,1.529,3.505,2.92,5.2,4.134Zm10.259-19.47c-.5,3.353-3.169,5.951-5.993,8.7a29.333,29.333,0,0,0-5.494,6.488c-1.2-.914-2.428-1.915-3.661-2.988-1.46-1.271-2.908-2.605-4.3-3.967l-.005-.005c-2.982-2.879-5.9-5.971-8.719-8.961-1.868-1.981-3.795-4.023-5.7-5.962.011-.076.016-.147.018-.21.075-.321.171-.649.272-.994l0-.009c.051-.137.1-.286.151-.43.043-.125.087-.254.121-.344v0c.083-.222.157-.408.25-.6l.019-.039.016-.04a4.542,4.542,0,0,1,.249-.511l.035-.062.029-.065a4.007,4.007,0,0,1,.241-.466l.013-.021a28.247,28.247,0,0,1,5.048-5.761l.182-.175.029-.031c.083-.09.18-.184.282-.284.121-.118.247-.24.377-.381.091-.1.2-.2.319-.309.1-.093.2-.19.312-.3l.017-.018,1.314-1.367a26.2,26.2,0,0,0,1.832-2.236,12.369,12.369,0,0,0,.919-1.451c2.372-4.111,2.935-8.693,3.479-13.124a40.06,40.06,0,0,1,2.17-10.23,19.633,19.633,0,0,1,3.847-5.893,26.185,26.185,0,0,1,5.951-4.716,31.2,31.2,0,0,1,15.551-4.227c.16,0,.321,0,.481,0h.039a88.043,88.043,0,0,0-2.037,12.674,47.837,47.837,0,0,0-.04,5.414,29.616,29.616,0,0,1-.391,7.516l0,.008c-.666,2.862-2.816,5.258-5.092,7.793-2.589,2.885-5.267,5.869-5.855,9.794-.5,3.36.734,6.494,1.932,9.524C604.366,660.722,605.431,663.416,605.035,666.129Z" transform="translate(-429.046 -292.756)" fill="rgba(87,21,232,0.5)"/>
    <path id="Caminho_21770" data-name="Caminho 21770" d="M660.046,691.764l1.816-2.05c-.1-.086-.182-.155-.257-.215-.058-.046-.108-.087-.156-.129l-.047-.041-.05-.037a3.406,3.406,0,0,1-.321-.268l-.037-.035-.04-.032c-.439-.356-.89-.712-1.326-1.056a31.654,31.654,0,0,1-4.566-4.087,16.926,16.926,0,0,1-1.225-1.683,17.489,17.489,0,0,1-2.072-5.475l-2.687.528a20.226,20.226,0,0,0,2.409,6.354l.025.041a19.641,19.641,0,0,0,1.444,1.987l.009.011a34.059,34.059,0,0,0,4.964,4.473c.417.329.848.67,1.263,1.005a6.174,6.174,0,0,0,.493.411c.075.065.143.119.2.168S660,691.721,660.046,691.764Z" transform="translate(-520.404 -323.274)" fill="rgba(87,21,232,0.5)"/>
    <path id="Caminho_21771" data-name="Caminho 21771" d="M699.768,657.379l2.682-.553c-.258-1.252-.452-2.561-.639-3.828a31.238,31.238,0,0,0-2.485-9.545l0,0a19.54,19.54,0,0,0-4.424-5.695,29.464,29.464,0,0,0-6.53-4.423,38.471,38.471,0,0,0-7.982-2.955,41.445,41.445,0,0,0-8.822-1.234h-.246c-.975-.016-2.13-.021-3.313.055l-1.724.111.5,1.653a64.043,64.043,0,0,1,2.406,11.879,47.939,47.939,0,0,1,0,5.866l2.734.169a50.715,50.715,0,0,0,0-6.233l0-.058a66.783,66.783,0,0,0-2.019-10.712c.488,0,.956,0,1.388.008h.215a38.706,38.706,0,0,1,8.217,1.152,35.729,35.729,0,0,1,7.413,2.742,26.734,26.734,0,0,1,5.924,4.006,16.828,16.828,0,0,1,3.813,4.886A28.726,28.726,0,0,1,699.1,653.4C699.295,654.7,699.494,656.051,699.768,657.379Z" transform="translate(-571.127 -303.742)" fill="rgba(87,21,232,0.5)"/>
    <path id="Caminho_21772" data-name="Caminho 21772" d="M666.238,676.923a.855.855,0,0,1-.016-.173h2.739a2.01,2.01,0,0,0-.065-.49c0-.01-.005-.02-.007-.031l0,.014-2.7.434c.015.094.033.17.045.22Z" transform="translate(-537.581 -323.099)" fill="rgba(87,21,232,0.5)"/>
    <path id="Caminho_21773" data-name="Caminho 21773" d="M640.038,670.313H642.6l-.538-1.458V668.7c0-.01,0-.021,0-.031l.1-.225-.046-.2.054-.224-.031-.062c.077-.331.176-.67.281-1.026.029-.086.057-.171.084-.254.051-.159.1-.323.148-.42.063-.14.113-.268.158-.381s.083-.212.127-.3l.036-.075.027-.079a1.673,1.673,0,0,1,.178-.366l.061-.094.045-.1a3.923,3.923,0,0,1,.24-.463l.014-.024a28.26,28.26,0,0,1,5.05-5.764l.179-.171.028-.03c.222-.239.417-.437.581-.588.2-.182.429-.4.707-.682l.021-.021,1.313-1.367a26.206,26.206,0,0,0,1.834-2.237l.29-.4-.028-.49a61.567,61.567,0,0,0-1.962-11.424,40.484,40.484,0,0,0-3.684-9.3,19.5,19.5,0,0,0-6.806-7.378,6.022,6.022,0,0,0-3.07-.939,4.907,4.907,0,0,0-3.514,1.546,10.955,10.955,0,0,0-2.233,3.491,40.131,40.131,0,0,0-2.477,9.858,125.334,125.334,0,0,0-1.111,16.32,2.122,2.122,0,0,0,.076.545l0,.018a20.227,20.227,0,0,0,2.406,6.362l.025.042a19.661,19.661,0,0,0,1.445,1.987l.009.011a34.057,34.057,0,0,0,4.964,4.473c.417.329.847.669,1.262,1a6.086,6.086,0,0,0,.485.405l.068.061c.08.071.163.144.226.207Zm.41-5.856c-.074.158-.129.3-.179.428-.037.094-.069.175-.1.25a6.7,6.7,0,0,0-.26.709c-.027.083-.052.161-.076.23l-.011.031-.012.042-.083.281-.432-.341A31.651,31.651,0,0,1,634.727,662a16.9,16.9,0,0,1-1.224-1.682,17.493,17.493,0,0,1-2.071-5.5l0-.01c-.008-.042-.017-.079-.025-.11a122.243,122.243,0,0,1,1.083-15.827,37.542,37.542,0,0,1,2.278-9.162,8.467,8.467,0,0,1,1.646-2.634,2.245,2.245,0,0,1,1.589-.756,3.366,3.366,0,0,1,1.67.554,16.828,16.828,0,0,1,5.823,6.374,37.773,37.773,0,0,1,3.424,8.673,60.936,60.936,0,0,1,1.834,10.374c-.421.55-.868,1.084-1.333,1.593l-1.27,1.322c-.246.245-.447.439-.615.593-.211.193-.45.434-.711.714l-.12.114a30.293,30.293,0,0,0-5.519,6.358,6.66,6.66,0,0,0-.357.677A4.418,4.418,0,0,0,640.448,664.457Z" transform="translate(-500.07 -301.461)" fill="rgba(87,21,232,0.5)"/>
    <path id="Caminho_21774" data-name="Caminho 21774" d="M666.238,676.923a.855.855,0,0,1-.016-.173h2.739a2.01,2.01,0,0,0-.065-.49c0-.01-.005-.02-.007-.031l0,.014-2.7.434c.015.094.033.17.045.22Z" transform="translate(-537.581 -323.099)" fill="rgba(87,21,232,0.5)"/>
    <path id="Caminho_21775" data-name="Caminho 21775" d="M648.222,700.626l2.716-.216a1.025,1.025,0,0,1-.011.106l.01-.065,0-.042h0v-.061c0-.111,0-.223,0-.334l-2.738.059v.146A1.717,1.717,0,0,0,648.222,700.626Z" transform="translate(-508.972 -332.875)" fill="rgba(87,21,232,0.5)"/>
    <path id="Caminho_21776" data-name="Caminho 21776" d="M701.208,659.668l2.435-1.254a96.159,96.159,0,0,0-5.428-9.3,62.72,62.72,0,0,0-6.23-7.963l-2,1.869a60,60,0,0,1,5.954,7.615A93.46,93.46,0,0,1,701.208,659.668Z" transform="translate(-586.277 -308.68)" fill="rgba(87,21,232,0.5)"/>
    <path id="Caminho_21777" data-name="Caminho 21777" d="M650.971,700.393s.017-.118.048-.312l-2.66-.623a2.551,2.551,0,0,0-.113.738Z" transform="translate(-509.071 -332.647)" fill="rgba(87,21,232,0.5)"/>
    <path id="Caminho_21778" data-name="Caminho 21778" d="M584.778,681.392a275.943,275.943,0,0,1,9.591-34.854,143.6,143.6,0,0,1,6.561-15.631,78.246,78.246,0,0,1,7.833-12.81l-2.169-1.672a80.974,80.974,0,0,0-8.116,13.261,146.357,146.357,0,0,0-6.689,15.932,278.677,278.677,0,0,0-9.69,35.2Z" transform="translate(-427.857 -298.519)" fill="rgba(87,21,232,0.5)"/>
    <path id="Caminho_21779" data-name="Caminho 21779" d="M651.565,683.862a39.406,39.406,0,0,0,.48-4.51,53.065,53.065,0,0,0-2.2-19.237l-2.6.852a50.318,50.318,0,0,1,2.065,18.228v.017a36.671,36.671,0,0,1-.447,4.2Z" transform="translate(-509.618 -316.476)" fill="rgba(87,21,232,0.5)"/>
    <path id="Caminho_21780" data-name="Caminho 21780" d="M752.4,601.326a1.632,1.632,0,0,0,.5-.079l-.84-2.607a1.1,1.1,0,0,1,.682,0l-.19-.062-.2,0a96.49,96.49,0,0,1-9.82-.748h0a36.488,36.488,0,0,1-10.146-2.834,48.349,48.349,0,0,1-9.073-5.307l-.008-.006c-1.62-1.162-3.3-2.5-5-3.975-1.457-1.268-2.9-2.6-4.3-3.967l-.005-.005c-2.982-2.879-5.9-5.971-8.719-8.961-1.854-1.966-3.767-3.994-5.661-5.92q-.03-.037-.063-.073l-.1-.1c-.082-.085-.208-.214-.375-.384-1.136-1.155-2.169-2.171-3.157-3.1a66.714,66.714,0,0,0-5.322-4.524,71.572,71.572,0,0,0-16.439-9.4c-2.027-.859-4.11-1.639-6.365-2.385h0c-3.105-1.044-6.453-1.995-10.535-2.992-5.483-1.329-11.158-2.414-16.646-3.463-6.32-1.208-12.855-2.457-19.225-4.1a107.153,107.153,0,0,1-18.719-6.523,75.719,75.719,0,0,1-17.842-11.547,69.792,69.792,0,0,1-13.151-15.384,72.546,72.546,0,0,1-8.26-18.556,82.79,82.79,0,0,1-3.138-21.068c-.279-12.683,1.079-26.71,4.152-42.881,2.719-14.305,6.353-28.262,10.151-42.492l-2.646-.706c-3.812,14.28-7.46,28.291-10.2,42.687-3.11,16.362-4.483,30.576-4.2,43.453a85.524,85.524,0,0,0,3.244,21.766,75.286,75.286,0,0,0,8.574,19.256,72.529,72.529,0,0,0,13.666,15.988,78.457,78.457,0,0,0,18.487,11.968c12.538,5.851,25.781,8.382,38.588,10.829,5.456,1.043,11.1,2.121,16.513,3.433,4,.978,7.279,1.908,10.309,2.927l.006,0c2.19.724,4.209,1.481,6.173,2.313l.018.008a68.832,68.832,0,0,1,15.818,9.041,64.015,64.015,0,0,1,5.1,4.338c.939.888,1.922,1.854,3,2.95a1.523,1.523,0,0,0,.1.124l.07.074.156.158.177.174c1.911,1.939,3.852,4,5.734,5.992,2.842,3.013,5.781,6.129,8.809,9.053,1.434,1.4,2.919,2.768,4.413,4.068,1.758,1.53,3.505,2.92,5.193,4.132,6.784,4.942,13.486,7.768,20.488,8.641a99.256,99.256,0,0,0,9.979.766A1.608,1.608,0,0,0,752.4,601.326Z" transform="translate(-557.508 -200.183)" fill="rgba(87,21,232,0.5)"/>
    <path id="Caminho_21781" data-name="Caminho 21781" d="M241.406,365.533c1.27-1.534,2.568-3.175,3.858-4.877,12.116-15.968,18.821-32.414,19.927-48.88,1.139-16.954-3.677-33.732-14.316-49.868a129.187,129.187,0,0,1-15.407-32.53c-1.462-4.692-2.708-9.5-3.7-14.292A174.9,174.9,0,0,1,228.7,192.5a226.641,226.641,0,0,1-.419-23.126,84.783,84.783,0,0,0-1.676-20.36,57.933,57.933,0,0,0-5.854-15.895,49.567,49.567,0,0,0-9.175-11.877,54.087,54.087,0,0,0-11.563-8.33,65.03,65.03,0,0,0-10.538-4.543,95.2,95.2,0,0,0-22.227-4.431,139.649,139.649,0,0,0-20.512-.176c-6.341.392-11.7,1.116-15.076,1.654-3.672.585-5.818,1.072-5.907,1.092l.61,2.67-.3-1.335.3,1.335a142.938,142.938,0,0,1,20.6-2.686,136.834,136.834,0,0,1,20.087.177,92.436,92.436,0,0,1,21.56,4.3l.01,0a62.283,62.283,0,0,1,10.1,4.352,51.349,51.349,0,0,1,10.978,7.905,46.831,46.831,0,0,1,8.668,11.222,55.2,55.2,0,0,1,5.572,15.145,82.051,82.051,0,0,1,1.616,19.7,229.393,229.393,0,0,0,.425,23.406,177.652,177.652,0,0,0,3.118,22.94c1.012,4.88,2.281,9.776,3.769,14.553a131.93,131.93,0,0,0,15.735,33.221,95.282,95.282,0,0,1,6.76,12.013,80.513,80.513,0,0,1,4.525,12.055,72.267,72.267,0,0,1,2.352,12.064,69.846,69.846,0,0,1,.234,12.045c-1.07,15.923-7.589,31.873-19.377,47.408-1.267,1.671-2.54,3.281-3.785,4.786Z" transform="translate(184.337 -87.69)" fill="rgba(87,21,232,0.5)"/>
    <rect id="Retângulo_38514" data-name="Retângulo 38514" width="299.795" height="288.015" rx="76.3" transform="translate(15.46 5.492)" fill="#ed3d8e"/>
    <path id="Retângulo_38515" data-name="Retângulo 38515" d="M255.625-2.325H46.97a49.652,49.652,0,0,0-9.933,1A49.033,49.033,0,0,0,19.408,6.095,49.436,49.436,0,0,0,1.549,27.782a49.061,49.061,0,0,0-2.873,9.255,49.654,49.654,0,0,0-1,9.933V243.256a49.654,49.654,0,0,0,1,9.933,49.032,49.032,0,0,0,7.418,17.629,49.435,49.435,0,0,0,21.687,17.858,49.06,49.06,0,0,0,9.255,2.873,49.656,49.656,0,0,0,9.933,1H255.625a49.656,49.656,0,0,0,9.933-1,49.033,49.033,0,0,0,17.629-7.418,49.436,49.436,0,0,0,17.858-21.687,49.059,49.059,0,0,0,2.873-9.255,49.653,49.653,0,0,0,1-9.933V46.97a49.653,49.653,0,0,0-1-9.933A49.033,49.033,0,0,0,296.5,19.408,49.435,49.435,0,0,0,274.813,1.549a49.059,49.059,0,0,0-9.255-2.873A49.652,49.652,0,0,0,255.625-2.325ZM46.97,289.813a46.907,46.907,0,0,1-9.384-.946,46.3,46.3,0,0,1-16.645-7A46.7,46.7,0,0,1,4.072,261.378a46.311,46.311,0,0,1-2.712-8.737,46.911,46.911,0,0,1-.946-9.384V46.97a46.911,46.911,0,0,1,.946-9.384,46.295,46.295,0,0,1,7-16.645A46.7,46.7,0,0,1,28.849,4.072,46.311,46.311,0,0,1,37.586,1.36,46.909,46.909,0,0,1,46.97.414H255.625a46.908,46.908,0,0,1,9.384.946,46.3,46.3,0,0,1,16.645,7,46.7,46.7,0,0,1,16.869,20.485,46.312,46.312,0,0,1,2.712,8.737,46.911,46.911,0,0,1,.946,9.384V243.256a46.911,46.911,0,0,1-.946,9.384,46.295,46.295,0,0,1-7,16.645,46.7,46.7,0,0,1-20.485,16.869,46.31,46.31,0,0,1-8.737,2.712,46.907,46.907,0,0,1-9.384.946Z" transform="translate(16.416 2.325)"/>
    <rect id="Retângulo_38516" data-name="Retângulo 38516" width="288.015" height="276.235" rx="76.3" transform="translate(21.35 11.382)" fill="#ed3d8e"/>
    <path id="Caminho_21782" data-name="Caminho 21782" d="M742.256,121H681.9c-8.22,0-14.9,7.148-14.9,15.944V276.416c0,8.814,6.679,15.979,14.9,15.979h60.357c8.2,0,14.859-7.166,14.859-15.979V136.944C757.115,128.148,750.459,121,742.256,121ZM682.363,288.087a11.113,11.113,0,0,1-11.088-11.064V136.372A11.112,11.112,0,0,1,682.363,125.3h59.389a11.136,11.136,0,0,1,11.111,11.075v140.64a11.137,11.137,0,0,1-11.111,11.075Z" transform="translate(-626.214 -94.893)" fill="rgba(237,61,142,0.1)"/>
    <path id="Caminho_21783" data-name="Caminho 21783" d="M741.256,440H680.9c-8.22,0-14.9,7.13-14.9,15.9v21.16c0,8.8,6.679,15.945,14.9,15.945h60.356c8.2,0,14.859-7.147,14.859-15.945V455.9C756.115,447.13,749.453,440,741.256,440Zm-59.893,48.717a11.093,11.093,0,0,1-11.088-11.041V455.333a11.1,11.1,0,0,1,11.088-11.047h59.389a11.123,11.123,0,0,1,11.111,11.047v22.343a11.117,11.117,0,0,1-11.111,11.041Z" transform="translate(-624.625 -226.006)" fill="rgba(237,61,142,0.1)"/>
    <path id="Caminho_21784" data-name="Caminho 21784" d="M408.11,460.246l88.246-1.262a3.537,3.537,0,0,0,3.526-3.545,3.2,3.2,0,0,0-.138-.947,3.6,3.6,0,0,0-3.5-2.491L408,453.252a6.453,6.453,0,0,1,1.069,3.342A6.522,6.522,0,0,1,408.11,460.246Z" transform="translate(-216.433 -230.938)" fill="#ed3d8e"/>
    <path id="Caminho_21785" data-name="Caminho 21785" d="M584.168,458.556a3.615,3.615,0,0,0,3.475,2.512l6.37-.09A6.48,6.48,0,0,1,593.9,454l-6.37.09A3.556,3.556,0,0,0,584,457.632,3.272,3.272,0,0,0,584.168,458.556Z" transform="translate(-414.226 -231.76)" fill="rgba(237,61,142,0.1)"/>
    <path id="Caminho_21786" data-name="Caminho 21786" d="M445.139,482.739a3.586,3.586,0,0,0,3.467,2.507l87.687-1.256a6.5,6.5,0,0,1-.965-6.99l-86.8,1.211a3.555,3.555,0,0,0-3.525,3.56A3.246,3.246,0,0,0,445.139,482.739Z" transform="translate(-274.637 -241.214)" fill="rgba(237,61,142,0.1)"/>
    <path id="Caminho_21787" data-name="Caminho 21787" d="M408,483.068l7.736-.113a3.5,3.5,0,0,0,3.455-3.52,3.638,3.638,0,0,0-.141-.961A3.481,3.481,0,0,0,415.656,476l-6.893.107a6.72,6.72,0,0,1,.667,2.659A6.478,6.478,0,0,1,408,483.068Z" transform="translate(-135.741 -240.803)" fill="#ed3d8e"/>
    <path id="Caminho_21788" data-name="Caminho 21788" d="M408,508.246l81.878-1.176a3.582,3.582,0,0,0,3.526-3.589,3.137,3.137,0,0,0-.15-.936A3.6,3.6,0,0,0,489.785,500l-81.756,1.187a6.612,6.612,0,0,1,0,7.059Z" transform="translate(-209.954 -250.667)" fill="#ed3d8e"/>
    <path id="Caminho_21789" data-name="Caminho 21789" d="M552.121,507.039a3.584,3.584,0,0,0,3.461,2.617l12.842-.172,11.417-.16a7.091,7.091,0,0,0,0-7.325l-11.63.178-12.692.189A3.628,3.628,0,0,0,552,506.074,3.534,3.534,0,0,0,552.121,507.039Z" transform="translate(-382.225 -251.489)" fill="rgba(237,61,142,0.1)"/>
    <path id="Caminho_21790" data-name="Caminho 21790" d="M564.068,459.423A6.772,6.772,0,1,0,563,456.014,6.773,6.773,0,0,0,564.068,459.423Z" transform="translate(-384.391 -229.705)" fill="#fff"/>
    <path id="Caminho_21791" data-name="Caminho 21791" d="M569.009,458.077a4.3,4.3,0,0,0,1.138,2.175,7.458,7.458,0,0,0,.929.847c.185.128,1.144.876,1.329.783a5.755,5.755,0,0,0,3.05-3.707,2.628,2.628,0,0,0,0-.719A1.775,1.775,0,0,0,573.667,456a1.8,1.8,0,0,0-1.412.76,1.886,1.886,0,0,0-1.471-.655,1.866,1.866,0,0,0-1.326.611A1.772,1.772,0,0,0,569.009,458.077Z" transform="translate(-386.857 -232.582)" fill="#ed3d8e" opacity="0.72"/>
    <path id="Caminho_21792" data-name="Caminho 21792" d="M426.588,481.112a6.769,6.769,0,0,0,11.953-4.581,6.946,6.946,0,0,0-.68-2.732A6.782,6.782,0,0,0,431.525,470a6.794,6.794,0,0,0-4.955,11.125Z" transform="translate(-165.11 -238.337)" fill="#fff"/>
    <path id="Caminho_21793" data-name="Caminho 21793" d="M431.015,479.071a4.337,4.337,0,0,0,1.142,2.176,6.351,6.351,0,0,0,.928.849c.178.128,1.142.884,1.32.785a5.761,5.761,0,0,0,3.05-3.717,2.636,2.636,0,0,0,0-.721,1.762,1.762,0,0,0-1.374-1.4,3.362,3.362,0,0,1-3.989.121,1.737,1.737,0,0,0-1.064,1.909Z" transform="translate(-167.576 -241.214)" fill="#ed3d8e" opacity="0.72"/>
    <path id="Caminho_21794" data-name="Caminho 21794" d="M553.1,507.5a6.787,6.787,0,0,0,12.446-3.962,6.879,6.879,0,0,0-1.011-3.348A6.786,6.786,0,1,0,553.1,507.5Z" transform="translate(-366.911 -249.434)" fill="#fff"/>
    <path id="Caminho_21795" data-name="Caminho 21795" d="M558.014,506.066a4.327,4.327,0,0,0,1.142,2.182,6.316,6.316,0,0,0,.928.849c.178.128,1.142.879,1.32.785a5.775,5.775,0,0,0,3.05-3.717,2.64,2.64,0,0,0,0-.721,1.762,1.762,0,0,0-1.374-1.4,3.359,3.359,0,0,1-3.986.122,1.739,1.739,0,0,0-1.069,1.9Z" transform="translate(-369.378 -252.311)" fill="#ed3d8e" opacity="0.72"/>
    <path id="Caminho_21796" data-name="Caminho 21796" d="M455.3,140.538l-.151,20.97a14.19,14.19,0,0,1-13.773,14.017l-20.807.359A13.343,13.343,0,0,1,407,162.348l.157-20.97a14.173,14.173,0,0,1,13.767-14.011L441.732,127A13.343,13.343,0,0,1,455.3,140.538Z" transform="translate(-171.259 -97.359)" fill="#fff"/>
    <path id="Caminho_21797" data-name="Caminho 21797" d="M453.818,155.351l-.11,15.066a12.257,12.257,0,0,1-11.927,12.077l-18.021.31a11.631,11.631,0,0,1-8.363-3.363,11.459,11.459,0,0,1-3.4-8.3v-1.018c2.531-5.141,7.461-12.835,12.744-8.235,7.583,6.613,11.052,1.581,15.472-4.911C443.907,151.544,449.52,147.576,453.818,155.351Z" transform="translate(-172.725 -107.223)" fill="#ed3d8e"/>
    <ellipse id="Elipse_313" data-name="Elipse 313" cx="4.974" cy="5.107" rx="4.974" ry="5.107" transform="translate(251.17 48.845) rotate(-146.4)" fill="#ed3d8e"/>
    <path id="Caminho_21798" data-name="Caminho 21798" d="M423.859,164a15.677,15.677,0,0,1,9.934,27.842l41.176,83.71a6.661,6.661,0,0,1,.765-.075,6.967,6.967,0,0,1,1.937.3l26.787-33.2a10.257,10.257,0,1,1,14.15,2.407l18.773,53.289a7.084,7.084,0,1,1-5.179,1.811L513.43,246.792c-.232,0-.458.035-.69.035a10.31,10.31,0,0,1-4.06-.833L481.9,279.18a6.969,6.969,0,0,1,.87,3.332,7.087,7.087,0,1,1-14.168,0,6.983,6.983,0,0,1,1.52-4.327l-41.176-83.71A15.69,15.69,0,1,1,423.859,164Z" transform="translate(-260.607 -112.567)" fill="rgba(237,61,142,0.1)"/>
    <path id="Caminho_21799" data-name="Caminho 21799" d="M696.176,215.542h54.788V212.8H696.176Z" transform="translate(-637.247 -132.625)" fill="#fff"/>
    <path id="Caminho_21800" data-name="Caminho 21800" d="M696.176,229.936h54.788V227.2H696.176Z" transform="translate(-637.247 -138.541)" fill="#fff"/>
    <path id="Caminho_21801" data-name="Caminho 21801" d="M696.176,244.319h54.788V241.58H696.176Z" transform="translate(-637.247 -144.453)" fill="#fff"/>
    <path id="Caminho_21802" data-name="Caminho 21802" d="M696.176,258.7h54.788v-2.739H696.176Z" transform="translate(-637.247 -150.365)" fill="#fff"/>
    <path id="Caminho_21803" data-name="Caminho 21803" d="M696.176,273.1h54.788v-2.739H696.176Z" transform="translate(-637.247 -156.281)" fill="#fff"/>
    <path id="Caminho_21804" data-name="Caminho 21804" d="M696.176,357.12h54.788v-2.739H696.176Z" transform="translate(-637.247 -190.816)" fill="#fff"/>
    <path id="Caminho_21805" data-name="Caminho 21805" d="M696.176,369.816h54.788v-2.739H696.176Z" transform="translate(-637.247 -196.034)" fill="#fff"/>
    <path id="Caminho_21806" data-name="Caminho 21806" d="M714.736,466.379A4.842,4.842,0,0,0,713,470.167l.127,17.067a4.9,4.9,0,0,0,1.457,3.456,4.855,4.855,0,0,0,3.463,1.4l25.466-.221a4.887,4.887,0,0,0,4.827-4.94l-.151-17.078A5.031,5.031,0,0,0,743.275,465l-25.465.221A4.772,4.772,0,0,0,714.736,466.379Z" transform="translate(-644.531 -236.281)" fill="#fff"/>
    <path id="Caminho_21807" data-name="Caminho 21807" d="M720.3,470.724l12,10.44a.84.84,0,0,0,1.1,0l12.217-10.658a.862.862,0,0,0,.242-.965.842.842,0,0,0-.826-.539l-24.217.219a.844.844,0,0,0-.768.573A.859.859,0,0,0,720.3,470.724Z" transform="translate(-646.23 -237.926)" fill="#ed3d8e"/>
    <path id="Caminho_21808" data-name="Caminho 21808" d="M735.443,295.854a12.83,12.83,0,1,1-9.073,3.761A12.839,12.839,0,0,1,735.443,295.854Zm0,22.582a1.876,1.876,0,1,0-1.877-1.876A1.877,1.877,0,0,0,735.443,318.436Zm-2.208-13.351q-.075-.542-.15-1.078v-.023c-.026-.211-.063-.431-.1-.654-.209-1.266-.441-2.67.853-3.364,1.194-.689,3.308-.532,4.056.793.678,1.156.269,2.93-.064,4.374-.091.393-.175.762-.231,1.087a46.773,46.773,0,0,1-1.344,6.2.91.91,0,0,1-1.611,0A46.933,46.933,0,0,1,733.235,305.085Z" transform="translate(-650.149 -166.76)" fill="#fff"/>
    <ellipse id="Elipse_314" data-name="Elipse 314" cx="11.53" cy="11.523" rx="11.53" ry="11.523" transform="translate(151.569 55.76)" fill="#fff"/>
    <ellipse id="Elipse_315" data-name="Elipse 315" cx="3.853" cy="3.851" rx="3.853" ry="3.851" transform="translate(81.533 43.074)" fill="#fff"/>
    <path id="Caminho_21809" data-name="Caminho 21809" d="M747.528,178.4a10.759,10.759,0,0,0-21.518,0Z" transform="translate(-651.383 -114.066)" fill="#fff"/>
    <path id="Caminho_21810" data-name="Caminho 21810" d="M164.824,551.144a4.3,4.3,0,0,0,2.8,4.018l40.354,15.055s1.924-3.567,5.278-9.525L236.3,522.158c6.229,32.02,13.175,64.081,17.48,84.063l4.148,19.9L241.3,631.583a4.583,4.583,0,1,0,2.19,8.9l38.54-9.762v-9.415l.915-.18L282.154,511.3l37.66-8.9c4.722,1.471,9.71,2.82,14.809,3.914a1.084,1.084,0,0,1,.162.035,89.683,89.683,0,0,0,37.909,1.633,1.729,1.729,0,0,0,.342-.075c.916-.174,1.831-.376,2.729-.579.272-.052.538-.1.811-.18.787-.18,1.576-.411,2.364-.625.435-.128.863-.232,1.275-.359s.719-.232,1.078-.359a51.158,51.158,0,0,0,18.4-10.336,46.6,46.6,0,0,0,10.278-12.183c1.159-1.83,2.242-3.752,3.251-5.727,6.118-12.072,7.393-16.178,5.614-16.288a74.454,74.454,0,0,0,11.344-5.1s8.007-46.7-9.455-93.7a32.5,32.5,0,0,0-.18-8.738c-3.679-26.369-23.929-53.474-48.088-64.452-12.944-5.883-34.051-14.91-27.231-32.883,2.156-5.686,5.215-10.585,5.794-16.485.052-.58.122-1.094.163-1.668.967-13.9-7.127-27.093-20.232-31.847a32.2,32.2,0,0,0-26.512,1.737,13.179,13.179,0,0,0-3.7,2.9c-3.986.1-8.992.8-11.345,1.9a23.778,23.778,0,0,0-9.565,8.807,33.653,33.653,0,0,0-4.977,23.127,33.145,33.145,0,0,0,4.669,12.553,33.625,33.625,0,0,0,4.091,5.35c1.35,1.413,3.268,3.474,5.116,4.233a.117.117,0,0,1-.145,0l.539,8.61c-11.066-2.518-40.632-12.895-62.307-55.737-1.564-3.318-3.175-6.618-4.867-9.884-5.006-9.722-10.371-19.391-17.48-27.753-1.738-2.027-4.31-3.857-7.074-2.976-2.422.77-4.056,3.474-2.37,5.744L206.661,200.9l-3.714-.481a2.86,2.86,0,0,0-1.958,3.909l2.352,5.582-1.112-1.309a4.588,4.588,0,0,0-7.237,5.628l6.13,7.915a9,9,0,0,0,3.053,2.49l12.132,5.848a151.3,151.3,0,0,0-9.994,13.8,237.277,237.277,0,0,0,23.332,36.236c14.936,19.23,36.443,40.723,62.7,49.71a199.57,199.57,0,0,0,7.752,47.052H260.34l-9.907-27.017a6.47,6.47,0,0,0-6.083-4.25h-39.6a5.409,5.409,0,0,0-2.011.393,5.31,5.31,0,0,0-3.285,4.9,5.411,5.411,0,0,0,.359,1.882l2.625,6.821h11.251l4.542,13-1.292-3.283h-5.585a5.3,5.3,0,0,0-4.9,7.354l4.757,11.372A22.113,22.113,0,0,0,227.831,401.7l.5.087.932,2.756-.481-.95c.156.376.336.787.5,1.239H216.76s2.781,8.106,7.9,8.593a5.6,5.6,0,0,0,1.24-.041h25.956c-1.454,1.616-3.088,3.573-4.832,5.872-7.531-.11-18.488.7-21.2,5.952a13.883,13.883,0,0,0-1.275,1.667c-1.037,1.738-1.379,5.79-1.13,11.644a94.378,94.378,0,0,0,1.513,18.008q-1.97,3.694-3.79,7.429a160.727,160.727,0,0,0-7.126,15.159,2.519,2.519,0,0,0-.18.428,445.743,445.743,0,0,0-16.622,44.4l-.267.932c-3.592,10.585-6.518,20.2-7.63,26.056l-18.83-3.857a4.3,4.3,0,0,0-5.66,4.071Z" transform="translate(-5.335 -118.749)" fill="#fff"/>
    <path id="Caminho_21811" data-name="Caminho 21811" d="M454.453,561.885H441.931a22.55,22.55,0,0,0,1.952,4.053c1.547,2.42,3.933,4.95,7.089,4.521H488.96a6.668,6.668,0,0,0,4.089-1.366,6.739,6.739,0,0,0-.214-3.618c-15.342-2.351-31.061-4.88-38.092-6.333l-1.326-.232Z" transform="translate(-229.737 -274.879)" fill="#ed3d8e"/>
    <path id="Caminho_21812" data-name="Caminho 21812" d="M461.925,472.347a5.41,5.41,0,0,0,.359,1.881l2.617,6.814h11.167l4.587,13.084,1.668,4.179h36.4l-8.433-22.96A6.486,6.486,0,0,0,504.2,471.1H464.618a5.381,5.381,0,0,0-2.01.393,6.582,6.582,0,0,0-.649.307C461.943,471.971,461.925,472.168,461.925,472.347Z" transform="translate(-267.031 -238.787)" fill="#ed3d8e"/>
    <path id="Caminho_21813" data-name="Caminho 21813" d="M534.348,469.513a5.438,5.438,0,0,0,.359,1.881l2.624,6.814h11.16l-3.88-10.525a5.294,5.294,0,0,0-10.263,1.829Z" transform="translate(-339.46 -235.959)" fill="#ed3d8e"/>
    <path id="Caminho_21814" data-name="Caminho 21814" d="M506.415,563.946s3.591,10.548,10.112,8.278c4.054-1.4,3.446-5.431,2.386-8.3Z" transform="translate(-294.215 -276.94)" fill="#ed3d8e"/>
    <path id="Caminho_21815" data-name="Caminho 21815" d="M481.044,487.914H499.3a1.369,1.369,0,1,0,0-2.739H481.044a1.369,1.369,0,1,0,0,2.739Z" transform="translate(-259.439 -244.574)" fill="#fff"/>
    <path id="Caminho_21816" data-name="Caminho 21816" d="M478.044,499.914H496.3a1.369,1.369,0,1,0,0-2.739H478.044a1.369,1.369,0,0,0,0,2.739Z" transform="translate(-254.672 -249.506)" fill="#fff"/>
    <path id="Caminho_21817" data-name="Caminho 21817" d="M209.7,639.513a178.339,178.339,0,0,1,11.008-22.12c-1.692-8.956-2.845-24.644.823-31.765,2.712-5.263,13.656-6.061,21.211-5.951A78.124,78.124,0,0,1,253.29,568s35.121,5.685,43.14,5.732,8.013,4.486,8.013,4.486,5.585,16.84,11.9,25.206,23.3,18.525,47.78,22.438,43.731-.909,48.146-3.363,4.559-.087-3.343,15.469-20.069,26.74-40.5,30.427a89.526,89.526,0,0,1-37.9-1.633s-32.335-8.145-41.819-14.357-10.968,2.235-10.968,2.235l.927,126.885-25.028,4.99L232.015,682.583l-23.059,38.555L185,711.3C187.821,696.494,202.312,657.458,209.7,639.513Z" transform="translate(-0.501 -278.616)" fill="#5715e8"/>
    <path id="Caminho_21818" data-name="Caminho 21818" d="M375.1,369.248a18.815,18.815,0,0,0,4.3,9.5,19.273,19.273,0,0,0,6.578,5.379,11.685,11.685,0,0,0,1.871.715c0-2,.035-4.036.144-6.019.409-7.431,1.905-15.168,6.63-20.882a23.159,23.159,0,0,1,8.385-6.342c-.092-1.372-.2-2.733-.288-4.1a32.124,32.124,0,0,1,.035-7.057,23.778,23.778,0,0,0,.518-4.324c-.052-1.355.144-6.555-.926-7.68a14.944,14.944,0,0,1-5.634,1.153c-4.334-.035-7.775-2.7-10.095-6.105A9.991,9.991,0,0,0,383.98,323c-2.625.392,5.208,7.466,2.653,6.664,1.663.514,2.878,3.016,3.661,4.445,1.151,2.214,1.819,4.82.69,7.16-1.1,2.237-3.418,4.163-5.059,6a79.1,79.1,0,0,0-6.192,7.362C376.706,358.854,374.5,364.037,375.1,369.248Z" transform="translate(-100.385 -177.918)" fill="#ed3d8e"/>
    <path id="Caminho_21819" data-name="Caminho 21819" d="M415.861,492.439a57.1,57.1,0,0,0,7.008-.408,36.742,36.742,0,0,0,10.726-2.883c7.357-3.359,12.079-9.281,14.035-17.6,2.354-9.854,2.193-20.364,2.036-30.529-.022-1.4-.044-2.854-.059-4.271l-2.739.029c.015,1.424.037,2.878.059,4.285.154,10,.313,20.334-1.962,29.854v.005a26.744,26.744,0,0,1-1.94,5.554,21.459,21.459,0,0,1-2.806,4.371,21.7,21.7,0,0,1-7.76,5.811,34.025,34.025,0,0,1-9.925,2.656,60.234,60.234,0,0,1-11.022.249c-2.458-.156-4.954-.417-7.418-.776-2.821-.405-17.718-2.555-34.249-5.113-18.553-2.843-32.06-5.089-38.035-6.325l-.042-.008-1.321-.231-.51-.094a20.772,20.772,0,0,1-15.593-12.423l-4.755-11.375a3.942,3.942,0,0,1,3.636-5.465h4.691l.991,2.5,2.013,5.038H403.81l-.492-1.742a218.067,218.067,0,0,1-5.675-25.762,177.278,177.278,0,0,1-2.135-26.151v-.005c-.017-1.912.031-3.917.142-5.961a49.459,49.459,0,0,1,1.658-10.835,29.406,29.406,0,0,1,1.886-4.961,22.507,22.507,0,0,1,2.818-4.384,21.963,21.963,0,0,1,7.937-6,33.438,33.438,0,0,1,11.544-2.827l-.17-2.734a36.168,36.168,0,0,0-12.487,3.058,24.7,24.7,0,0,0-8.93,6.746l0,0a25.249,25.249,0,0,0-3.165,4.919,32.15,32.15,0,0,0-2.064,5.425,52.135,52.135,0,0,0-1.758,11.435c-.115,2.1-.164,4.164-.146,6.133a180.025,180.025,0,0,0,2.167,26.554,219.234,219.234,0,0,0,5.26,24.345H322.771l-1.324-3.315-1.674-4.221h-6.552a6.681,6.681,0,0,0-6.162,9.26l4.756,11.376a23.511,23.511,0,0,0,17.642,14.061l.512.094,1.305.228c7.726,1.6,25.008,4.331,38.152,6.345,16.544,2.561,31.453,4.712,34.274,5.117,2.534.369,5.105.638,7.639.8Q413.662,492.439,415.861,492.439Z" transform="translate(-106.535 -194.741)"/>
    <path id="Caminho_21820" data-name="Caminho 21820" d="M479.52,624.428l2.717-.348c-1.008-7.866-1.579-14.286-1.7-19.082-.068-2.78-.03-7.692.985-9.351a10.735,10.735,0,0,1,3.293-3.341,16.986,16.986,0,0,1,4.827-2.1,32.065,32.065,0,0,1,6.087-.992,58.279,58.279,0,0,1,6.942-.06l.126-2.736a61,61,0,0,0-7.272.064,34.793,34.793,0,0,0-6.611,1.083,19.7,19.7,0,0,0-5.6,2.45,13.453,13.453,0,0,0-4.122,4.2A10.75,10.75,0,0,0,478,598.521a49.359,49.359,0,0,0-.2,6.543C477.921,609.954,478.5,616.469,479.52,624.428Z" transform="translate(-260.449 -286.155)"/>
    <path id="Caminho_21821" data-name="Caminho 21821" d="M204.121,853.184a5.9,5.9,0,0,0,1.464-.184l39.564-10.022V705.339a3.34,3.34,0,0,1,4.816-3.006c4.182,2.062,10.852,5.165,18.873,8.234a186.8,186.8,0,0,0,26.4,8.038,119.724,119.724,0,0,0,25.569,3.014q1.956,0,3.853-.083a73.292,73.292,0,0,0,14.449-2.018,56.608,56.608,0,0,0,13.5-5.2,55.944,55.944,0,0,0,12.8-9.527,46.075,46.075,0,0,0,8.809-12.2l.023-.049a.956.956,0,0,1-.12.2l-2.162-1.682a1.784,1.784,0,0,0-.208.34,43.344,43.344,0,0,1-8.282,11.455,53.206,53.206,0,0,1-12.174,9.058,53.864,53.864,0,0,1-12.85,4.949,70.556,70.556,0,0,1-13.907,1.94,112.038,112.038,0,0,1-28.714-2.869,184.043,184.043,0,0,1-26.008-7.921c-7.923-3.032-14.51-6.1-18.641-8.133a6.079,6.079,0,0,0-8.765,5.465V840.847l-37.5,9.5a3.2,3.2,0,0,1-3.921-2.433v-.007a3.206,3.206,0,0,1,2.391-3.8l.056-.013,17.765-5.851-.162-1.135c-.3-2.112-2.1-10.466-4.826-23.111-4.339-20.135-10.9-50.564-16.812-80.954l-2.688.523c5.921,30.416,12.481,60.861,16.823,81.007,2.274,10.553,4,18.56,4.6,21.795l-15.45,5.088a5.951,5.951,0,0,0,1.439,11.726Z" transform="translate(33.655 -329.195)"/>
    <path id="Caminho_21822" data-name="Caminho 21822" d="M402.411,731.354l.565-1.055c.029-.055,3-5.6,7.953-14.257,4.566-7.984,11.8-20.317,20.3-33.735,5.63-8.89,12.065-18.419,18.612-27.56,7.323-10.224,14.442-19.5,21.161-27.583a201.991,201.991,0,0,1,20.085-21.414,60.051,60.051,0,0,1,8.43-6.429,16.263,16.263,0,0,1,6.468-2.558,4.262,4.262,0,0,1,3.751,1.261l2-1.875A6.665,6.665,0,0,0,509,594.371a7.827,7.827,0,0,0-3.269-.334,13.68,13.68,0,0,0-3.67.938,26.514,26.514,0,0,0-3.957,2,62.723,62.723,0,0,0-8.83,6.723,204.643,204.643,0,0,0-20.372,21.71c-6.76,8.129-13.92,17.462-21.281,27.739-6.576,9.182-13.042,18.757-18.7,27.689-4.712,7.432-12.071,19.339-20.372,33.852-3.716,6.5-6.324,11.253-7.415,13.26L361.9,713.308a2.929,2.929,0,0,1,1.942-5.524l.073.024,20.15,4.138.338-1.24c2.709-9.931,5.289-18.739,7.886-26.928,2.387-7.528,4.922-14.916,7.535-21.96,2.743-7.392,5.659-14.64,8.667-21.542,3.141-7.208,6.481-14.263,9.926-20.969,3.583-6.975,7.389-13.784,11.312-20.239.76-1.25,1.542-2.553,2.3-3.813,3-4.993,6.1-10.155,9.54-15.007a69.1,69.1,0,0,1,11.421-12.908l-1.77-2.09a71.76,71.76,0,0,0-11.884,13.413c-3.5,4.938-6.631,10.146-9.655,15.183-.789,1.315-1.535,2.557-2.29,3.8-3.957,6.51-7.795,13.377-11.408,20.41-3.471,6.757-6.836,13.865-10,21.126-3.029,6.949-5.964,14.245-8.724,21.684-2.629,7.085-5.178,14.515-7.578,22.085-2.5,7.883-4.983,16.333-7.579,25.8l-17.49-3.591a5.668,5.668,0,0,0-3.672,10.718h0Z" transform="translate(-198.401 -277.485)"/>
    <path id="Caminho_21823" data-name="Caminho 21823" d="M485.774,359.661l.886-2.592a96.8,96.8,0,0,1-18.5-8.72,129.183,129.183,0,0,1-16.641-12.023A189.3,189.3,0,0,1,424.6,307.834c-3.391-4.366-6.721-8.978-9.9-13.709-2.543-3.787-4.995-7.658-7.286-11.505-3-5.031-4.937-8.715-5.687-10.174,8.864-13.591,15.781-20.116,18.488-22.394a142.7,142.7,0,0,0,9.994,16.523,117.625,117.625,0,0,0,11.343,13.789,94.578,94.578,0,0,0,21.974,17.128,79.209,79.209,0,0,0,9.388,4.46,67.783,67.783,0,0,0,7.5,2.481,40.406,40.406,0,0,0,6.863,1.31l.095-1.372.1-1.36a39.054,39.054,0,0,1-6.49-1.261,65.322,65.322,0,0,1-7.209-2.406,76.628,76.628,0,0,1-9.054-4.327,91.975,91.975,0,0,1-21.27-16.64,115,115,0,0,1-11.035-13.439,141.183,141.183,0,0,1-10.509-17.61l-.708-1.4-1.292.891a44.528,44.528,0,0,0-5.992,5.449c-2.143,2.233-4.358,4.8-6.583,7.627-2.774,3.524-5.574,7.469-8.323,11.724l-.421.652.343.7c.087.176,2.165,4.378,6.112,11.008,2.314,3.888,4.79,7.8,7.359,11.627,3.212,4.785,6.579,9.45,10.008,13.867a192.126,192.126,0,0,0,27.32,28.928,131.963,131.963,0,0,0,17.007,12.29A99.544,99.544,0,0,0,485.774,359.661Z" transform="translate(-198.47 -146.24)"/>
    <path id="Caminho_21824" data-name="Caminho 21824" d="M412.437,239l-2.289,3.525-1.379,2.145a105.433,105.433,0,0,0-3.686,10.105l-.069.243-2.622,10.145a.05.05,0,0,0,0,.035,10.722,10.722,0,0,1-3.543,3.6,4.878,4.878,0,0,0-.951.678c-1.574,1.6,2.576,2.064,3.434,2.592a2.908,2.908,0,0,1,1.242,2.359c4.929,20.772,1.758,15.317,3.876,19.937-1.838-1.577-6.405-6.591-6.405-6.591a8.023,8.023,0,0,1-1.482-2.07,36.922,36.922,0,0,1-3.04-5.8,30.721,30.721,0,0,1-1.717-19.178c2.364-9.966,7.876-19.937,18.631-21.728Z" transform="translate(-120.152 -143.393)" fill="#ed3d8e"/>
    <path id="Caminho_21825" data-name="Caminho 21825" d="M187.142,240.814a11.724,11.724,0,0,0,2.944,5.753,23.244,23.244,0,0,0,5.622,4.506c3.944,2.354,8.334,4.135,11.648,7.312a18.27,18.27,0,0,1,5.558,12.148c.231,4.72-1.452,9.609-2.476,14.027-3.244,14.283-2.2,28.009-.411,42.384,1.7,13.564,5.321,26.837,12.342,38.643a73.966,73.966,0,0,0,37.183,30.775c12.724,4.761,37.449,8.983,46.8-4.262,1.614-4.181,1.632-8.965,1.007-13.471-3.672-26.431-23.886-53.558-48-64.553-12.921-5.892-33.99-14.944-27.183-32.949,2.169-5.677,5.2-10.577,5.783-16.509.052-.54.1-1.078.156-1.653.972-13.917-7.108-27.127-20.19-31.894a31.977,31.977,0,0,0-26.466,1.739,13.442,13.442,0,0,0-3.782,3,1.931,1.931,0,0,0-.2.267,4.485,4.485,0,0,0-.2.632A10.348,10.348,0,0,0,187.142,240.814Z" transform="translate(105.873 -139.282)" fill="#ed3d8e"/>
    <path id="Caminho_21826" data-name="Caminho 21826" d="M413.537,387.938l.53-2.3a20,20,0,0,1-8.893-4.562,17.261,17.261,0,0,1-3.182-3.812,16.28,16.28,0,0,1-1.944-4.7,18.417,18.417,0,0,1,.35-9.5,28.279,28.279,0,0,1,4.41-8.734,37.108,37.108,0,0,1,3.964-4.267,36.577,36.577,0,0,0,5.009-5.6,11.181,11.181,0,0,0,2.094-7.35,12.206,12.206,0,0,0-3.108-6.795l-.013-.015c-.532-.617-1.1-1.212-1.776-1.872l-1.641,1.69c.626.607,1.142,1.152,1.626,1.712a9.955,9.955,0,0,1,2.565,5.479,8.806,8.806,0,0,1-1.7,5.84,34.873,34.873,0,0,1-4.7,5.219,39.35,39.35,0,0,0-4.217,4.558,33.171,33.171,0,0,0-2.794,4.512,27.992,27.992,0,0,0-1.982,4.966,20.739,20.739,0,0,0-.376,10.7,18.629,18.629,0,0,0,2.225,5.38,19.614,19.614,0,0,0,3.615,4.334A22.363,22.363,0,0,0,413.537,387.938Z" transform="translate(-126.116 -180.153)"/>
    <path id="Caminho_21827" data-name="Caminho 21827" d="M374.072,355.694l2.356-.032L376.1,332.01l-2.356.032Z" transform="translate(-72.804 -181.621)"/>
    <path id="Caminho_21828" data-name="Caminho 21828" d="M202.955,221.462a33.331,33.331,0,0,0-15.733,3.945,14.578,14.578,0,0,0-4.109,3.27l-.022.025-.275.333a11.636,11.636,0,0,0-2.47,9.314l.006.03a12.87,12.87,0,0,0,3.224,6.308,24.751,24.751,0,0,0,5.915,4.736c1.181.7,2.408,1.358,3.595,1.991a34.781,34.781,0,0,1,7.863,5.136,17.033,17.033,0,0,1,5.19,11.375c.173,3.444-.754,7.047-1.651,10.531-.269,1.045-.547,2.126-.784,3.165a90.814,90.814,0,0,0-2.131,21.407,190.14,190.14,0,0,0,1.694,21.33c.442,3.515,1.006,6.941,1.676,10.183.713,3.45,1.571,6.808,2.549,9.981a92.505,92.505,0,0,0,3.569,9.667,81.748,81.748,0,0,0,4.735,9.237,70.259,70.259,0,0,0,7.287,10.035,75.3,75.3,0,0,0,8.963,8.716,76.87,76.87,0,0,0,10.3,7.152,74.405,74.405,0,0,0,11.306,5.34,77.426,77.426,0,0,0,11.553,3.247,69.089,69.089,0,0,0,13.544,1.439,38.18,38.18,0,0,0,13.58-2.195,20.134,20.134,0,0,0,10.171-8.011,19.813,19.813,0,0,0,2.807-8.36,34.785,34.785,0,0,0-.208-8.78,76.858,76.858,0,0,0-5.758-19.977,95.029,95.029,0,0,0-25.563-34.255,76.519,76.519,0,0,0-17.455-11.164l-1.169-.536c-6.471-2.961-14.524-6.647-20.11-11.7a25.062,25.062,0,0,1-3.6-3.975,16.7,16.7,0,0,1-2.3-4.45,14.316,14.316,0,0,1-.705-5.019,18.234,18.234,0,0,1,1.241-5.784c.631-1.657,1.353-3.277,2.052-4.844.83-1.862,1.689-3.788,2.373-5.739a26.471,26.471,0,0,0,1.441-6.208c.048-.45.108-1.049.153-1.707a33.33,33.33,0,0,0-5.01-20.065,32.148,32.148,0,0,0-6.817-7.754,31.253,31.253,0,0,0-9.164-5.229A33.225,33.225,0,0,0,202.955,221.462ZM184.9,230.216a12.23,12.23,0,0,1,3.437-2.731,30.985,30.985,0,0,1,25.553-1.674l.013,0a28.9,28.9,0,0,1,8.481,4.838,29.8,29.8,0,0,1,6.318,7.187,30.974,30.974,0,0,1,4.654,18.647c-.043.623-.1,1.2-.147,1.627v.009c-.389,3.969-1.959,7.492-3.622,11.222-.712,1.6-1.448,3.247-2.1,4.966a20.579,20.579,0,0,0-1.394,6.535,16.664,16.664,0,0,0,.822,5.842,19.049,19.049,0,0,0,2.618,5.081,27.41,27.41,0,0,0,3.934,4.353c5.856,5.3,14.093,9.071,20.711,12.1l1.167.535,0,0a74.166,74.166,0,0,1,16.918,10.824,92.675,92.675,0,0,1,24.918,33.391,74.507,74.507,0,0,1,5.585,19.362,32.452,32.452,0,0,1,.2,8.18,17.488,17.488,0,0,1-2.459,7.375,16.41,16.41,0,0,1-3.894,4.255,20.259,20.259,0,0,1-5.126,2.814A35.862,35.862,0,0,1,278.749,397a66.737,66.737,0,0,1-13.079-1.393,75.044,75.044,0,0,1-11.2-3.145,72.857,72.857,0,0,1-36.657-30.243,79.38,79.38,0,0,1-4.6-8.97,90.148,90.148,0,0,1-3.478-9.42c-.956-3.1-1.8-6.387-2.494-9.764-.658-3.182-1.212-6.546-1.646-10A187.991,187.991,0,0,1,203.926,303,88.5,88.5,0,0,1,206,282.147c.229-1.007.491-2.024.769-3.1.941-3.655,1.914-7.434,1.722-11.239a19.388,19.388,0,0,0-5.911-12.954l0,0a37.064,37.064,0,0,0-8.38-5.51c-1.166-.623-2.372-1.267-3.508-1.943l-.016-.009a22.4,22.4,0,0,1-5.363-4.293l-.008-.008a10.517,10.517,0,0,1-2.635-5.143,9.28,9.28,0,0,1,1.971-7.411Z" transform="translate(112.136 -136.184)"/>
    <ellipse id="Elipse_316" data-name="Elipse 316" cx="2.356" cy="2.356" rx="2.356" ry="2.356" transform="translate(288.161 117.989)"/>
    <path id="Caminho_21829" data-name="Caminho 21829" d="M389.935,278.318a8.077,8.077,0,0,0,.226-5.138,9.078,9.078,0,0,0-2.178-3.641,13.7,13.7,0,0,0-3.883-2.819l-.484,1.074-.486,1.072a11.448,11.448,0,0,1,3.186,2.338,6.7,6.7,0,0,1,1.6,2.678,5.782,5.782,0,0,1-.193,3.635Z" transform="translate(-92.379 -154.786)"/>
    <path id="Caminho_21830" data-name="Caminho 21830" d="M389.149,293.883h.008a16.166,16.166,0,0,0,6.1-1.246,23.022,23.022,0,0,0,8.473-5.958l-1.754-1.573a20.666,20.666,0,0,1-7.611,5.35l-.01,0a13.819,13.819,0,0,1-5.207,1.067,9.569,9.569,0,0,1-5.206-1.6,14.12,14.12,0,0,1-3.974-4.02,18.863,18.863,0,0,1-1.281-2.211,22.8,22.8,0,0,1-2.131-6.913,14.785,14.785,0,0,1-.065-1.841,15.435,15.435,0,0,0-.224-3.241,4.312,4.312,0,0,0-1.974-2.974,6.8,6.8,0,0,0-1.517-.551c-.425-.123-.864-.249-1.243-.394l-.139-.055a3.783,3.783,0,0,1,.343-.21l.029-.016.028-.017a12.094,12.094,0,0,0,3.993-4.023l0,0c1.619-2.7,2.1-5.9,2.57-8.994.077-.508.156-1.033.239-1.546l.067-.391c.092-.538.18-1.047.279-1.565a25.441,25.441,0,0,1,4.624-10l.006-.008a31.024,31.024,0,0,1,5.211-5.432l2.033-1.659-2.591-.417a19.409,19.409,0,0,0-11.348,1.6,21.46,21.46,0,0,0-5.685,3.925,29.066,29.066,0,0,0-4.354,5.3,34.35,34.35,0,0,0-.329,36.94,35.793,35.793,0,0,0,4.24,5.512l.011.012.245.255c1.469,1.529,3.482,3.622,5.54,4.37l.8-2.214c-1.544-.561-3.411-2.5-4.646-3.788l-.242-.252a33.434,33.434,0,0,1-3.955-5.143,31.994,31.994,0,0,1,.307-34.408,26.719,26.719,0,0,1,4-4.873,19.111,19.111,0,0,1,5.061-3.5l.005,0a17.057,17.057,0,0,1,7.323-1.624,33.389,33.389,0,0,0-3.512,3.982,27.8,27.8,0,0,0-5.053,10.937l-.006.029c-.1.546-.2,1.094-.289,1.624l-.068.394,0,.012c-.085.527-.166,1.061-.244,1.577-.453,3-.882,5.831-2.261,8.134a9.726,9.726,0,0,1-3.184,3.217,6.153,6.153,0,0,0-1.158.821l-.024.021-.023.023a1.975,1.975,0,0,0-.646,1.936c.335,1.3,1.956,1.764,3.387,2.177a8.677,8.677,0,0,1,.962.311l.012.007a1.95,1.95,0,0,1,.867,1.443,13.522,13.522,0,0,1,.17,2.737,16.237,16.237,0,0,0,.087,2.169v0a25.155,25.155,0,0,0,2.351,7.627,21.231,21.231,0,0,0,1.441,2.488,16.456,16.456,0,0,0,4.647,4.68,11.887,11.887,0,0,0,6.482,1.981Z" transform="translate(-92.762 -141.007)"/>
    <path id="Caminho_21831" data-name="Caminho 21831" d="M388.117,308.578a5.492,5.492,0,0,0,1.981-.36c1.847-.71,3.219-2.389,4.079-4.99l-2.237-.739c-.624,1.889-1.523,3.075-2.67,3.524a4.166,4.166,0,0,1-3.164-.285l.006,0-1.166,2.047A6.975,6.975,0,0,0,388.117,308.578Z" transform="translate(-97.149 -169.488)"/>
    <path id="Caminho_21832" data-name="Caminho 21832" d="M534.151,232.8l1.025-2.121-13.088-6.321a7.379,7.379,0,0,1-2.631-2.136l-6.1-7.912a3.408,3.408,0,0,1,5.384-4.173l.013.015,1.117,1.3a1.178,1.178,0,0,0,1.979-1.226l-2.356-5.571a1.717,1.717,0,0,1,.968-2.262l3.467.458a1.178,1.178,0,0,0,1.1-1.864L513.393,185.1a2.059,2.059,0,0,1-.338-1.943,3.28,3.28,0,0,1,2.114-1.981c2.462-.785,4.705,1.3,5.823,2.611A103.823,103.823,0,0,1,530.41,197c3.089,5.056,5.849,10.3,7.908,14.312,1.667,3.243,3.3,6.557,4.841,9.849l2.133-1c-1.557-3.317-3.2-6.656-4.878-9.925-2.078-4.044-4.864-9.342-7.993-14.463a106.146,106.146,0,0,0-9.635-13.511,11.5,11.5,0,0,0-3.517-2.868,7,7,0,0,0-2.283-.7,5.963,5.963,0,0,0-2.533.242,5.624,5.624,0,0,0-3.639,3.5,4.411,4.411,0,0,0,.678,4.065l10.01,13.664-.989-.131a1.178,1.178,0,0,0-.447.027,4.073,4.073,0,0,0-2.746,5.514l0,0,.525,1.241a5.811,5.811,0,0,0-1.108-.231,5.762,5.762,0,0,0-5.276,9.13l.018.024,6.11,7.924a9.745,9.745,0,0,0,3.474,2.82Z" transform="translate(-322.125 -118.587)"/>
    <path id="Caminho_21833" data-name="Caminho 21833" d="M540.776,227.442a10.1,10.1,0,0,0,3.526-.527,4.179,4.179,0,0,0,2.391-2.007c.73-1.449.515-3.339-.639-5.619a17.594,17.594,0,0,0-1.77-2.78l-1.837,1.475a15.418,15.418,0,0,1,1.522,2.4c.762,1.515.982,2.745.619,3.461-.449.888-2.044,1.322-4.494,1.224L540,227.425Q540.4,227.442,540.776,227.442Z" transform="translate(-341.414 -134.148)"/>
    <path id="Caminho_21834" data-name="Caminho 21834" d="M514.635,571.042a6.749,6.749,0,0,0,2.191-.378,6.227,6.227,0,0,0,2.322-1.363,5.129,5.129,0,0,0,1.288-1.993c.619-1.726.448-3.909-.509-6.49a20.214,20.214,0,0,0-1.552-3.256l-2.005,1.237,1-.618-1,.617c0,.008.309.505.682,1.279H504.659l.53,1.557a22.475,22.475,0,0,0,1.621,3.506,12.346,12.346,0,0,0,4.957,5.214A6.443,6.443,0,0,0,514.635,571.042Zm3.354-8.609a6.683,6.683,0,0,1,.229,4.082,3.173,3.173,0,0,1-2.153,1.919,4.071,4.071,0,0,1-3.258-.2,10.6,10.6,0,0,1-3.949-4.265c-.315-.554-.58-1.083-.793-1.542Z" transform="translate(-294.282 -274.326)"/>
    <path id="Caminho_21835" data-name="Caminho 21835" d="M469.576,578.722h26.107v-2.356H469.576Z" transform="translate(-248.501 -282.054)"/>
    <path id="Caminho_21836" data-name="Caminho 21836" d="M538.254,462.087a6.473,6.473,0,0,0-6.474,6.476v.013a6.606,6.606,0,0,0,.436,2.288l2.909,7.571h13.658l-4.458-12.108a6.472,6.472,0,0,0-6.072-4.239Zm-4.118,6.467a4.108,4.108,0,0,1,3.393-4.047,4.113,4.113,0,0,1,4.586,2.632l3.291,8.939h-8.661l-2.328-6.058A4.255,4.255,0,0,1,534.136,468.554Z" transform="translate(-338.24 -235.084)"/>
    <path id="Caminho_21837" data-name="Caminho 21837" d="M507.9,494.924l2.211-.813-9.885-26.992a7.659,7.659,0,0,0-7.19-5.021H453.441v2.356H493.03a5.3,5.3,0,0,1,4.981,3.476l3.561,9.722-.045.017Z" transform="translate(-253.423 -235.089)"/>
    <path id="Caminho_21838" data-name="Caminho 21838" d="M528.349,505.22l2.212-.812-6.336-17.256-2.212.812Z" transform="translate(-314.264 -245.386)"/>
    <path id="Caminho_21839" data-name="Caminho 21839" d="M241.813,597.15a104.429,104.429,0,0,0,23.2-2.539,82.682,82.682,0,0,0,21.819-8.2l.493-.274.1-.556c.021-.121.513-3.022.99-8.12a209.278,209.278,0,0,0,.846-21.312,211.675,211.675,0,0,0-2.446-30.169,178.312,178.312,0,0,0-8.9-34.689l-2.208.821a175.955,175.955,0,0,1,8.784,34.23,209.308,209.308,0,0,1,2.419,29.832,206.882,206.882,0,0,1-.836,21.069c-.35,3.749-.715,6.319-.878,7.386a80.633,80.633,0,0,1-20.7,7.685,102.335,102.335,0,0,1-23.344,2.477,111.646,111.646,0,0,1-23.443-2.633,98.951,98.951,0,0,1-21.484-7.334c-12.131-5.855-19.952-12.9-23.246-20.941-.577-1.4-1.166-2.828-1.737-4.2-2.427-5.858-4.936-11.915-7.032-17.957l-2.226.772c2.119,6.107,4.641,12.2,7.081,18.086.57,1.375,1.159,2.8,1.733,4.2a30.333,30.333,0,0,0,4.3,7.267,41.331,41.331,0,0,0,5.945,6.039,68.643,68.643,0,0,0,14.158,8.864,101.319,101.319,0,0,0,22,7.512,114.008,114.008,0,0,0,23.938,2.688Z" transform="translate(139.082 -247.088)"/>
    <path id="Caminho_21840" data-name="Caminho 21840" d="M157.58,741.245H311.239v-2.356H157.58Z" transform="translate(119.704 -348.853)"/>
    <path id="Caminho_21841" data-name="Caminho 21841" d="M384.774,522.867l2.259-.668-1.656-5.6-2.259.668Z" transform="translate(-88.929 -257.49)"/>
    <path id="Caminho_21842" data-name="Caminho 21842" d="M184.038,679.277c.017-.03,1.73-3.091,3.688-7.094a80.886,80.886,0,0,0,5.385-13.263l-2.272-.623a79.848,79.848,0,0,1-5.229,12.85c-1.929,3.944-3.61,6.947-3.626,6.977Z" transform="translate(223.459 -315.73)"/>
    <path id="Caminho_21843" data-name="Caminho 21843" d="M176.48,111.382V234.23h47.906l-.479-1.53c-1.468-4.691-2.715-9.5-3.706-14.3a174.857,174.857,0,0,1-3.072-22.606,226.414,226.414,0,0,1-.419-23.121,84.561,84.561,0,0,0-1.67-20.3,57.671,57.671,0,0,0-5.831-15.833,49.3,49.3,0,0,0-9.14-11.824,53.853,53.853,0,0,0-11.531-8.3,64.883,64.883,0,0,0-10.512-4.528Zm2.356,120.492V114.662a62.526,62.526,0,0,1,8.582,3.831,51.5,51.5,0,0,1,11.028,7.93,46.945,46.945,0,0,1,8.7,11.26,55.321,55.321,0,0,1,5.588,15.187,82.211,82.211,0,0,1,1.618,19.733,228.766,228.766,0,0,0,.424,23.362,177.224,177.224,0,0,0,3.114,22.913c.9,4.354,2.006,8.719,3.3,13Z" transform="translate(195.425 -90.94)" fill="rgba(87,21,232,0.5)"/>
    <path id="Caminho_21844" data-name="Caminho 21844" d="M183.06,118.339V222.676h33.711l-.292-1.416a174.9,174.9,0,0,1-3.072-22.607,226.356,226.356,0,0,1-.42-23.121,84.611,84.611,0,0,0-1.68-20.3,57.7,57.7,0,0,0-5.836-15.83,49.348,49.348,0,0,0-9.141-11.823,53.969,53.969,0,0,0-11.531-8.3Zm2.356,101.981V122.332a50.9,50.9,0,0,1,9.29,6.954,47,47,0,0,1,8.705,11.26A55.35,55.35,0,0,1,209,155.732a82.26,82.26,0,0,1,1.628,19.731,228.717,228.717,0,0,0,.425,23.361,178.609,178.609,0,0,0,2.83,21.5Z" transform="translate(199.165 -93.799)" fill="rgba(87,21,232,0.5)"/>
  </g>
</svg>
