<svg width="100" height="96" viewBox="0 0 100 96" fill="none" xmlns="http://www.w3.org/2000/svg">
<path fill-rule="evenodd" clip-rule="evenodd" d="M5.34761e-06 48.1992C0.0104904 27.0203 15.6366 9.85242 35.7426 3.19682C56.2324 -3.58585 79.8884 0.0707112 92.5174 17.5735C105.039 34.9272 100.719 58.3358 87.8803 75.4559C75.6839 91.719 55.1139 99.3609 35.6979 93.3389C15.4415 87.0562 -0.0104942 69.4075 5.34761e-06 48.1992Z" fill="#5715E8" fill-opacity="0.2"/>
<g clip-path="url(#clip0_42_117)">
<path d="M56.071 75.028C56.026 75.028 55.981 75.028 55.936 75.028H44.5C42.2018 75.0797 39.9024 75.0129 37.611 74.828C35.9177 74.7668 34.2978 74.1208 33.027 73C31.9072 71.7307 31.2616 70.1126 31.2 68.421C31.0138 66.1261 30.947 63.823 31 61.521V34.521C30.9485 32.2245 31.0153 29.9268 31.2 27.637C31.258 25.945 31.9008 24.3253 33.019 23.054C34.2887 21.9333 35.9076 21.2873 37.6 21.226C39.895 21.0399 42.1981 20.9732 44.5 21.026H55.762C55.8539 21.0104 55.9468 21.0017 56.04 21C56.1743 20.9983 56.3084 21.011 56.44 21.038C57.9277 20.9108 59.424 21.1472 60.8 21.727C62.223 22.44 63.233 23.536 65.146 25.448C67.059 27.36 68.159 28.381 68.871 29.806C69.4478 31.1779 69.6832 32.6692 69.557 34.152C69.6038 34.3827 69.6079 34.6199 69.569 34.852V61.529C69.621 63.8283 69.5542 66.1287 69.369 68.421C69.308 70.1124 68.6631 71.7304 67.544 73C66.2725 74.1191 64.6528 74.7636 62.96 74.824C60.765 75.0049 58.562 75.0717 56.36 75.024L56.071 75.028ZM38.036 25.056C37.2158 25.0458 36.4137 25.2981 35.747 25.776C35.2703 26.4436 35.0191 27.2458 35.03 28.066C34.869 29.505 34.856 31.643 34.856 34.526V61.526C34.856 64.412 34.868 66.551 35.03 67.989C35.0205 68.8092 35.2727 69.611 35.75 70.278C36.4176 70.7537 37.2194 71.0041 38.039 70.993C39.478 71.154 41.616 71.167 44.499 71.167H56.071C56.116 71.167 56.161 71.167 56.206 71.167C59.006 71.167 61.118 71.153 62.529 70.995C63.35 71.0058 64.1528 70.7535 64.82 70.275C65.2979 69.6095 65.5499 68.8083 65.539 67.989C65.702 66.55 65.713 64.412 65.713 61.525V36.454H56.071C55.5595 36.454 55.0689 36.251 54.707 35.8895C54.3451 35.528 54.1415 35.0376 54.141 34.526V24.883H44.5C41.613 24.883 39.475 24.895 38.036 25.056ZM58 32.6H65.668C65.6576 32.232 65.5743 31.8697 65.423 31.534C64.5557 30.3032 63.549 29.1767 62.423 28.177C61.4255 27.0522 60.3022 26.0456 59.075 25.177C58.7365 25.0243 58.3712 24.9397 58 24.928V32.6ZM59.928 65.384H40.589C40.0775 65.3769 39.5899 65.1668 39.2333 64.8001C39.0567 64.6185 38.9176 64.4039 38.824 64.1686C38.7303 63.9333 38.684 63.6818 38.6875 63.4285C38.6911 63.1753 38.7445 62.9252 38.8446 62.6926C38.9448 62.46 39.0899 62.2494 39.2714 62.0728C39.6382 61.7162 40.1315 61.5199 40.643 61.527H59.928C59.9466 61.5253 59.9654 61.5253 59.984 61.527C60.4955 61.531 60.9844 61.738 61.3433 62.1025C61.7021 62.467 61.9015 62.9591 61.8975 63.4705C61.8935 63.982 61.6865 64.471 61.3221 64.8298C60.9576 65.1887 60.4655 65.388 59.954 65.384H59.928ZM59.928 57.669H40.589C40.0775 57.6619 39.5899 57.4518 39.2333 57.0851C39.0567 56.9035 38.9176 56.6889 38.824 56.4536C38.7303 56.2183 38.684 55.9668 38.6875 55.7135C38.6911 55.4603 38.7445 55.2102 38.8446 54.9776C38.9448 54.745 39.0899 54.5344 39.2714 54.3578C39.6382 54.0012 40.1315 53.8049 40.643 53.812H59.983C60.2363 53.8138 60.4867 53.8655 60.72 53.964C60.9533 54.0626 61.1649 54.2061 61.3427 54.3864C61.5205 54.5668 61.6611 54.7804 61.7564 55.015C61.8517 55.2497 61.8998 55.5008 61.898 55.754C61.8962 56.0073 61.8446 56.2577 61.746 56.491C61.6475 56.7243 61.504 56.9359 61.3236 57.1137C61.1433 57.2916 60.9297 57.4321 60.695 57.5274C60.4604 57.6227 60.2093 57.6708 59.956 57.669H59.928ZM59.928 49.956H40.589C40.331 49.9599 40.0749 49.912 39.8357 49.8151C39.5966 49.7182 39.3793 49.5743 39.1968 49.3919C39.0142 49.2096 38.8701 48.9924 38.773 48.7534C38.6758 48.5144 38.6277 48.2582 38.6313 48.0002C38.6349 47.7422 38.6902 47.4876 38.794 47.2514C38.8978 47.0151 39.0479 46.8021 39.2355 46.6249C39.4231 46.4478 39.6443 46.31 39.8861 46.2198C40.1278 46.1297 40.3852 46.0889 40.643 46.1H59.983C60.2363 46.1018 60.4867 46.1535 60.72 46.252C60.9533 46.3506 61.1649 46.4941 61.3427 46.6744C61.5205 46.8548 61.6611 47.0684 61.7564 47.303C61.8517 47.5377 61.8998 47.7888 61.898 48.042C61.8962 48.2953 61.8446 48.5457 61.746 48.779C61.6475 49.0123 61.504 49.2239 61.3236 49.4017C61.1433 49.5796 60.9297 49.7201 60.695 49.8154C60.4604 49.9107 60.2093 49.9588 59.956 49.957L59.928 49.956Z" fill="#5715E8"/>
</g>
<defs>
<clipPath id="clip0_42_117">
<rect width="38.597" height="54.028" fill="white" transform="translate(31 21)"/>
</clipPath>
</defs>
</svg>
