<svg width="100" height="96" viewBox="0 0 100 96" fill="none" xmlns="http://www.w3.org/2000/svg">
<path fill-rule="evenodd" clip-rule="evenodd" d="M5.34761e-06 48.1992C0.0104904 27.0203 15.6366 9.85242 35.7426 3.19682C56.2324 -3.58585 79.8884 0.0707112 92.5174 17.5735C105.039 34.9272 100.719 58.3358 87.8803 75.4559C75.6839 91.719 55.1139 99.3609 35.6979 93.3389C15.4415 87.0562 -0.0104942 69.4075 5.34761e-06 48.1992Z" fill="#5715E8" fill-opacity="0.2"/>
<g clip-path="url(#clip0_42_120)">
<path d="M39.5 29C37.1981 28.9472 34.895 29.014 32.6 29.2001C30.9067 29.2605 29.2867 29.9062 28.016 31.0271C26.8996 32.2992 26.2579 33.9185 26.2 35.61C25.9881 36.6058 25.9207 37.627 26 38.642V57.927C25.9194 58.9447 25.9868 59.9687 26.2 60.9671C26.2604 62.6604 26.9061 64.2804 28.027 65.551C29.2984 66.6702 30.9182 67.3144 32.611 67.374C34.9024 67.5589 37.2018 67.6257 39.5 67.574H60.713C63.0149 67.6272 65.318 67.5604 67.613 67.374C68.461 67.3973 69.3048 67.2475 70.0929 66.9335C70.8809 66.6196 71.5967 66.1483 72.1964 65.5483C72.7961 64.9483 73.2671 64.2323 73.5807 63.4441C73.8942 62.6559 74.0437 61.812 74.02 60.964C74.2319 59.9682 74.2993 58.9471 74.22 57.9321V38.642C74.3007 37.6244 74.2333 36.6004 74.02 35.602C74.0425 34.7536 73.8918 33.9096 73.5769 33.1215C73.262 32.3334 72.7896 31.6178 72.1887 31.0185C71.5877 30.4193 70.8708 29.9489 70.0818 29.6362C69.2928 29.3235 68.4483 29.1751 67.6 29.2001C65.3086 29.0149 63.0093 28.9481 60.711 29H39.5ZM39.5 32.857H60.713C63.596 32.857 65.735 32.869 67.172 33.03C67.5833 32.9557 68.0065 32.982 68.4054 33.1067C68.8043 33.2314 69.1672 33.4508 69.4629 33.7461C69.7586 34.0415 69.9785 34.404 70.1037 34.8027C70.229 35.2015 70.2558 35.6247 70.182 36.0361C70.3937 36.8876 70.4523 37.77 70.355 38.642V40.5701H62.641C62.4992 40.5685 62.3577 40.5826 62.219 40.612C60.2502 40.71 58.3944 41.5612 57.0355 42.9893C55.6767 44.4174 54.9189 46.3133 54.9189 48.2845C54.9189 50.2558 55.6767 52.1517 57.0355 53.5798C58.3944 55.0079 60.2502 55.859 62.219 55.957C62.3577 55.9863 62.4993 56 62.641 55.998H70.355V57.927C70.4514 58.7971 70.3928 59.6774 70.182 60.5271C70.2562 60.9383 70.2297 61.3613 70.105 61.7601C69.9802 62.1589 69.7608 62.5216 69.4654 62.8172C69.1701 63.1128 68.8077 63.3326 68.409 63.4577C68.0103 63.5829 67.5873 63.6098 67.176 63.5361C65.738 63.6981 63.599 63.7091 60.713 63.7091H39.5C38.763 63.7091 38.212 63.698 37.572 63.694V32.871C38.213 32.871 38.763 32.856 39.5 32.856V32.857ZM33.715 32.9931V63.576C33.515 63.56 33.221 63.559 33.041 63.538C32.2209 63.5491 31.4187 63.2983 30.751 62.822C30.2736 62.1548 30.0217 61.3525 30.032 60.5321C29.8199 59.6802 29.7614 58.7974 29.859 57.925V38.641C29.7624 37.771 29.821 36.8906 30.032 36.041C30.0208 35.2211 30.2712 34.4189 30.747 33.751C31.4142 33.2734 32.2165 33.0211 33.037 33.031C33.218 33.011 33.511 33.01 33.715 32.994V32.9931ZM62.642 44.4281H70.356V52.142H62.641C61.6181 52.142 60.637 51.7357 59.9137 51.0123C59.1904 50.289 58.784 49.308 58.784 48.285C58.784 47.2621 59.1904 46.281 59.9137 45.5577C60.637 44.8344 61.6181 44.4281 62.641 44.4281H62.642ZM62.642 46.357C62.2607 46.357 61.8879 46.4701 61.5709 46.682C61.2538 46.8938 61.0067 47.1949 60.8608 47.5472C60.7148 47.8995 60.6767 48.2872 60.7511 48.6612C60.8254 49.0352 61.0091 49.3787 61.2787 49.6484C61.5483 49.918 61.8919 50.1016 62.2659 50.176C62.6399 50.2504 63.0275 50.2122 63.3798 50.0663C63.7321 49.9204 64.0332 49.6732 64.2451 49.3562C64.4569 49.0391 64.57 48.6664 64.57 48.285C64.5701 48.0317 64.5203 47.7808 64.4234 47.5467C64.3265 47.3126 64.1845 47.0999 64.0053 46.9207C63.8262 46.7416 63.6135 46.5995 63.3794 46.5026C63.1453 46.4057 62.8944 46.3559 62.641 46.356L62.642 46.357Z" fill="#5715E8"/>
</g>
<defs>
<clipPath id="clip0_42_120">
<rect width="48.212" height="38.57" fill="white" transform="translate(26 29)"/>
</clipPath>
</defs>
</svg>
