<svg xmlns="http://www.w3.org/2000/svg" width="44.743" height="32.557" viewBox="0 0 44.743 32.557">
  <path id="_193768_credit_card_credit_card_debit_icon" data-name="193768_credit card_credit_card_debit_icon" d="M6.649,6.249h35.94a4.331,4.331,0,0,1,3.165,1.407,4.684,4.684,0,0,1,1.235,3.194l0,23.357a4.508,4.508,0,0,1-4.4,4.6H6.65a4.508,4.508,0,0,1-4.4-4.6V10.848A4.508,4.508,0,0,1,6.649,6.249ZM42.98,14.04V10.848a.7.7,0,0,0-.171-.474.327.327,0,0,0-.22-.118H6.649c-.16,0-.392.23-.392.591V14.04Zm0,4.008H6.257V34.207c0,.361.232.591.393.591H42.59c.16,0,.392-.23.392-.591Z" transform="translate(-2.248 -6.249)" fill="#5715e8"/>
</svg>
