<svg xmlns="http://www.w3.org/2000/svg" width="586.457" height="823.098" viewBox="0 0 586.457 823.098">
  <g id="Shopping_e-commerce___clothing_fashion_store_clothes_shop_woman_bill_list_invoice" data-name="Shopping, e-commerce _ clothing, fashion, store, clothes, shop, woman, bill, list, invoice" transform="translate(-162.327 -56.835)">
    <path id="Caminho_21842" data-name="Caminho 21842" d="M162.691,879.613h93.994v10.02a47.02,47.02,0,1,1-94.03,0v-10.02Z" transform="translate(-0.323 -58.03)" fill="rgba(237,61,142,0.1)"/>
    <path id="Caminho_21843" data-name="Caminho 21843" d="M572.733,292.248l-.155,31.361V866.722c0,30.332-24.594,24.594-54.926,24.548l-77.342-.054H221.36a46.92,46.92,0,0,0,38.895-44.424c.055-.628.055-1.266.055-1.894a6.472,6.472,0,0,0,0-.711l-.683-556.439A47.551,47.551,0,0,0,236.763,251.5a46.681,46.681,0,0,0-23.491-6.285H525.7A47.047,47.047,0,0,1,572.733,292.248Z" transform="translate(-3.894 -13.286)" fill="#ed3d8e"/>
    <path id="Caminho_21844" data-name="Caminho 21844" d="M256.687,366.791H162.694V292.2a47.019,47.019,0,1,1,94.03,0v85.5" transform="translate(-0.326 -13.238)" fill="rgba(237,61,142,0.1)"/>
    <rect id="Ret창ngulo_38534" data-name="Ret창ngulo 38534" width="150.605" height="365.391" rx="19.8" transform="translate(426.905 765.463) rotate(180)" fill="#ed3d8e"/>
    <path id="Caminho_21845" data-name="Caminho 21845" d="M456.1,396.4h-53.9v-4.043h53.9Z" transform="translate(-17.219 -23.664)" fill="#fff"/>
    <path id="Caminho_21846" data-name="Caminho 21846" d="M404.367,469.538H320.484V465.5h83.883Z" transform="translate(-11.455 -28.823)" fill="#fff"/>
    <path id="Caminho_21847" data-name="Caminho 21847" d="M404.367,501.231H320.484v-4.043h83.883Z" transform="translate(-11.455 -31.058)" fill="#fff"/>
    <path id="Caminho_21848" data-name="Caminho 21848" d="M404.367,532.924H320.484v-4.043h83.883Z" transform="translate(-11.455 -33.293)" fill="#fff"/>
    <path id="Caminho_21849" data-name="Caminho 21849" d="M404.367,564.617H320.484v-4.043h83.883Z" transform="translate(-11.455 -35.529)" fill="#fff"/>
    <path id="Caminho_21850" data-name="Caminho 21850" d="M404.367,596.3H320.484v-4.043h83.883Z" transform="translate(-11.455 -37.763)" fill="#fff"/>
    <path id="Caminho_21851" data-name="Caminho 21851" d="M404.367,627.994H320.484v-4.043h83.883Z" transform="translate(-11.455 -39.998)" fill="#fff"/>
    <path id="Caminho_21852" data-name="Caminho 21852" d="M404.367,733.873H320.484V729.83h83.883Z" transform="translate(-11.455 -47.466)" fill="#fff"/>
    <path id="Caminho_21853" data-name="Caminho 21853" d="M404.367,748.652H320.484v-4.043h83.883Z" transform="translate(-11.455 -48.508)" fill="#fff"/>
    <path id="Caminho_21854" data-name="Caminho 21854" d="M404.367,763.42H320.484v-4.043h83.883Z" transform="translate(-11.455 -49.55)" fill="#fff"/>
    <path id="Caminho_21855" data-name="Caminho 21855" d="M447.4,359.17h-45.2v-4.043h45.2Z" transform="translate(-17.219 -21.038)" fill="#fff"/>
    <path id="Caminho_21856" data-name="Caminho 21856" d="M453.716,377.79h-51.51v-4.043h51.51Z" transform="translate(-17.219 -22.352)" fill="#fff"/>
    <path id="Caminho_21857" data-name="Caminho 21857" d="M463.18,340.56H402.206v-4.043H463.18Z" transform="translate(-17.219 -19.726)" fill="#fff"/>
    <rect id="Ret창ngulo_38535" data-name="Ret창ngulo 38535" width="63.352" height="63.352" rx="8.95" transform="translate(361.896 376.445) rotate(180)" fill="#ed3d8e"/>
    <circle id="Elipse_319" data-name="Elipse 319" cx="9.309" cy="9.309" r="9.309" transform="translate(320.915 321.144)" fill="rgba(237,61,142,0.1)"/>
    <path id="Caminho_21858" data-name="Caminho 21858" d="M365.1,390.235a23.574,23.574,0,1,0-47.147,0Z" transform="translate(-11.277 -21.852)" fill="rgba(237,61,142,0.1)"/>
    <path id="Caminho_21859" data-name="Caminho 21859" d="M338.8,846.674l-6.886,13.954a2.552,2.552,0,0,1-1.931,1.4l-15.375,2.24a2.569,2.569,0,0,0-1.457,4.391L324.3,879.529a2.534,2.534,0,0,1,.738,2.269l-2.632,15.348a2.569,2.569,0,0,0,3.725,2.733l13.781-7.287a2.568,2.568,0,0,1,2.387,0l13.781,7.287a2.56,2.56,0,0,0,3.717-2.733L357.175,881.8a2.534,2.534,0,0,1,.738-2.269l11.149-10.866a2.568,2.568,0,0,0-1.43-4.381l-15.4-2.241a2.551,2.551,0,0,1-1.931-1.4L343.4,846.684a2.559,2.559,0,0,0-4.6-.009Z" transform="translate(-10.883 -55.606)" fill="rgba(237,61,142,0.1)"/>
    <path id="Caminho_21860" data-name="Caminho 21860" d="M449,886.4H396.659v-4.043H449Z" transform="translate(-16.828 -58.224)" fill="rgba(87,21,232,0.5)"/>
    <path id="Caminho_21861" data-name="Caminho 21861" d="M658.689,857.064H636.882A23.018,23.018,0,0,1,614.6,828.325l7.76-30.059h78.5L654.016,653.19H664.7a24.014,24.014,0,0,0,12.7-3.6,22.7,22.7,0,0,0,3.725-2.824c.292-.264.583-.547.847-.81.547-.556,1.048-1.139,1.549-1.721.474-.6.911-1.212,1.376-1.822a24.321,24.321,0,0,0,3.826-17.207q-2.295-15.12-4.646-29.485C635.743,298.375,579.87,235.16,552,221.724l2.459-31.544a18.942,18.942,0,0,0,10.02-8.362c.638.182,1.294.419,1.986.683,5.883,2.141,13.007,3.479,19.055,1.184,7.442-2.824,3.061-10.612,2.56-16.232-.164-1.321-1.4-9.61,1.157-9.627h5.647a1.822,1.822,0,0,0,1.612-2.833,53.084,53.084,0,0,1-7.177-28.638,10.832,10.832,0,0,1-1.03,1.266c.347-.419.683-.838,1-1.266.182-.265.374-.51.556-.774s.347-.547.529-.838a16.01,16.01,0,0,0,.911-1.822,18.4,18.4,0,0,0,1.293-3.853,19.486,19.486,0,0,0-.6-10.877v-.082a3.41,3.41,0,0,0-.264-.683,14.686,14.686,0,0,0-.911-2.113c-.209-.392-.419-.793-.655-1.184a10.585,10.585,0,0,0-.584-.911c-.418-.611-.837-1.184-1.293-1.768a23.9,23.9,0,0,0-2.214-2.5C580.589,93.481,572.93,89.518,566.1,87.1c-.683-.237-1.4-.474-2.087-.683s-1.111-.346-1.657-.5c-1.321-.392-2.642-.738-3.99-1.029-.71-.155-1.42-.319-2.141-.419-.911-.191-1.822-.346-2.824-.474-.71-.109-1.42-.191-2.141-.264s-1.448-.137-2.158-.191h-.182c-12.434-.82-24.895,2.268-34.477,11.031-.5.483-1,.911-1.5,1.485.237-.346.5-.72.71-1.084a23.5,23.5,0,0,0,1.822-3.507,15.123,15.123,0,0,0,.611-1.667c.182-.556.336-1.139.5-1.712a22.192,22.192,0,0,0,.655-5.465,23.073,23.073,0,0,0-1.266-7.551c-.127-.346-.237-.683-.364-1a23.366,23.366,0,0,0-1.193-2.56,27.533,27.533,0,0,0-1.822-2.824,23.127,23.127,0,0,0-18.654-9.373,12.1,12.1,0,0,0-1.721.082,14.775,14.775,0,0,0-1.922.21,23.309,23.309,0,0,0,3.644,46.327,22.923,22.923,0,0,0,11.158-3.015h.055a24.664,24.664,0,0,0,2.213-1.376,5.221,5.221,0,0,0,.483-.336c.547-.428,1.048-.848,1.557-1.294-10.02,12.616-13.544,30.059-10.274,45.736a100.909,100.909,0,0,0,4.964,16.4c2.241,5.674,6.285,9.792,7.023,16.05.556,4.828-9.109,32.227-12.2,44.269-6.121,5.41-11.35,13.034-15.485,22.225.191-.529.4-1.03.583-1.558-.5,1.048-.975,2.131-1.457,3.243a70.7,70.7,0,0,0-2.632,7.1,105.607,105.607,0,0,0-4.091,18.391c-.291,2.086-.555,4.171-.765,6.285l-.082.911a2.9,2.9,0,0,1-.055.473c-.1,1.1-.182,2.214-.264,3.325-.11,1.394-.209,2.8-.264,4.2s-.127,2.632-.21,3.981v.264c-.082,1.53-.137,3.061-.154,4.619v.555c-.137,5.52-.11,11.086,0,16.633.127,8.79.391,17.553.391,26v3.854s0,2.56-.055,3.8-.054,2.405-.1,3.571c0,1.321-.11,2.615-.165,3.908v.364a2.877,2.877,0,0,1,0,.4v.182c-.055,1.03-.137,2.059-.218,3.089a683.258,683.258,0,0,1-18.874,117.358c-13.326,52.257-34.677,102.328-45.37,155.2-2.533,12.434-3.981,26.47-.237,38.139a36.758,36.758,0,0,0,1.4,3.725c.264.6.547,1.211.838,1.822.473.911.983,1.74,1.484,2.587a24.726,24.726,0,0,0,1.712,2.45c.392.529.848,1.03,1.294,1.558a19.73,19.73,0,0,0,1.4,1.476c6.632,6.549,15.741,9.509,25.032,11.221l-39.752,54.562,24.494,11.769,1.767.847-.347.529-1.029-.5-49.188,64.117,82.334,40.57a10.107,10.107,0,0,0,5.384,1.057,10.531,10.531,0,0,0,10.238-5.894,10.33,10.33,0,0,0,1.112-4.7,10.639,10.639,0,0,0-5.939-9.527l-18.263-9a22.991,22.991,0,0,1-7.287-35.606l17.261-21.7,4.272-.82,51.237,24.594,34.131-41.126v35.452h28.456l-15.977,79.948h93.2a10.612,10.612,0,0,0,0-21.224Z" transform="translate(-15.549 -0.175)" fill="#fff"/>
    <path id="Caminho_21862" data-name="Caminho 21862" d="M575.815,276.612c13.409,58.725,19.711,145.969,22.618,224.988-2.933-78.955-9.264-166.008-22.618-224.633-6.731-29.294-16.269-43.2-27.481-48.75,1.029.418,2.086.911,3.143,1.43a.67.67,0,0,0,.182.1C561.451,236.332,569.767,250.215,575.815,276.612Z" transform="translate(-27.525 -12.087)" fill="#5715e8"/>
    <path id="Caminho_21863" data-name="Caminho 21863" d="M604.438,622.521a13.146,13.146,0,0,0-.911-1.084,24.585,24.585,0,0,0,.848-3.3C604.438,619.615,604.438,621.072,604.438,622.521Z" transform="translate(-31.418 -39.588)" fill="#5715e8"/>
    <path id="Caminho_21864" data-name="Caminho 21864" d="M579.106,179.2a18.5,18.5,0,0,1-12.178,17.389,17.883,17.883,0,0,1-6.3,1.121,16.108,16.108,0,0,1-3.325-.328,18.482,18.482,0,0,1-3.725-31.881,18.216,18.216,0,0,1,11-3.644,16.033,16.033,0,0,1,3.325.328A18.48,18.48,0,0,1,579.106,179.2Z" transform="translate(-27.365 -7.407)"/>
    <path id="Caminho_21865" data-name="Caminho 21865" d="M604.7,648.975c0-1.212,0-2.45-.055-3.7C610.164,644.539,604.7,647.782,604.7,648.975Z" transform="translate(-31.497 -41.495)" fill="#ed3d8e"/>
    <path id="Caminho_21866" data-name="Caminho 21866" d="M631.817,588.705c1.476,16.632,3.061,33.265,5.12,49.788.262,2.108.582,4.346.915,6.675,2.541,17.784,5.844,40.9-9.678,52.515-3.8,2.9-8.635,3.853-13.28,4.718a513.192,513.192,0,0,1-161.882,3.962c-11.933-1.575-24.63-4.035-33.183-12.506-12.98-12.807-11.559-33.894-7.915-51.738,6.095-30.119,15.65-59.345,25.209-88.58,7.214-22.064,14.43-44.133,20.162-66.6a683.162,683.162,0,0,0,18.873-117.367c.082-1.211.165-2.459.237-3.7v249.5a5.466,5.466,0,0,0-2.3,4.372v57.568h2.3v6.668a4.053,4.053,0,0,0,4.044,4.062H586.619a4.044,4.044,0,0,0,4.063-3.98c.137-8.317.4-32.573.346-61.458v-7.3c-.419.054-.92.127-1.476.236a5.175,5.175,0,0,0-3.644-1.475,1.379,1.379,0,0,0-.291,0H572.865l-3.325-15.121,27.326.374s-2.032-11.833-5.12-30.706c-.237-4.19-.738-8.945-1.558-14.274.027.887.047,1.767.068,2.643.02.9.042,1.791.069,2.685-9.291-57.568-25.177-163.412-26.416-218.111q-.091-3.985-.175-7.829c-1.6-72.217-2.365-106.906-41.871-108.964h-2.514a30.775,30.775,0,0,1,8.872,0h.055a39.606,39.606,0,0,1,10.02,2.8.126.126,0,0,1,.1,0l.164.073a27.765,27.765,0,0,1,3.116,1.822c-1.057-.52-2.114-1.011-3.143-1.43,11.212,5.547,20.75,19.457,27.481,48.751,8.717,38.457,14.447,89.111,18.218,141.724-3.643-52.749-9.428-103.558-18.218-142.1-6.048-26.4-14.364-40.28-24.156-46.856a80.562,80.562,0,0,1,15.148,10.02c27.19,22.863,37.274,57.841,42.739,91.544,11.531,71.212,20.221,142.98,27.982,214.7C629.285,560.085,630.551,574.4,631.817,588.705ZM521.664,613.016l26.343,1H479.536a5.371,5.371,0,0,0-3.088.983V365.511c.548-10.379.34-21.491.127-32.808q-.067-3.583-.127-7.189V306.833c.091-5.7.382-11.323.911-16.87a117.972,117.972,0,0,1,4.909-25.177,68.817,68.817,0,0,1,2.642-7.1c.474-1.112.947-2.2,1.448-3.243-8.052,21.433-8.972,48.3-8.426,58.515,0,0,7.287,175.673,41.9,284.068h-.719Z" transform="translate(-17.725 -11.821)" fill="#5715e8"/>
    <path id="Caminho_21867" data-name="Caminho 21867" d="M575.815,276.612c13.409,58.725,19.711,145.969,22.618,224.988-2.933-78.955-9.264-166.008-22.618-224.633-6.731-29.294-16.269-43.2-27.481-48.75,1.029.418,2.086.911,3.143,1.43a.67.67,0,0,0,.182.1C561.451,236.332,569.767,250.215,575.815,276.612Z" transform="translate(-27.525 -12.087)" fill="#5715e8"/>
    <path id="Caminho_21868" data-name="Caminho 21868" d="M604.438,622.521a13.146,13.146,0,0,0-.911-1.084,24.618,24.618,0,0,0,.848-3.3C604.438,619.615,604.438,621.072,604.438,622.521Z" transform="translate(-31.418 -39.588)" fill="#5715e8"/>
    <path id="Caminho_21869" data-name="Caminho 21869" d="M677.1,665.014H666.408L641.86,589.092c-1.267-14.31-2.533-28.62-4.091-42.894-7.76-71.723-16.441-143.491-27.982-214.7-5.465-33.7-15.54-68.68-42.73-91.544a80.312,80.312,0,0,0-15.157-10.02s4.655-.21,12.57,3.644c28.748,13.863,87.371,80.8,136.7,403.52A24.367,24.367,0,0,1,677.1,665.014Z" transform="translate(-27.777 -12.208)" fill="#ed3d8e"/>
    <path id="Caminho_21870" data-name="Caminho 21870" d="M682.27,923.521a10.621,10.621,0,0,1-10.64,10.612H579.85l15.959-80.03H636.8l-7.761,30.059a23.018,23.018,0,0,0,22.28,28.738h20.377a10.639,10.639,0,0,1,10.639,10.612Z" transform="translate(-29.748 -56.231)" fill="#ed3d8e"/>
    <path id="Caminho_21871" data-name="Caminho 21871" d="M476.284,908.986a10.336,10.336,0,0,1-1.112,4.7,10.566,10.566,0,0,1-14.2,4.837l-82.325-40.571,49.188-64.117L464.807,831.6l-20.039,23.255a22.99,22.99,0,0,0,7.287,35.606l18.218,9.027A10.621,10.621,0,0,1,476.284,908.986Z" transform="translate(-15.557 -53.391)" fill="#ed3d8e"/>
    <path id="Caminho_21872" data-name="Caminho 21872" d="M479.525,705.445s1.758,2.733,1.758,7.989,16.323,4.327,18.483,4.327l84.029-.218s11.841,3.051,11.841-8.8,3.644-60.974-1.339-63.37-35.816-.482-35.816-.482l-69.728-1s-10.284-6.376-9.764,13.381S479.525,705.445,479.525,705.445Z" transform="translate(-22.633 -41.335)" fill="rgba(237,61,142,0.1)"/>
    <path id="Caminho_21873" data-name="Caminho 21873" d="M602.42,120.568a19.191,19.191,0,0,1-3.3,7.287,25.863,25.863,0,0,1-10.32,8.053c-9.4,4.354-21.542,5.018-30.059,3.006a35.507,35.507,0,0,0-6.941-1.021c-2.733,0-5.329.5-7.333,2.341-6.02,5.547-2.824,12.7,1.922,18.135a19.074,19.074,0,0,0-7.769,15.412,12.282,12.282,0,0,1-3.088,4.909c-.793,0-2.733,2.8-3.407,2.733-5.538-.974-7.779,1.767-9.6-2.733a108.392,108.392,0,0,1-7.041-30.177c-1.175-11.942-1.64-25.377,3.643-36.435A44.629,44.629,0,0,1,535.652,94.1,61.545,61.545,0,0,1,558.9,84.99a63.576,63.576,0,0,1,16.969,3.571C589.276,93.324,606.008,103.936,602.42,120.568Z" transform="translate(-25.155 -1.986)" fill="#ed3d8e"/>
    <path id="Caminho_21874" data-name="Caminho 21874" d="M524.955,82.309a23.127,23.127,0,0,1-4.272,13.435,43.532,43.532,0,0,0-3.507,3.935,22.021,22.021,0,0,1-4.253,3.006,23.292,23.292,0,0,1-14.885-43.395A23.9,23.9,0,0,1,501.682,59,23.309,23.309,0,0,1,524.955,82.309Z" transform="translate(-23.13 -0.153)" fill="#ed3d8e"/>
    <path id="Caminho_21875" data-name="Caminho 21875" d="M523.561,222.581h0a41.909,41.909,0,0,1,19.042,4.986,82.368,82.368,0,0,1,15.536,10.271,96.755,96.755,0,0,1,9.623,9.309,103.079,103.079,0,0,1,8.121,10.293A124.719,124.719,0,0,1,588.225,280.3a178.322,178.322,0,0,1,8.156,24.8c1.963,7.685,3.663,16.021,5.2,25.482,12.672,78.2,21.618,155.88,28,214.819,1.4,12.917,2.58,26.086,3.725,38.821,1.59,17.688,3.234,35.979,5.471,53.845.26,2.072.574,4.263.907,6.581,1.3,9.082,2.779,19.376,1.972,29.076a42.474,42.474,0,0,1-3.351,14.02,28.671,28.671,0,0,1-9.039,11.4c-4.047,3.028-8.994,4.134-14.132,5.088C599.72,707.093,584,709.266,568.4,710.7c-15.574,1.429-31.4,2.154-47.045,2.154a516.628,516.628,0,0,1-68.779-4.615,102.651,102.651,0,0,1-18.214-3.752c-6.725-2.195-12-5.243-16.129-9.319A34.2,34.2,0,0,1,410.56,683.5a47.713,47.713,0,0,1-3.1-13.58c-.71-7.979.045-17.254,2.31-28.357,2.738-13.58,6.45-28.246,11.345-44.834,4.358-14.768,9.231-29.657,13.942-44.056,7.079-21.633,14.4-44,20.106-66.366,4.81-19.1,8.835-38.648,11.964-58.1s5.437-39.275,6.861-58.925c.831-11.14.592-23.059.34-35.677-.473-23.671-.963-48.149,5.809-69.219l0-.006c.825-2.543,1.735-4.984,2.705-7.256a84.457,84.457,0,0,1,7.5-14.035,57.064,57.064,0,0,1,9.354-10.9,39.542,39.542,0,0,1,11.139-7.092A33.256,33.256,0,0,1,523.561,222.581Zm-2.2,486.226c15.52,0,31.224-.719,46.676-2.137,15.475-1.42,31.072-3.575,46.356-6.406,4.826-.9,9.094-1.841,12.447-4.35,6.393-4.784,9.92-12.15,10.783-22.518.769-9.243-.673-19.3-1.945-28.166-.335-2.337-.652-4.544-.916-6.652-2.246-17.936-3.893-36.263-5.486-53.986-1.143-12.717-2.325-25.868-3.718-38.749-6.372-58.89-15.31-136.5-27.967-214.607-1.515-9.341-3.191-17.561-5.123-25.128a174.338,174.338,0,0,0-7.969-24.247,120.683,120.683,0,0,0-11.933-22.12,99,99,0,0,0-7.8-9.888,92.679,92.679,0,0,0-9.217-8.917,78.312,78.312,0,0,0-14.773-9.766,37.932,37.932,0,0,0-17.206-4.545h0c-7.632,0-14.759,2.893-21.184,8.6a53.033,53.033,0,0,0-8.682,10.126,80.439,80.439,0,0,0-7.133,13.365c-.924,2.164-1.791,4.491-2.579,6.919-6.564,20.426-6.081,44.559-5.615,67.9.254,12.717.494,24.728-.35,36.054-1.432,19.762-3.754,39.705-6.9,59.271s-7.2,39.232-12.036,58.449l0,.006C453.338,509.8,446,532.238,438.9,553.933c-4.7,14.371-9.565,29.232-13.907,43.943-4.861,16.472-8.545,31.026-11.26,44.493-2.186,10.718-2.921,19.612-2.245,27.2a43.7,43.7,0,0,0,2.825,12.429,30.181,30.181,0,0,0,6.765,10.295,36.033,36.033,0,0,0,14.543,8.352,99.026,99.026,0,0,0,17.494,3.588h.006A512.569,512.569,0,0,0,521.357,708.807Z" transform="translate(-17.571 -11.69)"/>
    <path id="Caminho_21876" data-name="Caminho 21876" d="M604.722,606.341l-2.45-.062c-.506-.013-50.877-1.27-78.756-.984l-1.651.017-.347-1.614c-3.471-16.168-7.574-34.752-12.193-55.234-10.368-45.847-17.732-110.95-22.085-157.491-4.707-50.338-7.179-92.987-6.941-95.828l4.029.338v0c-.068.948.331,10.485,1.6,29.193.992,14.651,2.728,38.018,5.36,66.14,4.339,46.353,11.674,111.176,21.983,156.761,4.47,19.82,8.456,37.862,11.856,53.664,2.392-.019,4.934-.028,7.576-.028,24.515,0,57.985.75,67.227.968-1.8-10.854-9.319-56.834-16.665-109.233-4.92-35.093-8.8-66.159-11.53-92.333-3.419-32.767-5.039-57.943-4.816-74.829l4.043.053c-.221,16.727,1.391,41.742,4.794,74.351,2.726,26.126,6.6,57.143,11.512,92.187,8.367,59.685,16.965,111.037,17.051,111.549Z" transform="translate(-22.726 -16.808)"/>
    <path id="Caminho_21877" data-name="Caminho 21877" d="M483.326,621.655h-4.043V313.477h4.043Z" transform="translate(-22.655 -18.101)"/>
    <path id="Caminho_21878" data-name="Caminho 21878" d="M591.468,719.958H485.358a6.085,6.085,0,0,1-6.075-6.07v-6.609h4.043v6.6a2.045,2.045,0,0,0,2.036,2.032H591.467a2.01,2.01,0,0,0,2-1.982v-.009c.169-10.655.432-36.259.347-64.634l4.043-.012c.085,28.4-.178,54.038-.347,64.708a6.047,6.047,0,0,1-6.046,5.973Z" transform="translate(-22.655 -41.785)"/>
    <path id="Caminho_21879" data-name="Caminho 21879" d="M597.888,619.174c-.1-26.845-.468-53.467-1.1-79.126-.807-32.55-2.041-63.516-3.669-92.035-4.187-73.354-10.949-130.886-20.1-171a159.286,159.286,0,0,0-5.5-19.036,83.293,83.293,0,0,0-6.376-13.788,44.856,44.856,0,0,0-7.065-9.216,29.221,29.221,0,0,0-7.192-5.22h-.051l-.415-.2a27.393,27.393,0,0,0-9.435-2.605l.365-4.027a31.417,31.417,0,0,1,10.4,2.789h.074l.417.2a33.056,33.056,0,0,1,8.664,6.169,48.88,48.88,0,0,1,7.716,10.044,87.312,87.312,0,0,1,6.7,14.462,163.339,163.339,0,0,1,5.642,19.526c9.2,40.331,15.995,98.088,20.194,171.666,1.63,28.563,2.866,59.572,3.674,92.165.636,25.687,1.008,52.338,1.1,79.212Z" transform="translate(-26.725 -11.714)"/>
    <path id="Caminho_21880" data-name="Caminho 21880" d="M587.449,708.773H476.833V649.2a7.414,7.414,0,0,1,7.4-7.405H590.411v4.043H484.238a3.377,3.377,0,0,0-3.362,3.366V704.73h102.53V653.082h4.043Z" transform="translate(-22.482 -41.257)"/>
    <path id="Caminho_21881" data-name="Caminho 21881" d="M595.487,653.118h-4.043v-4.3a7.123,7.123,0,0,1,7.121-7.033c.015,0,.03,0,.046,0a7.176,7.176,0,0,1,5.048,2.059,6.938,6.938,0,0,1,2.112,4.869l-4.042.078a2.919,2.919,0,0,0-.89-2.05l-.006-.006a3.156,3.156,0,0,0-2.222-.907h-.044a3.087,3.087,0,0,0-3.079,3.03Z" transform="translate(-30.566 -41.256)"/>
    <path id="Caminho_21882" data-name="Caminho 21882" d="M603.921,654.611h-10.3v-4.043h10.3Z" transform="translate(-30.719 -41.876)"/>
    <path id="Caminho_21883" data-name="Caminho 21883" d="M582.223,644.732H528.332l-3.687-17.7,3.958-.825,3.016,14.477h45.65l-2.692-13.159,3.961-.81Z" transform="translate(-25.855 -40.158)"/>
    <path id="Caminho_21884" data-name="Caminho 21884" d="M521.154,854.273,401.488,796.784l41.162-56.515,3.268,2.38-38.3,52.592,112.445,54.02,33.123-39.929,3.112,2.581Z" transform="translate(-17.168 -48.202)"/>
    <path id="Caminho_21885" data-name="Caminho 21885" d="M716.908,839.307H564.191v-38.2l.466-.561,59.617-71.868,3.112,2.581-59.151,71.307v32.7H711.353l-46-142.423L640.794,616.9l3.847-1.244L669.2,691.6Z" transform="translate(-28.644 -39.413)"/>
    <path id="Caminho_21886" data-name="Caminho 21886" d="M672.981,936.126H578.689l16.441-82.465,3.965.791-15.477,77.631h89.362a8.6,8.6,0,0,0,0-17.2H652.585a25.012,25.012,0,0,1-24.2-31.255l7.752-30.059,3.915,1.01L632.3,884.639a20.968,20.968,0,0,0,20.288,26.2h20.393a12.643,12.643,0,0,1,0,25.285Z" transform="translate(-29.666 -56.193)"/>
    <path id="Caminho_21887" data-name="Caminho 21887" d="M466.939,921.509a12.6,12.6,0,0,1-5.576-1.307l-84.536-41.678,51.178-66.718,3.208,2.461-48.18,62.809,80.116,39.5a8.6,8.6,0,1,0,7.6-15.428l-18.283-9.018a25.012,25.012,0,0,1-7.926-38.746L464.8,829.835l3.065,2.637-20.258,23.546a20.969,20.969,0,0,0,6.647,32.483l18.284,9.019a12.651,12.651,0,0,1-5.6,23.989Z" transform="translate(-15.429 -53.248)"/>
    <path id="Caminho_21888" data-name="Caminho 21888" d="M677.145,666.86H666.393v-4.043h10.752a22.316,22.316,0,0,0,22.063-25.674c-7.427-48.6-15.575-93.832-24.216-134.447-7.861-36.946-16.308-70.9-25.106-100.926-14.83-50.608-30.917-91.117-47.815-120.4a188.831,188.831,0,0,0-20.137-29.041,85.9,85.9,0,0,0-15.879-14.686,37.636,37.636,0,0,0-10.352-5.226,13.3,13.3,0,0,0-3.687-.673h.023l-.213-4.038a15.311,15.311,0,0,1,4.474.677,39.838,39.838,0,0,1,11.225,5.376,86.34,86.34,0,0,1,16.565,14.894,186.694,186.694,0,0,1,20.632,29.232c17.184,29.358,33.522,70.1,48.558,121.1,8.915,30.236,17.47,64.469,25.427,101.748,8.749,40.99,16.991,86.682,24.5,135.805a26.36,26.36,0,0,1-26.06,30.327Z" transform="translate(-27.772 -12.051)"/>
    <path id="Caminho_21889" data-name="Caminho 21889" d="M509.973,224.285l-3.916-1.008c1.121-4.355,3.056-10.589,5.1-17.19,1.805-5.816,3.672-11.831,5.035-16.751.729-2.63,1.247-4.7,1.583-6.332a12.493,12.493,0,0,0,.424-3.271c-.411-3.528-2.047-6.4-3.779-9.431a47.793,47.793,0,0,1-3.1-6.105,102.205,102.205,0,0,1-5.063-16.724,59.227,59.227,0,0,1-1.193-14.34,59.884,59.884,0,0,1,2.271-14.253,52.626,52.626,0,0,1,14.849-24.473,43.3,43.3,0,0,1,12.145-7.829,48.332,48.332,0,0,1,13.6-3.558,63.085,63.085,0,0,1,27.924,3.468,66.9,66.9,0,0,1,10.64,4.8,46.429,46.429,0,0,1,9.765,7.188,27.323,27.323,0,0,1,6.625,9.837,21.915,21.915,0,0,1,.825,12.485,21.332,21.332,0,0,1-3.933,8.5,26.053,26.053,0,0,1-6.811,6.122,43.767,43.767,0,0,1-17.742,5.981,51.475,51.475,0,0,1-17.667-.655c-4.469-1.028-9.486-1.9-12.448.837a7.238,7.238,0,0,0-2.457,7.2,18.765,18.765,0,0,0,4.524,8.093l-3.051,2.653c-6.915-7.954-7.556-15.58-1.757-20.921a11.844,11.844,0,0,1,8.2-2.9,34.3,34.3,0,0,1,7.9,1.092,47.349,47.349,0,0,0,16.242.585,39.732,39.732,0,0,0,16.093-5.385c4.884-3.1,7.9-7.159,8.959-12.066a17.936,17.936,0,0,0-.661-10.218,23.331,23.331,0,0,0-5.673-8.368c-6.051-5.953-14.447-9.48-18.914-11.052a59.029,59.029,0,0,0-26.12-3.264,44.292,44.292,0,0,0-12.467,3.255,39.267,39.267,0,0,0-11.015,7.1,48.59,48.59,0,0,0-13.69,22.6,55.836,55.836,0,0,0-2.116,13.289,55.168,55.168,0,0,0,1.109,13.356,98.151,98.151,0,0,0,4.863,16.06,44.7,44.7,0,0,0,2.851,5.6c1.857,3.254,3.777,6.619,4.284,10.969.2,1.719-.438,5.052-2.127,11.147-1.38,4.98-3.256,11.024-5.07,16.869C512.99,213.838,511.069,220.026,509.973,224.285Z" transform="translate(-24.471 -1.822)"/>
    <path id="Caminho_21890" data-name="Caminho 21890" d="M592.806,191.7q-1.348,0-2.76-.136a40.966,40.966,0,0,1-9.97-2.368l-.041-.015c-.742-.288-1.3-.48-1.8-.624l1.111-3.888c.622.178,1.28.4,2.132.734a36.925,36.925,0,0,0,8.958,2.136,19.2,19.2,0,0,0,8.679-.949c2.317-.879,2.785-2.185,2.936-3.347a19.359,19.359,0,0,0-.812-6.206,34.677,34.677,0,0,1-.857-4.573c-.008-.066-.019-.148-.032-.243-.762-5.82-.5-8.973.861-10.54a3.079,3.079,0,0,1,2.323-1.083h5.407a54.982,54.982,0,0,1-7.331-29.57l4.04.151a50.948,50.948,0,0,0,6.878,27.547,3.843,3.843,0,0,1-3.379,5.916h-4.982a10.988,10.988,0,0,0-.184,2.966c.056,1.656.271,3.3.375,4.089.016.123.029.225.039.3l.007.069a31.058,31.058,0,0,0,.771,4.049,22.042,22.042,0,0,1,.884,7.649c-.411,3.15-2.265,5.372-5.511,6.6A21.721,21.721,0,0,1,592.806,191.7Z" transform="translate(-29.634 -5.233)"/>
    <path id="Elipse_320" data-name="Elipse 320" d="M18.975-2.175A21.144,21.144,0,0,1,33.93,33.93,21.15,21.15,0,1,1,10.742-.512,21.02,21.02,0,0,1,18.975-2.175Zm0,38.257a17.107,17.107,0,0,0,12.1-29.2A17.107,17.107,0,1,0,6.879,31.072,17,17,0,0,0,18.975,36.082Z" transform="translate(513.638 152.821)"/>
    <path id="Elipse_321" data-name="Elipse 321" d="M23.147-2.175A25.315,25.315,0,0,1,41.052,41.052,25.322,25.322,0,1,1,13.29-.184,25.165,25.165,0,0,1,23.147-2.175Zm0,46.6A21.285,21.285,0,0,0,31.429,3.54,21.285,21.285,0,0,0,14.865,42.754,21.144,21.144,0,0,0,23.147,44.426Z" transform="translate(455.405 59.01)"/>
    <path id="Caminho_21891" data-name="Caminho 21891" d="M567.3,231.515l-4.031-.311,2.432-31.525,4.031.311Z" transform="translate(-28.579 -10.075)"/>
    <path id="Caminho_21892" data-name="Caminho 21892" d="M528.745,190.073a20.846,20.846,0,0,1-8.342-1.908l1.786-3.627,0,0c.055.027,5.584,2.671,10.054.871a7.474,7.474,0,0,0,2.679-1.845,11.112,11.112,0,0,0,2.225-3.793l3.794,1.4a15.092,15.092,0,0,1-3.079,5.172,11.485,11.485,0,0,1-4.135,2.83A13.365,13.365,0,0,1,528.745,190.073Z" transform="translate(-25.555 -8.67)"/>
    <path id="Caminho_21893" data-name="Caminho 21893" d="M515.07,134.568c0,1.667-.082,3.2-.164,4.645.027-1.558.055-3.088.164-4.645Z" transform="translate(-25.168 -5.482)" fill="#ed3d8e"/>
    <path id="Caminho_21894" data-name="Caminho 21894" d="M752.678,942.074h-539.4v-4.043h539.4Z" transform="translate(-3.894 -62.15)"/>
  </g>
</svg>
