<svg xmlns="http://www.w3.org/2000/svg" width="169.141" height="59.153" viewBox="0 0 169.141 59.153" style="font-family: 'Inter'">
  <g id="Grupo_12142" data-name="Grupo 12142" transform="translate(-904 -3535.424)">
    <g id="_2993701_apple_brand_brands_ios_logo_icon" data-name="2993701_apple_brand_brands_ios_logo_icon" transform="translate(915 3544.017)">
      <path id="Caminho_21751" data-name="Caminho 21751" d="M27.283,16.269a8.681,8.681,0,0,1,4.8-7.762A9.891,9.891,0,0,0,25.7,6a9.679,9.679,0,0,0-3.7.821,8.817,8.817,0,0,1-3.408.76,8.817,8.817,0,0,1-3.408-.76A9.679,9.679,0,0,0,11.481,6C10.511,6,2,6.31,2,17.06c0,8.79,6,17.378,9.481,17.378a10.483,10.483,0,0,0,4.44-.938,6.481,6.481,0,0,1,2.67-.64,6.469,6.469,0,0,1,2.67.641,10.5,10.5,0,0,0,4.44.937c2.44,0,5.913-4.22,7.9-9.766A8.517,8.517,0,0,1,27.283,16.269Z" transform="translate(0 3.479)" fill="#fff"/>
      <path id="XMLID_1339_" d="M12,9.479A9.58,9.58,0,0,0,19.9,0,9.58,9.58,0,0,0,12,9.479Z" transform="translate(5.8)" fill="#fff"/>
      <path id="Caminho_21752" data-name="Caminho 21752" d="M11.481,6.395a9.679,9.679,0,0,1,3.7.821,8.817,8.817,0,0,0,3.408.76A8.817,8.817,0,0,0,22,7.216a9.679,9.679,0,0,1,3.7-.821,10.023,10.023,0,0,1,6.1,2.279c.1-.053.184-.118.283-.167A9.891,9.891,0,0,0,25.7,6a9.679,9.679,0,0,0-3.7.821,8.817,8.817,0,0,1-3.408.76,8.817,8.817,0,0,1-3.408-.76A9.679,9.679,0,0,0,11.481,6C10.511,6,2,6.31,2,17.06c0,.073.008.144.009.217C2.108,6.712,10.516,6.395,11.481,6.395Z" transform="translate(0 3.479)" fill="#fff" opacity="0.1"/>
      <path id="Caminho_21753" data-name="Caminho 21753" d="M25.7,30.049a10.5,10.5,0,0,1-4.44-.937,6.469,6.469,0,0,0-2.67-.641,6.481,6.481,0,0,0-2.67.64,10.483,10.483,0,0,1-4.44.938c-3.453,0-9.375-8.447-9.472-17.161,0,.062-.009.115-.009.178,0,8.79,6,17.378,9.481,17.378a10.483,10.483,0,0,0,4.44-.938,6.481,6.481,0,0,1,2.67-.64,6.469,6.469,0,0,1,2.67.641,10.5,10.5,0,0,0,4.44.937c2.44,0,5.913-4.22,7.9-9.766-.046-.012-.087-.034-.133-.046C31.456,26,28.09,30.049,25.7,30.049Z" transform="translate(0 7.473)" fill="#fff" opacity="0.2"/>
      <path id="Caminho_21754" data-name="Caminho 21754" d="M19.866.547c-.326,4.315-3.524,7.479-7.859,8.381,0,.137-.006.262,0,.4A9.6,9.6,0,0,0,19.9.261C19.884.335,19.889.459,19.866.547Z" transform="translate(5.8 0.151)" fill="#fff" opacity="0.2"/>
      <path id="Caminho_21755" data-name="Caminho 21755" d="M12.005,9.059c.018-.1.041-.389.064-.563q.025-.326.071-.642C12.717,3.9,15.779,1.268,19.9.412c0-.137.006-.273,0-.412A9.587,9.587,0,0,0,12.005,9.059Z" transform="translate(5.802 0)" fill="#fff" opacity="0.1"/>
      <path id="Caminho_21756" data-name="Caminho 21756" d="M27.283,19.749a8.681,8.681,0,0,1,4.8-7.762A9.891,9.891,0,0,0,25.7,9.479,9.679,9.679,0,0,0,22,10.3a8.817,8.817,0,0,1-3.408.76,8.817,8.817,0,0,1-3.408-.76,9.679,9.679,0,0,0-3.7-.821c-.971,0-9.481.31-9.481,11.06,0,8.79,6,17.378,9.481,17.378a10.483,10.483,0,0,0,4.44-.938,6.481,6.481,0,0,1,2.67-.64,6.469,6.469,0,0,1,2.67.641,10.5,10.5,0,0,0,4.44.937c2.44,0,5.913-4.22,7.9-9.766A8.517,8.517,0,0,1,27.283,19.749ZM25.7,0a9.58,9.58,0,0,0-7.9,9.479A9.58,9.58,0,0,0,25.7,0Z" transform="translate(0 0)" fill="#fff"/>
    </g>
  </g>
</svg>
