<svg xmlns="http://www.w3.org/2000/svg" width="38.597" height="54.028" viewBox="0 0 38.597 54.028">
  <path id="reports" d="M25.071,54.028c-.045,0-.09,0-.135,0H13.5a66.953,66.953,0,0,1-6.889-.2A7.331,7.331,0,0,1,2.027,52,7.324,7.324,0,0,1,.2,47.421a66.412,66.412,0,0,1-.2-6.9v-27A66.942,66.942,0,0,1,.2,6.637,7.319,7.319,0,0,1,2.019,2.054,7.323,7.323,0,0,1,6.6.226a66.468,66.468,0,0,1,6.9-.2H24.762A1.844,1.844,0,0,1,25.04,0a1.865,1.865,0,0,1,.4.038A9.207,9.207,0,0,1,29.8.727c1.423.713,2.433,1.809,4.346,3.721s3.013,2.933,3.725,4.358a9.2,9.2,0,0,1,.686,4.346,1.924,1.924,0,0,1,.012.7V40.529a66.832,66.832,0,0,1-.2,6.892A7.324,7.324,0,0,1,36.544,52a7.335,7.335,0,0,1-4.584,1.824,63.617,63.617,0,0,1-6.6.2ZM7.036,4.056a3.846,3.846,0,0,0-2.289.72A3.852,3.852,0,0,0,4.03,7.066c-.161,1.439-.174,3.577-.174,6.46v27c0,2.886.012,5.025.174,6.463a3.856,3.856,0,0,0,.72,2.289,3.855,3.855,0,0,0,2.289.715c1.439.161,3.577.174,6.46.174H25.071c.045,0,.09,0,.135,0,2.8,0,4.912-.014,6.323-.172a3.845,3.845,0,0,0,2.291-.72,3.832,3.832,0,0,0,.719-2.286c.163-1.439.174-3.577.174-6.464V15.454H25.071a1.93,1.93,0,0,1-1.93-1.928V3.883H13.5C10.613,3.883,8.475,3.895,7.036,4.056ZM27,11.6h7.668a2.787,2.787,0,0,0-.245-1.066,19.539,19.539,0,0,0-3-3.357,19.636,19.636,0,0,0-3.348-3A2.83,2.83,0,0,0,27,3.928Zm1.928,32.784H9.589a1.928,1.928,0,1,1,.054-3.857H28.928a.3.3,0,0,1,.056,0,1.928,1.928,0,0,1-.03,3.857Zm0-7.715H9.589a1.928,1.928,0,1,1,.054-3.857h19.34a1.928,1.928,0,0,1-.027,3.857Zm0-7.713H9.589A1.929,1.929,0,1,1,9.643,25.1h19.34a1.928,1.928,0,0,1-.027,3.857Z" fill="#5715e8"/>
</svg>
