<svg id="_134904_search_lense_icon" data-name="134904_search_lense_icon" xmlns="http://www.w3.org/2000/svg" width="15.838" height="15.837" viewBox="0 0 15.838 15.837">
  <path id="Caminho_1991" data-name="Caminho 1991" d="M8.1,13.529a6.064,6.064,0,1,1,6.064-6.064A6.07,6.07,0,0,1,8.1,13.529Zm0-11.053a4.99,4.99,0,1,0,4.99,4.99A5,5,0,0,0,8.1,2.475Z" transform="translate(-2.04 -1.401)" fill="#5610e7"/>
  <path id="Linha_71" data-name="Linha 71" d="M4.582,5.118a.535.535,0,0,1-.38-.157L-.943-.183a.537.537,0,0,1,0-.759.537.537,0,0,1,.759,0L4.961,4.2a.537.537,0,0,1-.38.917Z" transform="translate(10.719 10.719)" fill="#5610e7"/>
</svg>
