<svg xmlns="http://www.w3.org/2000/svg" width="48" height="41" viewBox="0 0 48 41">
  <path id="traffic_icon" data-name="traffic icon" d="M5.76,41A5.808,5.808,0,0,1,0,35.144V5.858A5.81,5.81,0,0,1,5.76,0H42.24A5.81,5.81,0,0,1,48,5.858V35.144A5.808,5.808,0,0,1,42.24,41ZM42.24,37.1a1.937,1.937,0,0,0,1.92-1.952v-12.1h-6.3L33.162,37.1ZM3.84,5.858V35.144A1.937,1.937,0,0,0,5.76,37.1H28.277L19.2,9.966,15.26,21.737a1.916,1.916,0,0,1-1.821,1.307H5.76a1.913,1.913,0,1,1,0-3.825h6.3L17.181,3.906H5.76A1.935,1.935,0,0,0,3.84,5.858ZM30.72,32.3l3.94-11.771a1.917,1.917,0,0,1,1.821-1.309H44.16V5.858a1.935,1.935,0,0,0-1.92-1.952H21.22Z" fill="#5715e8"/>
</svg>
