<svg xmlns="http://www.w3.org/2000/svg" width="169.141" height="59.153" viewBox="0 0 169.141 59.153">
  <g id="Grupo_12143" data-name="Grupo 12143" transform="translate(-727 -3535.424)">
    <g id="_x31_03-GooglePlay_x2C__play_x2C__google_play_x2C__apps" transform="translate(706.362 3529.787)">
      <g id="Grupo_12141" data-name="Grupo 12141" transform="translate(32.724 16.296)">
        <g id="Grupo_12140" data-name="Grupo 12140">
          <g id="Grupo_12139" data-name="Grupo 12139">
            <path id="Caminho_21747" data-name="Caminho 21747" d="M52.318,49.961l-18.25,18.3a4.344,4.344,0,0,1-1.344-3.192v-28.7a4.4,4.4,0,0,1,1.391-3.239Zm0,0" transform="translate(-32.724 -31.797)" fill="#2299f8"/>
            <g id="Grupo_12138" data-name="Grupo 12138" transform="translate(1.391)">
              <path id="Caminho_21748" data-name="Caminho 21748" d="M296.347,167.211a4.49,4.49,0,0,1-2.382,3.949l-5.186,2.884-6.437-5.958-1.768-1.631,6.814-6.833,6.578,3.641a4.49,4.49,0,0,1,2.382,3.948Zm0,0" transform="translate(-262.37 -148.291)" fill="#ffc107"/>
              <path id="Caminho_21749" data-name="Caminho 21749" d="M68.524,34.46l-18.2-16.833a4.673,4.673,0,0,1,.849-.639,4.734,4.734,0,0,1,4.81-.071l19.358,10.71Zm0,0" transform="translate(-50.321 -16.296)" fill="#5acf5f"/>
            </g>
            <path id="Caminho_21750" data-name="Caminho 21750" d="M76.177,253.641l-20.75,11.466a4.684,4.684,0,0,1-2.358.615,4.586,4.586,0,0,1-2.452-.685,4.282,4.282,0,0,1-.9-.686l18.25-18.3,1.768,1.631Zm0,0" transform="translate(-48.377 -227.887)" fill="#f84437"/>
          </g>
        </g>
      </g>
    </g>
  </g>
</svg>
