<svg xmlns="http://www.w3.org/2000/svg" width="50.756" height="43.49" viewBox="0 0 50.756 43.49">
  <g id="Grupo_12151" data-name="Grupo 12151" transform="translate(-294.475 -3587.768)">
    <g id="Grupo_12150" data-name="Grupo 12150" transform="translate(295 3588.306)" opacity="0.34">
      <g id="Grupo_12014" data-name="Grupo 12014" transform="translate(0)">
        <g id="Grupo_12013" data-name="Grupo 12013">
          <g id="Grupo_12012" data-name="Grupo 12012">
            <g id="Grupo_12011" data-name="Grupo 12011">
              <g id="Grupo_12010" data-name="Grupo 12010">
                <path id="Caminho_21741" data-name="Caminho 21741" d="M116.11,979.92c-12.667-15.542-54.244-8.48-41.909,20.646C86.556,1029.737,138.46,1007.342,116.11,979.92Z" transform="translate(-71.94 -971.883)" fill="#8a5cef" stroke="rgba(0,0,0,0)" stroke-width="1"/>
              </g>
            </g>
          </g>
        </g>
      </g>
    </g>
    <path id="reports" d="M12.963,27.935l-.07,0H6.98a34.618,34.618,0,0,1-3.562-.1,3.79,3.79,0,0,1-2.37-.943A3.787,3.787,0,0,1,.1,24.519,34.338,34.338,0,0,1,0,20.954V6.994A34.612,34.612,0,0,1,.1,3.432a3.784,3.784,0,0,1,.942-2.37A3.786,3.786,0,0,1,3.414.117,34.367,34.367,0,0,1,6.98.014H12.8A.954.954,0,0,1,12.947,0a.964.964,0,0,1,.209.02,4.76,4.76,0,0,1,2.253.356A9.362,9.362,0,0,1,17.656,2.3a9.341,9.341,0,0,1,1.926,2.253A4.759,4.759,0,0,1,19.937,6.8a1,1,0,0,1,.006.361V20.955a34.556,34.556,0,0,1-.1,3.564,3.787,3.787,0,0,1-.945,2.37,3.793,3.793,0,0,1-2.37.943,32.893,32.893,0,0,1-3.415.1ZM3.638,2.1a1.988,1.988,0,0,0-1.184.372,1.991,1.991,0,0,0-.371,1.184C2,4.4,1.994,5.5,1.994,6.994v13.96c0,1.492.006,2.6.09,3.342a1.994,1.994,0,0,0,.372,1.184,1.993,1.993,0,0,0,1.184.37c.744.083,1.85.09,3.34.09h5.983l.07,0c1.45,0,2.54-.007,3.269-.089a1.988,1.988,0,0,0,1.185-.372,1.981,1.981,0,0,0,.372-1.182c.084-.744.09-1.85.09-3.342V7.991H12.963a1,1,0,0,1-1-1V2.008H6.98C5.488,2.008,4.382,2.014,3.638,2.1ZM13.96,6h3.965a1.441,1.441,0,0,0-.127-.551A10.1,10.1,0,0,0,16.246,3.71a10.153,10.153,0,0,0-1.731-1.552,1.463,1.463,0,0,0-.555-.127Zm1,16.951h-10a1,1,0,1,1,.028-1.994h10a1,1,0,0,1-.015,1.994Zm0-3.989h-10a1,1,0,1,1,.028-1.994h10a1,1,0,0,1-.014,1.994Zm0-3.988h-10a1,1,0,1,1,.028-1.994h10a1,1,0,0,1-.014,1.994Z" transform="translate(309.36 3594.026)" fill="#5715e8"/>
  </g>
</svg>
