<svg width="24" height="24" viewBox="0 0 24 24" fill="none" xmlns="http://www.w3.org/2000/svg">
<circle cx="12" cy="12" r="11.5" stroke="white"/>
<path d="M16.5 12C16.5 15.2642 15.9478 18.1959 15.074 20.293C14.6367 21.3426 14.1286 22.1594 13.59 22.7061C13.0532 23.251 12.5162 23.5 12 23.5C11.4838 23.5 10.9468 23.251 10.41 22.7061C9.87139 22.1594 9.36335 21.3426 8.926 20.293C8.05223 18.1959 7.5 15.2642 7.5 12C7.5 8.73581 8.05223 5.80409 8.926 3.70703C9.36335 2.6574 9.87139 1.84063 10.41 1.29391C10.9468 0.74895 11.4838 0.5 12 0.5C12.5162 0.5 13.0532 0.74895 13.59 1.29391C14.1286 1.84063 14.6367 2.6574 15.074 3.70703C15.9478 5.80409 16.5 8.73581 16.5 12Z" stroke="white"/>
<line x1="1" y1="9.5" x2="23" y2="9.5" stroke="white"/>
<line x1="1" y1="14.5" x2="23" y2="14.5" stroke="white"/>
</svg>
