<svg width="24" height="24" viewBox="0 0 24 24" fill="none" xmlns="http://www.w3.org/2000/svg">
<circle cx="12" cy="12" r="11.25" stroke="white" stroke-width="1.5"/>
<path d="M16.25 12C16.25 15.2394 15.7015 18.137 14.8432 20.1968C14.4134 21.2284 13.9207 22.0142 13.4119 22.5306C12.9058 23.0445 12.4291 23.25 12 23.25C11.5709 23.25 11.0942 23.0445 10.5881 22.5306C10.0793 22.0142 9.58658 21.2284 9.15677 20.1968C8.29852 18.137 7.75 15.2394 7.75 12C7.75 8.76056 8.29852 5.86299 9.15677 3.80318C9.58658 2.77164 10.0793 1.98582 10.5881 1.46936C11.0942 0.955532 11.5709 0.75 12 0.75C12.4291 0.75 12.9058 0.955532 13.4119 1.46936C13.9207 1.98582 14.4134 2.77164 14.8432 3.80318C15.7015 5.86299 16.25 8.76056 16.25 12Z" stroke="white" stroke-width="1.5"/>
<line x1="1" y1="8.5" x2="23" y2="8.5" stroke="white"/>
<line x1="1" y1="15.5" x2="23" y2="15.5" stroke="white"/>
</svg>
