<svg xmlns="http://www.w3.org/2000/svg" width="97.227" height="83.176" viewBox="0 0 97.227 83.176">
  <g id="Grupo_29137" data-name="Grupo 29137" transform="translate(-937.454 -1331.142)">
    <g id="Grupo_12125" data-name="Grupo 12125" transform="translate(938 1331.715)" opacity="0.34">
      <g id="Grupo_12014" data-name="Grupo 12014" transform="translate(0)">
        <g id="Grupo_12013" data-name="Grupo 12013">
          <g id="Grupo_12012" data-name="Grupo 12012">
            <g id="Grupo_12011" data-name="Grupo 12011">
              <g id="Grupo_12010" data-name="Grupo 12010">
                <path id="Caminho_21741" data-name="Caminho 21741" d="M157.367,987.426c-24.5-30.059-104.911-16.4-81.054,39.929C100.208,1083.775,200.593,1040.462,157.367,987.426Z" transform="translate(-71.94 -971.883)" fill="#8a5cef" stroke="rgba(0,0,0,0)" stroke-width="1"/>
              </g>
            </g>
          </g>
        </g>
      </g>
    </g>
    <g id="_732643_bank_money_piggy_save_savings_icon" data-name="732643_bank_money_piggy_save_savings_icon" transform="translate(959.374 1345.352)">
      <path id="Caminho_21970" data-name="Caminho 21970" d="M52.748,19.013a1.106,1.106,0,0,0-1.563,0,6.479,6.479,0,0,1-2.744,1.8,16.352,16.352,0,0,0,.208-2.074,4.552,4.552,0,0,0-1.084-3.507,3.069,3.069,0,0,0-2.233-.962,3.168,3.168,0,0,0-2.563,1.1,4.657,4.657,0,0,0-.734,3.529,1.141,1.141,0,0,0,.091.279,8.159,8.159,0,0,0,3.339,3.445,5.146,5.146,0,0,1-.913,1.059A19.151,19.151,0,0,0,34.1,15.734a9.846,9.846,0,0,0,1.278-4.783,9.951,9.951,0,1,0-19.9,0,9.826,9.826,0,0,0,1.285,4.794,22.738,22.738,0,0,0-4.677,2.18A8.982,8.982,0,0,0,7.74,16.479a1.106,1.106,0,0,0-1.106,1.106,6.738,6.738,0,0,0,1.378,3.766,14.037,14.037,0,0,0-3.257,6.185H3.317A3.321,3.321,0,0,0,0,30.852v3.317c0,1.7,2.351,3.228,6.859,6.006.838.515,1.687,1.039,2.5,1.559.54.345,1.11.672,1.7.986v5.822a1.1,1.1,0,0,0,1.1,1.106h4.423a1.106,1.106,0,0,0,.984-.6l1.718-3.352a28.016,28.016,0,0,0,15.3-.973l.816,4.04a1.106,1.106,0,0,0,1.084.887h4.423a1.106,1.106,0,0,0,1.106-1.106v-8.4A13.836,13.836,0,0,0,46.437,30.3a12.618,12.618,0,0,0-.878-4.577,7.334,7.334,0,0,0,2.152-2.589,7.392,7.392,0,0,0,5.035-2.554A1.107,1.107,0,0,0,52.748,19.013ZM25.43,3.211a7.74,7.74,0,1,1-7.74,7.74A7.748,7.748,0,0,1,25.43,3.211Zm14.727,35.65a1.1,1.1,0,0,0-.354.809v7.766H37.391l-.9-4.456a1.106,1.106,0,0,0-1.526-.794,25.741,25.741,0,0,1-16.021,1.168,1.1,1.1,0,0,0-1.236.573l-1.8,3.509h-2.64V42.05a1.1,1.1,0,0,0-.6-.984c-.739-.378-1.455-.77-2.116-1.194-.82-.526-1.681-1.057-2.53-1.579-2.2-1.358-5.53-3.41-5.807-4.124V30.852a1.106,1.106,0,0,1,1.106-1.106H4.754A2.212,2.212,0,0,0,6.9,28a12.076,12.076,0,0,1,3.335-5.794,1.106,1.106,0,0,0,.073-1.473,8.266,8.266,0,0,1-1.117-1.751,11.868,11.868,0,0,1,2.322,1.181,1.11,1.11,0,0,0,1.214-.015A20.586,20.586,0,0,1,18.084,17.6a9.976,9.976,0,0,0,2.037,1.731,19.684,19.684,0,0,0-3.8,1.247,1.106,1.106,0,0,0,.92,2.012,21.035,21.035,0,0,1,16.381,0,1.092,1.092,0,0,0,.46.1,1.106,1.106,0,0,0,.46-2.112,19.684,19.684,0,0,0-3.8-1.247,9.951,9.951,0,0,0,2.045-1.742c6.952,2.187,11.441,7.165,11.441,12.706A11.627,11.627,0,0,1,40.157,38.862ZM46.24,20.532a6,6,0,0,1-2.052-2.191,2.379,2.379,0,0,1,.285-1.566c.06-.073.248-.3.858-.3a.864.864,0,0,1,.635.279,2.6,2.6,0,0,1,.471,1.886A13.207,13.207,0,0,1,46.24,20.532Z" transform="translate(0 -1)" fill="#5715e8" stroke="#5715e8" stroke-width="1"/>
      <ellipse id="Elipse_336" data-name="Elipse 336" cx="2" cy="2.5" rx="2" ry="2.5" transform="translate(9 24)" fill="#5715e8" stroke="#5715e8" stroke-width="1"/>
      <path id="Caminho_21971" data-name="Caminho 21971" d="M13.009,9.594l.2-1.088.018,1.128c1.108.2,1.2.473,1.2.551,0,.195-.42.553-1.106.553s-1.092-.358-1.108-.542a1.093,1.093,0,0,0-1.194-1.008,1.105,1.105,0,0,0-1.008,1.194,2.84,2.84,0,0,0,2.2,2.4v.177a1.107,1.107,0,0,0,1.106,1.1h0a1.106,1.106,0,0,0,1.1-1.108v-.161a2.807,2.807,0,0,0,2.209-2.6c0-.991-.522-2.267-3.005-2.724l-.219-.042c-1.112-.206-1.2-.473-1.2-.551,0-.195.42-.553,1.108-.553s1.092.356,1.108.537A1.09,1.09,0,0,0,15.62,7.865a1.107,1.107,0,0,0,1.011-1.194,2.854,2.854,0,0,0-2.207-2.393V4.106a1.106,1.106,0,0,0-2.211,0v.164A2.809,2.809,0,0,0,10,6.87C10,7.86,10.521,9.136,13.009,9.594Z" transform="translate(12.112 1.423)" fill="#5715e8" stroke="#5715e8" stroke-width="1"/>
    </g>
  </g>
</svg>
