<svg xmlns="http://www.w3.org/2000/svg" width="96.292" height="88.103" viewBox="0 0 96.292 88.103">
  <g id="Grupo_29135" data-name="Grupo 29135" transform="translate(-1459.503 -1328.693)">
    <g id="Grupo_12019" data-name="Grupo 12019" transform="translate(1460.03 1329.271)" opacity="0.34">
      <g id="Grupo_12018" data-name="Grupo 12018" transform="translate(0)">
        <g id="Grupo_12017" data-name="Grupo 12017">
          <g id="Grupo_12016" data-name="Grupo 12016">
            <g id="Grupo_12015" data-name="Grupo 12015">
              <path id="Caminho_21742" data-name="Caminho 21742" d="M451.2,990.97c-23.02-43.675-97.538-18.454-89.058,31C373.012,1085.366,481.88,1049.18,451.2,990.97Z" transform="translate(-361.472 -968.503)" fill="#8a5cef" stroke="rgba(0,0,0,0)" stroke-width="1"/>
            </g>
          </g>
        </g>
      </g>
    </g>
    <g id="_1" data-name="1" transform="translate(1411.115 1266.902)">
      <path id="Caminho_21972" data-name="Caminho 21972" d="M150.109,119.862a1.758,1.758,0,0,1-1.243-.515l-10.618-10.618a1.758,1.758,0,0,1-.376-1.929,33.935,33.935,0,0,1,31.893-20.7,1.758,1.758,0,0,1,1.725,1.725,34.027,34.027,0,0,1-20.7,31.9,1.758,1.758,0,0,1-.686.134ZM141.59,107.1l8.909,8.909a30.421,30.421,0,0,0,17.466-26.369A30.489,30.489,0,0,0,141.6,107.1Z" transform="translate(-54.502)" fill="#5715e8"/>
      <path id="Caminho_21973" data-name="Caminho 21973" d="M84.988,171.119a1.75,1.75,0,0,1-1.243-.515l-7.237-7.236a1.758,1.758,0,0,1,0-2.487c4.151-4.15,8.323-4.831,11.084-4.67a12,12,0,0,1,5.183,1.445l-1.806,3.016h.011c-.224-.129-5.149-2.893-10.674,1.514l5.925,5.937a1.758,1.758,0,0,1-1.244,3Z" transform="translate(0 -61.876)" fill="#5715e8"/>
      <path id="Caminho_21974" data-name="Caminho 21974" d="M237.31,309.482a1.758,1.758,0,0,1-1.242-.514l-7.237-7.237a1.758,1.758,0,1,1,2.486-2.486l5.926,5.926c4.406-5.525,1.641-10.45,1.513-10.673l.006.011,3.016-1.808a12,12,0,0,1,1.445,5.183c.161,2.766-.52,6.934-4.67,11.084A1.758,1.758,0,0,1,237.31,309.482Z" transform="translate(-134.467 -182.385)" fill="#5715e8"/>
      <path id="Caminho_21975" data-name="Caminho 21975" d="M97.375,320.914a1.758,1.758,0,0,1-1.248-3l4.083-4.083a1.758,1.758,0,1,1,2.486,2.486L98.613,320.4A1.748,1.748,0,0,1,97.375,320.914Z" transform="translate(-17.32 -200.583)" fill="#5715e8"/>
      <path id="Caminho_21976" data-name="Caminho 21976" d="M135.491,358.511a1.758,1.758,0,0,1-1.244-3l4.089-4.083a1.758,1.758,0,1,1,2.48,2.486L136.734,358A1.748,1.748,0,0,1,135.491,358.511Z" transform="translate(-50.972 -233.717)" fill="#5715e8"/>
      <path id="Caminho_21977" data-name="Caminho 21977" d="M245.111,192.529a5.287,5.287,0,1,1,3.743-1.543h0A5.275,5.275,0,0,1,245.111,192.529Zm2.5-2.791Zm-2.5-4.276a1.775,1.775,0,1,0,1.257.52,1.775,1.775,0,0,0-1.257-.52Z" transform="translate(-144.636 -84.622)" fill="#5715e8"/>
      <path id="Caminho_21978" data-name="Caminho 21978" d="M309.865,114.7a1.758,1.758,0,0,1-1.243-.515l-9.322-9.323a1.758,1.758,0,1,1,2.486-2.486l9.322,9.323a1.758,1.758,0,0,1-1.244,3Z" transform="translate(-196.676 -13.919)" fill="#5715e8"/>
    </g>
  </g>
</svg>
