<svg xmlns="http://www.w3.org/2000/svg" width="663.635" height="362.297" viewBox="0 0 663.635 362.297">
  <g id="Business_analytics_sucess_startup_Technology___account_setting_options_preferences" data-name="Business, analytics, sucess, startup, Technology _ account, setting, options, preferences" transform="translate(0 -101.619)">
    <ellipse id="Elipse_1" data-name="Elipse 1" cx="10.579" cy="10.328" rx="10.579" ry="10.328" transform="matrix(-0.727, -0.687, 0.687, -0.727, 466.963, 199.607)" fill="rgba(87,21,232,0.5)"/>
    <ellipse id="Elipse_2" data-name="Elipse 2" cx="10.48" cy="10.237" rx="10.48" ry="10.237" transform="translate(438.586 196.318) rotate(-136.65)" fill="rgba(87,21,232,0.5)"/>
    <path id="Caminho_2" data-name="Caminho 2" d="M297.843,756.062s54.86-39.34,76.041,4.167c0,0-22.275-78.943-98.25-107.178,0,0-21.716-12.082-22.672-4.784s-7.253,11.023-10.009,10.936-26.023,1.366-26.831-2.109.735-13.89-10.8-13.963-74.144,15.307-92.046,31.564c0,0,31.16,37.619,14.5,79.1l14.037-3.4s-8.657,74.96,3.146,118.562H348.816s-20.379,2.565-41.28-12.346l-30.351-38.95a58.194,58.194,0,0,0-40.5-23.046s-15.476-1.69-15.329-9.047-5.579,4.711-13.228-5.923c-.934,0-19.527,1.073-19.527,1.073s-13.963,1.308-16.587-11.156-12.295-99.947-8.819-105.2,4.807-5.321,34.144-5.144,55.118-5.673,58.851,8.922,8.047,69.9,8.047,69.9,16.535,4.329,29.131,22.239C293.323,760.257,297.843,768.988,297.843,756.062Z" transform="translate(247.933 -406.186)" fill="#2c006c"/>
    <path id="Caminho_3" data-name="Caminho 3" d="M212.263,792.736H214.5V758.3h-2.232Z" transform="translate(332.397 -434.99)" fill="#32098b"/>
    <path id="Caminho_4" data-name="Caminho 4" d="M520.466,729.169q.494,0,.991-.006a92.106,92.106,0,0,0,11.474-.906,144.088,144.088,0,0,0,22.093-5.077c6.991-2.131,13.47-4.5,19.187-6.6,1.671-.612,3.248-1.189,4.756-1.73l-.754-2.1c-1.514.543-3.095,1.122-4.769,1.735-5.69,2.083-12.138,4.443-19.07,6.557a141.89,141.89,0,0,1-21.751,5,89.809,89.809,0,0,1-11.194.885,67.211,67.211,0,0,1-11.039-.732,53.171,53.171,0,0,1-10.618-2.746,47.2,47.2,0,0,1-9.955-5.16,48.605,48.605,0,0,1-6.319-5.147,54.953,54.953,0,0,1-5.827-6.624,67.062,67.062,0,0,1-5.252-8.249,86.453,86.453,0,0,1-4.588-10.02A115.174,115.174,0,0,1,464,676.321c-1.153-4.356-2.156-9.059-2.982-13.979-.85-5.064-1.537-10.5-2.04-16.16-.516-5.795-.854-11.986-1.007-18.4.044-.419.256-2.513.441-5.6.188-3.125.379-7.883.227-12.807a63.41,63.41,0,0,0-1.693-13.824,20.982,20.982,0,0,0-2.178-5.462,8.543,8.543,0,0,0-3.636-3.489,27.308,27.308,0,0,1-7.671-5.283,23.551,23.551,0,0,1-5.984-9.791A31.641,31.641,0,0,1,437,555.973a57.2,57.2,0,0,1,3.138-10.345,92.845,92.845,0,0,1,6.105-12.235l.438-.745-14.21-14.178a8.829,8.829,0,0,1,12.665-12.3l28.1,29.792.725-1.377v0a8.658,8.658,0,0,1,4.464-3.82,5.377,5.377,0,0,1,2.171-.177,7.5,7.5,0,0,1,2.7.926,49.142,49.142,0,0,1,16.974,15.353,37.383,37.383,0,0,1,5.908,15.614,41.5,41.5,0,0,1,.107,10.039,54.3,54.3,0,0,1-2.657,11.664l-.124.364.126.363,30.087,86.424,2.108-.734-29.961-86.063a56.267,56.267,0,0,0,2.64-11.781,43.732,43.732,0,0,0-.115-10.58,39.6,39.6,0,0,0-6.255-16.54,47.739,47.739,0,0,0-9.78-10.685,54.706,54.706,0,0,0-7.98-5.394,8.391,8.391,0,0,0-6.6-.93,10.074,10.074,0,0,0-4.95,3.641l-26.085-27.652a11.061,11.061,0,1,0-15.865,15.416l.012.012,12.994,12.965A93.756,93.756,0,0,0,438.07,544.8a59.424,59.424,0,0,0-3.259,10.752,33.83,33.83,0,0,0,.534,16.647,25.761,25.761,0,0,0,6.545,10.711,29.556,29.556,0,0,0,8.305,5.723,6.385,6.385,0,0,1,2.661,2.618,18.8,18.8,0,0,1,1.93,4.876,61.256,61.256,0,0,1,1.62,13.323,149.777,149.777,0,0,1-.665,18.168l-.008.073,0,.074c.152,6.491.494,12.756,1.016,18.62.509,5.716,1.2,11.211,2.062,16.332.837,4.987,1.855,9.758,3.026,14.18a117.37,117.37,0,0,0,3.907,12.163,88.679,88.679,0,0,0,4.708,10.28,69.3,69.3,0,0,0,5.429,8.525,57.2,57.2,0,0,0,6.065,6.893,50.853,50.853,0,0,0,6.611,5.383,49.456,49.456,0,0,0,10.426,5.4A55.4,55.4,0,0,0,510.05,728.4,68.721,68.721,0,0,0,520.466,729.169Z" transform="translate(-191.182 -370.015)" fill="#32098b"/>
    <path id="Caminho_5" data-name="Caminho 5" d="M564.654,568.271l1.317-1.8a26,26,0,0,1-7.433-7.849,14.044,14.044,0,0,1-1.932-6.58,12.558,12.558,0,0,1,.734-4.587,8.986,8.986,0,0,1,.77-1.657l-1.865-1.226a13.912,13.912,0,0,0-1.87,7.532,16.255,16.255,0,0,0,2.223,7.622A28.177,28.177,0,0,0,564.654,568.271Z" transform="translate(-275.341 -381.157)"/>
    <path id="Caminho_6" data-name="Caminho 6" d="M592.757,580.395a8.423,8.423,0,0,0,1.567-.147,9.078,9.078,0,0,0,7.081-6.858,8.512,8.512,0,0,0-.632-5.468l-.014-.03-.016-.029c-.017-.032-.039-.079-.063-.128s-.042-.09-.067-.14l-2,.993c.016.033.032.066.047.1.029.062.061.13.1.2a6.3,6.3,0,0,1,.464,4.02,6.846,6.846,0,0,1-5.317,5.146,6.351,6.351,0,0,1-4.06-.6,28.462,28.462,0,0,1-9.408-7.172,17.94,17.94,0,0,1-3.615-7.108,15.374,15.374,0,0,1-.04-7.585l-2.127-.677a17.507,17.507,0,0,0,0,8.793,20.154,20.154,0,0,0,4.054,7.99,30.659,30.659,0,0,0,10.135,7.754A8.689,8.689,0,0,0,592.757,580.395Z" transform="translate(-326.061 -383.914)"/>
    <path id="Caminho_7" data-name="Caminho 7" d="M600.6,594.087a10.127,10.127,0,0,0,3.442-.547,6.974,6.974,0,0,0,2.85-1.889c2.782-3.083,2.03-7.884,2-8.087l-2.2.362v0c.006.039.606,3.962-1.458,6.239a4.772,4.772,0,0,1-1.95,1.28,8.579,8.579,0,0,1-3.4.39,11.76,11.76,0,0,1-6.295-2.322,18.091,18.091,0,0,1-4.309-4.647,27.115,27.115,0,0,1-3.192-6.659l-2.145.617a29.069,29.069,0,0,0,3.479,7.279,20.3,20.3,0,0,0,4.851,5.214,13.957,13.957,0,0,0,7.476,2.747Q600.173,594.087,600.6,594.087Z" transform="translate(-340.821 -389.757)"/>
    <path id="Caminho_8" data-name="Caminho 8" d="M67.025,551.539c.735.191,1.2-.419,1.881-.3,9.825-1.793,17.131-9.554,17.953-13.287-.279,2.036-4.013,1.83-3.381,3.91.118.4.353.242.544.625.309.735.3-.272.735.389,2.411-3.564,3.807-5.335,4.233-7.3a14.7,14.7,0,0,0,.5,6.283,6.692,6.692,0,0,0,.448,1.153,11.734,11.734,0,0,0,9.657,7.129,20.69,20.69,0,0,0,3.873.125c3.675-.213,6.85-.427,9.554-.544,9.039-.4,12.28.279,11.266,6.114a45.684,45.684,0,0,1-2.367,7.724c-1.793,4.719-3.042,12.89-1.205,21.79v.052c2.131,10.362,8.877,18.372,23.333,25.9a69.222,69.222,0,0,0,7.908,3.476c25.082,9.3,85.079,32.873,109.948,119.3,2.646,9.208,4.623,17.586,6.019,25.236l.683-.4c16.984-10.178,28.059-33.012,24.693-52.656-1.676-9.752-8.025-16.558-16.168-21.68-5.718-3.543-11.832-6.445-16.954-10.818-16.976-14.5-3.4-37.046-12.8-54.383-10.6-19.5-27.191-31.527-48.857-32.519-5.452.235-11.589.874-17.542.588-8.643.309-17.476-.4-23.8-6.063-4.983-4.409-6.019-11.6-7.908-17.593a204.573,204.573,0,0,1-5.314-20.577,58.784,58.784,0,0,0-7.129-18.674,43.224,43.224,0,0,0-15.161-15.183,41.429,41.429,0,0,0-17.777-5.269,36.868,36.868,0,0,0-16.168,4.82,33.078,33.078,0,0,0-4.769,3.425C72.008,521.666,66.768,537.466,67.025,551.539Z" transform="translate(362.599 -371.412)" fill="#f33e8f"/>
    <path id="Caminho_9" data-name="Caminho 9" d="M590.454,609.962a10.093,10.093,0,0,0,2.581-.324,8.254,8.254,0,0,0,3.133-1.574,8.113,8.113,0,0,0,2.232-2.905,7.414,7.414,0,0,0,.663-3.6,9.944,9.944,0,0,0-.712-3.067,12.577,12.577,0,0,0-1.681-2.98l-1.738,1.4,0,0a10.479,10.479,0,0,1,1.368,2.459,6.03,6.03,0,0,1,.078,4.853,5.9,5.9,0,0,1-1.619,2.115,6.033,6.033,0,0,1-2.293,1.145,9.835,9.835,0,0,1-5.981-.545l-.812,2.079a13.652,13.652,0,0,0,3.759.9Q589.949,609.962,590.454,609.962Z" transform="translate(-332.205 -393.842)"/>
    <path id="Caminho_10" data-name="Caminho 10" d="M598.672,553.829l1.578-1.579-9.686-9.679-1.578,1.579Z" transform="translate(-335.659 -380.548)"/>
    <path id="Caminho_11" data-name="Caminho 11" d="M280.106,784.8h25.913v-2.232H280.106a10.18,10.18,0,0,1-10.119-9.087l-10.553-97.955a10.171,10.171,0,0,1,10.114-11.258h72.424a10.171,10.171,0,0,1,10.1,9l7.886,67.978,2.217-.257-7.886-67.978a12.4,12.4,0,0,0-12.322-10.975H269.547a12.4,12.4,0,0,0-12.333,13.729l10.553,97.955a12.412,12.412,0,0,0,12.339,11.08Z" transform="translate(151.062 -410.223)" fill="#32098b"/>
    <ellipse id="Elipse_3" data-name="Elipse 3" cx="2.954" cy="2.954" rx="2.954" ry="2.954" transform="translate(423.584 264.333)" fill="#32098b"/>
    <path id="Caminho_12" data-name="Caminho 12" d="M299.15,833.094l1.074-1.957c-.024-.013-2.411-1.326-6.357-3.749-3.641-2.236-9.393-5.9-16.114-10.666-7.551-5.352-14.762-10.973-21.433-16.706a227.12,227.12,0,0,1-22.312-21.859,45.753,45.753,0,0,0-10.894-8.978,58.793,58.793,0,0,0-12.958-5.674,82.817,82.817,0,0,0-24.039-3.4q-1.921,0-3.855.079c-2.595.109-5.212.313-7.781.608a71.014,71.014,0,0,0-18.41,4.307l-.021.008a31.076,31.076,0,0,0-8.266,4.623c-3.045,2.523-4.544,5.413-4.456,8.59a6.958,6.958,0,0,0,.663,2.867,6.371,6.371,0,0,0,1.66,2.11c1.648,1.383,4.138,2.194,7.4,2.412a34.768,34.768,0,0,0,7.107-.343c1.671-.248,3.045-.442,4.256-.614a124.907,124.907,0,0,0,12.411-2.252l-.49-2.178a123.1,123.1,0,0,1-12.233,2.22c-1.215.172-2.593.366-4.273.616a32.486,32.486,0,0,1-6.63.323,16.23,16.23,0,0,1-3.471-.573,7.3,7.3,0,0,1-2.643-1.322,4.241,4.241,0,0,1-1.527-3.328,6.967,6.967,0,0,1,.95-3.72,11.428,11.428,0,0,1,2.7-3.091,28.926,28.926,0,0,1,7.666-4.268,68.781,68.781,0,0,1,17.83-4.169l.02,0c2.518-.289,5.085-.49,7.628-.6q1.889-.078,3.766-.077a80.543,80.543,0,0,1,23.38,3.3,56.561,56.561,0,0,1,12.466,5.455,43.526,43.526,0,0,1,10.366,8.538,229.363,229.363,0,0,0,22.548,22.091c6.727,5.78,14,11.446,21.609,16.84,6.771,4.8,12.566,8.491,16.235,10.743C296.707,831.751,299.126,833.081,299.15,833.094Z" transform="translate(298.723 -434.751)" fill="#32098b"/>
    <path id="Caminho_13" data-name="Caminho 13" d="M312.237,809.6a45.95,45.95,0,0,0,5.375-.339c3.213-.379,6.379-1.017,9.61-1.694,1.78-.374,6.179-1.317,8.608-1.985l-.593-2.152c-2.369.652-6.715,1.583-8.473,1.953-3.179.665-6.291,1.293-9.413,1.661a35.762,35.762,0,0,1-9.3.039c-2.92-.431-4.4-1.473-5.289-3.715l0-.005a5.445,5.445,0,0,1,1.121-6.248,16.283,16.283,0,0,1,5.628-3.553l-.871-2.055a18.384,18.384,0,0,0-6.39,4.086,7.663,7.663,0,0,0-1.561,8.6,7.5,7.5,0,0,0,2.855,3.667,10.052,10.052,0,0,0,4.185,1.435h0A31.494,31.494,0,0,0,312.237,809.6Z" transform="translate(145.77 -442.659)" fill="#32098b"/>
    <path id="Caminho_14" data-name="Caminho 14" d="M303.863,827.16q.428,0,.867-.009c6.773-.14,14.29-1.825,19.265-2.94l.1-.023-.488-2.178-.1.023c-4.888,1.1-12.274,2.751-18.823,2.887a22.1,22.1,0,0,1-8.446-1.149,6.392,6.392,0,0,1-4.214-4.419,3.714,3.714,0,0,1,.337-3.308c1.111-1.417,3.614-1.426,3.639-1.426l.027-2.232a8.8,8.8,0,0,0-1.984.249,6.063,6.063,0,0,0-3.44,2.033,4.789,4.789,0,0,0-.956,2.236,7.421,7.421,0,0,0,.215,3.006,8.082,8.082,0,0,0,2.054,3.683,10.034,10.034,0,0,0,3.492,2.25,18.089,18.089,0,0,0,4.381,1.077A32.053,32.053,0,0,0,303.863,827.16Z" transform="translate(165.359 -447.826)" fill="#32098b"/>
    <path id="Caminho_15" data-name="Caminho 15" d="M329.13,691.554a198.626,198.626,0,0,1,16.352-12.72A194.2,194.2,0,0,1,362,668.519c5.322-2.961,10.857-5.7,16.451-8.152,5.245-2.3,10.674-4.391,16.137-6.228A203.486,203.486,0,0,1,424.95,646.5a209.632,209.632,0,0,1,26.176-2.8l-.1-2.23a211.888,211.888,0,0,0-26.455,2.835,205.7,205.7,0,0,0-30.692,7.722c-5.525,1.857-11.016,3.977-16.32,6.3-5.658,2.477-11.257,5.251-16.641,8.246A196.448,196.448,0,0,0,344.207,677a200.855,200.855,0,0,0-16.537,12.863Z" transform="translate(9.884 -405.08)" fill="#32098b"/>
    <path id="Caminho_16" data-name="Caminho 16" d="M520.181,943.939l0-2.232L146.7,941.148l0,2.232Z" transform="translate(76.566 -480.029)"/>
    <path id="Caminho_17" data-name="Caminho 17" d="M422.369,898.264l2.219-.242c-1.673-15.333-2.714-32-3.094-49.534-.3-14.033-.188-28.65.344-43.445.474-13.164,1.2-24.034,1.72-30.834.566-7.363,1.026-11.664,1.03-11.706l-2.219-.239c0,.043-.468,4.377-1.036,11.773-.525,6.821-1.25,17.723-1.725,30.925-.534,14.838-.65,29.5-.345,43.574C419.644,866.136,420.689,882.867,422.369,898.264Z" transform="translate(-32.796 -435.908)" fill="#32098b"/>
    <path id="Caminho_18" data-name="Caminho 18" d="M506.714,656.662,442.124,491.154a21.724,21.724,0,0,1,21.07-26.993H719.785a25.648,25.648,0,0,1,24.942,19.659L815.454,649.29a21.724,21.724,0,0,1-21.121,26.8H531.606A25.656,25.656,0,0,1,506.714,656.662Z" transform="translate(-440.359 -361.426)" fill="#fff" opacity="0.54"/>
    <path id="Caminho_19" data-name="Caminho 19" d="M506.714,656.662,442.124,491.154a21.724,21.724,0,0,1,21.07-26.993H719.785a25.648,25.648,0,0,1,24.942,19.659L815.454,649.29a21.724,21.724,0,0,1-21.121,26.8H531.606A25.656,25.656,0,0,1,506.714,656.662Z" transform="translate(-440.359 -361.426)" fill="#ff77b6"/>
    <path id="Caminho_20" data-name="Caminho 20" d="M530.31,675.915H793.039a22.838,22.838,0,0,0,22.206-28.179,1.109,1.109,0,0,0-.059-.178L744.5,482.172a26.752,26.752,0,0,0-26-20.421H461.9a22.841,22.841,0,0,0-22.153,28.38,1.114,1.114,0,0,0,.043.135l64.565,165.442a26.761,26.761,0,0,0,25.955,20.206ZM813.1,648.348a20.608,20.608,0,0,1-20.057,25.335H530.31A24.528,24.528,0,0,1,506.5,655.1a1.163,1.163,0,0,0-.043-.135L441.9,489.522a20.607,20.607,0,0,1,20-25.539H718.494a24.519,24.519,0,0,1,23.854,18.8,1.13,1.13,0,0,0,.059.178Z" transform="translate(-439.065 -360.132)" fill="#32098b"/>
    <path id="Caminho_21" data-name="Caminho 21" d="M521.006,652.7,461.413,500.006a20.04,20.04,0,0,1,19.431-24.9H717.577a23.656,23.656,0,0,1,23.01,18.137L805.839,645.9a20.041,20.041,0,0,1-19.489,24.722H543.964A23.678,23.678,0,0,1,521.006,652.7Z" transform="translate(-445.2 -364.164)" fill="#f33e8f"/>
    <path id="Caminho_22" data-name="Caminho 22" d="M761.12,510.706c-3.138-4.711-8.275-6.805-11.472-4.682s-3.24,7.673-.1,12.383a14.532,14.532,0,0,0,1.646,2.028l-23.26,49.107c-3.674-2.477-7.79-3.087-10.715-1.139a8.063,8.063,0,0,0-3.27,5.879l-15.889-5.365-13.9-4.645c-1.47-.507-3.021-.992-4.535-1.47a20.459,20.459,0,0,0-2.359-4.828c-4.409-6.614-11.619-9.554-16.1-6.614s-4.541,10.634-.257,17.211l-26.456,36.18c-5.769-4.733-12.567-6.2-17.277-3.065-6.409,4.262-6.5,15.389-.214,24.847.25.375.537.683.8,1.043l-17.638,24.1c-.052.073-.118.161-.162.235a6.145,6.145,0,1,0,10.244,6.79l15.661-23.627c4.953,2.874,10.215,3.425,14.073.853,6.129-4.071,6.423-14.389.963-23.517l25.362-38.266c3.74,2.542,7.87,3.189,10.832,1.227a7.694,7.694,0,0,0,3.137-4.932c.632.17,1.257.353,1.889.53l14.132,3.858,18.086,4.872a19.982,19.982,0,0,0,2.7,6.093c4.409,6.614,11.611,9.554,16.1,6.577s4.557-10.774.155-17.4a20.333,20.333,0,0,0-2.2-2.7l22.143-50.069c2.667,1.815,5.615,2.286,7.723.882C764.206,520.973,764.258,515.424,761.12,510.706Z" transform="translate(-505.821 -371.689)" fill="#fff"/>
    <path id="Caminho_23" data-name="Caminho 23" d="M868.673,512.9H834.36a8.083,8.083,0,0,1-7.4-4.835,3.507,3.507,0,0,1-.316-1.4,3.557,3.557,0,0,1,3.549-3.528h36.5C864.954,506.039,865.822,510.052,868.673,512.9Z" transform="translate(-781.814 -371.174)" fill="rgba(237,61,142,0.1)"/>
    <path id="Caminho_24" data-name="Caminho 24" d="M822.126,509.383a3.527,3.527,0,0,1-3.528,3.52H799.94c-2.851-2.851-3.719-6.864-2.006-9.767H814.41a8.084,8.084,0,0,1,7.4,4.821,3.664,3.664,0,0,1,.316,1.426Z" transform="translate(-713.081 -371.174)" fill="#ed3d8e"/>
    <path id="Caminho_25" data-name="Caminho 25" d="M823.841,511.813a3.632,3.632,0,0,1-.338.537c-2.447,3.344-7.753,3.674-11.883.646a12.431,12.431,0,0,1-1.382-1.183c-2.851-2.851-3.719-6.864-2.006-9.767a3.566,3.566,0,0,1,.338-.529c2.425-3.365,7.731-3.674,11.861-.668a13.281,13.281,0,0,1,1.4,1.2C824.665,504.9,825.531,508.9,823.841,511.813Z" transform="translate(-723.379 -370.084)" fill="#fff"/>
    <path id="Caminho_26" data-name="Caminho 26" d="M827.1,538.1a3.55,3.55,0,0,1-3.55,3.52h-36.01c1.742-2.94.875-6.908-1.984-9.759h33.805a8.084,8.084,0,0,1,7.4,4.835A3.641,3.641,0,0,1,827.1,538.1Z" transform="translate(-709.423 -378.358)" fill="#ed3d8e"/>
    <path id="Caminho_27" data-name="Caminho 27" d="M861.717,541.619h-16.9a8.083,8.083,0,0,1-7.4-4.814,3.551,3.551,0,0,1-.316-1.426,3.513,3.513,0,0,1,3.52-3.52h19.115C862.6,534.711,863.459,538.7,861.717,541.619Z" transform="translate(-783.596 -378.358)" fill="rgba(237,61,142,0.1)"/>
    <path id="Caminho_28" data-name="Caminho 28" d="M853.529,540.531a2.094,2.094,0,0,1-.309.537c-2.432,3.365-7.738,3.674-11.861.668a11.272,11.272,0,0,1-1.4-1.205c-2.829-2.851-3.674-6.842-2.006-9.759a3.518,3.518,0,0,1,.331-.537c2.454-3.344,7.761-3.674,11.884-.646a11.282,11.282,0,0,1,1.381,1.183C854.411,533.623,855.271,537.614,853.529,540.531Z" transform="translate(-775.408 -377.269)" fill="#fff"/>
    <path id="Caminho_29" data-name="Caminho 29" d="M851.574,570.135H830.018a8.082,8.082,0,0,1-7.4-4.821,3.447,3.447,0,0,1-.317-1.4,3.557,3.557,0,0,1,3.55-3.543h23.715c-1.69,2.918-.823,6.908,2.007,9.767Z" transform="translate(-761.459 -385.487)" fill="#ed3d8e"/>
    <path id="Caminho_30" data-name="Caminho 30" d="M813.508,566.63a3.52,3.52,0,0,1-3.527,3.5h-31.41c-2.829-2.859-3.675-6.849-2.007-9.767h29.227a8.083,8.083,0,0,1,7.4,4.836A3.6,3.6,0,0,1,813.508,566.63Z" transform="translate(-688.455 -385.487)" fill="rgba(237,61,142,0.1)"/>
    <path id="Caminho_31" data-name="Caminho 31" d="M819.437,569.052a3.6,3.6,0,0,1-.337.529c-2.425,3.366-7.732,3.674-11.862.669a13.3,13.3,0,0,1-1.4-1.2c-2.829-2.859-3.674-6.849-2.007-9.767a3.572,3.572,0,0,1,.338-.536c2.447-3.344,7.753-3.631,11.884-.647a12.619,12.619,0,0,1,1.381,1.183C820.282,562.137,821.179,566.149,819.437,569.052Z" transform="translate(-715.72 -384.405)" fill="#fff"/>
    <path id="Caminho_32" data-name="Caminho 32" d="M665.748,704.64H644.194a8.083,8.083,0,0,1-7.4-4.821,3.491,3.491,0,0,1,3.234-4.946h23.708c-1.683,2.918-.816,6.908,2.013,9.767Z" transform="translate(-436.281 -419.127)" fill="#ed3d8e"/>
    <path id="Caminho_33" data-name="Caminho 33" d="M610.793,701.135a3.511,3.511,0,0,1-3.52,3.505H525.221c-2.829-2.859-3.674-6.849-2.006-9.767h79.861a8.084,8.084,0,0,1,7.4,4.835A3.6,3.6,0,0,1,610.793,701.135Z" transform="translate(-295.755 -419.127)" fill="rgba(237,61,142,0.1)"/>
    <path id="Caminho_34" data-name="Caminho 34" d="M633.627,703.557a3.545,3.545,0,0,1-.338.529c-2.425,3.373-7.731,3.674-11.861.669a13.308,13.308,0,0,1-1.4-1.2c-2.829-2.859-3.674-6.849-2.006-9.767a3.583,3.583,0,0,1,.338-.536c2.454-3.344,7.761-3.631,11.883-.647a12.527,12.527,0,0,1,1.382,1.183C634.472,696.642,635.34,700.654,633.627,703.557Z" transform="translate(-390.558 -418.045)" fill="#fff"/>
    <path id="Caminho_35" data-name="Caminho 35" d="M257.791,762.478a56.85,56.85,0,0,0,8.074-3.95l0,0a49.187,49.187,0,0,0,11.773-9.983,58.078,58.078,0,0,0,8.651-13.272,56.666,56.666,0,0,0,4.758-15.091,46.66,46.66,0,0,0,.044-15.456,28.527,28.527,0,0,0-2.178-7.058,29.686,29.686,0,0,0-3.715-6.02,36.625,36.625,0,0,0-4.943-5.082,50.1,50.1,0,0,0-5.874-4.276l-.005,0c-1.738-1.078-3.536-2.109-5.275-3.105a74.112,74.112,0,0,1-11.541-7.6,23.471,23.471,0,0,1-5.31-6.36,24.879,24.879,0,0,1-2.637-7.1,43.317,43.317,0,0,1-.866-7.731c-.089-2.673-.022-5.46.043-8.156.2-8.368.408-17.021-3.77-24.724a73.844,73.844,0,0,0-10.009-14.281,58.867,58.867,0,0,0-12.6-10.588A56.834,56.834,0,0,0,190,584.382c-1.883.062-3.817.181-5.864.307a90.022,90.022,0,0,1-15.928.045A30.089,30.089,0,0,1,160.87,583a20,20,0,0,1-6.284-3.791l-.005,0c-3.74-3.309-5.148-8.414-6.51-13.351-.342-1.242-.7-2.525-1.08-3.742a204.31,204.31,0,0,1-5.291-20.462,59.556,59.556,0,0,0-7.218-19.022,44.416,44.416,0,0,0-15.552-15.6l-.013-.007a40.674,40.674,0,0,0-9.813-4.022,44.606,44.606,0,0,0-10.687-1.5A42.306,42.306,0,0,0,87.7,502.647a36.037,36.037,0,0,0-9.883,3.952l0,0a35.249,35.249,0,0,0-4.918,3.529,41.082,41.082,0,0,0-7.336,8.334,50.343,50.343,0,0,0-5.133,9.974,58.706,58.706,0,0,0-3.839,21.809l2.232-.04a56.473,56.473,0,0,1,3.69-20.969,48.106,48.106,0,0,1,4.9-9.532,38.851,38.851,0,0,1,6.935-7.883,33,33,0,0,1,4.606-3.305,33.812,33.812,0,0,1,9.269-3.7,40.077,40.077,0,0,1,10.148-1.083,42.366,42.366,0,0,1,10.151,1.428,38.449,38.449,0,0,1,9.27,3.8,42.182,42.182,0,0,1,14.763,14.809,57.322,57.322,0,0,1,6.95,18.318l0,.011a206.553,206.553,0,0,0,5.35,20.69c.371,1.178.7,2.386,1.057,3.665a58.185,58.185,0,0,0,2.5,7.663,18.693,18.693,0,0,0,4.676,6.762,21.59,21.59,0,0,0,3.332,2.449,23.83,23.83,0,0,0,3.638,1.762,32.283,32.283,0,0,0,7.874,1.863,91.7,91.7,0,0,0,16.329-.033c2.031-.125,3.95-.243,5.8-.3q1.094-.036,2.175-.036a54.118,54.118,0,0,1,29,7.958,56.63,56.63,0,0,1,12.116,10.189,71.6,71.6,0,0,1,9.7,13.849,26,26,0,0,1,2.2,5.511,35.5,35.5,0,0,1,1.073,5.827,96.553,96.553,0,0,1,.223,12.267c-.131,5.479-.267,11.145.873,16.413a27.067,27.067,0,0,0,2.876,7.723,24.868,24.868,0,0,0,2.481,3.6,27.45,27.45,0,0,0,3.32,3.358A75.777,75.777,0,0,0,268,681.115c1.721.986,3.5,2.006,5.2,3.062a47.916,47.916,0,0,1,5.612,4.084,34.4,34.4,0,0,1,4.642,4.77,27.451,27.451,0,0,1,3.437,5.566,26.292,26.292,0,0,1,2.007,6.5c1.582,9.215-.059,19.59-4.619,29.212a55.845,55.845,0,0,1-8.318,12.763,46.964,46.964,0,0,1-11.233,9.531,54.617,54.617,0,0,1-7.755,3.794Z" transform="translate(371.916 -370.072)" fill="#32098b"/>
    <path id="Caminho_36" data-name="Caminho 36" d="M333.005,603.117a38.143,38.143,0,0,0,3.922-.2,32.264,32.264,0,0,0,7.386-1.621,20.329,20.329,0,0,0,6.049-3.154l-1.447-1.7,0,0a18.774,18.774,0,0,1-5.467,2.793,30.157,30.157,0,0,1-6.844,1.473,39.679,39.679,0,0,1-9.627-.27h0a14.459,14.459,0,0,1-5.224-1.8,18.1,18.1,0,0,1-4.205-3.412,31.816,31.816,0,0,1-5.712-9.246l0-.005a31.875,31.875,0,0,1-1.421-21.162,20.858,20.858,0,0,1,3.046-6.594,11,11,0,0,1,2.339-2.376,8.641,8.641,0,0,1,2.981-1.41,10.708,10.708,0,0,0,5.856-3.825,13.161,13.161,0,0,0,2.579-6.207L325,544.072a10.932,10.932,0,0,1-2.128,5.156,8.437,8.437,0,0,1-4.651,3.038,11.673,11.673,0,0,0-6.566,4.625,23.058,23.058,0,0,0-3.395,7.3l0,.009a35.653,35.653,0,0,0,7.647,32.535,17.915,17.915,0,0,0,10.753,5.908A44.354,44.354,0,0,0,333.005,603.117Z" transform="translate(125.726 -381.311)" fill="#32098b"/>
    <ellipse id="Elipse_4" data-name="Elipse 4" cx="2.616" cy="2.616" rx="2.616" ry="2.616" transform="translate(461.909 179.834)" fill="#32098b"/>
    <ellipse id="Elipse_5" data-name="Elipse 5" cx="2.616" cy="2.616" rx="2.616" ry="2.616" transform="translate(438.899 178.099)" fill="#32098b"/>
    <path id="Caminho_37" data-name="Caminho 37" d="M237.6,845.115a49.778,49.778,0,0,0,14.577-2.039,35.637,35.637,0,0,0,13.53-7.523,34.732,34.732,0,0,0,4.88-5.438,39.8,39.8,0,0,0,3.992-6.921,50.615,50.615,0,0,0,2.935-8.519,69.133,69.133,0,0,0,1.722-10.238,98.051,98.051,0,0,0,.356-12.091,140.734,140.734,0,0,0-1.166-14.083c-.668-5.1-1.626-10.561-2.847-16.219-1.262-5.846-2.84-12.069-4.69-18.5-1.53-5.313-3.241-10.546-5.085-15.554-1.782-4.839-3.738-9.6-5.812-14.153-2-4.389-4.166-8.7-6.436-12.821-2.184-3.962-4.525-7.851-6.958-11.559a164.8,164.8,0,0,0-15.065-19.611,158.183,158.183,0,0,0-15.9-15.4,160.138,160.138,0,0,0-15.913-11.762,169.76,169.76,0,0,0-15.09-8.692c-4.3-2.192-8.69-4.218-13.436-6.2-4.007-1.669-7.629-3.038-10.947-4.269h0a68.9,68.9,0,0,1-7.767-3.414c-7.058-3.667-12.283-7.473-15.974-11.636a29.166,29.166,0,0,1-4.374-6.42,28.529,28.529,0,0,1-2.394-6.985v-.044l-.023-.112c-1.791-8.676-.585-16.616,1.142-21.16a45.443,45.443,0,0,0,2.45-7.9l.007-.036c.447-2.513.153-4.25-.927-5.464a5.263,5.263,0,0,0-2.539-1.493,15.259,15.259,0,0,0-3.563-.508c-2.7-.124-6.3.089-10.86.359-1.285.076-2.615.155-4.04.233h0a14.223,14.223,0,0,1-8.252-1.687,10.012,10.012,0,0,1-2.533-2.153,10.709,10.709,0,0,1-1.658-2.728l-.01-.024-.011-.024a5.873,5.873,0,0,1-.365-.975l-.011-.037a13.031,13.031,0,0,1-.243-6.932l-2.171-.519a15.265,15.265,0,0,0,.279,8.1,8.109,8.109,0,0,0,.487,1.3,12.937,12.937,0,0,0,2,3.271,12.246,12.246,0,0,0,3.1,2.632,16.392,16.392,0,0,0,9.529,2c1.429-.079,2.759-.157,4.045-.234,4.493-.266,8.042-.476,10.625-.358,2.432.111,3.873.51,4.536,1.255a2.288,2.288,0,0,1,.52,1.238,7.55,7.55,0,0,1-.119,2.334,43.2,43.2,0,0,1-2.332,7.51l-.012.029a36.214,36.214,0,0,0-2.032,9.641,45.4,45.4,0,0,0,.762,12.668v.044l.023.111a30.659,30.659,0,0,0,7.308,14.549c3.877,4.371,9.313,8.341,16.618,12.137l0,0a71.157,71.157,0,0,0,8.02,3.525c3.3,1.222,6.892,2.581,10.862,4.235,4.693,1.955,9.037,3.958,13.28,6.123a167.585,167.585,0,0,1,14.891,8.577,157.9,157.9,0,0,1,15.69,11.6,155.955,155.955,0,0,1,15.68,15.185,162.553,162.553,0,0,1,14.86,19.345c2.4,3.661,4.713,7.5,6.869,11.412,2.243,4.069,4.383,8.332,6.36,12.669,2.052,4.5,3.986,9.211,5.749,14,1.826,4.958,3.52,10.14,5.035,15.4,1.837,6.38,3.4,12.555,4.653,18.351,1.208,5.6,2.156,10.994,2.816,16.038a138.538,138.538,0,0,1,1.148,13.858,95.823,95.823,0,0,1-.347,11.814,66.9,66.9,0,0,1-1.664,9.906,48.383,48.383,0,0,1-2.8,8.142,37.571,37.571,0,0,1-3.766,6.533,32.505,32.505,0,0,1-4.565,5.088,31.921,31.921,0,0,1-6.025,4.26,35.727,35.727,0,0,1-6.667,2.788,47.8,47.8,0,0,1-14.334,1.94,68.44,68.44,0,0,1-14-1.614,71.78,71.78,0,0,1-11.6-3.541,28.459,28.459,0,0,1-7.013-4.226,54.407,54.407,0,0,1-6.664-6.435,201.15,201.15,0,0,1-13.05-17.137c-3.172-4.473-6.453-9.1-9.938-13.54a112.685,112.685,0,0,0-11.257-12.561,70.145,70.145,0,0,0-6.365-5.348,55.241,55.241,0,0,0-6.986-4.417,47.36,47.36,0,0,0-7.7-3.246,45.4,45.4,0,0,0-8.485-1.833c-.752-.09-1.508-.173-2.309-.261-2.307-.254-4.693-.516-7.006-.947a26.893,26.893,0,0,1-6.4-1.907c-1.461-.689-3.084-2.287-3.16-3.669-.014-.261-.059-1.055,1.245-1.856l-1.168-1.9a5.118,5.118,0,0,0-1.795,1.749,3.757,3.757,0,0,0-.511,2.132,5.706,5.706,0,0,0,1.546,3.371,9.1,9.1,0,0,0,2.9,2.2l.005,0c4.226,1.963,9.475,2.54,14.105,3.049.8.088,1.546.17,2.29.259a43.186,43.186,0,0,1,8.069,1.743,45.111,45.111,0,0,1,7.333,3.093,53.01,53.01,0,0,1,6.7,4.239,67.942,67.942,0,0,1,6.161,5.178c7.922,7.465,14.522,16.77,20.9,25.768a202.711,202.711,0,0,0,13.2,17.331,56.578,56.578,0,0,0,6.94,6.7,30.649,30.649,0,0,0,7.563,4.548,74.056,74.056,0,0,0,11.963,3.655,70.675,70.675,0,0,0,14.454,1.665Z" transform="translate(354.673 -381.199)" fill="#32098b"/>
    <path id="Caminho_38" data-name="Caminho 38" d="M338.094,584.371a7.342,7.342,0,0,0,1.228-.116,11.76,11.76,0,0,0,1.494-.362l-.691-2.122a9.62,9.62,0,0,1-1.17.282,3.849,3.849,0,0,1-1.188.063,37.388,37.388,0,0,1,1.142-5.779c.634-2.612,1.3-5.056,1.308-5.08l-2.153-.589c-.007.025-.7,2.558-1.348,5.241-.383,1.584-.677,2.912-.874,3.948a8.236,8.236,0,0,0-.269,2.842,1.905,1.905,0,0,0,.917,1.3A3.1,3.1,0,0,0,338.094,584.371Z" transform="translate(114.112 -387.881)" fill="#32098b"/>
    <path id="Caminho_39" data-name="Caminho 39" d="M320.849,600.069a11.152,11.152,0,0,0,3.36-.514,10.178,10.178,0,0,0,6.108-5.135l-1.993-1a7.964,7.964,0,0,1-4.785,4.01,9.045,9.045,0,0,1-3.629.364,10.094,10.094,0,0,1-3.8-1.18l-1.058,1.965a12.314,12.314,0,0,0,4.642,1.435Q320.272,600.069,320.849,600.069Z" transform="translate(139.571 -393.442)" fill="#32098b"/>
    <path id="Elipse_6" data-name="Elipse 6" d="M13.337,26.087a13.515,13.515,0,0,0,5.183-1.022,13.313,13.313,0,0,0,4.238-2.789,12.987,12.987,0,0,0,2.864-4.146,12.818,12.818,0,0,0,0-10.173,12.987,12.987,0,0,0-2.864-4.146A13.313,13.313,0,0,0,18.52,1.022a13.656,13.656,0,0,0-10.366,0A13.313,13.313,0,0,0,3.916,3.811,12.987,12.987,0,0,0,1.052,7.957a12.818,12.818,0,0,0,0,10.173,12.987,12.987,0,0,0,2.864,4.146,13.313,13.313,0,0,0,4.238,2.789A13.514,13.514,0,0,0,13.337,26.087Zm0-23.855a11.293,11.293,0,0,1,4.331.853A11.091,11.091,0,0,1,21.2,5.408a10.765,10.765,0,0,1,2.375,3.436,10.586,10.586,0,0,1,0,8.4A10.765,10.765,0,0,1,21.2,20.679,11.091,11.091,0,0,1,17.669,23a11.424,11.424,0,0,1-8.662,0,11.091,11.091,0,0,1-3.531-2.323A10.765,10.765,0,0,1,3.1,17.242a10.586,10.586,0,0,1,0-8.4A10.765,10.765,0,0,1,5.475,5.408,11.091,11.091,0,0,1,9.006,3.085,11.293,11.293,0,0,1,13.337,2.232Z" transform="translate(469.259 203.107) rotate(-136.65)" fill="#32098b"/>
    <path id="Elipse_7" data-name="Elipse 7" d="M13.337,26.087a13.515,13.515,0,0,0,5.183-1.022,13.313,13.313,0,0,0,4.238-2.789,12.987,12.987,0,0,0,2.864-4.146,12.818,12.818,0,0,0,0-10.173,12.987,12.987,0,0,0-2.864-4.146A13.313,13.313,0,0,0,18.52,1.022a13.656,13.656,0,0,0-10.366,0A13.313,13.313,0,0,0,3.916,3.811,12.987,12.987,0,0,0,1.052,7.957a12.818,12.818,0,0,0,0,10.173,12.987,12.987,0,0,0,2.864,4.146,13.313,13.313,0,0,0,4.238,2.789A13.514,13.514,0,0,0,13.337,26.087Zm0-23.855a11.293,11.293,0,0,1,4.331.853A11.091,11.091,0,0,1,21.2,5.408a10.765,10.765,0,0,1,2.375,3.436,10.586,10.586,0,0,1,0,8.4A10.765,10.765,0,0,1,21.2,20.679,11.091,11.091,0,0,1,17.669,23a11.424,11.424,0,0,1-8.662,0,11.091,11.091,0,0,1-3.531-2.323A10.765,10.765,0,0,1,3.1,17.242a10.586,10.586,0,0,1,0-8.4A10.765,10.765,0,0,1,5.475,5.408,11.091,11.091,0,0,1,9.006,3.085,11.293,11.293,0,0,1,13.337,2.232Z" transform="translate(438.738 200.321) rotate(-136.65)" fill="#32098b"/>
    <path id="Caminho_40" data-name="Caminho 40" d="M355.7,555.97a6.756,6.756,0,0,0-.941-.044v-.066a9.862,9.862,0,0,0-9.884,9.289,10.443,10.443,0,0,0,9.451,11.024,6.782,6.782,0,0,0,.94.044,9.87,9.87,0,0,0,9.892-9.223A10.465,10.465,0,0,0,355.7,555.97Zm-9.062,9.267a8.084,8.084,0,0,1,8.121-7.577v.037h.779a8.679,8.679,0,0,1,7.848,9.186,8.084,8.084,0,0,1-8.121,7.5h-.778A8.68,8.68,0,0,1,346.635,565.238Z" transform="translate(82.982 -384.36)" fill="#fff"/>
    <path id="Caminho_41" data-name="Caminho 41" d="M339.971,571.324l.2-2.223-6.409-.588-.2,2.223Z" transform="translate(116.384 -386.836)" fill="#32098b"/>
    <path id="Caminho_42" data-name="Caminho 42" d="M314.927,559.3q-.486-.045-.97-.044v.066a10.1,10.1,0,0,0-10.127,9.451,10.707,10.707,0,0,0,9.686,11.31,7.053,7.053,0,0,0,.963.044,10.113,10.113,0,0,0,10.134-9.451A10.7,10.7,0,0,0,314.927,559.3Zm-9.333,9.561a8.3,8.3,0,0,1,8.363-7.8v-.037a7.325,7.325,0,0,1,.808.037,8.936,8.936,0,0,1,8.084,9.421,8.313,8.313,0,0,1-8.37,7.805h-.8A8.936,8.936,0,0,1,305.594,568.856Z" transform="translate(154.294 -385.208)" fill="#fff"/>
    <path id="Caminho_43" data-name="Caminho 43" d="M271.917,659.838a28.642,28.642,0,0,0,4.647-6.585,44.158,44.158,0,0,0,3.513-9.423l-2.162-.556a41.929,41.929,0,0,1-3.33,8.945,26.421,26.421,0,0,1-4.28,6.074Z" transform="translate(223.31 -406.05)" fill="#32098b"/>
    <path id="Caminho_44" data-name="Caminho 44" d="M328.11,653.713l2.175-.5-3.564-15.425-3.873-16.626-2.174.507,3.872,16.624Z" transform="translate(135.327 -400.535)" fill="#32098b"/>
    <ellipse id="Elipse_8" data-name="Elipse 8" cx="12.42" cy="10.979" rx="12.42" ry="10.979" transform="matrix(-0.2, -0.98, 0.98, -0.2, 452.433, 326.517)" fill="#d1b1ff"/>
    <path id="Caminho_45" data-name="Caminho 45" d="M628.358,889.766H574.583l6.261,34.986a5.205,5.205,0,0,0,5.126,4.292h31.525a5.208,5.208,0,0,0,5.138-4.358ZM577.25,892h48.48l-5.3,32.325a2.977,2.977,0,0,1-2.936,2.489H585.97a2.975,2.975,0,0,1-2.929-2.454Z" transform="translate(-353.292 -467.179)" fill="#9c7be5"/>
    <path id="Caminho_46" data-name="Caminho 46" d="M572.614,889.278H627a5.217,5.217,0,0,0,5.189-4.675v-.01A5.209,5.209,0,0,0,627,878.888H572.616a5.21,5.21,0,0,0-5.192,5.593v.011a5.217,5.217,0,0,0,5.189,4.786Zm57.353-4.9A2.978,2.978,0,0,1,627,887.045H572.618a2.963,2.963,0,1,1,0-5.925H627a2.977,2.977,0,0,1,2.966,3.256Z" transform="translate(-351.645 -464.458)" fill="#9c7be5"/>
    <path id="Caminho_47" data-name="Caminho 47" d="M595.38,857.491h2.232a25.026,25.026,0,0,0-.316-2.53c-.466-3.2-1.333-9.146-1.705-16.29a97.6,97.6,0,0,1,1.266-23.278,47.842,47.842,0,0,1,4.942-14.351,30.392,30.392,0,0,1,4.214-5.854,25.716,25.716,0,0,1,5.609-4.565l-1.149-1.914c-8.087,4.854-13.406,13.69-15.808,26.263a99.805,99.805,0,0,0-1.3,23.815c.378,7.248,1.254,13.264,1.726,16.5C595.237,856.308,595.378,857.277,595.38,857.491Z" transform="translate(-350.045 -442.003)" fill="#9c7be5"/>
    <path id="Caminho_48" data-name="Caminho 48" d="M624.927,818.462l2.227-.155a23.419,23.419,0,0,0-2.177-7.781,16.316,16.316,0,0,0-4.366-5.66,14.287,14.287,0,0,0-8.01-3.087L612.423,804a12.1,12.1,0,0,1,6.784,2.6,14.11,14.11,0,0,1,3.761,4.9A21.363,21.363,0,0,1,624.927,818.462Z" transform="translate(-380.34 -445.176)" fill="#9c7be5"/>
    <path id="Caminho_49" data-name="Caminho 49" d="M626.85,852.765l1.281-1.828a20.729,20.729,0,0,0-12.894-3.728l.108,2.23a18.5,18.5,0,0,1,11.505,3.327Z" transform="translate(-383.135 -456.529)" fill="#9c7be5"/>
    <path id="Caminho_50" data-name="Caminho 50" d="M585.588,838.182a12.76,12.76,0,0,1,1.574-1.465,17.24,17.24,0,0,1,4.445-2.578,15.891,15.891,0,0,1,6.931-1.055,21.322,21.322,0,0,1,9.269,3.09l1.129-1.926a23.484,23.484,0,0,0-10.318-3.4,18.1,18.1,0,0,0-7.928,1.249,18.4,18.4,0,0,0-6.806,4.638l1.705,1.44Z" transform="translate(-340.381 -452.435)" fill="#9c7be5"/>
    <path id="Caminho_51" data-name="Caminho 51" d="M591.894,840.7h0a14.394,14.394,0,0,0,7.406-1.85l.607-.395-.113-.715a30.291,30.291,0,0,0-1.749-6.632,14.911,14.911,0,0,0-2.665-4.41,9.313,9.313,0,0,0-7.169-3.168,15.324,15.324,0,0,0-5.431,1.114,27.563,27.563,0,0,0-4.7,2.383,35.111,35.111,0,0,0-4.647,3.45l-.671.613.464.781a9.272,9.272,0,0,0,2.179,2.2,39.707,39.707,0,0,0,8.546,4.863A19.648,19.648,0,0,0,591.894,840.7Zm5.564-3.392a10.793,10.793,0,0,1-1.029.417,13.865,13.865,0,0,1-4.534.743h0a17.431,17.431,0,0,1-7.039-1.574,39.266,39.266,0,0,1-8.057-4.568,13.32,13.32,0,0,1-1.03-.9A35.161,35.161,0,0,1,579.3,828.9a25.272,25.272,0,0,1,4.3-2.179,13.1,13.1,0,0,1,4.613-.958,7.514,7.514,0,0,1,2.9.55,7.334,7.334,0,0,1,2.611,1.885C595.465,830.118,596.718,833.181,597.458,837.311Z" transform="translate(-323.418 -450.614)" fill="#9c7be5"/>
    <path id="Caminho_52" data-name="Caminho 52" d="M632.724,808.142a35.393,35.393,0,0,0,11.7-2.191l.678-.239.062-.716a11.787,11.787,0,0,0-3.861-9.194,14.784,14.784,0,0,0-5.972-3.155,12.1,12.1,0,0,0-3.283-.468,11.69,11.69,0,0,0-5.806,1.582,16.9,16.9,0,0,0-4.139,3.383,22.5,22.5,0,0,0-3.375,4.868l-.324.676.5.556a13.438,13.438,0,0,0,3.465,2.5,19.79,19.79,0,0,0,4.289,1.651A24.118,24.118,0,0,0,632.724,808.142Zm10.217-4.041a32.563,32.563,0,0,1-10.217,1.809,21.933,21.933,0,0,1-5.419-.652,17.638,17.638,0,0,1-3.782-1.43,13.623,13.623,0,0,1-2.391-1.566A21.263,21.263,0,0,1,623.8,798.6a14.626,14.626,0,0,1,3.575-2.915,9.48,9.48,0,0,1,4.68-1.278,9.863,9.863,0,0,1,2.676.384,12.624,12.624,0,0,1,5.035,2.621,9.355,9.355,0,0,1,2.374,3.274A9.989,9.989,0,0,1,642.941,804.1Z" transform="translate(-402.861 -442.772)" fill="#9c7be5"/>
    <path id="Caminho_53" data-name="Caminho 53" d="M634.755,853.95a20.117,20.117,0,0,0,6.4-.938,11.566,11.566,0,0,0,6.8-5.6l-1.971-1.048a9,9,0,0,1-2.362,2.852,10.444,10.444,0,0,1-3.159,1.677,19.719,19.719,0,0,1-7.614.76,40.359,40.359,0,0,1-8.768-1.7,14.359,14.359,0,0,1,1.954-3.771,13.825,13.825,0,0,1,3.712-3.523,16.209,16.209,0,0,1,6.369-2.328,13.9,13.9,0,0,1,5.121.021,6.165,6.165,0,0,1,2.786,1.359,5.439,5.439,0,0,1,1.634,2.777,5.921,5.921,0,0,1,.2,1.458l2.231.088a8.168,8.168,0,0,0-2.575-5.988,8.363,8.363,0,0,0-3.778-1.87,16.08,16.08,0,0,0-5.956-.05,18.4,18.4,0,0,0-7.3,2.7,16.059,16.059,0,0,0-4.313,4.14,15.448,15.448,0,0,0-2.541,5.5l-.179.932.891.327a41.889,41.889,0,0,0,10.315,2.149Q633.73,853.95,634.755,853.95Z" transform="translate(-408.036 -454.201)" fill="#9c7be5"/>
    <path id="Caminho_54" data-name="Caminho 54" d="M576.6,795.116a45.421,45.421,0,0,0,4.943-.493c.031,0,3.043-.433,3.715-.635h0a14.911,14.911,0,0,0,5.759-3.228,17.914,17.914,0,0,0,3.925-5.228v0l.11-.216c.42-.823,1.4-2.748,2.172-4.628a18.415,18.415,0,0,0,.921-2.735,5.3,5.3,0,0,0,.156-1.234,2.031,2.031,0,0,0-.44-1.329l-.334-.392h-.355a22.47,22.47,0,0,0-5.941-.8,18.135,18.135,0,0,0-5.211.725,14.01,14.01,0,0,0-5.292,2.907c-3.724,3.285-5.738,8.663-5.989,15.982v.038a1.245,1.245,0,0,0,1.1,1.214A4.007,4.007,0,0,0,576.6,795.116Zm7.99-3.257a70.958,70.958,0,0,1-7.572,1.015c.365-6.161,2.108-10.658,5.188-13.375a11.8,11.8,0,0,1,4.457-2.443,15.918,15.918,0,0,1,4.57-.631,20.769,20.769,0,0,1,4.82.582A13.51,13.51,0,0,1,595,780.232c-.707,1.669-1.565,3.35-1.931,4.068l-.112.221a13.651,13.651,0,0,1-8.334,7.329Z" transform="translate(-323.232 -438.274)" fill="#9c7be5"/>
  </g>
</svg>
