<svg xmlns="http://www.w3.org/2000/svg" xmlns:xlink="http://www.w3.org/1999/xlink" width="1920" height="652" viewBox="0 0 1920 652">
  <defs>
    <clipPath id="clip-path">
      <rect id="Retângulo_316" data-name="Retângulo 316" width="1920" height="652" transform="translate(0 -6)" fill="#fff" stroke="#707070" stroke-width="1"/>
    </clipPath>
  </defs>
  <g id="Grupo_de_máscara_3" data-name="Grupo de máscara 3" transform="translate(0 6)" clip-path="url(#clip-path)">
    <path id="União_6" data-name="União 6" d="M251.837,853.117c-24.46-34.03-40.952-72.912-56.951-111.582-21.3-51.542-45.689-99.63-76.543-146.081C64.462,514.459-4.254,426.283.206,323.471c1.638-37.725,14.563-77.541,43.141-103.63,31.127-28.362,73.54-30.362,113.495-30.816,48.056-.545,96.566-2.364,127.42-44.634,25.575-35,36.679-78.359,70.81-107.266C480.58-68.959,632.027,73.032,655.964,202.934c8.1,44.088,2,90.267-22.389,128.446-23.209,36.271-58.522,62.542-93.29,86.9-39.956,28-81.731,55.359-110.31,95.812-13.743,19.544-23.937,42-26.394,65.9-2.639,26.452,4.187,52.451,14.927,76.45,4.166,9.278,8.848,18.3,13.785,27.185q2.941,4.189,5.7,8.455a394.267,394.267,0,0,1,21.861,38.853c10.774,18.937,20.6,38.346,26.919,59.5q.392,1.309.763,2.624c16.54,39.1,33.3,78.048,59.111,112.146,45.645,60.32,116.467,94.736,163.814,153.3,38.141,47.344-368.635,207.748-368.635,207.748S291.535,984.784,251.837,853.117Z" transform="translate(1594.46 684.594) rotate(-124)" fill="none" stroke="#fff" stroke-width="2"/>
    <g id="Grupo_3" data-name="Grupo 3" transform="translate(11.445 -105.003)">
      <path id="_24" data-name="24" d="M307.359,1.478A59.081,59.081,0,0,1,347.651,34.1c12.193,26.456-2.253,46.1-14.181,67.572-12.061,21.767-14.579,54.985-13.917,79.912.707,27.789,2.342,56.219-5.346,83.12-11.752,40.869-45.372,60.366-76.916,79.665-16.832,10.267-33.576,21.224-46.963,36.772-13.784,16.042-24.034,35.341-37.376,51.826-12.238,15.1-27.082,26.752-45.328,30.306-18.688,3.653-38.524-.79-55-11.106C16.218,429.318-.305,381,0,336.277c.353-53.85,21.471-103.554,42.147-150.939C60.176,143.976,75.683,96.3,115.665,75.812,135.988,65.4,158.343,61.4,179.018,51.972c22.355-10.217,42.235-25.913,64.06-37.414C262.827,4.192,285.4-3.31,307.359,1.478Z" transform="translate(493.168 -64.635) rotate(74)" fill="#5600ce"/>
      <path id="_24-2" data-name="24" d="M307.359,1.478A59.081,59.081,0,0,1,347.651,34.1c12.193,26.456-2.253,46.1-14.181,67.572-12.061,21.767-14.579,54.985-13.917,79.912.707,27.789,2.342,56.219-5.346,83.12-11.752,40.869-45.372,60.366-76.916,79.665-16.832,10.267-33.576,21.224-46.963,36.772-13.784,16.042-24.034,35.341-37.376,51.826-12.238,15.1-27.082,26.752-45.328,30.306-18.688,3.653-38.524-.79-55-11.106C16.218,429.318-.305,381,0,336.277c.353-53.85,21.471-103.554,42.147-150.939C60.176,143.976,75.683,96.3,115.665,75.812,135.988,65.4,158.343,61.4,179.018,51.972c22.355-10.217,42.235-25.913,64.06-37.414C262.827,4.192,285.4-3.31,307.359,1.478Z" transform="translate(506.129 -87.196) rotate(74)" fill="none" stroke="#fff" stroke-width="2" opacity="0.3"/>
      <g id="Grupo_1" data-name="Grupo 1" transform="translate(40 159)">
        <path id="_17" data-name="17" d="M352.783,0c62.256.845,115.9,44.041,142.344,98.38,64.716,132.967-13.6,273.466-98.688,375.305-56.107,67.175-119.9,128.586-166.478,203.294-26.67,42.734-61.8,118.518-122.9,103.53a107.272,107.272,0,0,1-75.169-37.2C-15.605,687.045-4,608.418,27.282,547.468,65.174,473.606,129.813,416.576,162.325,339.64c30.513-72.171,24.749-153.489,52.8-226.275C237.877,54.644,284.839-.848,352.783,0Z" transform="translate(563.212 602.911) rotate(120)" fill="#4206c4"/>
        <path id="_15" data-name="15" d="M.2,335.181c1.7-39.1,15.073-80.357,44.653-107.394,32.218-29.392,76.118-31.465,117.474-31.936,49.741-.565,99.952-2.449,131.888-46.255,26.472-36.269,37.965-81.205,73.292-111.163C497.421-71.5,654.179,75.645,678.955,210.264c8.384,45.69,2.073,93.546-23.175,133.112-24.022,37.588-60.574,64.813-96.561,90.061-41.356,29.015-84.6,57.371-114.177,99.293-14.225,20.254-24.776,43.523-27.32,68.3-2.732,27.414,4.333,54.357,15.45,79.227,21.29,47.48,55.581,88.365,70.654,138.859,12.152,40.6,9.8,87.046-22.986,117.474C453.9,961.554,414.426,970.6,378.722,965.416c-43.146-6.218-80.075-34.2-107.112-67.074-31.559-38.436-51.059-84.314-69.9-129.909-22.044-53.415-47.291-103.249-79.227-151.388C66.713,533.107-4.412,441.727.2,335.181Z" transform="translate(-377.887 -364.386)" fill="#4206c4"/>
      </g>
      <path id="União_1" data-name="União 1" d="M260.667,884.109c-25.318-35.266-42.388-75.561-58.947-115.636-22.045-53.414-47.291-103.249-79.227-151.388C66.722,533.148-4.4,441.769.213,335.222c1.7-39.1,15.073-80.357,44.654-107.394,32.218-29.392,76.118-31.465,117.474-31.936,49.741-.565,99.952-2.45,131.888-46.256,26.472-36.269,37.965-81.205,73.292-111.163C497.431-71.464,654.188,75.686,678.965,210.306c8.384,45.689,2.073,93.546-23.174,133.112-24.023,37.589-60.574,64.814-96.561,90.061-41.357,29.015-84.6,57.371-114.178,99.293-14.225,20.254-24.776,43.523-27.32,68.3-2.731,27.413,4.333,54.356,15.45,79.227,4.312,9.615,9.158,18.963,14.268,28.172q3.044,4.341,5.9,8.762a72.841,72.841,0,0,1,6.49,12.719c16.91,28.629,34.375,56.96,44,89.205,12.153,40.6,9.8,87.046-22.986,117.474a108.085,108.085,0,0,1-30.675,19.789c.877,22.524,5.516,42.39,16.912,57.461,47.246,62.511-49.008,101.249,0,161.938,39.478,49.062-113.279,136.437-113.279,136.437S301.757,1020.559,260.667,884.109Z" transform="translate(-333.307 -184.831)" fill="none" stroke="#fff" stroke-width="2" opacity="0.3"/>
      <path id="_16" data-name="16" d="M255.963,113.912c1.378-16.67,4.291-33.263,3.849-50.037-.6-23.328-9.675-49.777-32.769-59.53C198.2-7.827,167.929,8.974,139.035,11.522,108.711,14.2,79.687-3.432,49.415,3.356,23.695,9.13-1.428,33.212.028,61.144c.728,14.07,9.857,24.525,16.983,35.942a76.184,76.184,0,0,1,11.365,45.746c-.962,13.238-6.762,28.218.286,40.753,5.774,10.351,18.075,14.85,29.206,16.384,15.11,2.107,30.454.182,45.59,1.716,15.734,1.586,28.192,8.686,40.935,17.5,11.469,7.932,23.016,15.318,37.06,17.425a64.494,64.494,0,0,0,66.162-32.119c7.282-12.717,9.232-27.1,9.024-41.559C256.431,146.551,254.61,130.348,255.963,113.912Z" transform="matrix(-0.242, 0.97, -0.97, -0.242, 132.626, 499.487)" fill="#5f00e6"/>
      <g id="Grupo_2" data-name="Grupo 2" transform="translate(40 159)">
        <path id="_17-2" data-name="17" d="M352.783,0c62.256.845,115.9,44.041,142.344,98.38,64.716,132.967-13.6,273.466-98.688,375.305-56.107,67.175-119.9,128.586-166.478,203.294-26.67,42.734-61.8,118.518-122.9,103.53a107.272,107.272,0,0,1-75.169-37.2C-15.605,687.045-4,608.418,27.282,547.468,65.174,473.606,129.813,416.576,162.325,339.64c30.513-72.171,24.749-153.489,52.8-226.275C237.877,54.644,284.839-.848,352.783,0Z" transform="translate(563.212 602.911) rotate(120)" fill="none"/>
        <path id="_15-2" data-name="15" d="M.2,335.181c1.7-39.1,15.073-80.357,44.653-107.394,32.218-29.392,76.118-31.465,117.474-31.936,49.741-.565,99.952-2.449,131.888-46.255,26.472-36.269,37.965-81.205,73.292-111.163C497.421-71.5,654.179,75.645,678.955,210.264c8.384,45.69,2.073,93.546-23.175,133.112-24.022,37.588-60.574,64.813-96.561,90.061-41.356,29.015-84.6,57.371-114.177,99.293-14.225,20.254-24.776,43.523-27.32,68.3-2.732,27.414,4.333,54.357,15.45,79.227,21.29,47.48,55.581,88.365,70.654,138.859,12.152,40.6,9.8,87.046-22.986,117.474C453.9,961.554,414.426,970.6,378.722,965.416c-43.146-6.218-80.075-34.2-107.112-67.074-31.559-38.436-51.059-84.314-69.9-129.909-22.044-53.415-47.291-103.249-79.227-151.388C66.713,533.107-4.412,441.727.2,335.181Z" transform="translate(-377.887 -364.386)" fill="none"/>
      </g>
    </g>
  </g>
</svg>
